<?xml version="1.0" encoding="utf-8" standalone="no"?>
<!DOCTYPE svg PUBLIC "-//W3C//DTD SVG 1.1//EN"
  "http://www.w3.org/Graphics/SVG/1.1/DTD/svg11.dtd">
<svg xmlns:xlink="http://www.w3.org/1999/xlink" width="216pt" height="216pt" viewBox="0 0 216 216" xmlns="http://www.w3.org/2000/svg" version="1.1">
 <metadata>
  <rdf:RDF xmlns:dc="http://purl.org/dc/elements/1.1/" xmlns:cc="http://creativecommons.org/ns#" xmlns:rdf="http://www.w3.org/1999/02/22-rdf-syntax-ns#">
   <cc:Work>
    <dc:type rdf:resource="http://purl.org/dc/dcmitype/StillImage"/>
    <dc:date>2025-06-10T13:13:17.221409</dc:date>
    <dc:format>image/svg+xml</dc:format>
    <dc:creator>
     <cc:Agent>
      <dc:title>Matplotlib v3.10.0, https://matplotlib.org/</dc:title>
     </cc:Agent>
    </dc:creator>
   </cc:Work>
  </rdf:RDF>
 </metadata>
 <defs>
  <style type="text/css">*{stroke-linejoin: round; stroke-linecap: butt}</style>
 </defs>
 <g id="figure_1">
  <g id="patch_1">
   <path d="M 0 216 
L 216 216 
L 216 0 
L 0 0 
z
" style="fill: #ffffff"/>
  </g>
  <g id="axes_1">
   <g id="patch_2">
    <path d="M 59.24 174.04 
L 205.2 174.04 
L 205.2 14.76 
L 59.24 14.76 
z
" style="fill: #ffffff"/>
   </g>
   <g id="PathCollection_1">
    <defs>
     <path id="m833930a1e7" d="M 0 1.224745 
C 0.324806 1.224745 0.636353 1.095698 0.866025 0.866025 
C 1.095698 0.636353 1.224745 0.324806 1.224745 0 
C 1.224745 -0.324806 1.095698 -0.636353 0.866025 -0.866025 
C 0.636353 -1.095698 0.324806 -1.224745 0 -1.224745 
C -0.324806 -1.224745 -0.636353 -1.095698 -0.866025 -0.866025 
C -1.095698 -0.636353 -1.224745 -0.324806 -1.224745 0 
C -1.224745 0.324806 -1.095698 0.636353 -0.866025 0.866025 
C -0.636353 1.095698 -0.324806 1.224745 0 1.224745 
z
" style="stroke: #000000; stroke-opacity: 0.8"/>
    </defs>
    <g clip-path="url(#p775685ee47)">
     <use xlink:href="#m833930a1e7" x="93.988119" y="120.888194" style="fill-opacity: 0.8; stroke: #000000; stroke-opacity: 0.8"/>
     <use xlink:href="#m833930a1e7" x="99.327699" y="110.592371" style="fill-opacity: 0.8; stroke: #000000; stroke-opacity: 0.8"/>
     <use xlink:href="#m833930a1e7" x="97.300751" y="114.404108" style="fill-opacity: 0.8; stroke: #000000; stroke-opacity: 0.8"/>
     <use xlink:href="#m833930a1e7" x="96.065092" y="118.403852" style="fill-opacity: 0.8; stroke: #000000; stroke-opacity: 0.8"/>
     <use xlink:href="#m833930a1e7" x="91.963015" y="123.146252" style="fill-opacity: 0.8; stroke: #000000; stroke-opacity: 0.8"/>
     <use xlink:href="#m833930a1e7" x="91.962791" y="123.76937" style="fill-opacity: 0.8; stroke: #000000; stroke-opacity: 0.8"/>
     <use xlink:href="#m833930a1e7" x="91.055421" y="125.820911" style="fill-opacity: 0.8; stroke: #000000; stroke-opacity: 0.8"/>
     <use xlink:href="#m833930a1e7" x="98.544258" y="113.741096" style="fill-opacity: 0.8; stroke: #000000; stroke-opacity: 0.8"/>
     <use xlink:href="#m833930a1e7" x="96.087857" y="114.266211" style="fill-opacity: 0.8; stroke: #000000; stroke-opacity: 0.8"/>
     <use xlink:href="#m833930a1e7" x="97.079065" y="116.964043" style="fill-opacity: 0.8; stroke: #000000; stroke-opacity: 0.8"/>
     <use xlink:href="#m833930a1e7" x="90.707906" y="126.980813" style="fill-opacity: 0.8; stroke: #000000; stroke-opacity: 0.8"/>
     <use xlink:href="#m833930a1e7" x="99.50559" y="107.314667" style="fill-opacity: 0.8; stroke: #000000; stroke-opacity: 0.8"/>
     <use xlink:href="#m833930a1e7" x="98.23164" y="114.373293" style="fill-opacity: 0.8; stroke: #000000; stroke-opacity: 0.8"/>
     <use xlink:href="#m833930a1e7" x="92.484953" y="124.694985" style="fill-opacity: 0.8; stroke: #000000; stroke-opacity: 0.8"/>
     <use xlink:href="#m833930a1e7" x="92.20217" y="124.266285" style="fill-opacity: 0.8; stroke: #000000; stroke-opacity: 0.8"/>
     <use xlink:href="#m833930a1e7" x="92.216808" y="125.194009" style="fill-opacity: 0.8; stroke: #000000; stroke-opacity: 0.8"/>
     <use xlink:href="#m833930a1e7" x="102.603949" y="109.040272" style="fill-opacity: 0.8; stroke: #000000; stroke-opacity: 0.8"/>
     <use xlink:href="#m833930a1e7" x="104.647521" y="104.111664" style="fill-opacity: 0.8; stroke: #000000; stroke-opacity: 0.8"/>
     <use xlink:href="#m833930a1e7" x="103.787409" y="106.86095" style="fill-opacity: 0.8; stroke: #000000; stroke-opacity: 0.8"/>
     <use xlink:href="#m833930a1e7" x="102.483353" y="105.965317" style="fill-opacity: 0.8; stroke: #000000; stroke-opacity: 0.8"/>
     <use xlink:href="#m833930a1e7" x="105.45467" y="104.847851" style="fill-opacity: 0.8; stroke: #000000; stroke-opacity: 0.8"/>
     <use xlink:href="#m833930a1e7" x="101.077176" y="106.08257" style="fill-opacity: 0.8; stroke: #000000; stroke-opacity: 0.8"/>
     <use xlink:href="#m833930a1e7" x="102.491837" y="107.956679" style="fill-opacity: 0.8; stroke: #000000; stroke-opacity: 0.8"/>
     <use xlink:href="#m833930a1e7" x="103.17963" y="106.387353" style="fill-opacity: 0.8; stroke: #000000; stroke-opacity: 0.8"/>
     <use xlink:href="#m833930a1e7" x="104.010983" y="103.621098" style="fill-opacity: 0.8; stroke: #000000; stroke-opacity: 0.8"/>
     <use xlink:href="#m833930a1e7" x="107.060907" y="103.8217" style="fill-opacity: 0.8; stroke: #000000; stroke-opacity: 0.8"/>
     <use xlink:href="#m833930a1e7" x="101.634882" y="107.442276" style="fill-opacity: 0.8; stroke: #000000; stroke-opacity: 0.8"/>
     <use xlink:href="#m833930a1e7" x="104.55001" y="102.243418" style="fill-opacity: 0.8; stroke: #000000; stroke-opacity: 0.8"/>
     <use xlink:href="#m833930a1e7" x="105.274529" y="106.1264" style="fill-opacity: 0.8; stroke: #000000; stroke-opacity: 0.8"/>
     <use xlink:href="#m833930a1e7" x="100.214914" y="109.465501" style="fill-opacity: 0.8; stroke: #000000; stroke-opacity: 0.8"/>
     <use xlink:href="#m833930a1e7" x="105.414746" y="103.00971" style="fill-opacity: 0.8; stroke: #000000; stroke-opacity: 0.8"/>
     <use xlink:href="#m833930a1e7" x="101.364743" y="106.917615" style="fill-opacity: 0.8; stroke: #000000; stroke-opacity: 0.8"/>
     <use xlink:href="#m833930a1e7" x="109.654599" y="101.753554" style="fill-opacity: 0.8; stroke: #000000; stroke-opacity: 0.8"/>
     <use xlink:href="#m833930a1e7" x="117.845354" y="97.894822" style="fill-opacity: 0.8; stroke: #000000; stroke-opacity: 0.8"/>
     <use xlink:href="#m833930a1e7" x="118.000549" y="94.915662" style="fill-opacity: 0.8; stroke: #000000; stroke-opacity: 0.8"/>
     <use xlink:href="#m833930a1e7" x="116.543408" y="95.731964" style="fill-opacity: 0.8; stroke: #000000; stroke-opacity: 0.8"/>
     <use xlink:href="#m833930a1e7" x="111.874694" y="97.946635" style="fill-opacity: 0.8; stroke: #000000; stroke-opacity: 0.8"/>
     <use xlink:href="#m833930a1e7" x="109.956903" y="99.018043" style="fill-opacity: 0.8; stroke: #000000; stroke-opacity: 0.8"/>
     <use xlink:href="#m833930a1e7" x="115.39274" y="97.715496" style="fill-opacity: 0.8; stroke: #000000; stroke-opacity: 0.8"/>
     <use xlink:href="#m833930a1e7" x="113.130772" y="97.289091" style="fill-opacity: 0.8; stroke: #000000; stroke-opacity: 0.8"/>
     <use xlink:href="#m833930a1e7" x="110.182711" y="98.947341" style="fill-opacity: 0.8; stroke: #000000; stroke-opacity: 0.8"/>
     <use xlink:href="#m833930a1e7" x="113.6407" y="98.542584" style="fill-opacity: 0.8; stroke: #000000; stroke-opacity: 0.8"/>
     <use xlink:href="#m833930a1e7" x="109.370435" y="97.017481" style="fill-opacity: 0.8; stroke: #000000; stroke-opacity: 0.8"/>
     <use xlink:href="#m833930a1e7" x="117.478692" y="95.146106" style="fill-opacity: 0.8; stroke: #000000; stroke-opacity: 0.8"/>
     <use xlink:href="#m833930a1e7" x="111.449938" y="100.495445" style="fill-opacity: 0.8; stroke: #000000; stroke-opacity: 0.8"/>
     <use xlink:href="#m833930a1e7" x="115.19154" y="95.66763" style="fill-opacity: 0.8; stroke: #000000; stroke-opacity: 0.8"/>
     <use xlink:href="#m833930a1e7" x="111.940467" y="99.85995" style="fill-opacity: 0.8; stroke: #000000; stroke-opacity: 0.8"/>
     <use xlink:href="#m833930a1e7" x="113.871373" y="96.040563" style="fill-opacity: 0.8; stroke: #000000; stroke-opacity: 0.8"/>
     <use xlink:href="#m833930a1e7" x="123.385577" y="92.87763" style="fill-opacity: 0.8; stroke: #000000; stroke-opacity: 0.8"/>
     <use xlink:href="#m833930a1e7" x="120.03215" y="96.555394" style="fill-opacity: 0.8; stroke: #000000; stroke-opacity: 0.8"/>
     <use xlink:href="#m833930a1e7" x="127.304481" y="92.92118" style="fill-opacity: 0.8; stroke: #000000; stroke-opacity: 0.8"/>
     <use xlink:href="#m833930a1e7" x="125.502437" y="93.884545" style="fill-opacity: 0.8; stroke: #000000; stroke-opacity: 0.8"/>
     <use xlink:href="#m833930a1e7" x="127.025668" y="93.156284" style="fill-opacity: 0.8; stroke: #000000; stroke-opacity: 0.8"/>
     <use xlink:href="#m833930a1e7" x="126.611683" y="91.461434" style="fill-opacity: 0.8; stroke: #000000; stroke-opacity: 0.8"/>
     <use xlink:href="#m833930a1e7" x="123.859967" y="95.064599" style="fill-opacity: 0.8; stroke: #000000; stroke-opacity: 0.8"/>
     <use xlink:href="#m833930a1e7" x="126.862334" y="95.672604" style="fill-opacity: 0.8; stroke: #000000; stroke-opacity: 0.8"/>
     <use xlink:href="#m833930a1e7" x="119.139134" y="96.865472" style="fill-opacity: 0.8; stroke: #000000; stroke-opacity: 0.8"/>
     <use xlink:href="#m833930a1e7" x="120.13528" y="96.526283" style="fill-opacity: 0.8; stroke: #000000; stroke-opacity: 0.8"/>
     <use xlink:href="#m833930a1e7" x="118.738183" y="95.670876" style="fill-opacity: 0.8; stroke: #000000; stroke-opacity: 0.8"/>
     <use xlink:href="#m833930a1e7" x="121.333982" y="94.46102" style="fill-opacity: 0.8; stroke: #000000; stroke-opacity: 0.8"/>
     <use xlink:href="#m833930a1e7" x="121.921037" y="94.47109" style="fill-opacity: 0.8; stroke: #000000; stroke-opacity: 0.8"/>
     <use xlink:href="#m833930a1e7" x="120.833721" y="93.774083" style="fill-opacity: 0.8; stroke: #000000; stroke-opacity: 0.8"/>
     <use xlink:href="#m833930a1e7" x="125.999208" y="94.492078" style="fill-opacity: 0.8; stroke: #000000; stroke-opacity: 0.8"/>
     <use xlink:href="#m833930a1e7" x="121.625188" y="92.642" style="fill-opacity: 0.8; stroke: #000000; stroke-opacity: 0.8"/>
     <use xlink:href="#m833930a1e7" x="130.189854" y="94.825466" style="fill-opacity: 0.8; stroke: #000000; stroke-opacity: 0.8"/>
     <use xlink:href="#m833930a1e7" x="132.615677" y="90.067286" style="fill-opacity: 0.8; stroke: #000000; stroke-opacity: 0.8"/>
     <use xlink:href="#m833930a1e7" x="128.892337" y="93.420701" style="fill-opacity: 0.8; stroke: #000000; stroke-opacity: 0.8"/>
     <use xlink:href="#m833930a1e7" x="135.020551" y="95.75499" style="fill-opacity: 0.8; stroke: #000000; stroke-opacity: 0.8"/>
     <use xlink:href="#m833930a1e7" x="128.277233" y="96.134434" style="fill-opacity: 0.8; stroke: #000000; stroke-opacity: 0.8"/>
     <use xlink:href="#m833930a1e7" x="136.732128" y="93.588478" style="fill-opacity: 0.8; stroke: #000000; stroke-opacity: 0.8"/>
     <use xlink:href="#m833930a1e7" x="134.742974" y="94.748407" style="fill-opacity: 0.8; stroke: #000000; stroke-opacity: 0.8"/>
     <use xlink:href="#m833930a1e7" x="129.427907" y="93.272938" style="fill-opacity: 0.8; stroke: #000000; stroke-opacity: 0.8"/>
     <use xlink:href="#m833930a1e7" x="127.637524" y="93.691311" style="fill-opacity: 0.8; stroke: #000000; stroke-opacity: 0.8"/>
     <use xlink:href="#m833930a1e7" x="135.143476" y="94.504296" style="fill-opacity: 0.8; stroke: #000000; stroke-opacity: 0.8"/>
     <use xlink:href="#m833930a1e7" x="134.137009" y="95.745472" style="fill-opacity: 0.8; stroke: #000000; stroke-opacity: 0.8"/>
     <use xlink:href="#m833930a1e7" x="134.342278" y="96.80837" style="fill-opacity: 0.8; stroke: #000000; stroke-opacity: 0.8"/>
     <use xlink:href="#m833930a1e7" x="134.733944" y="95.103765" style="fill-opacity: 0.8; stroke: #000000; stroke-opacity: 0.8"/>
     <use xlink:href="#m833930a1e7" x="128.272543" y="93.064747" style="fill-opacity: 0.8; stroke: #000000; stroke-opacity: 0.8"/>
     <use xlink:href="#m833930a1e7" x="130.908359" y="94.060049" style="fill-opacity: 0.8; stroke: #000000; stroke-opacity: 0.8"/>
     <use xlink:href="#m833930a1e7" x="128.660143" y="96.405349" style="fill-opacity: 0.8; stroke: #000000; stroke-opacity: 0.8"/>
     <use xlink:href="#m833930a1e7" x="144.852291" y="93.179729" style="fill-opacity: 0.8; stroke: #000000; stroke-opacity: 0.8"/>
     <use xlink:href="#m833930a1e7" x="142.629943" y="93.257739" style="fill-opacity: 0.8; stroke: #000000; stroke-opacity: 0.8"/>
     <use xlink:href="#m833930a1e7" x="139.920183" y="95.593901" style="fill-opacity: 0.8; stroke: #000000; stroke-opacity: 0.8"/>
     <use xlink:href="#m833930a1e7" x="137.442665" y="94.088405" style="fill-opacity: 0.8; stroke: #000000; stroke-opacity: 0.8"/>
     <use xlink:href="#m833930a1e7" x="139.735618" y="94.108393" style="fill-opacity: 0.8; stroke: #000000; stroke-opacity: 0.8"/>
     <use xlink:href="#m833930a1e7" x="139.867223" y="96.010999" style="fill-opacity: 0.8; stroke: #000000; stroke-opacity: 0.8"/>
     <use xlink:href="#m833930a1e7" x="143.615131" y="93.136881" style="fill-opacity: 0.8; stroke: #000000; stroke-opacity: 0.8"/>
     <use xlink:href="#m833930a1e7" x="142.762088" y="92.957871" style="fill-opacity: 0.8; stroke: #000000; stroke-opacity: 0.8"/>
     <use xlink:href="#m833930a1e7" x="145.075719" y="91.679484" style="fill-opacity: 0.8; stroke: #000000; stroke-opacity: 0.8"/>
     <use xlink:href="#m833930a1e7" x="141.229809" y="92.378839" style="fill-opacity: 0.8; stroke: #000000; stroke-opacity: 0.8"/>
     <use xlink:href="#m833930a1e7" x="137.961967" y="96.505656" style="fill-opacity: 0.8; stroke: #000000; stroke-opacity: 0.8"/>
     <use xlink:href="#m833930a1e7" x="143.463505" y="95.227839" style="fill-opacity: 0.8; stroke: #000000; stroke-opacity: 0.8"/>
     <use xlink:href="#m833930a1e7" x="143.904075" y="92.832334" style="fill-opacity: 0.8; stroke: #000000; stroke-opacity: 0.8"/>
     <use xlink:href="#m833930a1e7" x="142.055176" y="93.135915" style="fill-opacity: 0.8; stroke: #000000; stroke-opacity: 0.8"/>
     <use xlink:href="#m833930a1e7" x="143.998436" y="92.814061" style="fill-opacity: 0.8; stroke: #000000; stroke-opacity: 0.8"/>
     <use xlink:href="#m833930a1e7" x="141.429804" y="87.897376" style="fill-opacity: 0.8; stroke: #000000; stroke-opacity: 0.8"/>
     <use xlink:href="#m833930a1e7" x="150.965275" y="90.404671" style="fill-opacity: 0.8; stroke: #000000; stroke-opacity: 0.8"/>
     <use xlink:href="#m833930a1e7" x="150.083104" y="89.920767" style="fill-opacity: 0.8; stroke: #000000; stroke-opacity: 0.8"/>
     <use xlink:href="#m833930a1e7" x="146.356519" y="91.556887" style="fill-opacity: 0.8; stroke: #000000; stroke-opacity: 0.8"/>
     <use xlink:href="#m833930a1e7" x="147.120815" y="91.812389" style="fill-opacity: 0.8; stroke: #000000; stroke-opacity: 0.8"/>
     <use xlink:href="#m833930a1e7" x="146.412216" y="93.562875" style="fill-opacity: 0.8; stroke: #000000; stroke-opacity: 0.8"/>
     <use xlink:href="#m833930a1e7" x="152.01876" y="89.555008" style="fill-opacity: 0.8; stroke: #000000; stroke-opacity: 0.8"/>
     <use xlink:href="#m833930a1e7" x="149.034184" y="93.403804" style="fill-opacity: 0.8; stroke: #000000; stroke-opacity: 0.8"/>
     <use xlink:href="#m833930a1e7" x="150.83403" y="91.755557" style="fill-opacity: 0.8; stroke: #000000; stroke-opacity: 0.8"/>
     <use xlink:href="#m833930a1e7" x="154.531645" y="89.969327" style="fill-opacity: 0.8; stroke: #000000; stroke-opacity: 0.8"/>
     <use xlink:href="#m833930a1e7" x="148.431219" y="92.27355" style="fill-opacity: 0.8; stroke: #000000; stroke-opacity: 0.8"/>
     <use xlink:href="#m833930a1e7" x="149.924095" y="88.113389" style="fill-opacity: 0.8; stroke: #000000; stroke-opacity: 0.8"/>
     <use xlink:href="#m833930a1e7" x="153.122873" y="93.095198" style="fill-opacity: 0.8; stroke: #000000; stroke-opacity: 0.8"/>
     <use xlink:href="#m833930a1e7" x="148.241294" y="91.380219" style="fill-opacity: 0.8; stroke: #000000; stroke-opacity: 0.8"/>
     <use xlink:href="#m833930a1e7" x="146.834348" y="95.506352" style="fill-opacity: 0.8; stroke: #000000; stroke-opacity: 0.8"/>
     <use xlink:href="#m833930a1e7" x="148.806166" y="93.013925" style="fill-opacity: 0.8; stroke: #000000; stroke-opacity: 0.8"/>
     <use xlink:href="#m833930a1e7" x="147.615039" y="90.956036" style="fill-opacity: 0.8; stroke: #000000; stroke-opacity: 0.8"/>
     <use xlink:href="#m833930a1e7" x="164.004042" y="79.254079" style="fill-opacity: 0.8; stroke: #000000; stroke-opacity: 0.8"/>
     <use xlink:href="#m833930a1e7" x="162.877349" y="82.616863" style="fill-opacity: 0.8; stroke: #000000; stroke-opacity: 0.8"/>
     <use xlink:href="#m833930a1e7" x="161.258198" y="84.067537" style="fill-opacity: 0.8; stroke: #000000; stroke-opacity: 0.8"/>
     <use xlink:href="#m833930a1e7" x="163.464342" y="79.02739" style="fill-opacity: 0.8; stroke: #000000; stroke-opacity: 0.8"/>
     <use xlink:href="#m833930a1e7" x="162.836125" y="82.117944" style="fill-opacity: 0.8; stroke: #000000; stroke-opacity: 0.8"/>
     <use xlink:href="#m833930a1e7" x="157.117255" y="86.824581" style="fill-opacity: 0.8; stroke: #000000; stroke-opacity: 0.8"/>
     <use xlink:href="#m833930a1e7" x="163.659867" y="79.767303" style="fill-opacity: 0.8; stroke: #000000; stroke-opacity: 0.8"/>
     <use xlink:href="#m833930a1e7" x="160.386501" y="84.968482" style="fill-opacity: 0.8; stroke: #000000; stroke-opacity: 0.8"/>
     <use xlink:href="#m833930a1e7" x="162.871045" y="77.493683" style="fill-opacity: 0.8; stroke: #000000; stroke-opacity: 0.8"/>
     <use xlink:href="#m833930a1e7" x="163.692602" y="78.784657" style="fill-opacity: 0.8; stroke: #000000; stroke-opacity: 0.8"/>
     <use xlink:href="#m833930a1e7" x="158.335288" y="89.281019" style="fill-opacity: 0.8; stroke: #000000; stroke-opacity: 0.8"/>
     <use xlink:href="#m833930a1e7" x="156.408138" y="87.472766" style="fill-opacity: 0.8; stroke: #000000; stroke-opacity: 0.8"/>
     <use xlink:href="#m833930a1e7" x="157.500598" y="87.884291" style="fill-opacity: 0.8; stroke: #000000; stroke-opacity: 0.8"/>
     <use xlink:href="#m833930a1e7" x="159.346391" y="83.690372" style="fill-opacity: 0.8; stroke: #000000; stroke-opacity: 0.8"/>
     <use xlink:href="#m833930a1e7" x="162.969044" y="82.041064" style="fill-opacity: 0.8; stroke: #000000; stroke-opacity: 0.8"/>
     <use xlink:href="#m833930a1e7" x="163.364904" y="80.428611" style="fill-opacity: 0.8; stroke: #000000; stroke-opacity: 0.8"/>
     <use xlink:href="#m833930a1e7" x="164.719983" y="77.512476" style="fill-opacity: 0.8; stroke: #000000; stroke-opacity: 0.8"/>
     <use xlink:href="#m833930a1e7" x="169.388805" y="68.963091" style="fill-opacity: 0.8; stroke: #000000; stroke-opacity: 0.8"/>
     <use xlink:href="#m833930a1e7" x="168.523829" y="73.894711" style="fill-opacity: 0.8; stroke: #000000; stroke-opacity: 0.8"/>
     <use xlink:href="#m833930a1e7" x="166.713896" y="75.704123" style="fill-opacity: 0.8; stroke: #000000; stroke-opacity: 0.8"/>
     <use xlink:href="#m833930a1e7" x="165.766384" y="77.469269" style="fill-opacity: 0.8; stroke: #000000; stroke-opacity: 0.8"/>
     <use xlink:href="#m833930a1e7" x="167.784337" y="74.365666" style="fill-opacity: 0.8; stroke: #000000; stroke-opacity: 0.8"/>
     <use xlink:href="#m833930a1e7" x="173.393784" y="58.885188" style="fill-opacity: 0.8; stroke: #000000; stroke-opacity: 0.8"/>
     <use xlink:href="#m833930a1e7" x="167.650775" y="72.91654" style="fill-opacity: 0.8; stroke: #000000; stroke-opacity: 0.8"/>
     <use xlink:href="#m833930a1e7" x="169.463345" y="72.205371" style="fill-opacity: 0.8; stroke: #000000; stroke-opacity: 0.8"/>
     <use xlink:href="#m833930a1e7" x="171.170644" y="65.251631" style="fill-opacity: 0.8; stroke: #000000; stroke-opacity: 0.8"/>
     <use xlink:href="#m833930a1e7" x="168.025421" y="69.513372" style="fill-opacity: 0.8; stroke: #000000; stroke-opacity: 0.8"/>
     <use xlink:href="#m833930a1e7" x="173.661353" y="59.410981" style="fill-opacity: 0.8; stroke: #000000; stroke-opacity: 0.8"/>
     <use xlink:href="#m833930a1e7" x="173.574845" y="63.683927" style="fill-opacity: 0.8; stroke: #000000; stroke-opacity: 0.8"/>
     <use xlink:href="#m833930a1e7" x="166.988898" y="75.479039" style="fill-opacity: 0.8; stroke: #000000; stroke-opacity: 0.8"/>
     <use xlink:href="#m833930a1e7" x="169.263707" y="68.566226" style="fill-opacity: 0.8; stroke: #000000; stroke-opacity: 0.8"/>
     <use xlink:href="#m833930a1e7" x="167.443886" y="75.051685" style="fill-opacity: 0.8; stroke: #000000; stroke-opacity: 0.8"/>
     <use xlink:href="#m833930a1e7" x="167.295258" y="73.475691" style="fill-opacity: 0.8; stroke: #000000; stroke-opacity: 0.8"/>
     <use xlink:href="#m833930a1e7" x="164.997398" y="76.667606" style="fill-opacity: 0.8; stroke: #000000; stroke-opacity: 0.8"/>
     <use xlink:href="#m833930a1e7" x="170.304572" y="69.996087" style="fill-opacity: 0.8; stroke: #000000; stroke-opacity: 0.8"/>
     <use xlink:href="#m833930a1e7" x="169.314034" y="70.581776" style="fill-opacity: 0.8; stroke: #000000; stroke-opacity: 0.8"/>
     <use xlink:href="#m833930a1e7" x="165.132625" y="82.85909" style="fill-opacity: 0.8; stroke: #000000; stroke-opacity: 0.8"/>
     <use xlink:href="#m833930a1e7" x="167.237856" y="75.913348" style="fill-opacity: 0.8; stroke: #000000; stroke-opacity: 0.8"/>
    </g>
   </g>
   <g id="FillBetweenPolyCollection_1">
    <path d="M 59.24 168.624498 
L 59.24 168.624498 
L 59.973467 167.702194 
L 60.706935 166.779898 
L 61.440402 165.857602 
L 62.173869 164.935299 
L 62.907337 164.013003 
L 63.640804 163.090699 
L 64.374271 162.168387 
L 65.107739 161.246091 
L 65.841206 160.323787 
L 66.574673 159.401488 
L 67.308141 158.479192 
L 68.041608 157.556888 
L 68.775075 156.6346 
L 69.508543 155.712288 
L 70.24201 154.789993 
L 70.975477 153.867697 
L 71.708945 152.945393 
L 72.442412 152.022656 
L 73.175879 151.098088 
L 73.909347 150.173532 
L 74.642814 149.24898 
L 75.376281 148.324411 
L 76.109749 147.399859 
L 76.843216 146.475299 
L 77.576683 145.550743 
L 78.310151 144.620617 
L 79.043618 143.649126 
L 79.777085 142.677639 
L 80.510553 141.706143 
L 81.24402 140.719121 
L 81.977487 139.715722 
L 82.710955 138.678273 
L 83.444422 137.64052 
L 84.177889 136.602776 
L 84.911357 135.565027 
L 85.644824 134.525184 
L 86.378291 133.472694 
L 87.111759 132.410751 
L 87.845226 131.336092 
L 88.578693 130.250488 
L 89.312161 129.11272 
L 90.045628 127.927215 
L 90.779095 126.653278 
L 91.512563 125.357765 
L 92.24603 124.06226 
L 92.979497 122.766755 
L 93.712965 121.471251 
L 94.446432 120.175744 
L 95.179899 118.880237 
L 95.913367 117.584728 
L 96.646834 116.289223 
L 97.380302 114.993714 
L 98.113769 113.698209 
L 98.847236 112.402698 
L 99.580704 111.107189 
L 100.314171 109.811683 
L 101.047638 108.527492 
L 101.781106 107.730905 
L 102.514573 106.963298 
L 103.24804 106.19613 
L 103.981508 105.428961 
L 104.714975 104.661792 
L 105.448442 103.894626 
L 106.18191 103.127457 
L 106.915377 102.360289 
L 107.648844 101.602085 
L 108.382312 100.991421 
L 109.115779 100.380755 
L 109.849246 99.770092 
L 110.582714 99.265133 
L 111.316181 98.762614 
L 112.049648 98.260094 
L 112.783116 97.757574 
L 113.516583 97.273336 
L 114.25005 96.89273 
L 114.983518 96.541014 
L 115.716985 96.269278 
L 116.450452 95.995904 
L 117.18392 95.722476 
L 117.917387 95.504098 
L 118.650854 95.302739 
L 119.384322 95.101381 
L 120.117789 94.900023 
L 120.851256 94.698664 
L 121.584724 94.554956 
L 122.318191 94.475924 
L 123.051658 94.43509 
L 123.785126 94.398542 
L 124.518593 94.361994 
L 125.25206 94.325447 
L 125.985528 94.302089 
L 126.718995 94.288451 
L 127.452462 94.278255 
L 128.18593 94.275365 
L 128.919397 94.272475 
L 129.652864 94.279659 
L 130.386332 94.294167 
L 131.119799 94.308675 
L 131.853266 94.323183 
L 132.586734 94.337692 
L 133.320201 94.352199 
L 134.053668 94.366708 
L 134.787136 94.364826 
L 135.520603 94.306276 
L 136.25407 94.237497 
L 136.987538 94.16872 
L 137.721005 94.094623 
L 138.454472 94.015597 
L 139.18794 93.934833 
L 139.921407 93.853244 
L 140.654874 93.771655 
L 141.388342 93.673046 
L 142.121809 93.571268 
L 142.855276 93.423371 
L 143.588744 93.256331 
L 144.322211 93.099519 
L 145.055678 92.946376 
L 145.789146 92.793232 
L 146.522613 92.635478 
L 147.25608 92.450685 
L 147.989548 92.248892 
L 148.723015 92.047098 
L 149.456482 91.774143 
L 150.18995 91.413537 
L 150.923417 91.052932 
L 151.656884 90.692326 
L 152.390352 90.331721 
L 153.123819 89.971114 
L 153.857286 89.57823 
L 154.590754 89.159973 
L 155.324221 88.667967 
L 156.057688 88.175961 
L 156.791156 87.683955 
L 157.524623 87.191948 
L 158.25809 86.714477 
L 158.991558 86.092756 
L 159.725025 85.325672 
L 160.458492 84.558591 
L 161.19196 83.791509 
L 161.925427 82.94127 
L 162.658894 81.788114 
L 163.392362 80.554421 
L 164.125829 79.320727 
L 164.859296 78.087653 
L 165.592764 76.855354 
L 166.326231 75.623046 
L 167.059698 74.390746 
L 167.793166 73.158436 
L 168.526633 71.926134 
L 169.260101 70.69383 
L 169.993568 69.461526 
L 170.727035 68.229224 
L 171.460503 66.996922 
L 172.19397 65.764614 
L 172.927437 64.53231 
L 173.660905 63.300015 
L 174.394372 62.118431 
L 175.127839 60.983373 
L 175.861307 59.84832 
L 176.594774 58.713269 
L 177.328241 57.578223 
L 178.061709 56.455822 
L 178.795176 55.339753 
L 179.528643 54.223684 
L 180.262111 53.11762 
L 180.995578 52.015595 
L 181.729045 50.913562 
L 182.462513 49.855243 
L 183.19598 48.817085 
L 183.929447 47.805306 
L 184.662915 46.79353 
L 185.396382 45.781746 
L 186.129849 44.76997 
L 186.863317 43.781381 
L 187.596784 42.801306 
L 188.330251 41.821223 
L 189.063719 40.841152 
L 189.797186 39.861073 
L 190.530653 38.880998 
L 191.264121 37.901656 
L 191.997588 36.925033 
L 192.731055 35.94864 
L 193.464523 34.972243 
L 194.19799 33.995842 
L 194.931457 33.019453 
L 195.664925 32.043048 
L 196.398392 31.066643 
L 197.131859 30.090246 
L 197.865327 29.113858 
L 198.598794 28.137461 
L 199.332261 27.161773 
L 200.065729 26.194356 
L 200.799196 25.226944 
L 201.532663 24.259523 
L 202.266131 23.296356 
L 202.999598 22.338997 
L 203.733065 21.38163 
L 204.466533 20.42313 
L 205.2 19.461177 
L 205.2 19.461177 
L 205.2 19.461177 
L 204.466533 20.42313 
L 203.733065 21.38163 
L 202.999598 22.338997 
L 202.266131 23.296356 
L 201.532663 24.259523 
L 200.799196 25.226944 
L 200.065729 26.194356 
L 199.332261 27.161773 
L 198.598794 28.137461 
L 197.865327 29.113858 
L 197.131859 30.090246 
L 196.398392 31.066643 
L 195.664925 32.043048 
L 194.931457 33.019453 
L 194.19799 33.995842 
L 193.464523 34.972243 
L 192.731055 35.94864 
L 191.997588 36.925033 
L 191.264121 37.901656 
L 190.530653 38.880998 
L 189.797186 39.861073 
L 189.063719 40.841152 
L 188.330251 41.821223 
L 187.596784 42.801306 
L 186.863317 43.781381 
L 186.129849 44.76997 
L 185.396382 45.781746 
L 184.662915 46.79353 
L 183.929447 47.805306 
L 183.19598 48.817085 
L 182.462513 49.855243 
L 181.729045 50.913562 
L 180.995578 52.015595 
L 180.262111 53.11762 
L 179.528643 54.223684 
L 178.795176 55.339753 
L 178.061709 56.455822 
L 177.328241 57.578223 
L 176.594774 58.713269 
L 175.861307 59.84832 
L 175.127839 60.983373 
L 174.394372 62.118431 
L 173.660905 63.300015 
L 172.927437 64.53231 
L 172.19397 65.764614 
L 171.460503 66.996922 
L 170.727035 68.229224 
L 169.993568 69.461526 
L 169.260101 70.69383 
L 168.526633 71.926134 
L 167.793166 73.158436 
L 167.059698 74.390746 
L 166.326231 75.623046 
L 165.592764 76.855354 
L 164.859296 78.087653 
L 164.125829 79.320727 
L 163.392362 80.554421 
L 162.658894 81.788114 
L 161.925427 82.94127 
L 161.19196 83.791509 
L 160.458492 84.558591 
L 159.725025 85.325672 
L 158.991558 86.092756 
L 158.25809 86.714477 
L 157.524623 87.191948 
L 156.791156 87.683955 
L 156.057688 88.175961 
L 155.324221 88.667967 
L 154.590754 89.159973 
L 153.857286 89.57823 
L 153.123819 89.971114 
L 152.390352 90.331721 
L 151.656884 90.692326 
L 150.923417 91.052932 
L 150.18995 91.413537 
L 149.456482 91.774143 
L 148.723015 92.047098 
L 147.989548 92.248892 
L 147.25608 92.450685 
L 146.522613 92.635478 
L 145.789146 92.793232 
L 145.055678 92.946376 
L 144.322211 93.099519 
L 143.588744 93.256331 
L 142.855276 93.423371 
L 142.121809 93.571268 
L 141.388342 93.673046 
L 140.654874 93.771655 
L 139.921407 93.853244 
L 139.18794 93.934833 
L 138.454472 94.015597 
L 137.721005 94.094623 
L 136.987538 94.16872 
L 136.25407 94.237497 
L 135.520603 94.306276 
L 134.787136 94.364826 
L 134.053668 94.366708 
L 133.320201 94.352199 
L 132.586734 94.337692 
L 131.853266 94.323183 
L 131.119799 94.308675 
L 130.386332 94.294167 
L 129.652864 94.279659 
L 128.919397 94.272475 
L 128.18593 94.275365 
L 127.452462 94.278255 
L 126.718995 94.288451 
L 125.985528 94.302089 
L 125.25206 94.325447 
L 124.518593 94.361994 
L 123.785126 94.398542 
L 123.051658 94.43509 
L 122.318191 94.475924 
L 121.584724 94.554956 
L 120.851256 94.698664 
L 120.117789 94.900023 
L 119.384322 95.101381 
L 118.650854 95.302739 
L 117.917387 95.504098 
L 117.18392 95.722476 
L 116.450452 95.995904 
L 115.716985 96.269278 
L 114.983518 96.541014 
L 114.25005 96.89273 
L 113.516583 97.273336 
L 112.783116 97.757574 
L 112.049648 98.260094 
L 111.316181 98.762614 
L 110.582714 99.265133 
L 109.849246 99.770092 
L 109.115779 100.380755 
L 108.382312 100.991421 
L 107.648844 101.602085 
L 106.915377 102.360289 
L 106.18191 103.127457 
L 105.448442 103.894626 
L 104.714975 104.661792 
L 103.981508 105.428961 
L 103.24804 106.19613 
L 102.514573 106.963298 
L 101.781106 107.730905 
L 101.047638 108.527492 
L 100.314171 109.811683 
L 99.580704 111.107189 
L 98.847236 112.402698 
L 98.113769 113.698209 
L 97.380302 114.993714 
L 96.646834 116.289223 
L 95.913367 117.584728 
L 95.179899 118.880237 
L 94.446432 120.175744 
L 93.712965 121.471251 
L 92.979497 122.766755 
L 92.24603 124.06226 
L 91.512563 125.357765 
L 90.779095 126.653278 
L 90.045628 127.927215 
L 89.312161 129.11272 
L 88.578693 130.250488 
L 87.845226 131.336092 
L 87.111759 132.410751 
L 86.378291 133.472694 
L 85.644824 134.525184 
L 84.911357 135.565027 
L 84.177889 136.602776 
L 83.444422 137.64052 
L 82.710955 138.678273 
L 81.977487 139.715722 
L 81.24402 140.719121 
L 80.510553 141.706143 
L 79.777085 142.677639 
L 79.043618 143.649126 
L 78.310151 144.620617 
L 77.576683 145.550743 
L 76.843216 146.475299 
L 76.109749 147.399859 
L 75.376281 148.324411 
L 74.642814 149.24898 
L 73.909347 150.173532 
L 73.175879 151.098088 
L 72.442412 152.022656 
L 71.708945 152.945393 
L 70.975477 153.867697 
L 70.24201 154.789993 
L 69.508543 155.712288 
L 68.775075 156.6346 
L 68.041608 157.556888 
L 67.308141 158.479192 
L 66.574673 159.401488 
L 65.841206 160.323787 
L 65.107739 161.246091 
L 64.374271 162.168387 
L 63.640804 163.090699 
L 62.907337 164.013003 
L 62.173869 164.935299 
L 61.440402 165.857602 
L 60.706935 166.779898 
L 59.973467 167.702194 
L 59.24 168.624498 
z
" clip-path="url(#p775685ee47)" style="fill: #ac69da; fill-opacity: 0.3"/>
   </g>
   <g id="FillBetweenPolyCollection_2">
    <path d="M 59.24 143.963147 
L 59.24 193.285849 
L 59.973467 191.499521 
L 60.706935 189.743733 
L 61.440402 188.017431 
L 62.173869 186.319607 
L 62.907337 184.649249 
L 63.640804 183.005488 
L 64.374271 181.387386 
L 65.107739 179.794059 
L 65.841206 178.224709 
L 66.574673 176.678451 
L 67.308141 175.154541 
L 68.041608 173.652212 
L 68.775075 172.170705 
L 69.508543 170.70931 
L 70.24201 169.267343 
L 70.975477 167.844159 
L 71.708945 166.439102 
L 72.442412 165.052165 
L 73.175879 163.684316 
L 73.909347 162.332412 
L 74.642814 160.99594 
L 75.376281 159.674343 
L 76.109749 158.367171 
L 76.843216 157.073921 
L 77.576683 155.794148 
L 78.310151 154.522504 
L 79.043618 153.226942 
L 79.777085 151.943113 
L 80.510553 150.670633 
L 81.24402 149.398247 
L 81.977487 148.120369 
L 82.710955 146.812743 
L 83.444422 145.514753 
L 84.177889 144.226459 
L 84.911357 142.947558 
L 85.644824 141.675828 
L 86.378291 140.401165 
L 87.111759 139.128007 
L 87.845226 137.853401 
L 88.578693 136.575719 
L 89.312161 135.256071 
L 90.045628 133.899543 
L 90.779095 132.471405 
L 91.512563 131.025754 
L 92.24603 129.58521 
L 92.979497 128.149633 
L 93.712965 126.718904 
L 94.446432 125.292902 
L 95.179899 123.871516 
L 95.913367 122.454635 
L 96.646834 121.04216 
L 97.380302 119.633982 
L 98.113769 118.230016 
L 98.847236 116.830154 
L 99.580704 115.43432 
L 100.314171 114.042428 
L 101.047638 112.667212 
L 101.781106 111.808126 
L 102.514573 110.984062 
L 103.24804 110.162748 
L 103.981508 109.343435 
L 104.714975 108.526113 
L 105.448442 107.710773 
L 106.18191 106.897399 
L 106.915377 106.085983 
L 107.648844 105.285888 
L 108.382312 104.640885 
L 109.115779 103.997156 
L 109.849246 103.354701 
L 110.582714 102.822633 
L 111.316181 102.294024 
L 112.049648 101.766347 
L 112.783116 101.239596 
L 113.516583 100.732638 
L 114.25005 100.333499 
L 114.983518 99.965016 
L 115.716985 99.676842 
L 116.450452 99.389183 
L 117.18392 99.102057 
L 117.917387 98.874454 
L 118.650854 98.665529 
L 119.384322 98.457043 
L 120.117789 98.248996 
L 120.851256 98.04139 
L 121.584724 97.893338 
L 122.318191 97.814595 
L 123.051658 97.778704 
L 123.785126 97.747924 
L 124.518593 97.717226 
L 125.25206 97.686611 
L 125.985528 97.669337 
L 126.718995 97.661897 
L 127.452462 97.658589 
L 128.18593 97.664622 
L 128.919397 97.670683 
L 129.652864 97.686821 
L 130.386332 97.710302 
L 131.119799 97.733818 
L 131.853266 97.757372 
L 132.586734 97.780962 
L 133.320201 97.80459 
L 134.053668 97.828256 
L 134.787136 97.833783 
L 135.520603 97.780808 
L 136.25407 97.718441 
L 136.987538 97.656128 
L 137.721005 97.588857 
L 138.454472 97.517004 
L 139.18794 97.444993 
L 139.921407 97.373032 
L 140.654874 97.301241 
L 141.388342 97.212991 
L 142.121809 97.121844 
L 142.855276 96.985365 
L 143.588744 96.830205 
L 144.322211 96.684919 
L 145.055678 96.543391 
L 145.789146 96.402169 
L 146.522613 96.255171 
L 147.25608 96.082357 
L 147.989548 95.893845 
L 148.723015 95.705708 
L 149.456482 95.453072 
L 150.18995 95.11694 
L 150.923417 94.781361 
L 151.656884 94.446341 
L 152.390352 94.111884 
L 153.123819 93.777995 
L 153.857286 93.415592 
L 154.590754 93.03024 
L 155.324221 92.575574 
L 156.057688 92.121814 
L 156.791156 91.668975 
L 157.524623 91.217064 
L 158.25809 90.779356 
L 158.991558 90.204198 
L 159.725025 89.49695 
L 160.458492 88.791418 
L 161.19196 88.087629 
L 161.925427 87.31818 
L 162.658894 86.305988 
L 163.392362 85.213793 
L 164.125829 84.127536 
L 164.859296 83.051314 
L 165.592764 81.986944 
L 166.326231 80.93016 
L 167.059698 79.881295 
L 167.793166 78.840665 
L 168.526633 77.808632 
L 169.260101 76.785546 
L 169.993568 75.771782 
L 170.727035 74.76773 
L 171.460503 73.7738 
L 172.19397 72.790403 
L 172.927437 71.817992 
L 173.660905 70.857026 
L 174.394372 69.950052 
L 175.127839 69.093611 
L 175.861307 68.249243 
L 176.594774 67.417421 
L 177.328241 66.59863 
L 178.061709 65.811004 
L 178.795176 65.046776 
L 179.528643 64.297806 
L 180.262111 63.579245 
L 180.995578 62.883507 
L 181.729045 62.205478 
L 182.462513 61.598782 
L 183.19598 61.034076 
L 183.929447 60.523394 
L 184.662915 60.035339 
L 185.396382 59.570838 
L 186.129849 59.130828 
L 186.863317 58.753961 
L 187.596784 58.418975 
L 188.330251 58.113483 
L 189.063719 57.838699 
L 189.797186 57.595862 
L 190.530653 57.386289 
L 191.264121 57.213403 
L 191.997588 57.07757 
L 192.731055 56.979164 
L 193.464523 56.919639 
L 194.19799 56.90055 
L 194.931457 56.923489 
L 195.664925 56.990003 
L 196.398392 57.101868 
L 197.131859 57.260726 
L 197.865327 57.468433 
L 198.598794 57.726771 
L 199.332261 58.036493 
L 200.065729 58.387519 
L 200.799196 58.793037 
L 201.532663 59.254946 
L 202.266131 59.77832 
L 202.999598 60.366173 
L 203.733065 61.016189 
L 204.466533 61.731769 
L 205.2 62.518214 
L 205.2 -23.595859 
L 205.2 -23.595859 
L 204.466533 -20.88551 
L 203.733065 -18.252928 
L 202.999598 -15.688179 
L 202.266131 -13.185608 
L 201.532663 -10.7359 
L 200.799196 -8.339149 
L 200.065729 -5.998807 
L 199.332261 -3.712948 
L 198.598794 -1.45185 
L 197.865327 0.759282 
L 197.131859 2.919767 
L 196.398392 5.031419 
L 195.664925 7.096093 
L 194.931457 9.115417 
L 194.19799 11.091135 
L 193.464523 13.024847 
L 192.731055 14.918115 
L 191.997588 16.772496 
L 191.264121 18.58991 
L 190.530653 20.375707 
L 189.797186 22.126285 
L 189.063719 23.843605 
L 188.330251 25.528964 
L 187.596784 27.183637 
L 186.863317 28.808801 
L 186.129849 30.409113 
L 185.396382 31.992655 
L 184.662915 33.551721 
L 183.929447 35.087218 
L 183.19598 36.600095 
L 182.462513 38.111705 
L 181.729045 39.621645 
L 180.995578 41.147683 
L 180.262111 42.655996 
L 179.528643 44.149562 
L 178.795176 45.63273 
L 178.061709 47.100641 
L 177.328241 48.557816 
L 176.594774 50.009117 
L 175.861307 51.447397 
L 175.127839 52.873134 
L 174.394372 54.286811 
L 173.660905 55.743003 
L 172.927437 57.246628 
L 172.19397 58.738825 
L 171.460503 60.220044 
L 170.727035 61.690718 
L 169.993568 63.151269 
L 169.260101 64.602113 
L 168.526633 66.043636 
L 167.793166 67.476206 
L 167.059698 68.900196 
L 166.326231 70.315932 
L 165.592764 71.723763 
L 164.859296 73.123993 
L 164.125829 74.513918 
L 163.392362 75.89505 
L 162.658894 77.27024 
L 161.925427 78.564359 
L 161.19196 79.495388 
L 160.458492 80.325763 
L 159.725025 81.154393 
L 158.991558 81.981315 
L 158.25809 82.649598 
L 157.524623 83.166833 
L 156.791156 83.698936 
L 156.057688 84.230109 
L 155.324221 84.76036 
L 154.590754 85.289705 
L 153.857286 85.740868 
L 153.123819 86.164233 
L 152.390352 86.551558 
L 151.656884 86.938312 
L 150.923417 87.324503 
L 150.18995 87.710135 
L 149.456482 88.095215 
L 148.723015 88.388487 
L 147.989548 88.603939 
L 147.25608 88.819014 
L 146.522613 89.015786 
L 145.789146 89.184295 
L 145.055678 89.34936 
L 144.322211 89.514119 
L 143.588744 89.682458 
L 142.855276 89.861378 
L 142.121809 90.020692 
L 141.388342 90.1331 
L 140.654874 90.242068 
L 139.921407 90.333456 
L 139.18794 90.424673 
L 138.454472 90.51419 
L 137.721005 90.600389 
L 136.987538 90.681313 
L 136.25407 90.756553 
L 135.520603 90.831743 
L 134.787136 90.895869 
L 134.053668 90.90516 
L 133.320201 90.899808 
L 132.586734 90.894421 
L 131.853266 90.888995 
L 131.119799 90.883532 
L 130.386332 90.878033 
L 129.652864 90.872497 
L 128.919397 90.874266 
L 128.18593 90.886109 
L 127.452462 90.897922 
L 126.718995 90.915005 
L 125.985528 90.934841 
L 125.25206 90.964282 
L 124.518593 91.006762 
L 123.785126 91.04916 
L 123.051658 91.091477 
L 122.318191 91.137253 
L 121.584724 91.216573 
L 120.851256 91.355938 
L 120.117789 91.551049 
L 119.384322 91.745718 
L 118.650854 91.939949 
L 117.917387 92.133742 
L 117.18392 92.342895 
L 116.450452 92.602625 
L 115.716985 92.861714 
L 114.983518 93.117012 
L 114.25005 93.451961 
L 113.516583 93.814035 
L 112.783116 94.275553 
L 112.049648 94.753842 
L 111.316181 95.231204 
L 110.582714 95.707633 
L 109.849246 96.185484 
L 109.115779 96.764354 
L 108.382312 97.341957 
L 107.648844 97.918283 
L 106.915377 98.634594 
L 106.18191 99.357514 
L 105.448442 100.078478 
L 104.714975 100.797471 
L 103.981508 101.514487 
L 103.24804 102.229512 
L 102.514573 102.942535 
L 101.781106 103.653683 
L 101.047638 104.387773 
L 100.314171 105.580937 
L 99.580704 106.780057 
L 98.847236 107.975241 
L 98.113769 109.166401 
L 97.380302 110.353445 
L 96.646834 111.536285 
L 95.913367 112.714821 
L 95.179899 113.888957 
L 94.446432 115.058585 
L 93.712965 116.223597 
L 92.979497 117.383878 
L 92.24603 118.539311 
L 91.512563 119.689777 
L 90.779095 120.835152 
L 90.045628 121.954888 
L 89.312161 122.969368 
L 88.578693 123.925258 
L 87.845226 124.818783 
L 87.111759 125.693495 
L 86.378291 126.544223 
L 85.644824 127.374539 
L 84.911357 128.182496 
L 84.177889 128.979092 
L 83.444422 129.766288 
L 82.710955 130.543803 
L 81.977487 131.311075 
L 81.24402 132.039995 
L 80.510553 132.741653 
L 79.777085 133.412164 
L 79.043618 134.07131 
L 78.310151 134.718731 
L 77.576683 135.307339 
L 76.843216 135.876677 
L 76.109749 136.432548 
L 75.376281 136.97448 
L 74.642814 137.50202 
L 73.909347 138.014651 
L 73.175879 138.511859 
L 72.442412 138.993146 
L 71.708945 139.451684 
L 70.975477 139.891234 
L 70.24201 140.312643 
L 69.508543 140.715267 
L 68.775075 141.098496 
L 68.041608 141.461564 
L 67.308141 141.803843 
L 66.574673 142.124525 
L 65.841206 142.422865 
L 65.107739 142.698123 
L 64.374271 142.949388 
L 63.640804 143.17591 
L 62.907337 143.376757 
L 62.173869 143.55099 
L 61.440402 143.697774 
L 60.706935 143.816063 
L 59.973467 143.904867 
L 59.24 143.963147 
z
" clip-path="url(#p775685ee47)" style="fill: #ac69da; fill-opacity: 0.3"/>
   </g>
   <g id="FillBetweenPolyCollection_3">
    <path d="M 59.24 119.301795 
L 59.24 217.9472 
L 59.973467 215.296848 
L 60.706935 212.707569 
L 61.440402 210.17726 
L 62.173869 207.703916 
L 62.907337 205.285495 
L 63.640804 202.920277 
L 64.374271 200.606384 
L 65.107739 198.342027 
L 65.841206 196.125631 
L 66.574673 193.955414 
L 67.308141 191.829891 
L 68.041608 189.747536 
L 68.775075 187.706809 
L 69.508543 185.706331 
L 70.24201 183.744693 
L 70.975477 181.820622 
L 71.708945 179.932811 
L 72.442412 178.081675 
L 73.175879 176.270545 
L 73.909347 174.491292 
L 74.642814 172.742899 
L 75.376281 171.024274 
L 76.109749 169.334482 
L 76.843216 167.672544 
L 77.576683 166.037552 
L 78.310151 164.42439 
L 79.043618 162.804758 
L 79.777085 161.208588 
L 80.510553 159.635122 
L 81.24402 158.077373 
L 81.977487 156.525017 
L 82.710955 154.947213 
L 83.444422 153.388985 
L 84.177889 151.850142 
L 84.911357 150.330089 
L 85.644824 148.826473 
L 86.378291 147.329636 
L 87.111759 145.845264 
L 87.845226 144.37071 
L 88.578693 142.900949 
L 89.312161 141.399422 
L 90.045628 139.87187 
L 90.779095 138.289531 
L 91.512563 136.693743 
L 92.24603 135.10816 
L 92.979497 133.53251 
L 93.712965 131.966557 
L 94.446432 130.410061 
L 95.179899 128.862795 
L 95.913367 127.324542 
L 96.646834 125.795098 
L 97.380302 124.27425 
L 98.113769 122.761823 
L 98.847236 121.25761 
L 99.580704 119.761451 
L 100.314171 118.273174 
L 101.047638 116.806931 
L 101.781106 115.885348 
L 102.514573 115.004825 
L 103.24804 114.129366 
L 103.981508 113.257909 
L 104.714975 112.390434 
L 105.448442 111.526921 
L 106.18191 110.667342 
L 106.915377 109.811678 
L 107.648844 108.96969 
L 108.382312 108.290348 
L 109.115779 107.613556 
L 109.849246 106.93931 
L 110.582714 106.380134 
L 111.316181 105.825434 
L 112.049648 105.272599 
L 112.783116 104.721618 
L 113.516583 104.19194 
L 114.25005 103.774269 
L 114.983518 103.389018 
L 115.716985 103.084407 
L 116.450452 102.782461 
L 117.18392 102.481638 
L 117.917387 102.24481 
L 118.650854 102.028319 
L 119.384322 101.812706 
L 120.117789 101.597969 
L 120.851256 101.384115 
L 121.584724 101.231721 
L 122.318191 101.153267 
L 123.051658 101.122317 
L 123.785126 101.097306 
L 124.518593 101.072458 
L 125.25206 101.047776 
L 125.985528 101.036584 
L 126.718995 101.035343 
L 127.452462 101.038923 
L 128.18593 101.053878 
L 128.919397 101.068891 
L 129.652864 101.093983 
L 130.386332 101.126436 
L 131.119799 101.15896 
L 131.853266 101.19156 
L 132.586734 101.224232 
L 133.320201 101.25698 
L 134.053668 101.289804 
L 134.787136 101.30274 
L 135.520603 101.255341 
L 136.25407 101.199385 
L 136.987538 101.143535 
L 137.721005 101.083091 
L 138.454472 101.018411 
L 139.18794 100.955153 
L 139.921407 100.892821 
L 140.654874 100.830828 
L 141.388342 100.752937 
L 142.121809 100.67242 
L 142.855276 100.547358 
L 143.588744 100.404078 
L 144.322211 100.27032 
L 145.055678 100.140407 
L 145.789146 100.011106 
L 146.522613 99.874864 
L 147.25608 99.714028 
L 147.989548 99.538798 
L 148.723015 99.364319 
L 149.456482 99.132001 
L 150.18995 98.820342 
L 150.923417 98.509789 
L 151.656884 98.200356 
L 152.390352 97.892047 
L 153.123819 97.584876 
L 153.857286 97.252954 
L 154.590754 96.900508 
L 155.324221 96.48318 
L 156.057688 96.067667 
L 156.791156 95.653994 
L 157.524623 95.242179 
L 158.25809 94.844235 
L 158.991558 94.31564 
L 159.725025 93.668228 
L 160.458492 93.024246 
L 161.19196 92.38375 
L 161.925427 91.695091 
L 162.658894 90.823862 
L 163.392362 89.873164 
L 164.125829 88.934345 
L 164.859296 88.014974 
L 165.592764 87.118534 
L 166.326231 86.237274 
L 167.059698 85.371844 
L 167.793166 84.522894 
L 168.526633 83.69113 
L 169.260101 82.877263 
L 169.993568 82.082039 
L 170.727035 81.306236 
L 171.460503 80.550678 
L 172.19397 79.816192 
L 172.927437 79.103674 
L 173.660905 78.414037 
L 174.394372 77.781672 
L 175.127839 77.203849 
L 175.861307 76.650165 
L 176.594774 76.121573 
L 177.328241 75.619037 
L 178.061709 75.166185 
L 178.795176 74.7538 
L 179.528643 74.371929 
L 180.262111 74.04087 
L 180.995578 73.75142 
L 181.729045 73.497395 
L 182.462513 73.342321 
L 183.19598 73.251067 
L 183.929447 73.241482 
L 184.662915 73.277148 
L 185.396382 73.359929 
L 186.129849 73.491685 
L 186.863317 73.726541 
L 187.596784 74.036645 
L 188.330251 74.405742 
L 189.063719 74.836246 
L 189.797186 75.33065 
L 190.530653 75.89158 
L 191.264121 76.525149 
L 191.997588 77.230107 
L 192.731055 78.009689 
L 193.464523 78.867034 
L 194.19799 79.805257 
L 194.931457 80.827525 
L 195.664925 81.936958 
L 196.398392 83.137092 
L 197.131859 84.431205 
L 197.865327 85.823009 
L 198.598794 87.316082 
L 199.332261 88.911214 
L 200.065729 90.580682 
L 200.799196 92.35913 
L 201.532663 94.250369 
L 202.266131 96.260284 
L 202.999598 98.393349 
L 203.733065 100.650747 
L 204.466533 103.040409 
L 205.2 105.575251 
L 205.2 -66.652896 
L 205.2 -66.652896 
L 204.466533 -62.19415 
L 203.733065 -57.887486 
L 202.999598 -53.715355 
L 202.266131 -49.667572 
L 201.532663 -45.731323 
L 200.799196 -41.905242 
L 200.065729 -38.19197 
L 199.332261 -34.587669 
L 198.598794 -31.041161 
L 197.865327 -27.595294 
L 197.131859 -24.250712 
L 196.398392 -21.003806 
L 195.664925 -17.850861 
L 194.931457 -14.788619 
L 194.19799 -11.813573 
L 193.464523 -8.922548 
L 192.731055 -6.112409 
L 191.997588 -3.380042 
L 191.264121 -0.721836 
L 190.530653 1.870416 
L 189.797186 4.391496 
L 189.063719 6.846059 
L 188.330251 9.236704 
L 187.596784 11.565967 
L 186.863317 13.836221 
L 186.129849 16.048256 
L 185.396382 18.203563 
L 184.662915 20.309912 
L 183.929447 22.369129 
L 183.19598 24.383104 
L 182.462513 26.368166 
L 181.729045 28.329729 
L 180.995578 30.279771 
L 180.262111 32.194371 
L 179.528643 34.07544 
L 178.795176 35.925707 
L 178.061709 37.745459 
L 177.328241 39.537409 
L 176.594774 41.304966 
L 175.861307 43.046475 
L 175.127839 44.762896 
L 174.394372 46.455191 
L 173.660905 48.185992 
L 172.927437 49.960947 
L 172.19397 51.713036 
L 171.460503 53.443167 
L 170.727035 55.152212 
L 169.993568 56.841013 
L 169.260101 58.510397 
L 168.526633 60.161137 
L 167.793166 61.793977 
L 167.059698 63.409647 
L 166.326231 65.008818 
L 165.592764 66.592173 
L 164.859296 68.160333 
L 164.125829 69.707108 
L 163.392362 71.235678 
L 162.658894 72.752366 
L 161.925427 74.187448 
L 161.19196 75.199267 
L 160.458492 76.092936 
L 159.725025 76.983115 
L 158.991558 77.869873 
L 158.25809 78.584719 
L 157.524623 79.141717 
L 156.791156 79.713916 
L 156.057688 80.284256 
L 155.324221 80.852754 
L 154.590754 81.419437 
L 153.857286 81.903507 
L 153.123819 82.357353 
L 152.390352 82.771394 
L 151.656884 83.184297 
L 150.923417 83.596075 
L 150.18995 84.006733 
L 149.456482 84.416286 
L 148.723015 84.729876 
L 147.989548 84.958986 
L 147.25608 85.187343 
L 146.522613 85.396093 
L 145.789146 85.575357 
L 145.055678 85.752344 
L 144.322211 85.928719 
L 143.588744 86.108585 
L 142.855276 86.299385 
L 142.121809 86.470116 
L 141.388342 86.593154 
L 140.654874 86.712481 
L 139.921407 86.813668 
L 139.18794 86.914513 
L 138.454472 87.012782 
L 137.721005 87.106156 
L 136.987538 87.193906 
L 136.25407 87.27561 
L 135.520603 87.357211 
L 134.787136 87.426912 
L 134.053668 87.443612 
L 133.320201 87.447418 
L 132.586734 87.451151 
L 131.853266 87.454806 
L 131.119799 87.458389 
L 130.386332 87.461899 
L 129.652864 87.465335 
L 128.919397 87.476058 
L 128.18593 87.496853 
L 127.452462 87.517588 
L 126.718995 87.541559 
L 125.985528 87.567594 
L 125.25206 87.603117 
L 124.518593 87.65153 
L 123.785126 87.699778 
L 123.051658 87.747863 
L 122.318191 87.798581 
L 121.584724 87.878191 
L 120.851256 88.013213 
L 120.117789 88.202076 
L 119.384322 88.390056 
L 118.650854 88.577159 
L 117.917387 88.763386 
L 117.18392 88.963314 
L 116.450452 89.209346 
L 115.716985 89.45415 
L 114.983518 89.693009 
L 114.25005 90.011191 
L 113.516583 90.354733 
L 112.783116 90.793531 
L 112.049648 91.24759 
L 111.316181 91.699794 
L 110.582714 92.150133 
L 109.849246 92.600875 
L 109.115779 93.147954 
L 108.382312 93.692493 
L 107.648844 94.23448 
L 106.915377 94.908899 
L 106.18191 95.587572 
L 105.448442 96.262331 
L 104.714975 96.93315 
L 103.981508 97.600013 
L 103.24804 98.262894 
L 102.514573 98.921772 
L 101.781106 99.576462 
L 101.047638 100.248053 
L 100.314171 101.350191 
L 99.580704 102.452926 
L 98.847236 103.547785 
L 98.113769 104.634594 
L 97.380302 105.713177 
L 96.646834 106.783347 
L 95.913367 107.844913 
L 95.179899 108.897678 
L 94.446432 109.941426 
L 93.712965 110.975944 
L 92.979497 112.001001 
L 92.24603 113.016361 
L 91.512563 114.021788 
L 90.779095 115.017026 
L 90.045628 115.982561 
L 89.312161 116.826017 
L 88.578693 117.600028 
L 87.845226 118.301474 
L 87.111759 118.976238 
L 86.378291 119.615752 
L 85.644824 120.223895 
L 84.911357 120.799964 
L 84.177889 121.355409 
L 83.444422 121.892056 
L 82.710955 122.409334 
L 81.977487 122.906428 
L 81.24402 123.36087 
L 80.510553 123.777163 
L 79.777085 124.146689 
L 79.043618 124.493494 
L 78.310151 124.816845 
L 77.576683 125.063934 
L 76.843216 125.278055 
L 76.109749 125.465237 
L 75.376281 125.624549 
L 74.642814 125.75506 
L 73.909347 125.855771 
L 73.175879 125.92563 
L 72.442412 125.963636 
L 71.708945 125.957975 
L 70.975477 125.914772 
L 70.24201 125.835293 
L 69.508543 125.718246 
L 68.775075 125.562392 
L 68.041608 125.36624 
L 67.308141 125.128493 
L 66.574673 124.847562 
L 65.841206 124.521944 
L 65.107739 124.150155 
L 64.374271 123.73039 
L 63.640804 123.261121 
L 62.907337 122.740511 
L 62.173869 122.166681 
L 61.440402 121.537945 
L 60.706935 120.852228 
L 59.973467 120.10754 
L 59.24 119.301795 
z
" clip-path="url(#p775685ee47)" style="fill: #ac69da; fill-opacity: 0.3"/>
   </g>
   <g id="FillBetweenPolyCollection_4">
    <path d="M 59.24 94.640444 
L 59.24 242.608551 
L 59.973467 239.094176 
L 60.706935 235.671404 
L 61.440402 232.337089 
L 62.173869 229.088225 
L 62.907337 225.921741 
L 63.640804 222.835066 
L 64.374271 219.825383 
L 65.107739 216.889996 
L 65.841206 214.026553 
L 66.574673 211.232377 
L 67.308141 208.50524 
L 68.041608 205.84286 
L 68.775075 203.242913 
L 69.508543 200.703352 
L 70.24201 198.222043 
L 70.975477 195.797085 
L 71.708945 193.42652 
L 72.442412 191.111185 
L 73.175879 188.856773 
L 73.909347 186.650172 
L 74.642814 184.489859 
L 75.376281 182.374206 
L 76.109749 180.301793 
L 76.843216 178.271166 
L 77.576683 176.280956 
L 78.310151 174.326276 
L 79.043618 172.382574 
L 79.777085 170.474062 
L 80.510553 168.599612 
L 81.24402 166.756498 
L 81.977487 164.929664 
L 82.710955 163.081683 
L 83.444422 161.263217 
L 84.177889 159.473826 
L 84.911357 157.712621 
L 85.644824 155.977117 
L 86.378291 154.258107 
L 87.111759 152.56252 
L 87.845226 150.88802 
L 88.578693 149.226179 
L 89.312161 147.542773 
L 90.045628 145.844197 
L 90.779095 144.107657 
L 91.512563 142.361732 
L 92.24603 140.631109 
L 92.979497 138.915388 
L 93.712965 137.214211 
L 94.446432 135.527219 
L 95.179899 133.854074 
L 95.913367 132.194449 
L 96.646834 130.548035 
L 97.380302 128.914519 
L 98.113769 127.293631 
L 98.847236 125.685066 
L 99.580704 124.088583 
L 100.314171 122.50392 
L 101.047638 120.946651 
L 101.781106 119.962569 
L 102.514573 119.025588 
L 103.24804 118.095984 
L 103.981508 117.172384 
L 104.714975 116.254755 
L 105.448442 115.343069 
L 106.18191 114.437284 
L 106.915377 113.537372 
L 107.648844 112.653493 
L 108.382312 111.939812 
L 109.115779 111.229957 
L 109.849246 110.523918 
L 110.582714 109.937634 
L 111.316181 109.356844 
L 112.049648 108.778852 
L 112.783116 108.20364 
L 113.516583 107.651241 
L 114.25005 107.215038 
L 114.983518 106.81302 
L 115.716985 106.491971 
L 116.450452 106.17574 
L 117.18392 105.861219 
L 117.917387 105.615166 
L 118.650854 105.391109 
L 119.384322 105.168368 
L 120.117789 104.946943 
L 120.851256 104.726841 
L 121.584724 104.570103 
L 122.318191 104.491938 
L 123.051658 104.465931 
L 123.785126 104.446687 
L 124.518593 104.42769 
L 125.25206 104.408941 
L 125.985528 104.403832 
L 126.718995 104.408789 
L 127.452462 104.419257 
L 128.18593 104.443135 
L 128.919397 104.467099 
L 129.652864 104.501145 
L 130.386332 104.54257 
L 131.119799 104.584103 
L 131.853266 104.625748 
L 132.586734 104.667503 
L 133.320201 104.709371 
L 134.053668 104.751352 
L 134.787136 104.771697 
L 135.520603 104.729873 
L 136.25407 104.680329 
L 136.987538 104.630942 
L 137.721005 104.577325 
L 138.454472 104.519818 
L 139.18794 104.465313 
L 139.921407 104.412609 
L 140.654874 104.360415 
L 141.388342 104.292882 
L 142.121809 104.222995 
L 142.855276 104.109351 
L 143.588744 103.977951 
L 144.322211 103.85572 
L 145.055678 103.737423 
L 145.789146 103.620043 
L 146.522613 103.494556 
L 147.25608 103.345699 
L 147.989548 103.183751 
L 148.723015 103.02293 
L 149.456482 102.810929 
L 150.18995 102.523744 
L 150.923417 102.238218 
L 151.656884 101.95437 
L 152.390352 101.67221 
L 153.123819 101.391756 
L 153.857286 101.090316 
L 154.590754 100.770776 
L 155.324221 100.390787 
L 156.057688 100.013519 
L 156.791156 99.639014 
L 157.524623 99.267294 
L 158.25809 98.909114 
L 158.991558 98.427081 
L 159.725025 97.839507 
L 160.458492 97.257073 
L 161.19196 96.679871 
L 161.925427 96.072002 
L 162.658894 95.341736 
L 163.392362 94.532536 
L 164.125829 93.741155 
L 164.859296 92.978634 
L 165.592764 92.250125 
L 166.326231 91.544388 
L 167.059698 90.862394 
L 167.793166 90.205124 
L 168.526633 89.573628 
L 169.260101 88.96898 
L 169.993568 88.392295 
L 170.727035 87.844743 
L 171.460503 87.327556 
L 172.19397 86.841981 
L 172.927437 86.389356 
L 173.660905 85.971048 
L 174.394372 85.613292 
L 175.127839 85.314087 
L 175.861307 85.051088 
L 176.594774 84.825725 
L 177.328241 84.639444 
L 178.061709 84.521367 
L 178.795176 84.460823 
L 179.528643 84.446051 
L 180.262111 84.502495 
L 180.995578 84.619332 
L 181.729045 84.789311 
L 182.462513 85.08586 
L 183.19598 85.468057 
L 183.929447 85.95957 
L 184.662915 86.518956 
L 185.396382 87.149021 
L 186.129849 87.852542 
L 186.863317 88.699121 
L 187.596784 89.654314 
L 188.330251 90.698002 
L 189.063719 91.833792 
L 189.797186 93.065439 
L 190.530653 94.396871 
L 191.264121 95.836895 
L 191.997588 97.382644 
L 192.731055 99.040213 
L 193.464523 100.81443 
L 194.19799 102.709964 
L 194.931457 104.731561 
L 195.664925 106.883913 
L 196.398392 109.172317 
L 197.131859 111.601684 
L 197.865327 114.177584 
L 198.598794 116.905392 
L 199.332261 119.785935 
L 200.065729 122.773845 
L 200.799196 125.925223 
L 201.532663 129.245792 
L 202.266131 132.742248 
L 202.999598 136.420525 
L 203.733065 140.285305 
L 204.466533 144.349049 
L 205.2 148.632287 
L 205.2 -109.709933 
L 205.2 -109.709933 
L 204.466533 -103.50279 
L 203.733065 -97.522044 
L 202.999598 -91.742531 
L 202.266131 -86.149536 
L 201.532663 -80.726746 
L 200.799196 -75.471335 
L 200.065729 -70.385133 
L 199.332261 -65.46239 
L 198.598794 -60.630471 
L 197.865327 -55.949869 
L 197.131859 -51.421191 
L 196.398392 -47.03903 
L 195.664925 -42.797816 
L 194.931457 -38.692654 
L 194.19799 -34.71828 
L 193.464523 -30.869944 
L 192.731055 -27.142934 
L 191.997588 -23.532579 
L 191.264121 -20.033582 
L 190.530653 -16.634875 
L 189.797186 -13.343293 
L 189.063719 -10.151488 
L 188.330251 -7.055555 
L 187.596784 -4.051702 
L 186.863317 -1.136359 
L 186.129849 1.687399 
L 185.396382 4.414472 
L 184.662915 7.068104 
L 183.929447 9.651041 
L 183.19598 12.166114 
L 182.462513 14.624627 
L 181.729045 17.037812 
L 180.995578 19.411858 
L 180.262111 21.732746 
L 179.528643 24.001318 
L 178.795176 26.218684 
L 178.061709 28.390278 
L 177.328241 30.517002 
L 176.594774 32.600814 
L 175.861307 34.645552 
L 175.127839 36.652658 
L 174.394372 38.623571 
L 173.660905 40.628981 
L 172.927437 42.675265 
L 172.19397 44.687247 
L 171.460503 46.666289 
L 170.727035 48.613706 
L 169.993568 50.530757 
L 169.260101 52.41868 
L 168.526633 54.278639 
L 167.793166 56.111748 
L 167.059698 57.919098 
L 166.326231 59.701704 
L 165.592764 61.460582 
L 164.859296 63.196673 
L 164.125829 64.900299 
L 163.392362 66.576307 
L 162.658894 68.234491 
L 161.925427 69.810538 
L 161.19196 70.903147 
L 160.458492 71.860108 
L 159.725025 72.811837 
L 158.991558 73.758432 
L 158.25809 74.51984 
L 157.524623 75.116602 
L 156.791156 75.728897 
L 156.057688 76.338404 
L 155.324221 76.945147 
L 154.590754 77.549169 
L 153.857286 78.066145 
L 153.123819 78.550472 
L 152.390352 78.991231 
L 151.656884 79.430282 
L 150.923417 79.867646 
L 150.18995 80.303331 
L 149.456482 80.737357 
L 148.723015 81.071265 
L 147.989548 81.314033 
L 147.25608 81.555672 
L 146.522613 81.7764 
L 145.789146 81.96642 
L 145.055678 82.155328 
L 144.322211 82.343319 
L 143.588744 82.534712 
L 142.855276 82.737392 
L 142.121809 82.91954 
L 141.388342 83.053209 
L 140.654874 83.182894 
L 139.921407 83.29388 
L 139.18794 83.404353 
L 138.454472 83.511375 
L 137.721005 83.611922 
L 136.987538 83.706498 
L 136.25407 83.794666 
L 135.520603 83.882678 
L 134.787136 83.957955 
L 134.053668 83.982064 
L 133.320201 83.995027 
L 132.586734 84.007881 
L 131.853266 84.020618 
L 131.119799 84.033246 
L 130.386332 84.045764 
L 129.652864 84.058173 
L 128.919397 84.07785 
L 128.18593 84.107596 
L 127.452462 84.137254 
L 126.718995 84.168113 
L 125.985528 84.200346 
L 125.25206 84.241952 
L 124.518593 84.296298 
L 123.785126 84.350396 
L 123.051658 84.40425 
L 122.318191 84.45991 
L 121.584724 84.539809 
L 120.851256 84.670487 
L 120.117789 84.853102 
L 119.384322 85.034394 
L 118.650854 85.214368 
L 117.917387 85.393029 
L 117.18392 85.583733 
L 116.450452 85.816068 
L 115.716985 86.046586 
L 114.983518 86.269007 
L 114.25005 86.570422 
L 113.516583 86.895432 
L 112.783116 87.311509 
L 112.049648 87.741337 
L 111.316181 88.168384 
L 110.582714 88.592632 
L 109.849246 89.016266 
L 109.115779 89.531553 
L 108.382312 90.04303 
L 107.648844 90.550677 
L 106.915377 91.183205 
L 106.18191 91.817629 
L 105.448442 92.446183 
L 104.714975 93.068828 
L 103.981508 93.685539 
L 103.24804 94.296276 
L 102.514573 94.901008 
L 101.781106 95.49924 
L 101.047638 96.108334 
L 100.314171 97.119445 
L 99.580704 98.125795 
L 98.847236 99.120329 
L 98.113769 100.102787 
L 97.380302 101.072908 
L 96.646834 102.03041 
L 95.913367 102.975006 
L 95.179899 103.906399 
L 94.446432 104.824268 
L 93.712965 105.72829 
L 92.979497 106.618123 
L 92.24603 107.493412 
L 91.512563 108.353799 
L 90.779095 109.1989 
L 90.045628 110.010234 
L 89.312161 110.682666 
L 88.578693 111.274797 
L 87.845226 111.784165 
L 87.111759 112.258982 
L 86.378291 112.687282 
L 85.644824 113.073251 
L 84.911357 113.417433 
L 84.177889 113.731725 
L 83.444422 114.017824 
L 82.710955 114.274864 
L 81.977487 114.501781 
L 81.24402 114.681744 
L 80.510553 114.812674 
L 79.777085 114.881215 
L 79.043618 114.915678 
L 78.310151 114.914959 
L 77.576683 114.82053 
L 76.843216 114.679433 
L 76.109749 114.497926 
L 75.376281 114.274617 
L 74.642814 114.0081 
L 73.909347 113.696891 
L 73.175879 113.339402 
L 72.442412 112.934127 
L 71.708945 112.464266 
L 70.975477 111.938309 
L 70.24201 111.357943 
L 69.508543 110.721225 
L 68.775075 110.026288 
L 68.041608 109.270916 
L 67.308141 108.453144 
L 66.574673 107.570599 
L 65.841206 106.621022 
L 65.107739 105.602187 
L 64.374271 104.511391 
L 63.640804 103.346332 
L 62.907337 102.104265 
L 62.173869 100.782372 
L 61.440402 99.378116 
L 60.706935 97.888393 
L 59.973467 96.310212 
L 59.24 94.640444 
z
" clip-path="url(#p775685ee47)" style="fill: #ac69da; fill-opacity: 0.3"/>
   </g>
   <g id="matplotlib.axis_1">
    <g id="xtick_1">
     <g id="line2d_1">
      <defs>
       <path id="mc8d3a9442d" d="M 0 0 
L 0 3.5 
" style="stroke: #000000; stroke-width: 0.8"/>
      </defs>
      <g>
       <use xlink:href="#mc8d3a9442d" x="80.091429" y="174.04" style="stroke: #000000; stroke-width: 0.8"/>
      </g>
     </g>
     <g id="text_1">
      <!-- −5 -->
      <g transform="translate(72.720335 188.638438) scale(0.1 -0.1)">
       <defs>
        <path id="DejaVuSans-2212" d="M 678 2272 
L 4684 2272 
L 4684 1741 
L 678 1741 
L 678 2272 
z
" transform="scale(0.015625)"/>
        <path id="DejaVuSans-35" d="M 691 4666 
L 3169 4666 
L 3169 4134 
L 1269 4134 
L 1269 2991 
Q 1406 3038 1543 3061 
Q 1681 3084 1819 3084 
Q 2600 3084 3056 2656 
Q 3513 2228 3513 1497 
Q 3513 744 3044 326 
Q 2575 -91 1722 -91 
Q 1428 -91 1123 -41 
Q 819 9 494 109 
L 494 744 
Q 775 591 1075 516 
Q 1375 441 1709 441 
Q 2250 441 2565 725 
Q 2881 1009 2881 1497 
Q 2881 1984 2565 2268 
Q 2250 2553 1709 2553 
Q 1456 2553 1204 2497 
Q 953 2441 691 2322 
L 691 4666 
z
" transform="scale(0.015625)"/>
       </defs>
       <use xlink:href="#DejaVuSans-2212"/>
       <use xlink:href="#DejaVuSans-35" transform="translate(83.789062 0)"/>
      </g>
     </g>
    </g>
    <g id="xtick_2">
     <g id="line2d_2">
      <g>
       <use xlink:href="#mc8d3a9442d" x="132.22" y="174.04" style="stroke: #000000; stroke-width: 0.8"/>
      </g>
     </g>
     <g id="text_2">
      <!-- 0 -->
      <g transform="translate(129.03875 188.638438) scale(0.1 -0.1)">
       <defs>
        <path id="DejaVuSans-30" d="M 2034 4250 
Q 1547 4250 1301 3770 
Q 1056 3291 1056 2328 
Q 1056 1369 1301 889 
Q 1547 409 2034 409 
Q 2525 409 2770 889 
Q 3016 1369 3016 2328 
Q 3016 3291 2770 3770 
Q 2525 4250 2034 4250 
z
M 2034 4750 
Q 2819 4750 3233 4129 
Q 3647 3509 3647 2328 
Q 3647 1150 3233 529 
Q 2819 -91 2034 -91 
Q 1250 -91 836 529 
Q 422 1150 422 2328 
Q 422 3509 836 4129 
Q 1250 4750 2034 4750 
z
" transform="scale(0.015625)"/>
       </defs>
       <use xlink:href="#DejaVuSans-30"/>
      </g>
     </g>
    </g>
    <g id="xtick_3">
     <g id="line2d_3">
      <g>
       <use xlink:href="#mc8d3a9442d" x="184.348571" y="174.04" style="stroke: #000000; stroke-width: 0.8"/>
      </g>
     </g>
     <g id="text_3">
      <!-- 5 -->
      <g transform="translate(181.167321 188.638438) scale(0.1 -0.1)">
       <use xlink:href="#DejaVuSans-35"/>
      </g>
     </g>
    </g>
    <g id="text_4">
     <!-- x -->
     <g transform="translate(129.260625 202.316563) scale(0.1 -0.1)">
      <defs>
       <path id="DejaVuSans-78" d="M 3513 3500 
L 2247 1797 
L 3578 0 
L 2900 0 
L 1881 1375 
L 863 0 
L 184 0 
L 1544 1831 
L 300 3500 
L 978 3500 
L 1906 2253 
L 2834 3500 
L 3513 3500 
z
" transform="scale(0.015625)"/>
      </defs>
      <use xlink:href="#DejaVuSans-78"/>
     </g>
    </g>
   </g>
   <g id="matplotlib.axis_2">
    <g id="ytick_1">
     <g id="line2d_4">
      <defs>
       <path id="m7b8644ff3e" d="M 0 0 
L -3.5 0 
" style="stroke: #000000; stroke-width: 0.8"/>
      </defs>
      <g>
       <use xlink:href="#m7b8644ff3e" x="59.24" y="174.04" style="stroke: #000000; stroke-width: 0.8"/>
      </g>
     </g>
     <g id="text_5">
      <!-- −150 -->
      <g transform="translate(24.772813 177.839219) scale(0.1 -0.1)">
       <defs>
        <path id="DejaVuSans-31" d="M 794 531 
L 1825 531 
L 1825 4091 
L 703 3866 
L 703 4441 
L 1819 4666 
L 2450 4666 
L 2450 531 
L 3481 531 
L 3481 0 
L 794 0 
L 794 531 
z
" transform="scale(0.015625)"/>
       </defs>
       <use xlink:href="#DejaVuSans-2212"/>
       <use xlink:href="#DejaVuSans-31" transform="translate(83.789062 0)"/>
       <use xlink:href="#DejaVuSans-35" transform="translate(147.412109 0)"/>
       <use xlink:href="#DejaVuSans-30" transform="translate(211.035156 0)"/>
      </g>
     </g>
    </g>
    <g id="ytick_2">
     <g id="line2d_5">
      <g>
       <use xlink:href="#m7b8644ff3e" x="59.24" y="147.493333" style="stroke: #000000; stroke-width: 0.8"/>
      </g>
     </g>
     <g id="text_6">
      <!-- −100 -->
      <g transform="translate(24.772813 151.292552) scale(0.1 -0.1)">
       <use xlink:href="#DejaVuSans-2212"/>
       <use xlink:href="#DejaVuSans-31" transform="translate(83.789062 0)"/>
       <use xlink:href="#DejaVuSans-30" transform="translate(147.412109 0)"/>
       <use xlink:href="#DejaVuSans-30" transform="translate(211.035156 0)"/>
      </g>
     </g>
    </g>
    <g id="ytick_3">
     <g id="line2d_6">
      <g>
       <use xlink:href="#m7b8644ff3e" x="59.24" y="120.946667" style="stroke: #000000; stroke-width: 0.8"/>
      </g>
     </g>
     <g id="text_7">
      <!-- −50 -->
      <g transform="translate(31.135313 124.745885) scale(0.1 -0.1)">
       <use xlink:href="#DejaVuSans-2212"/>
       <use xlink:href="#DejaVuSans-35" transform="translate(83.789062 0)"/>
       <use xlink:href="#DejaVuSans-30" transform="translate(147.412109 0)"/>
      </g>
     </g>
    </g>
    <g id="ytick_4">
     <g id="line2d_7">
      <g>
       <use xlink:href="#m7b8644ff3e" x="59.24" y="94.4" style="stroke: #000000; stroke-width: 0.8"/>
      </g>
     </g>
     <g id="text_8">
      <!-- 0 -->
      <g transform="translate(45.8775 98.199219) scale(0.1 -0.1)">
       <use xlink:href="#DejaVuSans-30"/>
      </g>
     </g>
    </g>
    <g id="ytick_5">
     <g id="line2d_8">
      <g>
       <use xlink:href="#m7b8644ff3e" x="59.24" y="67.853333" style="stroke: #000000; stroke-width: 0.8"/>
      </g>
     </g>
     <g id="text_9">
      <!-- 50 -->
      <g transform="translate(39.515 71.652552) scale(0.1 -0.1)">
       <use xlink:href="#DejaVuSans-35"/>
       <use xlink:href="#DejaVuSans-30" transform="translate(63.623047 0)"/>
      </g>
     </g>
    </g>
    <g id="ytick_6">
     <g id="line2d_9">
      <g>
       <use xlink:href="#m7b8644ff3e" x="59.24" y="41.306667" style="stroke: #000000; stroke-width: 0.8"/>
      </g>
     </g>
     <g id="text_10">
      <!-- 100 -->
      <g transform="translate(33.1525 45.105885) scale(0.1 -0.1)">
       <use xlink:href="#DejaVuSans-31"/>
       <use xlink:href="#DejaVuSans-30" transform="translate(63.623047 0)"/>
       <use xlink:href="#DejaVuSans-30" transform="translate(127.246094 0)"/>
      </g>
     </g>
    </g>
    <g id="ytick_7">
     <g id="line2d_10">
      <g>
       <use xlink:href="#m7b8644ff3e" x="59.24" y="14.76" style="stroke: #000000; stroke-width: 0.8"/>
      </g>
     </g>
     <g id="text_11">
      <!-- 150 -->
      <g transform="translate(33.1525 18.559219) scale(0.1 -0.1)">
       <use xlink:href="#DejaVuSans-31"/>
       <use xlink:href="#DejaVuSans-35" transform="translate(63.623047 0)"/>
       <use xlink:href="#DejaVuSans-30" transform="translate(127.246094 0)"/>
      </g>
     </g>
    </g>
    <g id="text_12">
     <!-- y -->
     <g transform="translate(18.693125 97.359375) rotate(-90) scale(0.1 -0.1)">
      <defs>
       <path id="DejaVuSans-79" d="M 2059 -325 
Q 1816 -950 1584 -1140 
Q 1353 -1331 966 -1331 
L 506 -1331 
L 506 -850 
L 844 -850 
Q 1081 -850 1212 -737 
Q 1344 -625 1503 -206 
L 1606 56 
L 191 3500 
L 800 3500 
L 1894 763 
L 2988 3500 
L 3597 3500 
L 2059 -325 
z
" transform="scale(0.015625)"/>
      </defs>
      <use xlink:href="#DejaVuSans-79"/>
     </g>
    </g>
   </g>
   <g id="line2d_11">
    <path d="M 68.257977 217 
L 70.928488 202.275676 
L 73.558398 188.976728 
L 76.188308 176.818317 
L 78.672112 166.336544 
L 81.155916 156.783419 
L 83.63972 148.115866 
L 85.977417 140.728557 
L 88.315115 134.051632 
L 90.652813 128.049177 
L 92.844404 123.002497 
L 95.035996 118.487459 
L 97.227588 114.474475 
L 99.419179 110.933952 
L 101.464665 108.029626 
L 103.51015 105.487032 
L 105.555636 103.282112 
L 107.601121 101.390808 
L 109.646607 99.789061 
L 111.692092 98.452813 
L 113.883684 97.28841 
L 116.075275 96.37158 
L 118.412973 95.63317 
L 120.896777 95.080194 
L 123.672793 94.692547 
L 126.887127 94.471057 
L 131.562523 94.400133 
L 138.42951 94.287825 
L 141.643844 94.007891 
L 144.41986 93.549279 
L 146.903664 92.916711 
L 149.241361 92.089503 
L 151.432953 91.077195 
L 153.478438 89.898921 
L 155.523924 88.470614 
L 157.569409 86.768216 
L 159.614895 84.767668 
L 161.66038 82.444912 
L 163.705866 79.77589 
L 165.751351 76.736543 
L 167.796837 73.302814 
L 169.842322 69.450644 
L 172.033914 64.831646 
L 174.225506 59.675086 
L 176.417097 53.951374 
L 178.754795 47.187614 
L 181.092492 39.708983 
L 183.43019 31.479567 
L 185.913994 21.873008 
L 188.397798 11.335268 
L 190.881602 -0.176728 
L 191.051274 -1 
L 191.051274 -1 
" clip-path="url(#p775685ee47)" style="fill: none; stroke: #000000; stroke-linecap: square"/>
   </g>
   <g id="line2d_12">
    <path d="M 59.24 168.624498 
L 80.510553 141.706143 
L 84.177889 136.602776 
L 88.578693 130.250488 
L 90.779095 126.653278 
L 101.047638 108.527492 
L 105.448442 103.894626 
L 107.648844 101.602085 
L 110.582714 99.265133 
L 113.516583 97.273336 
L 114.983518 96.541014 
L 117.917387 95.504098 
L 121.584724 94.554956 
L 123.785126 94.398542 
L 128.18593 94.275365 
L 133.320201 94.352199 
L 135.520603 94.306276 
L 141.388342 93.673046 
L 143.588744 93.256331 
L 148.723015 92.047098 
L 150.18995 91.413537 
L 154.590754 89.159973 
L 158.991558 86.092756 
L 161.925427 82.94127 
L 164.125829 79.320727 
L 175.127839 60.983373 
L 181.729045 50.913562 
L 185.396382 45.781746 
L 190.530653 38.880998 
L 205.2 19.461177 
L 205.2 19.461177 
" clip-path="url(#p775685ee47)" style="fill: none; stroke: #ff8b50; stroke-width: 1.5; stroke-linecap: square"/>
   </g>
   <g id="patch_3">
    <path d="M 59.24 174.04 
L 59.24 14.76 
" style="fill: none; stroke: #000000; stroke-width: 0.8; stroke-linejoin: miter; stroke-linecap: square"/>
   </g>
   <g id="patch_4">
    <path d="M 205.2 174.04 
L 205.2 14.76 
" style="fill: none; stroke: #000000; stroke-width: 0.8; stroke-linejoin: miter; stroke-linecap: square"/>
   </g>
   <g id="patch_5">
    <path d="M 59.24 174.04 
L 205.2 174.04 
" style="fill: none; stroke: #000000; stroke-width: 0.8; stroke-linejoin: miter; stroke-linecap: square"/>
   </g>
   <g id="patch_6">
    <path d="M 59.24 14.76 
L 205.2 14.76 
" style="fill: none; stroke: #000000; stroke-width: 0.8; stroke-linejoin: miter; stroke-linecap: square"/>
   </g>
   <g id="legend_1">
    <g id="patch_7">
     <path d="M 65.071 70.331513 
L 146.089361 70.331513 
Q 147.755361 70.331513 147.755361 68.665513 
L 147.755361 20.591 
Q 147.755361 18.925 146.089361 18.925 
L 65.071 18.925 
Q 63.405 18.925 63.405 20.591 
L 63.405 68.665513 
Q 63.405 70.331513 65.071 70.331513 
z
" style="fill: #ffffff; opacity: 0.8; stroke: #cccccc; stroke-linejoin: miter"/>
    </g>
    <g id="line2d_13">
     <path d="M 66.737 25.670998 
L 75.067 25.670998 
L 83.397 25.670998 
" style="fill: none; stroke: #000000; stroke-linecap: square"/>
    </g>
    <g id="text_13">
     <!-- True function -->
     <g transform="translate(90.061 28.586498) scale(0.0833 -0.0833)">
      <defs>
       <path id="DejaVuSans-54" d="M -19 4666 
L 3928 4666 
L 3928 4134 
L 2272 4134 
L 2272 0 
L 1638 0 
L 1638 4134 
L -19 4134 
L -19 4666 
z
" transform="scale(0.015625)"/>
       <path id="DejaVuSans-72" d="M 2631 2963 
Q 2534 3019 2420 3045 
Q 2306 3072 2169 3072 
Q 1681 3072 1420 2755 
Q 1159 2438 1159 1844 
L 1159 0 
L 581 0 
L 581 3500 
L 1159 3500 
L 1159 2956 
Q 1341 3275 1631 3429 
Q 1922 3584 2338 3584 
Q 2397 3584 2469 3576 
Q 2541 3569 2628 3553 
L 2631 2963 
z
" transform="scale(0.015625)"/>
       <path id="DejaVuSans-75" d="M 544 1381 
L 544 3500 
L 1119 3500 
L 1119 1403 
Q 1119 906 1312 657 
Q 1506 409 1894 409 
Q 2359 409 2629 706 
Q 2900 1003 2900 1516 
L 2900 3500 
L 3475 3500 
L 3475 0 
L 2900 0 
L 2900 538 
Q 2691 219 2414 64 
Q 2138 -91 1772 -91 
Q 1169 -91 856 284 
Q 544 659 544 1381 
z
M 1991 3584 
L 1991 3584 
z
" transform="scale(0.015625)"/>
       <path id="DejaVuSans-65" d="M 3597 1894 
L 3597 1613 
L 953 1613 
Q 991 1019 1311 708 
Q 1631 397 2203 397 
Q 2534 397 2845 478 
Q 3156 559 3463 722 
L 3463 178 
Q 3153 47 2828 -22 
Q 2503 -91 2169 -91 
Q 1331 -91 842 396 
Q 353 884 353 1716 
Q 353 2575 817 3079 
Q 1281 3584 2069 3584 
Q 2775 3584 3186 3129 
Q 3597 2675 3597 1894 
z
M 3022 2063 
Q 3016 2534 2758 2815 
Q 2500 3097 2075 3097 
Q 1594 3097 1305 2825 
Q 1016 2553 972 2059 
L 3022 2063 
z
" transform="scale(0.015625)"/>
       <path id="DejaVuSans-20" transform="scale(0.015625)"/>
       <path id="DejaVuSans-66" d="M 2375 4863 
L 2375 4384 
L 1825 4384 
Q 1516 4384 1395 4259 
Q 1275 4134 1275 3809 
L 1275 3500 
L 2222 3500 
L 2222 3053 
L 1275 3053 
L 1275 0 
L 697 0 
L 697 3053 
L 147 3053 
L 147 3500 
L 697 3500 
L 697 3744 
Q 697 4328 969 4595 
Q 1241 4863 1831 4863 
L 2375 4863 
z
" transform="scale(0.015625)"/>
       <path id="DejaVuSans-6e" d="M 3513 2113 
L 3513 0 
L 2938 0 
L 2938 2094 
Q 2938 2591 2744 2837 
Q 2550 3084 2163 3084 
Q 1697 3084 1428 2787 
Q 1159 2491 1159 1978 
L 1159 0 
L 581 0 
L 581 3500 
L 1159 3500 
L 1159 2956 
Q 1366 3272 1645 3428 
Q 1925 3584 2291 3584 
Q 2894 3584 3203 3211 
Q 3513 2838 3513 2113 
z
" transform="scale(0.015625)"/>
       <path id="DejaVuSans-63" d="M 3122 3366 
L 3122 2828 
Q 2878 2963 2633 3030 
Q 2388 3097 2138 3097 
Q 1578 3097 1268 2742 
Q 959 2388 959 1747 
Q 959 1106 1268 751 
Q 1578 397 2138 397 
Q 2388 397 2633 464 
Q 2878 531 3122 666 
L 3122 134 
Q 2881 22 2623 -34 
Q 2366 -91 2075 -91 
Q 1284 -91 818 406 
Q 353 903 353 1747 
Q 353 2603 823 3093 
Q 1294 3584 2113 3584 
Q 2378 3584 2631 3529 
Q 2884 3475 3122 3366 
z
" transform="scale(0.015625)"/>
       <path id="DejaVuSans-74" d="M 1172 4494 
L 1172 3500 
L 2356 3500 
L 2356 3053 
L 1172 3053 
L 1172 1153 
Q 1172 725 1289 603 
Q 1406 481 1766 481 
L 2356 481 
L 2356 0 
L 1766 0 
Q 1100 0 847 248 
Q 594 497 594 1153 
L 594 3053 
L 172 3053 
L 172 3500 
L 594 3500 
L 594 4494 
L 1172 4494 
z
" transform="scale(0.015625)"/>
       <path id="DejaVuSans-69" d="M 603 3500 
L 1178 3500 
L 1178 0 
L 603 0 
L 603 3500 
z
M 603 4863 
L 1178 4863 
L 1178 4134 
L 603 4134 
L 603 4863 
z
" transform="scale(0.015625)"/>
       <path id="DejaVuSans-6f" d="M 1959 3097 
Q 1497 3097 1228 2736 
Q 959 2375 959 1747 
Q 959 1119 1226 758 
Q 1494 397 1959 397 
Q 2419 397 2687 759 
Q 2956 1122 2956 1747 
Q 2956 2369 2687 2733 
Q 2419 3097 1959 3097 
z
M 1959 3584 
Q 2709 3584 3137 3096 
Q 3566 2609 3566 1747 
Q 3566 888 3137 398 
Q 2709 -91 1959 -91 
Q 1206 -91 779 398 
Q 353 888 353 1747 
Q 353 2609 779 3096 
Q 1206 3584 1959 3584 
z
" transform="scale(0.015625)"/>
      </defs>
      <use xlink:href="#DejaVuSans-54"/>
      <use xlink:href="#DejaVuSans-72" transform="translate(46.333984 0)"/>
      <use xlink:href="#DejaVuSans-75" transform="translate(87.447266 0)"/>
      <use xlink:href="#DejaVuSans-65" transform="translate(150.826172 0)"/>
      <use xlink:href="#DejaVuSans-20" transform="translate(212.349609 0)"/>
      <use xlink:href="#DejaVuSans-66" transform="translate(244.136719 0)"/>
      <use xlink:href="#DejaVuSans-75" transform="translate(279.341797 0)"/>
      <use xlink:href="#DejaVuSans-6e" transform="translate(342.720703 0)"/>
      <use xlink:href="#DejaVuSans-63" transform="translate(406.099609 0)"/>
      <use xlink:href="#DejaVuSans-74" transform="translate(461.080078 0)"/>
      <use xlink:href="#DejaVuSans-69" transform="translate(500.289062 0)"/>
      <use xlink:href="#DejaVuSans-6f" transform="translate(528.072266 0)"/>
      <use xlink:href="#DejaVuSans-6e" transform="translate(589.253906 0)"/>
     </g>
    </g>
    <g id="PathCollection_2">
     <g>
      <use xlink:href="#m833930a1e7" x="75.067" y="38.626752" style="fill-opacity: 0.8; stroke: #000000; stroke-opacity: 0.8"/>
     </g>
    </g>
    <g id="text_14">
     <!-- Training data -->
     <g transform="translate(90.061 40.813377) scale(0.0833 -0.0833)">
      <defs>
       <path id="DejaVuSans-61" d="M 2194 1759 
Q 1497 1759 1228 1600 
Q 959 1441 959 1056 
Q 959 750 1161 570 
Q 1363 391 1709 391 
Q 2188 391 2477 730 
Q 2766 1069 2766 1631 
L 2766 1759 
L 2194 1759 
z
M 3341 1997 
L 3341 0 
L 2766 0 
L 2766 531 
Q 2569 213 2275 61 
Q 1981 -91 1556 -91 
Q 1019 -91 701 211 
Q 384 513 384 1019 
Q 384 1609 779 1909 
Q 1175 2209 1959 2209 
L 2766 2209 
L 2766 2266 
Q 2766 2663 2505 2880 
Q 2244 3097 1772 3097 
Q 1472 3097 1187 3025 
Q 903 2953 641 2809 
L 641 3341 
Q 956 3463 1253 3523 
Q 1550 3584 1831 3584 
Q 2591 3584 2966 3190 
Q 3341 2797 3341 1997 
z
" transform="scale(0.015625)"/>
       <path id="DejaVuSans-67" d="M 2906 1791 
Q 2906 2416 2648 2759 
Q 2391 3103 1925 3103 
Q 1463 3103 1205 2759 
Q 947 2416 947 1791 
Q 947 1169 1205 825 
Q 1463 481 1925 481 
Q 2391 481 2648 825 
Q 2906 1169 2906 1791 
z
M 3481 434 
Q 3481 -459 3084 -895 
Q 2688 -1331 1869 -1331 
Q 1566 -1331 1297 -1286 
Q 1028 -1241 775 -1147 
L 775 -588 
Q 1028 -725 1275 -790 
Q 1522 -856 1778 -856 
Q 2344 -856 2625 -561 
Q 2906 -266 2906 331 
L 2906 616 
Q 2728 306 2450 153 
Q 2172 0 1784 0 
Q 1141 0 747 490 
Q 353 981 353 1791 
Q 353 2603 747 3093 
Q 1141 3584 1784 3584 
Q 2172 3584 2450 3431 
Q 2728 3278 2906 2969 
L 2906 3500 
L 3481 3500 
L 3481 434 
z
" transform="scale(0.015625)"/>
       <path id="DejaVuSans-64" d="M 2906 2969 
L 2906 4863 
L 3481 4863 
L 3481 0 
L 2906 0 
L 2906 525 
Q 2725 213 2448 61 
Q 2172 -91 1784 -91 
Q 1150 -91 751 415 
Q 353 922 353 1747 
Q 353 2572 751 3078 
Q 1150 3584 1784 3584 
Q 2172 3584 2448 3432 
Q 2725 3281 2906 2969 
z
M 947 1747 
Q 947 1113 1208 752 
Q 1469 391 1925 391 
Q 2381 391 2643 752 
Q 2906 1113 2906 1747 
Q 2906 2381 2643 2742 
Q 2381 3103 1925 3103 
Q 1469 3103 1208 2742 
Q 947 2381 947 1747 
z
" transform="scale(0.015625)"/>
      </defs>
      <use xlink:href="#DejaVuSans-54"/>
      <use xlink:href="#DejaVuSans-72" transform="translate(46.333984 0)"/>
      <use xlink:href="#DejaVuSans-61" transform="translate(87.447266 0)"/>
      <use xlink:href="#DejaVuSans-69" transform="translate(148.726562 0)"/>
      <use xlink:href="#DejaVuSans-6e" transform="translate(176.509766 0)"/>
      <use xlink:href="#DejaVuSans-69" transform="translate(239.888672 0)"/>
      <use xlink:href="#DejaVuSans-6e" transform="translate(267.671875 0)"/>
      <use xlink:href="#DejaVuSans-67" transform="translate(331.050781 0)"/>
      <use xlink:href="#DejaVuSans-20" transform="translate(394.527344 0)"/>
      <use xlink:href="#DejaVuSans-64" transform="translate(426.314453 0)"/>
      <use xlink:href="#DejaVuSans-61" transform="translate(489.791016 0)"/>
      <use xlink:href="#DejaVuSans-74" transform="translate(551.070312 0)"/>
      <use xlink:href="#DejaVuSans-61" transform="translate(590.279297 0)"/>
     </g>
    </g>
    <g id="line2d_14">
     <path d="M 66.737 50.124755 
L 75.067 50.124755 
L 83.397 50.124755 
" style="fill: none; stroke: #ff8b50; stroke-width: 1.5; stroke-linecap: square"/>
    </g>
    <g id="text_15">
     <!-- Prediction -->
     <g transform="translate(90.061 53.040255) scale(0.0833 -0.0833)">
      <defs>
       <path id="DejaVuSans-50" d="M 1259 4147 
L 1259 2394 
L 2053 2394 
Q 2494 2394 2734 2622 
Q 2975 2850 2975 3272 
Q 2975 3691 2734 3919 
Q 2494 4147 2053 4147 
L 1259 4147 
z
M 628 4666 
L 2053 4666 
Q 2838 4666 3239 4311 
Q 3641 3956 3641 3272 
Q 3641 2581 3239 2228 
Q 2838 1875 2053 1875 
L 1259 1875 
L 1259 0 
L 628 0 
L 628 4666 
z
" transform="scale(0.015625)"/>
      </defs>
      <use xlink:href="#DejaVuSans-50"/>
      <use xlink:href="#DejaVuSans-72" transform="translate(58.552734 0)"/>
      <use xlink:href="#DejaVuSans-65" transform="translate(97.416016 0)"/>
      <use xlink:href="#DejaVuSans-64" transform="translate(158.939453 0)"/>
      <use xlink:href="#DejaVuSans-69" transform="translate(222.416016 0)"/>
      <use xlink:href="#DejaVuSans-63" transform="translate(250.199219 0)"/>
      <use xlink:href="#DejaVuSans-74" transform="translate(305.179688 0)"/>
      <use xlink:href="#DejaVuSans-69" transform="translate(344.388672 0)"/>
      <use xlink:href="#DejaVuSans-6f" transform="translate(372.171875 0)"/>
      <use xlink:href="#DejaVuSans-6e" transform="translate(433.353516 0)"/>
     </g>
    </g>
    <g id="patch_8">
     <path d="M 66.737 65.267133 
L 83.397 65.267133 
L 83.397 59.436133 
L 66.737 59.436133 
z
" style="fill: #ac69da; fill-opacity: 0.3"/>
    </g>
    <g id="text_16">
     <!-- Unc. -->
     <g transform="translate(90.061 65.267133) scale(0.0833 -0.0833)">
      <defs>
       <path id="DejaVuSans-55" d="M 556 4666 
L 1191 4666 
L 1191 1831 
Q 1191 1081 1462 751 
Q 1734 422 2344 422 
Q 2950 422 3222 751 
Q 3494 1081 3494 1831 
L 3494 4666 
L 4128 4666 
L 4128 1753 
Q 4128 841 3676 375 
Q 3225 -91 2344 -91 
Q 1459 -91 1007 375 
Q 556 841 556 1753 
L 556 4666 
z
" transform="scale(0.015625)"/>
       <path id="DejaVuSans-2e" d="M 684 794 
L 1344 794 
L 1344 0 
L 684 0 
L 684 794 
z
" transform="scale(0.015625)"/>
      </defs>
      <use xlink:href="#DejaVuSans-55"/>
      <use xlink:href="#DejaVuSans-6e" transform="translate(73.193359 0)"/>
      <use xlink:href="#DejaVuSans-63" transform="translate(136.572266 0)"/>
      <use xlink:href="#DejaVuSans-2e" transform="translate(191.552734 0)"/>
     </g>
    </g>
   </g>
  </g>
 </g>
 <defs>
  <clipPath id="p775685ee47">
   <rect x="59.24" y="14.76" width="145.96" height="159.28"/>
  </clipPath>
 </defs>
</svg>
