<?xml version="1.0" encoding="utf-8" standalone="no"?>
<!DOCTYPE svg PUBLIC "-//W3C//DTD SVG 1.1//EN"
  "http://www.w3.org/Graphics/SVG/1.1/DTD/svg11.dtd">
<svg xmlns:xlink="http://www.w3.org/1999/xlink" width="216pt" height="216pt" viewBox="0 0 216 216" xmlns="http://www.w3.org/2000/svg" version="1.1">
 <metadata>
  <rdf:RDF xmlns:dc="http://purl.org/dc/elements/1.1/" xmlns:cc="http://creativecommons.org/ns#" xmlns:rdf="http://www.w3.org/1999/02/22-rdf-syntax-ns#">
   <cc:Work>
    <dc:type rdf:resource="http://purl.org/dc/dcmitype/StillImage"/>
    <dc:date>2025-06-10T13:13:09.697663</dc:date>
    <dc:format>image/svg+xml</dc:format>
    <dc:creator>
     <cc:Agent>
      <dc:title>Matplotlib v3.10.0, https://matplotlib.org/</dc:title>
     </cc:Agent>
    </dc:creator>
   </cc:Work>
  </rdf:RDF>
 </metadata>
 <defs>
  <style type="text/css">*{stroke-linejoin: round; stroke-linecap: butt}</style>
 </defs>
 <g id="figure_1">
  <g id="patch_1">
   <path d="M 0 216 
L 216 216 
L 216 0 
L 0 0 
z
" style="fill: #ffffff"/>
  </g>
  <g id="axes_1">
   <g id="patch_2">
    <path d="M 59.24 174.04 
L 205.2 174.04 
L 205.2 14.76 
L 59.24 14.76 
z
" style="fill: #ffffff"/>
   </g>
   <g id="PathCollection_1">
    <defs>
     <path id="m531d10237e" d="M 0 1.224745 
C 0.324806 1.224745 0.636353 1.095698 0.866025 0.866025 
C 1.095698 0.636353 1.224745 0.324806 1.224745 0 
C 1.224745 -0.324806 1.095698 -0.636353 0.866025 -0.866025 
C 0.636353 -1.095698 0.324806 -1.224745 0 -1.224745 
C -0.324806 -1.224745 -0.636353 -1.095698 -0.866025 -0.866025 
C -1.095698 -0.636353 -1.224745 -0.324806 -1.224745 0 
C -1.224745 0.324806 -1.095698 0.636353 -0.866025 0.866025 
C -0.636353 1.095698 -0.324806 1.224745 0 1.224745 
z
" style="stroke: #000000; stroke-opacity: 0.8"/>
    </defs>
    <g clip-path="url(#p0dc2406ddb)">
     <use xlink:href="#m531d10237e" x="93.988119" y="120.888194" style="fill-opacity: 0.8; stroke: #000000; stroke-opacity: 0.8"/>
     <use xlink:href="#m531d10237e" x="99.327699" y="110.592371" style="fill-opacity: 0.8; stroke: #000000; stroke-opacity: 0.8"/>
     <use xlink:href="#m531d10237e" x="97.300751" y="114.404108" style="fill-opacity: 0.8; stroke: #000000; stroke-opacity: 0.8"/>
     <use xlink:href="#m531d10237e" x="96.065092" y="118.403852" style="fill-opacity: 0.8; stroke: #000000; stroke-opacity: 0.8"/>
     <use xlink:href="#m531d10237e" x="91.963015" y="123.146252" style="fill-opacity: 0.8; stroke: #000000; stroke-opacity: 0.8"/>
     <use xlink:href="#m531d10237e" x="91.962791" y="123.76937" style="fill-opacity: 0.8; stroke: #000000; stroke-opacity: 0.8"/>
     <use xlink:href="#m531d10237e" x="91.055421" y="125.820911" style="fill-opacity: 0.8; stroke: #000000; stroke-opacity: 0.8"/>
     <use xlink:href="#m531d10237e" x="98.544258" y="113.741096" style="fill-opacity: 0.8; stroke: #000000; stroke-opacity: 0.8"/>
     <use xlink:href="#m531d10237e" x="96.087857" y="114.266211" style="fill-opacity: 0.8; stroke: #000000; stroke-opacity: 0.8"/>
     <use xlink:href="#m531d10237e" x="97.079065" y="116.964043" style="fill-opacity: 0.8; stroke: #000000; stroke-opacity: 0.8"/>
     <use xlink:href="#m531d10237e" x="90.707906" y="126.980813" style="fill-opacity: 0.8; stroke: #000000; stroke-opacity: 0.8"/>
     <use xlink:href="#m531d10237e" x="99.50559" y="107.314667" style="fill-opacity: 0.8; stroke: #000000; stroke-opacity: 0.8"/>
     <use xlink:href="#m531d10237e" x="98.23164" y="114.373293" style="fill-opacity: 0.8; stroke: #000000; stroke-opacity: 0.8"/>
     <use xlink:href="#m531d10237e" x="92.484953" y="124.694985" style="fill-opacity: 0.8; stroke: #000000; stroke-opacity: 0.8"/>
     <use xlink:href="#m531d10237e" x="92.20217" y="124.266285" style="fill-opacity: 0.8; stroke: #000000; stroke-opacity: 0.8"/>
     <use xlink:href="#m531d10237e" x="92.216808" y="125.194009" style="fill-opacity: 0.8; stroke: #000000; stroke-opacity: 0.8"/>
     <use xlink:href="#m531d10237e" x="102.603949" y="109.040272" style="fill-opacity: 0.8; stroke: #000000; stroke-opacity: 0.8"/>
     <use xlink:href="#m531d10237e" x="104.647521" y="104.111664" style="fill-opacity: 0.8; stroke: #000000; stroke-opacity: 0.8"/>
     <use xlink:href="#m531d10237e" x="103.787409" y="106.86095" style="fill-opacity: 0.8; stroke: #000000; stroke-opacity: 0.8"/>
     <use xlink:href="#m531d10237e" x="102.483353" y="105.965317" style="fill-opacity: 0.8; stroke: #000000; stroke-opacity: 0.8"/>
     <use xlink:href="#m531d10237e" x="105.45467" y="104.847851" style="fill-opacity: 0.8; stroke: #000000; stroke-opacity: 0.8"/>
     <use xlink:href="#m531d10237e" x="101.077176" y="106.08257" style="fill-opacity: 0.8; stroke: #000000; stroke-opacity: 0.8"/>
     <use xlink:href="#m531d10237e" x="102.491837" y="107.956679" style="fill-opacity: 0.8; stroke: #000000; stroke-opacity: 0.8"/>
     <use xlink:href="#m531d10237e" x="103.17963" y="106.387353" style="fill-opacity: 0.8; stroke: #000000; stroke-opacity: 0.8"/>
     <use xlink:href="#m531d10237e" x="104.010983" y="103.621098" style="fill-opacity: 0.8; stroke: #000000; stroke-opacity: 0.8"/>
     <use xlink:href="#m531d10237e" x="107.060907" y="103.8217" style="fill-opacity: 0.8; stroke: #000000; stroke-opacity: 0.8"/>
     <use xlink:href="#m531d10237e" x="101.634882" y="107.442276" style="fill-opacity: 0.8; stroke: #000000; stroke-opacity: 0.8"/>
     <use xlink:href="#m531d10237e" x="104.55001" y="102.243418" style="fill-opacity: 0.8; stroke: #000000; stroke-opacity: 0.8"/>
     <use xlink:href="#m531d10237e" x="105.274529" y="106.1264" style="fill-opacity: 0.8; stroke: #000000; stroke-opacity: 0.8"/>
     <use xlink:href="#m531d10237e" x="100.214914" y="109.465501" style="fill-opacity: 0.8; stroke: #000000; stroke-opacity: 0.8"/>
     <use xlink:href="#m531d10237e" x="105.414746" y="103.00971" style="fill-opacity: 0.8; stroke: #000000; stroke-opacity: 0.8"/>
     <use xlink:href="#m531d10237e" x="101.364743" y="106.917615" style="fill-opacity: 0.8; stroke: #000000; stroke-opacity: 0.8"/>
     <use xlink:href="#m531d10237e" x="109.654599" y="101.753554" style="fill-opacity: 0.8; stroke: #000000; stroke-opacity: 0.8"/>
     <use xlink:href="#m531d10237e" x="117.845354" y="97.894822" style="fill-opacity: 0.8; stroke: #000000; stroke-opacity: 0.8"/>
     <use xlink:href="#m531d10237e" x="118.000549" y="94.915662" style="fill-opacity: 0.8; stroke: #000000; stroke-opacity: 0.8"/>
     <use xlink:href="#m531d10237e" x="116.543408" y="95.731964" style="fill-opacity: 0.8; stroke: #000000; stroke-opacity: 0.8"/>
     <use xlink:href="#m531d10237e" x="111.874694" y="97.946635" style="fill-opacity: 0.8; stroke: #000000; stroke-opacity: 0.8"/>
     <use xlink:href="#m531d10237e" x="109.956903" y="99.018043" style="fill-opacity: 0.8; stroke: #000000; stroke-opacity: 0.8"/>
     <use xlink:href="#m531d10237e" x="115.39274" y="97.715496" style="fill-opacity: 0.8; stroke: #000000; stroke-opacity: 0.8"/>
     <use xlink:href="#m531d10237e" x="113.130772" y="97.289091" style="fill-opacity: 0.8; stroke: #000000; stroke-opacity: 0.8"/>
     <use xlink:href="#m531d10237e" x="110.182711" y="98.947341" style="fill-opacity: 0.8; stroke: #000000; stroke-opacity: 0.8"/>
     <use xlink:href="#m531d10237e" x="113.6407" y="98.542584" style="fill-opacity: 0.8; stroke: #000000; stroke-opacity: 0.8"/>
     <use xlink:href="#m531d10237e" x="109.370435" y="97.017481" style="fill-opacity: 0.8; stroke: #000000; stroke-opacity: 0.8"/>
     <use xlink:href="#m531d10237e" x="117.478692" y="95.146106" style="fill-opacity: 0.8; stroke: #000000; stroke-opacity: 0.8"/>
     <use xlink:href="#m531d10237e" x="111.449938" y="100.495445" style="fill-opacity: 0.8; stroke: #000000; stroke-opacity: 0.8"/>
     <use xlink:href="#m531d10237e" x="115.19154" y="95.66763" style="fill-opacity: 0.8; stroke: #000000; stroke-opacity: 0.8"/>
     <use xlink:href="#m531d10237e" x="111.940467" y="99.85995" style="fill-opacity: 0.8; stroke: #000000; stroke-opacity: 0.8"/>
     <use xlink:href="#m531d10237e" x="113.871373" y="96.040563" style="fill-opacity: 0.8; stroke: #000000; stroke-opacity: 0.8"/>
     <use xlink:href="#m531d10237e" x="123.385577" y="92.87763" style="fill-opacity: 0.8; stroke: #000000; stroke-opacity: 0.8"/>
     <use xlink:href="#m531d10237e" x="120.03215" y="96.555394" style="fill-opacity: 0.8; stroke: #000000; stroke-opacity: 0.8"/>
     <use xlink:href="#m531d10237e" x="127.304481" y="92.92118" style="fill-opacity: 0.8; stroke: #000000; stroke-opacity: 0.8"/>
     <use xlink:href="#m531d10237e" x="125.502437" y="93.884545" style="fill-opacity: 0.8; stroke: #000000; stroke-opacity: 0.8"/>
     <use xlink:href="#m531d10237e" x="127.025668" y="93.156284" style="fill-opacity: 0.8; stroke: #000000; stroke-opacity: 0.8"/>
     <use xlink:href="#m531d10237e" x="126.611683" y="91.461434" style="fill-opacity: 0.8; stroke: #000000; stroke-opacity: 0.8"/>
     <use xlink:href="#m531d10237e" x="123.859967" y="95.064599" style="fill-opacity: 0.8; stroke: #000000; stroke-opacity: 0.8"/>
     <use xlink:href="#m531d10237e" x="126.862334" y="95.672604" style="fill-opacity: 0.8; stroke: #000000; stroke-opacity: 0.8"/>
     <use xlink:href="#m531d10237e" x="119.139134" y="96.865472" style="fill-opacity: 0.8; stroke: #000000; stroke-opacity: 0.8"/>
     <use xlink:href="#m531d10237e" x="120.13528" y="96.526283" style="fill-opacity: 0.8; stroke: #000000; stroke-opacity: 0.8"/>
     <use xlink:href="#m531d10237e" x="118.738183" y="95.670876" style="fill-opacity: 0.8; stroke: #000000; stroke-opacity: 0.8"/>
     <use xlink:href="#m531d10237e" x="121.333982" y="94.46102" style="fill-opacity: 0.8; stroke: #000000; stroke-opacity: 0.8"/>
     <use xlink:href="#m531d10237e" x="121.921037" y="94.47109" style="fill-opacity: 0.8; stroke: #000000; stroke-opacity: 0.8"/>
     <use xlink:href="#m531d10237e" x="120.833721" y="93.774083" style="fill-opacity: 0.8; stroke: #000000; stroke-opacity: 0.8"/>
     <use xlink:href="#m531d10237e" x="125.999208" y="94.492078" style="fill-opacity: 0.8; stroke: #000000; stroke-opacity: 0.8"/>
     <use xlink:href="#m531d10237e" x="121.625188" y="92.642" style="fill-opacity: 0.8; stroke: #000000; stroke-opacity: 0.8"/>
     <use xlink:href="#m531d10237e" x="130.189854" y="94.825466" style="fill-opacity: 0.8; stroke: #000000; stroke-opacity: 0.8"/>
     <use xlink:href="#m531d10237e" x="132.615677" y="90.067286" style="fill-opacity: 0.8; stroke: #000000; stroke-opacity: 0.8"/>
     <use xlink:href="#m531d10237e" x="128.892337" y="93.420701" style="fill-opacity: 0.8; stroke: #000000; stroke-opacity: 0.8"/>
     <use xlink:href="#m531d10237e" x="135.020551" y="95.75499" style="fill-opacity: 0.8; stroke: #000000; stroke-opacity: 0.8"/>
     <use xlink:href="#m531d10237e" x="128.277233" y="96.134434" style="fill-opacity: 0.8; stroke: #000000; stroke-opacity: 0.8"/>
     <use xlink:href="#m531d10237e" x="136.732128" y="93.588478" style="fill-opacity: 0.8; stroke: #000000; stroke-opacity: 0.8"/>
     <use xlink:href="#m531d10237e" x="134.742974" y="94.748407" style="fill-opacity: 0.8; stroke: #000000; stroke-opacity: 0.8"/>
     <use xlink:href="#m531d10237e" x="129.427907" y="93.272938" style="fill-opacity: 0.8; stroke: #000000; stroke-opacity: 0.8"/>
     <use xlink:href="#m531d10237e" x="127.637524" y="93.691311" style="fill-opacity: 0.8; stroke: #000000; stroke-opacity: 0.8"/>
     <use xlink:href="#m531d10237e" x="135.143476" y="94.504296" style="fill-opacity: 0.8; stroke: #000000; stroke-opacity: 0.8"/>
     <use xlink:href="#m531d10237e" x="134.137009" y="95.745472" style="fill-opacity: 0.8; stroke: #000000; stroke-opacity: 0.8"/>
     <use xlink:href="#m531d10237e" x="134.342278" y="96.80837" style="fill-opacity: 0.8; stroke: #000000; stroke-opacity: 0.8"/>
     <use xlink:href="#m531d10237e" x="134.733944" y="95.103765" style="fill-opacity: 0.8; stroke: #000000; stroke-opacity: 0.8"/>
     <use xlink:href="#m531d10237e" x="128.272543" y="93.064747" style="fill-opacity: 0.8; stroke: #000000; stroke-opacity: 0.8"/>
     <use xlink:href="#m531d10237e" x="130.908359" y="94.060049" style="fill-opacity: 0.8; stroke: #000000; stroke-opacity: 0.8"/>
     <use xlink:href="#m531d10237e" x="128.660143" y="96.405349" style="fill-opacity: 0.8; stroke: #000000; stroke-opacity: 0.8"/>
     <use xlink:href="#m531d10237e" x="144.852291" y="93.179729" style="fill-opacity: 0.8; stroke: #000000; stroke-opacity: 0.8"/>
     <use xlink:href="#m531d10237e" x="142.629943" y="93.257739" style="fill-opacity: 0.8; stroke: #000000; stroke-opacity: 0.8"/>
     <use xlink:href="#m531d10237e" x="139.920183" y="95.593901" style="fill-opacity: 0.8; stroke: #000000; stroke-opacity: 0.8"/>
     <use xlink:href="#m531d10237e" x="137.442665" y="94.088405" style="fill-opacity: 0.8; stroke: #000000; stroke-opacity: 0.8"/>
     <use xlink:href="#m531d10237e" x="139.735618" y="94.108393" style="fill-opacity: 0.8; stroke: #000000; stroke-opacity: 0.8"/>
     <use xlink:href="#m531d10237e" x="139.867223" y="96.010999" style="fill-opacity: 0.8; stroke: #000000; stroke-opacity: 0.8"/>
     <use xlink:href="#m531d10237e" x="143.615131" y="93.136881" style="fill-opacity: 0.8; stroke: #000000; stroke-opacity: 0.8"/>
     <use xlink:href="#m531d10237e" x="142.762088" y="92.957871" style="fill-opacity: 0.8; stroke: #000000; stroke-opacity: 0.8"/>
     <use xlink:href="#m531d10237e" x="145.075719" y="91.679484" style="fill-opacity: 0.8; stroke: #000000; stroke-opacity: 0.8"/>
     <use xlink:href="#m531d10237e" x="141.229809" y="92.378839" style="fill-opacity: 0.8; stroke: #000000; stroke-opacity: 0.8"/>
     <use xlink:href="#m531d10237e" x="137.961967" y="96.505656" style="fill-opacity: 0.8; stroke: #000000; stroke-opacity: 0.8"/>
     <use xlink:href="#m531d10237e" x="143.463505" y="95.227839" style="fill-opacity: 0.8; stroke: #000000; stroke-opacity: 0.8"/>
     <use xlink:href="#m531d10237e" x="143.904075" y="92.832334" style="fill-opacity: 0.8; stroke: #000000; stroke-opacity: 0.8"/>
     <use xlink:href="#m531d10237e" x="142.055176" y="93.135915" style="fill-opacity: 0.8; stroke: #000000; stroke-opacity: 0.8"/>
     <use xlink:href="#m531d10237e" x="143.998436" y="92.814061" style="fill-opacity: 0.8; stroke: #000000; stroke-opacity: 0.8"/>
     <use xlink:href="#m531d10237e" x="141.429804" y="87.897376" style="fill-opacity: 0.8; stroke: #000000; stroke-opacity: 0.8"/>
     <use xlink:href="#m531d10237e" x="150.965275" y="90.404671" style="fill-opacity: 0.8; stroke: #000000; stroke-opacity: 0.8"/>
     <use xlink:href="#m531d10237e" x="150.083104" y="89.920767" style="fill-opacity: 0.8; stroke: #000000; stroke-opacity: 0.8"/>
     <use xlink:href="#m531d10237e" x="146.356519" y="91.556887" style="fill-opacity: 0.8; stroke: #000000; stroke-opacity: 0.8"/>
     <use xlink:href="#m531d10237e" x="147.120815" y="91.812389" style="fill-opacity: 0.8; stroke: #000000; stroke-opacity: 0.8"/>
     <use xlink:href="#m531d10237e" x="146.412216" y="93.562875" style="fill-opacity: 0.8; stroke: #000000; stroke-opacity: 0.8"/>
     <use xlink:href="#m531d10237e" x="152.01876" y="89.555008" style="fill-opacity: 0.8; stroke: #000000; stroke-opacity: 0.8"/>
     <use xlink:href="#m531d10237e" x="149.034184" y="93.403804" style="fill-opacity: 0.8; stroke: #000000; stroke-opacity: 0.8"/>
     <use xlink:href="#m531d10237e" x="150.83403" y="91.755557" style="fill-opacity: 0.8; stroke: #000000; stroke-opacity: 0.8"/>
     <use xlink:href="#m531d10237e" x="154.531645" y="89.969327" style="fill-opacity: 0.8; stroke: #000000; stroke-opacity: 0.8"/>
     <use xlink:href="#m531d10237e" x="148.431219" y="92.27355" style="fill-opacity: 0.8; stroke: #000000; stroke-opacity: 0.8"/>
     <use xlink:href="#m531d10237e" x="149.924095" y="88.113389" style="fill-opacity: 0.8; stroke: #000000; stroke-opacity: 0.8"/>
     <use xlink:href="#m531d10237e" x="153.122873" y="93.095198" style="fill-opacity: 0.8; stroke: #000000; stroke-opacity: 0.8"/>
     <use xlink:href="#m531d10237e" x="148.241294" y="91.380219" style="fill-opacity: 0.8; stroke: #000000; stroke-opacity: 0.8"/>
     <use xlink:href="#m531d10237e" x="146.834348" y="95.506352" style="fill-opacity: 0.8; stroke: #000000; stroke-opacity: 0.8"/>
     <use xlink:href="#m531d10237e" x="148.806166" y="93.013925" style="fill-opacity: 0.8; stroke: #000000; stroke-opacity: 0.8"/>
     <use xlink:href="#m531d10237e" x="147.615039" y="90.956036" style="fill-opacity: 0.8; stroke: #000000; stroke-opacity: 0.8"/>
     <use xlink:href="#m531d10237e" x="164.004042" y="79.254079" style="fill-opacity: 0.8; stroke: #000000; stroke-opacity: 0.8"/>
     <use xlink:href="#m531d10237e" x="162.877349" y="82.616863" style="fill-opacity: 0.8; stroke: #000000; stroke-opacity: 0.8"/>
     <use xlink:href="#m531d10237e" x="161.258198" y="84.067537" style="fill-opacity: 0.8; stroke: #000000; stroke-opacity: 0.8"/>
     <use xlink:href="#m531d10237e" x="163.464342" y="79.02739" style="fill-opacity: 0.8; stroke: #000000; stroke-opacity: 0.8"/>
     <use xlink:href="#m531d10237e" x="162.836125" y="82.117944" style="fill-opacity: 0.8; stroke: #000000; stroke-opacity: 0.8"/>
     <use xlink:href="#m531d10237e" x="157.117255" y="86.824581" style="fill-opacity: 0.8; stroke: #000000; stroke-opacity: 0.8"/>
     <use xlink:href="#m531d10237e" x="163.659867" y="79.767303" style="fill-opacity: 0.8; stroke: #000000; stroke-opacity: 0.8"/>
     <use xlink:href="#m531d10237e" x="160.386501" y="84.968482" style="fill-opacity: 0.8; stroke: #000000; stroke-opacity: 0.8"/>
     <use xlink:href="#m531d10237e" x="162.871045" y="77.493683" style="fill-opacity: 0.8; stroke: #000000; stroke-opacity: 0.8"/>
     <use xlink:href="#m531d10237e" x="163.692602" y="78.784657" style="fill-opacity: 0.8; stroke: #000000; stroke-opacity: 0.8"/>
     <use xlink:href="#m531d10237e" x="158.335288" y="89.281019" style="fill-opacity: 0.8; stroke: #000000; stroke-opacity: 0.8"/>
     <use xlink:href="#m531d10237e" x="156.408138" y="87.472766" style="fill-opacity: 0.8; stroke: #000000; stroke-opacity: 0.8"/>
     <use xlink:href="#m531d10237e" x="157.500598" y="87.884291" style="fill-opacity: 0.8; stroke: #000000; stroke-opacity: 0.8"/>
     <use xlink:href="#m531d10237e" x="159.346391" y="83.690372" style="fill-opacity: 0.8; stroke: #000000; stroke-opacity: 0.8"/>
     <use xlink:href="#m531d10237e" x="162.969044" y="82.041064" style="fill-opacity: 0.8; stroke: #000000; stroke-opacity: 0.8"/>
     <use xlink:href="#m531d10237e" x="163.364904" y="80.428611" style="fill-opacity: 0.8; stroke: #000000; stroke-opacity: 0.8"/>
     <use xlink:href="#m531d10237e" x="164.719983" y="77.512476" style="fill-opacity: 0.8; stroke: #000000; stroke-opacity: 0.8"/>
     <use xlink:href="#m531d10237e" x="169.388805" y="68.963091" style="fill-opacity: 0.8; stroke: #000000; stroke-opacity: 0.8"/>
     <use xlink:href="#m531d10237e" x="168.523829" y="73.894711" style="fill-opacity: 0.8; stroke: #000000; stroke-opacity: 0.8"/>
     <use xlink:href="#m531d10237e" x="166.713896" y="75.704123" style="fill-opacity: 0.8; stroke: #000000; stroke-opacity: 0.8"/>
     <use xlink:href="#m531d10237e" x="165.766384" y="77.469269" style="fill-opacity: 0.8; stroke: #000000; stroke-opacity: 0.8"/>
     <use xlink:href="#m531d10237e" x="167.784337" y="74.365666" style="fill-opacity: 0.8; stroke: #000000; stroke-opacity: 0.8"/>
     <use xlink:href="#m531d10237e" x="173.393784" y="58.885188" style="fill-opacity: 0.8; stroke: #000000; stroke-opacity: 0.8"/>
     <use xlink:href="#m531d10237e" x="167.650775" y="72.91654" style="fill-opacity: 0.8; stroke: #000000; stroke-opacity: 0.8"/>
     <use xlink:href="#m531d10237e" x="169.463345" y="72.205371" style="fill-opacity: 0.8; stroke: #000000; stroke-opacity: 0.8"/>
     <use xlink:href="#m531d10237e" x="171.170644" y="65.251631" style="fill-opacity: 0.8; stroke: #000000; stroke-opacity: 0.8"/>
     <use xlink:href="#m531d10237e" x="168.025421" y="69.513372" style="fill-opacity: 0.8; stroke: #000000; stroke-opacity: 0.8"/>
     <use xlink:href="#m531d10237e" x="173.661353" y="59.410981" style="fill-opacity: 0.8; stroke: #000000; stroke-opacity: 0.8"/>
     <use xlink:href="#m531d10237e" x="173.574845" y="63.683927" style="fill-opacity: 0.8; stroke: #000000; stroke-opacity: 0.8"/>
     <use xlink:href="#m531d10237e" x="166.988898" y="75.479039" style="fill-opacity: 0.8; stroke: #000000; stroke-opacity: 0.8"/>
     <use xlink:href="#m531d10237e" x="169.263707" y="68.566226" style="fill-opacity: 0.8; stroke: #000000; stroke-opacity: 0.8"/>
     <use xlink:href="#m531d10237e" x="167.443886" y="75.051685" style="fill-opacity: 0.8; stroke: #000000; stroke-opacity: 0.8"/>
     <use xlink:href="#m531d10237e" x="167.295258" y="73.475691" style="fill-opacity: 0.8; stroke: #000000; stroke-opacity: 0.8"/>
     <use xlink:href="#m531d10237e" x="164.997398" y="76.667606" style="fill-opacity: 0.8; stroke: #000000; stroke-opacity: 0.8"/>
     <use xlink:href="#m531d10237e" x="170.304572" y="69.996087" style="fill-opacity: 0.8; stroke: #000000; stroke-opacity: 0.8"/>
     <use xlink:href="#m531d10237e" x="169.314034" y="70.581776" style="fill-opacity: 0.8; stroke: #000000; stroke-opacity: 0.8"/>
     <use xlink:href="#m531d10237e" x="165.132625" y="82.85909" style="fill-opacity: 0.8; stroke: #000000; stroke-opacity: 0.8"/>
     <use xlink:href="#m531d10237e" x="167.237856" y="75.913348" style="fill-opacity: 0.8; stroke: #000000; stroke-opacity: 0.8"/>
    </g>
   </g>
   <g id="FillBetweenPolyCollection_1">
    <path d="M 59.24 168.657446 
L 59.24 168.657446 
L 59.973467 167.750422 
L 60.706935 166.843899 
L 61.440402 165.937369 
L 62.173869 165.030838 
L 62.907337 164.117568 
L 63.640804 163.189115 
L 64.374271 162.26067 
L 65.107739 161.332213 
L 65.841206 160.40376 
L 66.574673 159.475316 
L 67.308141 158.546863 
L 68.041608 157.618418 
L 68.775075 156.689973 
L 69.508543 155.757672 
L 70.24201 154.791795 
L 70.975477 153.82591 
L 71.708945 152.860021 
L 72.442412 151.894135 
L 73.175879 150.928258 
L 73.909347 149.962373 
L 74.642814 148.996479 
L 75.376281 148.030598 
L 76.109749 147.064709 
L 76.843216 146.098827 
L 77.576683 145.132938 
L 78.310151 144.155046 
L 79.043618 143.161904 
L 79.777085 142.16996 
L 80.510553 141.179678 
L 81.24402 140.189395 
L 81.977487 139.199108 
L 82.710955 138.192525 
L 83.444422 137.181608 
L 84.177889 136.131339 
L 84.911357 135.053634 
L 85.644824 133.975933 
L 86.378291 132.898228 
L 87.111759 131.820523 
L 87.845226 130.739586 
L 88.578693 129.641125 
L 89.312161 128.542669 
L 90.045628 127.432874 
L 90.779095 126.273884 
L 91.512563 125.090713 
L 92.24603 123.905334 
L 92.979497 122.719948 
L 93.712965 121.505675 
L 94.446432 120.263599 
L 95.179899 119.019024 
L 95.913367 117.774446 
L 96.646834 116.529871 
L 97.380302 115.285293 
L 98.113769 114.040722 
L 98.847236 112.796138 
L 99.580704 111.55156 
L 100.314171 110.323789 
L 101.047638 109.265932 
L 101.781106 108.240001 
L 102.514573 107.21407 
L 103.24804 106.257335 
L 103.981508 105.414947 
L 104.714975 104.736403 
L 105.448442 104.057858 
L 106.18191 103.379312 
L 106.915377 102.700767 
L 107.648844 102.022223 
L 108.382312 101.343678 
L 109.115779 100.702231 
L 109.849246 100.182842 
L 110.582714 99.729067 
L 111.316181 99.278566 
L 112.049648 98.83265 
L 112.783116 98.386737 
L 113.516583 98.001303 
L 114.25005 97.637719 
L 114.983518 97.275406 
L 115.716985 96.913093 
L 116.450452 96.600731 
L 117.18392 96.298376 
L 117.917387 96.00086 
L 118.650854 95.752886 
L 119.384322 95.5085 
L 120.117789 95.277373 
L 120.851256 95.047091 
L 121.584724 94.869225 
L 122.318191 94.724663 
L 123.051658 94.597494 
L 123.785126 94.543858 
L 124.518593 94.497243 
L 125.25206 94.45063 
L 125.985528 94.404015 
L 126.718995 94.386786 
L 127.452462 94.363841 
L 128.18593 94.340893 
L 128.919397 94.317948 
L 129.652864 94.295001 
L 130.386332 94.272055 
L 131.119799 94.249108 
L 131.853266 94.227037 
L 132.586734 94.212716 
L 133.320201 94.201202 
L 134.053668 94.186178 
L 134.787136 94.181802 
L 135.520603 94.150572 
L 136.25407 94.118188 
L 136.987538 94.085803 
L 137.721005 94.052668 
L 138.454472 94.017646 
L 139.18794 93.964573 
L 139.921407 93.901252 
L 140.654874 93.801599 
L 141.388342 93.701948 
L 142.121809 93.602295 
L 142.855276 93.502805 
L 143.588744 93.403797 
L 144.322211 93.277916 
L 145.055678 93.099073 
L 145.789146 92.91939 
L 146.522613 92.702609 
L 147.25608 92.455559 
L 147.989548 92.208509 
L 148.723015 91.960552 
L 149.456482 91.704188 
L 150.18995 91.44772 
L 150.923417 91.193426 
L 151.656884 90.93914 
L 152.390352 90.659184 
L 153.123819 90.350963 
L 153.857286 90.012203 
L 154.590754 89.636765 
L 155.324221 89.204956 
L 156.057688 88.739017 
L 156.791156 88.273082 
L 157.524623 87.807144 
L 158.25809 87.299462 
L 158.991558 86.494511 
L 159.725025 85.568207 
L 160.458492 84.604882 
L 161.19196 83.566296 
L 161.925427 82.527711 
L 162.658894 81.432354 
L 163.392362 80.244759 
L 164.125829 79.036975 
L 164.859296 77.812604 
L 165.592764 76.57415 
L 166.326231 75.31097 
L 167.059698 74.042701 
L 167.793166 72.774421 
L 168.526633 71.506153 
L 169.260101 70.237881 
L 169.993568 68.969609 
L 170.727035 67.701337 
L 171.460503 66.433065 
L 172.19397 65.164795 
L 172.927437 63.896527 
L 173.660905 62.628251 
L 174.394372 61.379798 
L 175.127839 60.255995 
L 175.861307 59.157412 
L 176.594774 58.05883 
L 177.328241 56.960248 
L 178.061709 55.861666 
L 178.795176 54.763084 
L 179.528643 53.664505 
L 180.262111 52.565923 
L 180.995578 51.467341 
L 181.729045 50.368759 
L 182.462513 49.270177 
L 183.19598 48.172117 
L 183.929447 47.124946 
L 184.662915 46.109152 
L 185.396382 45.136911 
L 186.129849 44.186151 
L 186.863317 43.250488 
L 187.596784 42.360558 
L 188.330251 41.486651 
L 189.063719 40.61488 
L 189.797186 39.743113 
L 190.530653 38.871341 
L 191.264121 37.999574 
L 191.997588 37.127827 
L 192.731055 36.282446 
L 193.464523 35.437061 
L 194.19799 34.59168 
L 194.931457 33.746295 
L 195.664925 32.900188 
L 196.398392 32.053511 
L 197.131859 31.20683 
L 197.865327 30.360157 
L 198.598794 29.51813 
L 199.332261 28.684342 
L 200.065729 27.861835 
L 200.799196 27.045007 
L 201.532663 26.228171 
L 202.266131 25.417237 
L 202.999598 24.61605 
L 203.733065 23.814878 
L 204.466533 23.013698 
L 205.2 22.212534 
L 205.2 22.212534 
L 205.2 22.212534 
L 204.466533 23.013698 
L 203.733065 23.814878 
L 202.999598 24.61605 
L 202.266131 25.417237 
L 201.532663 26.228171 
L 200.799196 27.045007 
L 200.065729 27.861835 
L 199.332261 28.684342 
L 198.598794 29.51813 
L 197.865327 30.360157 
L 197.131859 31.20683 
L 196.398392 32.053511 
L 195.664925 32.900188 
L 194.931457 33.746295 
L 194.19799 34.59168 
L 193.464523 35.437061 
L 192.731055 36.282446 
L 191.997588 37.127827 
L 191.264121 37.999574 
L 190.530653 38.871341 
L 189.797186 39.743113 
L 189.063719 40.61488 
L 188.330251 41.486651 
L 187.596784 42.360558 
L 186.863317 43.250488 
L 186.129849 44.186151 
L 185.396382 45.136911 
L 184.662915 46.109152 
L 183.929447 47.124946 
L 183.19598 48.172117 
L 182.462513 49.270177 
L 181.729045 50.368759 
L 180.995578 51.467341 
L 180.262111 52.565923 
L 179.528643 53.664505 
L 178.795176 54.763084 
L 178.061709 55.861666 
L 177.328241 56.960248 
L 176.594774 58.05883 
L 175.861307 59.157412 
L 175.127839 60.255995 
L 174.394372 61.379798 
L 173.660905 62.628251 
L 172.927437 63.896527 
L 172.19397 65.164795 
L 171.460503 66.433065 
L 170.727035 67.701337 
L 169.993568 68.969609 
L 169.260101 70.237881 
L 168.526633 71.506153 
L 167.793166 72.774421 
L 167.059698 74.042701 
L 166.326231 75.31097 
L 165.592764 76.57415 
L 164.859296 77.812604 
L 164.125829 79.036975 
L 163.392362 80.244759 
L 162.658894 81.432354 
L 161.925427 82.527711 
L 161.19196 83.566296 
L 160.458492 84.604882 
L 159.725025 85.568207 
L 158.991558 86.494511 
L 158.25809 87.299462 
L 157.524623 87.807144 
L 156.791156 88.273082 
L 156.057688 88.739017 
L 155.324221 89.204956 
L 154.590754 89.636765 
L 153.857286 90.012203 
L 153.123819 90.350963 
L 152.390352 90.659184 
L 151.656884 90.93914 
L 150.923417 91.193426 
L 150.18995 91.44772 
L 149.456482 91.704188 
L 148.723015 91.960552 
L 147.989548 92.208509 
L 147.25608 92.455559 
L 146.522613 92.702609 
L 145.789146 92.91939 
L 145.055678 93.099073 
L 144.322211 93.277916 
L 143.588744 93.403797 
L 142.855276 93.502805 
L 142.121809 93.602295 
L 141.388342 93.701948 
L 140.654874 93.801599 
L 139.921407 93.901252 
L 139.18794 93.964573 
L 138.454472 94.017646 
L 137.721005 94.052668 
L 136.987538 94.085803 
L 136.25407 94.118188 
L 135.520603 94.150572 
L 134.787136 94.181802 
L 134.053668 94.186178 
L 133.320201 94.201202 
L 132.586734 94.212716 
L 131.853266 94.227037 
L 131.119799 94.249108 
L 130.386332 94.272055 
L 129.652864 94.295001 
L 128.919397 94.317948 
L 128.18593 94.340893 
L 127.452462 94.363841 
L 126.718995 94.386786 
L 125.985528 94.404015 
L 125.25206 94.45063 
L 124.518593 94.497243 
L 123.785126 94.543858 
L 123.051658 94.597494 
L 122.318191 94.724663 
L 121.584724 94.869225 
L 120.851256 95.047091 
L 120.117789 95.277373 
L 119.384322 95.5085 
L 118.650854 95.752886 
L 117.917387 96.00086 
L 117.18392 96.298376 
L 116.450452 96.600731 
L 115.716985 96.913093 
L 114.983518 97.275406 
L 114.25005 97.637719 
L 113.516583 98.001303 
L 112.783116 98.386737 
L 112.049648 98.83265 
L 111.316181 99.278566 
L 110.582714 99.729067 
L 109.849246 100.182842 
L 109.115779 100.702231 
L 108.382312 101.343678 
L 107.648844 102.022223 
L 106.915377 102.700767 
L 106.18191 103.379312 
L 105.448442 104.057858 
L 104.714975 104.736403 
L 103.981508 105.414947 
L 103.24804 106.257335 
L 102.514573 107.21407 
L 101.781106 108.240001 
L 101.047638 109.265932 
L 100.314171 110.323789 
L 99.580704 111.55156 
L 98.847236 112.796138 
L 98.113769 114.040722 
L 97.380302 115.285293 
L 96.646834 116.529871 
L 95.913367 117.774446 
L 95.179899 119.019024 
L 94.446432 120.263599 
L 93.712965 121.505675 
L 92.979497 122.719948 
L 92.24603 123.905334 
L 91.512563 125.090713 
L 90.779095 126.273884 
L 90.045628 127.432874 
L 89.312161 128.542669 
L 88.578693 129.641125 
L 87.845226 130.739586 
L 87.111759 131.820523 
L 86.378291 132.898228 
L 85.644824 133.975933 
L 84.911357 135.053634 
L 84.177889 136.131339 
L 83.444422 137.181608 
L 82.710955 138.192525 
L 81.977487 139.199108 
L 81.24402 140.189395 
L 80.510553 141.179678 
L 79.777085 142.16996 
L 79.043618 143.161904 
L 78.310151 144.155046 
L 77.576683 145.132938 
L 76.843216 146.098827 
L 76.109749 147.064709 
L 75.376281 148.030598 
L 74.642814 148.996479 
L 73.909347 149.962373 
L 73.175879 150.928258 
L 72.442412 151.894135 
L 71.708945 152.860021 
L 70.975477 153.82591 
L 70.24201 154.791795 
L 69.508543 155.757672 
L 68.775075 156.689973 
L 68.041608 157.618418 
L 67.308141 158.546863 
L 66.574673 159.475316 
L 65.841206 160.40376 
L 65.107739 161.332213 
L 64.374271 162.26067 
L 63.640804 163.189115 
L 62.907337 164.117568 
L 62.173869 165.030838 
L 61.440402 165.937369 
L 60.706935 166.843899 
L 59.973467 167.750422 
L 59.24 168.657446 
z
" clip-path="url(#p0dc2406ddb)" style="fill: #ac69da; fill-opacity: 0.3"/>
   </g>
   <g id="FillBetweenPolyCollection_2">
    <path d="M 59.24 164.597868 
L 59.24 172.717024 
L 59.973467 171.825595 
L 60.706935 170.935157 
L 61.440402 170.044774 
L 62.173869 169.154454 
L 62.907337 168.255838 
L 63.640804 167.33844 
L 64.374271 166.42108 
L 65.107739 165.503738 
L 65.841206 164.586428 
L 66.574673 163.669158 
L 67.308141 162.751909 
L 68.041608 161.834697 
L 68.775075 160.917515 
L 69.508543 159.995814 
L 70.24201 159.034477 
L 70.975477 158.073137 
L 71.708945 157.111796 
L 72.442412 156.150465 
L 73.175879 155.189149 
L 73.909347 154.227827 
L 74.642814 153.266503 
L 75.376281 152.305197 
L 76.109749 151.343886 
L 76.843216 150.382589 
L 77.576683 149.421289 
L 78.310151 148.444742 
L 79.043618 147.448822 
L 79.777085 146.453816 
L 80.510553 145.460075 
L 81.24402 144.466338 
L 81.977487 143.4726 
L 82.710955 142.460755 
L 83.444422 141.44395 
L 84.177889 140.379563 
L 84.911357 139.283318 
L 85.644824 138.187158 
L 86.378291 137.091075 
L 87.111759 135.995072 
L 87.845226 134.895877 
L 88.578693 133.779031 
L 89.312161 132.66227 
L 90.045628 131.532322 
L 90.779095 130.34552 
L 91.512563 129.13541 
L 92.24603 127.92345 
L 92.979497 126.711655 
L 93.712965 125.463231 
L 94.446432 124.182535 
L 95.179899 122.89957 
L 95.913367 121.61698 
L 96.646834 120.334764 
L 97.380302 119.052915 
L 98.113769 117.771437 
L 98.847236 116.490309 
L 99.580704 115.209544 
L 100.314171 113.947969 
L 101.047638 112.873693 
L 101.781106 111.833628 
L 102.514573 110.793619 
L 103.24804 109.827062 
L 103.981508 108.978609 
L 104.714975 108.292161 
L 105.448442 107.605731 
L 106.18191 106.919317 
L 106.915377 106.232922 
L 107.648844 105.546544 
L 108.382312 104.860183 
L 109.115779 104.21138 
L 109.849246 103.69046 
L 110.582714 103.239958 
L 111.316181 102.792484 
L 112.049648 102.349247 
L 112.783116 101.906013 
L 113.516583 101.524332 
L 114.25005 101.164781 
L 114.983518 100.806309 
L 115.716985 100.447844 
L 116.450452 100.142553 
L 117.18392 99.84793 
L 117.917387 99.55814 
L 118.650854 99.317989 
L 119.384322 99.085318 
L 120.117789 98.863257 
L 120.851256 98.639628 
L 121.584724 98.472027 
L 122.318191 98.338368 
L 123.051658 98.221997 
L 123.785126 98.182212 
L 124.518593 98.149632 
L 125.25206 98.117105 
L 125.985528 98.084632 
L 126.718995 98.078042 
L 127.452462 98.063819 
L 128.18593 98.049615 
L 128.919397 98.035433 
L 129.652864 98.02127 
L 130.386332 98.007129 
L 131.119799 97.993008 
L 131.853266 97.97956 
L 132.586734 97.972281 
L 133.320201 97.96726 
L 134.053668 97.957312 
L 134.787136 97.953412 
L 135.520603 97.919771 
L 136.25407 97.883343 
L 136.987538 97.846918 
L 137.721005 97.809881 
L 138.454472 97.771296 
L 139.18794 97.712892 
L 139.921407 97.644015 
L 140.654874 97.540194 
L 141.388342 97.43638 
L 142.121809 97.332567 
L 142.855276 97.228887 
L 143.588744 97.125591 
L 144.322211 96.995589 
L 145.055678 96.811808 
L 145.789146 96.627202 
L 146.522613 96.40857 
L 147.25608 96.161599 
L 147.989548 95.914627 
L 148.723015 95.666622 
L 149.456482 95.407244 
L 150.18995 95.147711 
L 150.923417 94.892785 
L 151.656884 94.637872 
L 152.390352 94.358961 
L 153.123819 94.053624 
L 153.857286 93.718331 
L 154.590754 93.347066 
L 155.324221 92.92566 
L 156.057688 92.473939 
L 156.791156 92.022275 
L 157.524623 91.570664 
L 158.25809 91.080429 
L 158.991558 90.313662 
L 159.725025 89.429987 
L 160.458492 88.507804 
L 161.19196 87.512627 
L 161.925427 86.517936 
L 162.658894 85.474691 
L 163.392362 84.348942 
L 164.125829 83.206207 
L 164.859296 82.043794 
L 165.592764 80.867022 
L 166.326231 79.667101 
L 167.059698 78.462959 
L 167.793166 77.259751 
L 168.526633 76.057512 
L 169.260101 74.856241 
L 169.993568 73.655956 
L 170.727035 72.456672 
L 171.460503 71.258402 
L 172.19397 70.061167 
L 172.927437 68.864978 
L 173.660905 67.669843 
L 174.394372 66.493087 
L 175.127839 65.430231 
L 175.861307 64.386171 
L 176.594774 63.342685 
L 177.328241 62.29978 
L 178.061709 61.257463 
L 178.795176 60.215736 
L 179.528643 59.174614 
L 180.262111 58.134093 
L 180.995578 57.094184 
L 181.729045 56.054893 
L 182.462513 55.016226 
L 183.19598 53.978524 
L 183.929447 52.981972 
L 184.662915 52.010177 
L 185.396382 51.071648 
L 186.129849 50.14909 
L 186.863317 49.237868 
L 187.596784 48.360308 
L 188.330251 47.494326 
L 189.063719 46.629893 
L 189.797186 45.765472 
L 190.530653 44.901058 
L 191.264121 44.036656 
L 191.997588 43.172277 
L 192.731055 42.326261 
L 193.464523 41.480243 
L 194.19799 40.63423 
L 194.931457 39.788209 
L 195.664925 38.942003 
L 196.398392 38.09565 
L 197.131859 37.249292 
L 197.865327 36.402941 
L 198.598794 35.560589 
L 199.332261 34.723916 
L 200.065729 33.894997 
L 200.799196 33.070027 
L 201.532663 32.245059 
L 202.266131 31.424341 
L 202.999598 30.610635 
L 203.733065 29.796973 
L 204.466533 28.983327 
L 205.2 28.169725 
L 205.2 16.255343 
L 205.2 16.255343 
L 204.466533 17.044069 
L 203.733065 17.832783 
L 202.999598 18.621464 
L 202.266131 19.410134 
L 201.532663 20.211284 
L 200.799196 21.019988 
L 200.065729 21.828673 
L 199.332261 22.644767 
L 198.598794 23.47567 
L 197.865327 24.317372 
L 197.131859 25.164368 
L 196.398392 26.011372 
L 195.664925 26.858373 
L 194.931457 27.70438 
L 194.19799 28.54913 
L 193.464523 29.393878 
L 192.731055 30.238631 
L 191.997588 31.083377 
L 191.264121 31.962492 
L 190.530653 32.841625 
L 189.797186 33.720753 
L 189.063719 34.599867 
L 188.330251 35.478977 
L 187.596784 36.360807 
L 186.863317 37.263109 
L 186.129849 38.223212 
L 185.396382 39.202175 
L 184.662915 40.208127 
L 183.929447 41.26792 
L 183.19598 42.36571 
L 182.462513 43.524127 
L 181.729045 44.682625 
L 180.995578 45.840498 
L 180.262111 46.997753 
L 179.528643 48.154397 
L 178.795176 49.310431 
L 178.061709 50.465869 
L 177.328241 51.620716 
L 176.594774 52.774975 
L 175.861307 53.928654 
L 175.127839 55.081758 
L 174.394372 56.26651 
L 173.660905 57.586658 
L 172.927437 58.928075 
L 172.19397 60.268422 
L 171.460503 61.607727 
L 170.727035 62.946002 
L 169.993568 64.283262 
L 169.260101 65.619521 
L 168.526633 66.954795 
L 167.793166 68.289092 
L 167.059698 69.622444 
L 166.326231 70.954838 
L 165.592764 72.281278 
L 164.859296 73.581413 
L 164.125829 74.867744 
L 163.392362 76.140577 
L 162.658894 77.390017 
L 161.925427 78.537486 
L 161.19196 79.619964 
L 160.458492 80.70196 
L 159.725025 81.706428 
L 158.991558 82.67536 
L 158.25809 83.518495 
L 157.524623 84.043624 
L 156.791156 84.523888 
L 156.057688 85.004095 
L 155.324221 85.484252 
L 154.590754 85.926464 
L 153.857286 86.306075 
L 153.123819 86.648303 
L 152.390352 86.959408 
L 151.656884 87.240408 
L 150.923417 87.494068 
L 150.18995 87.747728 
L 149.456482 88.001133 
L 148.723015 88.254482 
L 147.989548 88.502391 
L 147.25608 88.749519 
L 146.522613 88.996647 
L 145.789146 89.211578 
L 145.055678 89.386339 
L 144.322211 89.560242 
L 143.588744 89.682003 
L 142.855276 89.776723 
L 142.121809 89.872023 
L 141.388342 89.967517 
L 140.654874 90.063004 
L 139.921407 90.158488 
L 139.18794 90.216254 
L 138.454472 90.263996 
L 137.721005 90.295454 
L 136.987538 90.324688 
L 136.25407 90.353034 
L 135.520603 90.381374 
L 134.787136 90.410192 
L 134.053668 90.415044 
L 133.320201 90.435143 
L 132.586734 90.453151 
L 131.853266 90.474513 
L 131.119799 90.505209 
L 130.386332 90.536981 
L 129.652864 90.568732 
L 128.919397 90.600463 
L 128.18593 90.632172 
L 127.452462 90.663862 
L 126.718995 90.69553 
L 125.985528 90.723397 
L 125.25206 90.784154 
L 124.518593 90.844855 
L 123.785126 90.905504 
L 123.051658 90.97299 
L 122.318191 91.110959 
L 121.584724 91.266423 
L 120.851256 91.454555 
L 120.117789 91.691489 
L 119.384322 91.931681 
L 118.650854 92.187782 
L 117.917387 92.44358 
L 117.18392 92.748821 
L 116.450452 93.05891 
L 115.716985 93.378343 
L 114.983518 93.744502 
L 114.25005 94.110657 
L 113.516583 94.478273 
L 112.783116 94.86746 
L 112.049648 95.316054 
L 111.316181 95.764648 
L 110.582714 96.218175 
L 109.849246 96.675225 
L 109.115779 97.193081 
L 108.382312 97.827173 
L 107.648844 98.497902 
L 106.915377 99.168612 
L 106.18191 99.839307 
L 105.448442 100.509985 
L 104.714975 101.180644 
L 103.981508 101.851285 
L 103.24804 102.687609 
L 102.514573 103.634522 
L 101.781106 104.646374 
L 101.047638 105.658171 
L 100.314171 106.69961 
L 99.580704 107.893577 
L 98.847236 109.101967 
L 98.113769 110.310007 
L 97.380302 111.517671 
L 96.646834 112.724977 
L 95.913367 113.931912 
L 95.179899 115.138477 
L 94.446432 116.344664 
L 93.712965 117.54812 
L 92.979497 118.72824 
L 92.24603 119.887219 
L 91.512563 121.046016 
L 90.779095 122.202248 
L 90.045628 123.333426 
L 89.312161 124.423068 
L 88.578693 125.50322 
L 87.845226 126.583295 
L 87.111759 127.645975 
L 86.378291 128.705382 
L 85.644824 129.764708 
L 84.911357 130.82395 
L 84.177889 131.883115 
L 83.444422 132.919267 
L 82.710955 133.924295 
L 81.977487 134.925617 
L 81.24402 135.912452 
L 80.510553 136.89928 
L 79.777085 137.886105 
L 79.043618 138.874986 
L 78.310151 139.865351 
L 77.576683 140.844587 
L 76.843216 141.815065 
L 76.109749 142.785531 
L 75.376281 143.755999 
L 74.642814 144.726455 
L 73.909347 145.696918 
L 73.175879 146.667367 
L 72.442412 147.637805 
L 71.708945 148.608245 
L 70.975477 149.578683 
L 70.24201 150.549114 
L 69.508543 151.519531 
L 68.775075 152.462432 
L 68.041608 153.402139 
L 67.308141 154.341817 
L 66.574673 155.281474 
L 65.841206 156.221092 
L 65.107739 157.160689 
L 64.374271 158.10026 
L 63.640804 159.03979 
L 62.907337 159.979298 
L 62.173869 160.907223 
L 61.440402 161.829964 
L 60.706935 162.752642 
L 59.973467 163.675248 
L 59.24 164.597868 
z
" clip-path="url(#p0dc2406ddb)" style="fill: #ac69da; fill-opacity: 0.3"/>
   </g>
   <g id="FillBetweenPolyCollection_3">
    <path d="M 59.24 160.538291 
L 59.24 176.776602 
L 59.973467 175.900769 
L 60.706935 175.026414 
L 61.440402 174.152178 
L 62.173869 173.278069 
L 62.907337 172.394108 
L 63.640804 171.487765 
L 64.374271 170.581489 
L 65.107739 169.675262 
L 65.841206 168.769096 
L 66.574673 167.863 
L 67.308141 166.956954 
L 68.041608 166.050976 
L 68.775075 165.145057 
L 69.508543 164.233955 
L 70.24201 163.277158 
L 70.975477 162.320364 
L 71.708945 161.363572 
L 72.442412 160.406796 
L 73.175879 159.45004 
L 73.909347 158.493281 
L 74.642814 157.536528 
L 75.376281 156.579795 
L 76.109749 155.623064 
L 76.843216 154.666351 
L 77.576683 153.709639 
L 78.310151 152.734437 
L 79.043618 151.735739 
L 79.777085 150.737671 
L 80.510553 149.740472 
L 81.24402 148.743281 
L 81.977487 147.746091 
L 82.710955 146.728986 
L 83.444422 145.706291 
L 84.177889 144.627787 
L 84.911357 143.513001 
L 85.644824 142.398383 
L 86.378291 141.283921 
L 87.111759 140.16962 
L 87.845226 139.052169 
L 88.578693 137.916936 
L 89.312161 136.781871 
L 90.045628 135.63177 
L 90.779095 134.417156 
L 91.512563 133.180107 
L 92.24603 131.941565 
L 92.979497 130.703363 
L 93.712965 129.420786 
L 94.446432 128.10147 
L 95.179899 126.780117 
L 95.913367 125.459514 
L 96.646834 124.139658 
L 97.380302 122.820537 
L 98.113769 121.502152 
L 98.847236 120.184479 
L 99.580704 118.867527 
L 100.314171 117.572149 
L 101.047638 116.481454 
L 101.781106 115.427255 
L 102.514573 114.373167 
L 103.24804 113.396788 
L 103.981508 112.542271 
L 104.714975 111.84792 
L 105.448442 111.153604 
L 106.18191 110.459322 
L 106.915377 109.765076 
L 107.648844 109.070865 
L 108.382312 108.376688 
L 109.115779 107.72053 
L 109.849246 107.198077 
L 110.582714 106.75085 
L 111.316181 106.306402 
L 112.049648 105.865844 
L 112.783116 105.42529 
L 113.516583 105.047362 
L 114.25005 104.691843 
L 114.983518 104.337213 
L 115.716985 103.982594 
L 116.450452 103.684374 
L 117.18392 103.397484 
L 117.917387 103.115419 
L 118.650854 102.883092 
L 119.384322 102.662137 
L 120.117789 102.449141 
L 120.851256 102.232165 
L 121.584724 102.074829 
L 122.318191 101.952072 
L 123.051658 101.8465 
L 123.785126 101.820566 
L 124.518593 101.80202 
L 125.25206 101.783581 
L 125.985528 101.76525 
L 126.718995 101.769298 
L 127.452462 101.763797 
L 128.18593 101.758336 
L 128.919397 101.752917 
L 129.652864 101.74754 
L 130.386332 101.742203 
L 131.119799 101.736908 
L 131.853266 101.732083 
L 132.586734 101.731846 
L 133.320201 101.733319 
L 134.053668 101.728446 
L 134.787136 101.725022 
L 135.520603 101.68897 
L 136.25407 101.648497 
L 136.987538 101.608034 
L 137.721005 101.567095 
L 138.454472 101.524946 
L 139.18794 101.461211 
L 139.921407 101.386779 
L 140.654874 101.278789 
L 141.388342 101.170811 
L 142.121809 101.062838 
L 142.855276 100.954969 
L 143.588744 100.847384 
L 144.322211 100.713262 
L 145.055678 100.524543 
L 145.789146 100.335014 
L 146.522613 100.114531 
L 147.25608 99.867638 
L 147.989548 99.620745 
L 148.723015 99.372692 
L 149.456482 99.110299 
L 150.18995 98.847703 
L 150.923417 98.592144 
L 151.656884 98.336605 
L 152.390352 98.058738 
L 153.123819 97.756284 
L 153.857286 97.424459 
L 154.590754 97.057367 
L 155.324221 96.646364 
L 156.057688 96.208861 
L 156.791156 95.771469 
L 157.524623 95.334184 
L 158.25809 94.861396 
L 158.991558 94.132813 
L 159.725025 93.291766 
L 160.458492 92.410726 
L 161.19196 91.458959 
L 161.925427 90.50816 
L 162.658894 89.517028 
L 163.392362 88.453124 
L 164.125829 87.375439 
L 164.859296 86.274984 
L 165.592764 85.159894 
L 166.326231 84.023233 
L 167.059698 82.883217 
L 167.793166 81.74508 
L 168.526633 80.608871 
L 169.260101 79.474601 
L 169.993568 78.342304 
L 170.727035 77.212007 
L 171.460503 76.08374 
L 172.19397 74.95754 
L 172.927437 73.83343 
L 173.660905 72.711436 
L 174.394372 71.606375 
L 175.127839 70.604468 
L 175.861307 69.614929 
L 176.594774 68.626541 
L 177.328241 67.639312 
L 178.061709 66.65326 
L 178.795176 65.668389 
L 179.528643 64.684722 
L 180.262111 63.702262 
L 180.995578 62.721028 
L 181.729045 61.741027 
L 182.462513 60.762276 
L 183.19598 59.784931 
L 183.929447 58.838998 
L 184.662915 57.911202 
L 185.396382 57.006384 
L 186.129849 56.11203 
L 186.863317 55.225247 
L 187.596784 54.360059 
L 188.330251 53.502001 
L 189.063719 52.644907 
L 189.797186 51.787832 
L 190.530653 50.930774 
L 191.264121 50.073738 
L 191.997588 49.216726 
L 192.731055 48.370076 
L 193.464523 47.523426 
L 194.19799 46.67678 
L 194.931457 45.830124 
L 195.664925 44.983818 
L 196.398392 44.137789 
L 197.131859 43.291754 
L 197.865327 42.445726 
L 198.598794 41.603048 
L 199.332261 40.76349 
L 200.065729 39.928159 
L 200.799196 39.095046 
L 201.532663 38.261946 
L 202.266131 37.431444 
L 202.999598 36.605221 
L 203.733065 35.779068 
L 204.466533 34.952957 
L 205.2 34.126916 
L 205.2 10.298152 
L 205.2 10.298152 
L 204.466533 11.074439 
L 203.733065 11.850688 
L 202.999598 12.626878 
L 202.266131 13.403031 
L 201.532663 14.194396 
L 200.799196 14.994968 
L 200.065729 15.795511 
L 199.332261 16.605193 
L 198.598794 17.433211 
L 197.865327 18.274587 
L 197.131859 19.121906 
L 196.398392 19.969234 
L 195.664925 20.816559 
L 194.931457 21.662465 
L 194.19799 22.50658 
L 193.464523 23.350696 
L 192.731055 24.194816 
L 191.997588 25.038928 
L 191.264121 25.92541 
L 190.530653 26.811908 
L 189.797186 27.698393 
L 189.063719 28.584853 
L 188.330251 29.471302 
L 187.596784 30.361056 
L 186.863317 31.275729 
L 186.129849 32.260273 
L 185.396382 33.267438 
L 184.662915 34.307102 
L 183.929447 35.410894 
L 183.19598 36.559302 
L 182.462513 37.778077 
L 181.729045 38.996491 
L 180.995578 40.213654 
L 180.262111 41.429584 
L 179.528643 42.644289 
L 178.795176 43.857778 
L 178.061709 45.070072 
L 177.328241 46.281184 
L 176.594774 47.49112 
L 175.861307 48.699896 
L 175.127839 49.907521 
L 174.394372 51.153222 
L 173.660905 52.545065 
L 172.927437 53.959624 
L 172.19397 55.37205 
L 171.460503 56.782389 
L 170.727035 58.190667 
L 169.993568 59.596914 
L 169.260101 61.001161 
L 168.526633 62.403436 
L 167.793166 63.803763 
L 167.059698 65.202186 
L 166.326231 66.598706 
L 165.592764 67.988406 
L 164.859296 69.350223 
L 164.125829 70.698512 
L 163.392362 72.036394 
L 162.658894 73.347679 
L 161.925427 74.547261 
L 161.19196 75.673633 
L 160.458492 76.799038 
L 159.725025 77.844649 
L 158.991558 78.856209 
L 158.25809 79.737528 
L 157.524623 80.280104 
L 156.791156 80.774694 
L 156.057688 81.269173 
L 155.324221 81.763548 
L 154.590754 82.216163 
L 153.857286 82.599947 
L 153.123819 82.945643 
L 152.390352 83.259631 
L 151.656884 83.541675 
L 150.923417 83.794709 
L 150.18995 84.047737 
L 149.456482 84.298077 
L 148.723015 84.548412 
L 147.989548 84.796273 
L 147.25608 85.04348 
L 146.522613 85.290686 
L 145.789146 85.503767 
L 145.055678 85.673604 
L 144.322211 85.842569 
L 143.588744 85.96021 
L 142.855276 86.050641 
L 142.121809 86.141752 
L 141.388342 86.233085 
L 140.654874 86.324409 
L 139.921407 86.415725 
L 139.18794 86.467935 
L 138.454472 86.510347 
L 137.721005 86.53824 
L 136.987538 86.563573 
L 136.25407 86.58788 
L 135.520603 86.612175 
L 134.787136 86.638581 
L 134.053668 86.64391 
L 133.320201 86.669085 
L 132.586734 86.693586 
L 131.853266 86.72199 
L 131.119799 86.761309 
L 130.386332 86.801907 
L 129.652864 86.842463 
L 128.919397 86.882978 
L 128.18593 86.923451 
L 127.452462 86.963884 
L 126.718995 87.004275 
L 125.985528 87.042779 
L 125.25206 87.117678 
L 124.518593 87.192466 
L 123.785126 87.267149 
L 123.051658 87.348487 
L 122.318191 87.497254 
L 121.584724 87.663621 
L 120.851256 87.862018 
L 120.117789 88.105606 
L 119.384322 88.354862 
L 118.650854 88.622679 
L 117.917387 88.886301 
L 117.18392 89.199267 
L 116.450452 89.517088 
L 115.716985 89.843592 
L 114.983518 90.213599 
L 114.25005 90.583595 
L 113.516583 90.955244 
L 112.783116 91.348183 
L 112.049648 91.799457 
L 111.316181 92.25073 
L 110.582714 92.707284 
L 109.849246 93.167608 
L 109.115779 93.683932 
L 108.382312 94.310669 
L 107.648844 94.973581 
L 106.915377 95.636458 
L 106.18191 96.299302 
L 105.448442 96.962112 
L 104.714975 97.624886 
L 103.981508 98.287623 
L 103.24804 99.117882 
L 102.514573 100.054973 
L 101.781106 101.052747 
L 101.047638 102.05041 
L 100.314171 103.07543 
L 99.580704 104.235594 
L 98.847236 105.407797 
L 98.113769 106.579292 
L 97.380302 107.750049 
L 96.646834 108.920084 
L 95.913367 110.089379 
L 95.179899 111.257931 
L 94.446432 112.425728 
L 93.712965 113.590565 
L 92.979497 114.736532 
L 92.24603 115.869104 
L 91.512563 117.001319 
L 90.779095 118.130611 
L 90.045628 119.233978 
L 89.312161 120.303467 
L 88.578693 121.365314 
L 87.845226 122.427003 
L 87.111759 123.471426 
L 86.378291 124.512535 
L 85.644824 125.553483 
L 84.911357 126.594267 
L 84.177889 127.63489 
L 83.444422 128.656926 
L 82.710955 129.656065 
L 81.977487 130.652125 
L 81.24402 131.635508 
L 80.510553 132.618883 
L 79.777085 133.602249 
L 79.043618 134.588068 
L 78.310151 135.575655 
L 77.576683 136.556237 
L 76.843216 137.531303 
L 76.109749 138.506353 
L 75.376281 139.4814 
L 74.642814 140.456431 
L 73.909347 141.431464 
L 73.175879 142.406476 
L 72.442412 143.381475 
L 71.708945 144.356469 
L 70.975477 145.331456 
L 70.24201 146.306433 
L 69.508543 147.28139 
L 68.775075 148.23489 
L 68.041608 149.18586 
L 67.308141 150.136771 
L 66.574673 151.087632 
L 65.841206 152.038424 
L 65.107739 152.989164 
L 64.374271 153.939851 
L 63.640804 154.890465 
L 62.907337 155.841028 
L 62.173869 156.783608 
L 61.440402 157.722559 
L 60.706935 158.661384 
L 59.973467 159.600074 
L 59.24 160.538291 
z
" clip-path="url(#p0dc2406ddb)" style="fill: #ac69da; fill-opacity: 0.3"/>
   </g>
   <g id="FillBetweenPolyCollection_4">
    <path d="M 59.24 156.478713 
L 59.24 180.83618 
L 59.973467 179.975943 
L 60.706935 179.117672 
L 61.440402 178.259583 
L 62.173869 177.401684 
L 62.907337 176.532377 
L 63.640804 175.63709 
L 64.374271 174.741899 
L 65.107739 173.846787 
L 65.841206 172.951764 
L 66.574673 172.056842 
L 67.308141 171.162 
L 68.041608 170.267255 
L 68.775075 169.372599 
L 69.508543 168.472097 
L 70.24201 167.519839 
L 70.975477 166.567591 
L 71.708945 165.615348 
L 72.442412 164.663126 
L 73.175879 163.710931 
L 73.909347 162.758736 
L 74.642814 161.806552 
L 75.376281 160.854394 
L 76.109749 159.902242 
L 76.843216 158.950113 
L 77.576683 157.99799 
L 78.310151 157.024132 
L 79.043618 156.022657 
L 79.777085 155.021527 
L 80.510553 154.02087 
L 81.24402 153.020225 
L 81.977487 152.019583 
L 82.710955 150.997216 
L 83.444422 149.968633 
L 84.177889 148.876012 
L 84.911357 147.742685 
L 85.644824 146.609608 
L 86.378291 145.476768 
L 87.111759 144.344169 
L 87.845226 143.20846 
L 88.578693 142.054842 
L 89.312161 140.901472 
L 90.045628 139.731218 
L 90.779095 138.488793 
L 91.512563 137.224804 
L 92.24603 135.95968 
L 92.979497 134.695071 
L 93.712965 133.378341 
L 94.446432 132.020406 
L 95.179899 130.660663 
L 95.913367 129.302047 
L 96.646834 127.944551 
L 97.380302 126.588159 
L 98.113769 125.232867 
L 98.847236 123.87865 
L 99.580704 122.525511 
L 100.314171 121.196329 
L 101.047638 120.089215 
L 101.781106 119.020882 
L 102.514573 117.952716 
L 103.24804 116.966515 
L 103.981508 116.105933 
L 104.714975 115.403679 
L 105.448442 114.701477 
L 106.18191 113.999326 
L 106.915377 113.297231 
L 107.648844 112.595185 
L 108.382312 111.893193 
L 109.115779 111.229679 
L 109.849246 110.705694 
L 110.582714 110.261741 
L 111.316181 109.82032 
L 112.049648 109.382441 
L 112.783116 108.944567 
L 113.516583 108.570391 
L 114.25005 108.218906 
L 114.983518 107.868116 
L 115.716985 107.517345 
L 116.450452 107.226196 
L 117.18392 106.947038 
L 117.917387 106.672699 
L 118.650854 106.448195 
L 119.384322 106.238956 
L 120.117789 106.035024 
L 120.851256 105.824702 
L 121.584724 105.677631 
L 122.318191 105.565777 
L 123.051658 105.471004 
L 123.785126 105.45892 
L 124.518593 105.454409 
L 125.25206 105.450057 
L 125.985528 105.445868 
L 126.718995 105.460553 
L 127.452462 105.463775 
L 128.18593 105.467058 
L 128.919397 105.470402 
L 129.652864 105.473809 
L 130.386332 105.477277 
L 131.119799 105.480808 
L 131.853266 105.484607 
L 132.586734 105.49141 
L 133.320201 105.499377 
L 134.053668 105.49958 
L 134.787136 105.496632 
L 135.520603 105.458169 
L 136.25407 105.413651 
L 136.987538 105.369149 
L 137.721005 105.324309 
L 138.454472 105.278596 
L 139.18794 105.209531 
L 139.921407 105.129543 
L 140.654874 105.017385 
L 141.388342 104.905243 
L 142.121809 104.79311 
L 142.855276 104.681051 
L 143.588744 104.569178 
L 144.322211 104.430936 
L 145.055678 104.237277 
L 145.789146 104.042825 
L 146.522613 103.820492 
L 147.25608 103.573678 
L 147.989548 103.326863 
L 148.723015 103.078763 
L 149.456482 102.813355 
L 150.18995 102.547694 
L 150.923417 102.291502 
L 151.656884 102.035337 
L 152.390352 101.758515 
L 153.123819 101.458945 
L 153.857286 101.130587 
L 154.590754 100.767668 
L 155.324221 100.367068 
L 156.057688 99.943783 
L 156.791156 99.520662 
L 157.524623 99.097703 
L 158.25809 98.642363 
L 158.991558 97.951964 
L 159.725025 97.153546 
L 160.458492 96.313648 
L 161.19196 95.405291 
L 161.925427 94.498385 
L 162.658894 93.559365 
L 163.392362 92.557307 
L 164.125829 91.54467 
L 164.859296 90.506175 
L 165.592764 89.452766 
L 166.326231 88.379364 
L 167.059698 87.303475 
L 167.793166 86.230409 
L 168.526633 85.160229 
L 169.260101 84.092961 
L 169.993568 83.028651 
L 170.727035 81.967341 
L 171.460503 80.909078 
L 172.19397 79.853912 
L 172.927437 78.801881 
L 173.660905 77.753029 
L 174.394372 76.719663 
L 175.127839 75.778705 
L 175.861307 74.843687 
L 176.594774 73.910396 
L 177.328241 72.978844 
L 178.061709 72.049057 
L 178.795176 71.121042 
L 179.528643 70.19483 
L 180.262111 69.270432 
L 180.995578 68.347871 
L 181.729045 67.427161 
L 182.462513 66.508326 
L 183.19598 65.591339 
L 183.929447 64.696024 
L 184.662915 63.812227 
L 185.396382 62.941121 
L 186.129849 62.074969 
L 186.863317 61.212626 
L 187.596784 60.359809 
L 188.330251 59.509676 
L 189.063719 58.65992 
L 189.797186 57.810192 
L 190.530653 56.960491 
L 191.264121 56.11082 
L 191.997588 55.261176 
L 192.731055 54.413891 
L 193.464523 53.566608 
L 194.19799 52.719329 
L 194.931457 51.872039 
L 195.664925 51.025633 
L 196.398392 50.179927 
L 197.131859 49.334216 
L 197.865327 48.488511 
L 198.598794 47.645507 
L 199.332261 46.803064 
L 200.065729 45.96132 
L 200.799196 45.120066 
L 201.532663 44.278834 
L 202.266131 43.438547 
L 202.999598 42.599807 
L 203.733065 41.761162 
L 204.466533 40.922586 
L 205.2 40.084107 
L 205.2 4.340961 
L 205.2 4.340961 
L 204.466533 5.10481 
L 203.733065 5.868593 
L 202.999598 6.632292 
L 202.266131 7.395928 
L 201.532663 8.177509 
L 200.799196 8.969948 
L 200.065729 9.762349 
L 199.332261 10.565619 
L 198.598794 11.390752 
L 197.865327 12.231802 
L 197.131859 13.079444 
L 196.398392 13.927095 
L 195.664925 14.774744 
L 194.931457 15.620551 
L 194.19799 16.46403 
L 193.464523 17.307513 
L 192.731055 18.151001 
L 191.997588 18.994478 
L 191.264121 19.888328 
L 190.530653 20.782192 
L 189.797186 21.676034 
L 189.063719 22.56984 
L 188.330251 23.463627 
L 187.596784 24.361306 
L 186.863317 25.28835 
L 186.129849 26.297334 
L 185.396382 27.332702 
L 184.662915 28.406077 
L 183.929447 29.553868 
L 183.19598 30.752895 
L 182.462513 32.032027 
L 181.729045 33.310357 
L 180.995578 34.586811 
L 180.262111 35.861414 
L 179.528643 37.134181 
L 178.795176 38.405125 
L 178.061709 39.674275 
L 177.328241 40.941652 
L 176.594774 42.207264 
L 175.861307 43.471138 
L 175.127839 44.733284 
L 174.394372 46.039934 
L 173.660905 47.503472 
L 172.927437 48.991172 
L 172.19397 50.475677 
L 171.460503 51.957052 
L 170.727035 53.435332 
L 169.993568 54.910567 
L 169.260101 56.382801 
L 168.526633 57.852077 
L 167.793166 59.318433 
L 167.059698 60.781928 
L 166.326231 62.242575 
L 165.592764 63.695534 
L 164.859296 65.119033 
L 164.125829 66.529281 
L 163.392362 67.932212 
L 162.658894 69.305342 
L 161.925427 70.557036 
L 161.19196 71.727301 
L 160.458492 72.896116 
L 159.725025 73.982869 
L 158.991558 75.037059 
L 158.25809 75.956561 
L 157.524623 76.516584 
L 156.791156 77.025501 
L 156.057688 77.534251 
L 155.324221 78.042843 
L 154.590754 78.505862 
L 153.857286 78.89382 
L 153.123819 79.242982 
L 152.390352 79.559854 
L 151.656884 79.842943 
L 150.923417 80.095351 
L 150.18995 80.347746 
L 149.456482 80.595022 
L 148.723015 80.842342 
L 147.989548 81.090155 
L 147.25608 81.33744 
L 146.522613 81.584725 
L 145.789146 81.795955 
L 145.055678 81.960869 
L 144.322211 82.124895 
L 143.588744 82.238416 
L 142.855276 82.324559 
L 142.121809 82.41148 
L 141.388342 82.498653 
L 140.654874 82.585814 
L 139.921407 82.672961 
L 139.18794 82.719616 
L 138.454472 82.756697 
L 137.721005 82.781026 
L 136.987538 82.802458 
L 136.25407 82.822726 
L 135.520603 82.842976 
L 134.787136 82.866971 
L 134.053668 82.872776 
L 133.320201 82.903026 
L 132.586734 82.934021 
L 131.853266 82.969466 
L 131.119799 83.017409 
L 130.386332 83.066833 
L 129.652864 83.116194 
L 128.919397 83.165494 
L 128.18593 83.214729 
L 127.452462 83.263906 
L 126.718995 83.313019 
L 125.985528 83.362161 
L 125.25206 83.451203 
L 124.518593 83.540078 
L 123.785126 83.628795 
L 123.051658 83.723984 
L 122.318191 83.88355 
L 121.584724 84.06082 
L 120.851256 84.269481 
L 120.117789 84.519722 
L 119.384322 84.778044 
L 118.650854 85.057576 
L 117.917387 85.329021 
L 117.18392 85.649713 
L 116.450452 85.975267 
L 115.716985 86.308842 
L 114.983518 86.682695 
L 114.25005 87.056533 
L 113.516583 87.432214 
L 112.783116 87.828906 
L 112.049648 88.28286 
L 111.316181 88.736811 
L 110.582714 89.196392 
L 109.849246 89.659991 
L 109.115779 90.174782 
L 108.382312 90.794164 
L 107.648844 91.44926 
L 106.915377 92.104303 
L 106.18191 92.759298 
L 105.448442 93.414239 
L 104.714975 94.069127 
L 103.981508 94.723961 
L 103.24804 95.548156 
L 102.514573 96.475424 
L 101.781106 97.45912 
L 101.047638 98.442649 
L 100.314171 99.45125 
L 99.580704 100.57761 
L 98.847236 101.713626 
L 98.113769 102.848577 
L 97.380302 103.982427 
L 96.646834 105.11519 
L 95.913367 106.246845 
L 95.179899 107.377384 
L 94.446432 108.506793 
L 93.712965 109.63301 
L 92.979497 110.744825 
L 92.24603 111.850989 
L 91.512563 112.956622 
L 90.779095 114.058975 
L 90.045628 115.13453 
L 89.312161 116.183866 
L 88.578693 117.227409 
L 87.845226 118.270712 
L 87.111759 119.296878 
L 86.378291 120.319689 
L 85.644824 121.342259 
L 84.911357 122.364583 
L 84.177889 123.386666 
L 83.444422 124.394584 
L 82.710955 125.387835 
L 81.977487 126.378634 
L 81.24402 127.358565 
L 80.510553 128.338485 
L 79.777085 129.318394 
L 79.043618 130.30115 
L 78.310151 131.28596 
L 77.576683 132.267886 
L 76.843216 133.247541 
L 76.109749 134.227175 
L 75.376281 135.206802 
L 74.642814 136.186406 
L 73.909347 137.16601 
L 73.175879 138.145585 
L 72.442412 139.125144 
L 71.708945 140.104693 
L 70.975477 141.084228 
L 70.24201 142.063751 
L 69.508543 143.043248 
L 68.775075 144.007348 
L 68.041608 144.969581 
L 67.308141 145.931726 
L 66.574673 146.89379 
L 65.841206 147.855756 
L 65.107739 148.817639 
L 64.374271 149.779441 
L 63.640804 150.74114 
L 62.907337 151.702758 
L 62.173869 152.659992 
L 61.440402 153.615154 
L 60.706935 154.570127 
L 59.973467 155.5249 
L 59.24 156.478713 
z
" clip-path="url(#p0dc2406ddb)" style="fill: #ac69da; fill-opacity: 0.3"/>
   </g>
   <g id="matplotlib.axis_1">
    <g id="xtick_1">
     <g id="line2d_1">
      <defs>
       <path id="m73f009005a" d="M 0 0 
L 0 3.5 
" style="stroke: #000000; stroke-width: 0.8"/>
      </defs>
      <g>
       <use xlink:href="#m73f009005a" x="80.091429" y="174.04" style="stroke: #000000; stroke-width: 0.8"/>
      </g>
     </g>
     <g id="text_1">
      <!-- −5 -->
      <g transform="translate(72.720335 188.638438) scale(0.1 -0.1)">
       <defs>
        <path id="DejaVuSans-2212" d="M 678 2272 
L 4684 2272 
L 4684 1741 
L 678 1741 
L 678 2272 
z
" transform="scale(0.015625)"/>
        <path id="DejaVuSans-35" d="M 691 4666 
L 3169 4666 
L 3169 4134 
L 1269 4134 
L 1269 2991 
Q 1406 3038 1543 3061 
Q 1681 3084 1819 3084 
Q 2600 3084 3056 2656 
Q 3513 2228 3513 1497 
Q 3513 744 3044 326 
Q 2575 -91 1722 -91 
Q 1428 -91 1123 -41 
Q 819 9 494 109 
L 494 744 
Q 775 591 1075 516 
Q 1375 441 1709 441 
Q 2250 441 2565 725 
Q 2881 1009 2881 1497 
Q 2881 1984 2565 2268 
Q 2250 2553 1709 2553 
Q 1456 2553 1204 2497 
Q 953 2441 691 2322 
L 691 4666 
z
" transform="scale(0.015625)"/>
       </defs>
       <use xlink:href="#DejaVuSans-2212"/>
       <use xlink:href="#DejaVuSans-35" transform="translate(83.789062 0)"/>
      </g>
     </g>
    </g>
    <g id="xtick_2">
     <g id="line2d_2">
      <g>
       <use xlink:href="#m73f009005a" x="132.22" y="174.04" style="stroke: #000000; stroke-width: 0.8"/>
      </g>
     </g>
     <g id="text_2">
      <!-- 0 -->
      <g transform="translate(129.03875 188.638438) scale(0.1 -0.1)">
       <defs>
        <path id="DejaVuSans-30" d="M 2034 4250 
Q 1547 4250 1301 3770 
Q 1056 3291 1056 2328 
Q 1056 1369 1301 889 
Q 1547 409 2034 409 
Q 2525 409 2770 889 
Q 3016 1369 3016 2328 
Q 3016 3291 2770 3770 
Q 2525 4250 2034 4250 
z
M 2034 4750 
Q 2819 4750 3233 4129 
Q 3647 3509 3647 2328 
Q 3647 1150 3233 529 
Q 2819 -91 2034 -91 
Q 1250 -91 836 529 
Q 422 1150 422 2328 
Q 422 3509 836 4129 
Q 1250 4750 2034 4750 
z
" transform="scale(0.015625)"/>
       </defs>
       <use xlink:href="#DejaVuSans-30"/>
      </g>
     </g>
    </g>
    <g id="xtick_3">
     <g id="line2d_3">
      <g>
       <use xlink:href="#m73f009005a" x="184.348571" y="174.04" style="stroke: #000000; stroke-width: 0.8"/>
      </g>
     </g>
     <g id="text_3">
      <!-- 5 -->
      <g transform="translate(181.167321 188.638438) scale(0.1 -0.1)">
       <use xlink:href="#DejaVuSans-35"/>
      </g>
     </g>
    </g>
    <g id="text_4">
     <!-- x -->
     <g transform="translate(129.260625 202.316563) scale(0.1 -0.1)">
      <defs>
       <path id="DejaVuSans-78" d="M 3513 3500 
L 2247 1797 
L 3578 0 
L 2900 0 
L 1881 1375 
L 863 0 
L 184 0 
L 1544 1831 
L 300 3500 
L 978 3500 
L 1906 2253 
L 2834 3500 
L 3513 3500 
z
" transform="scale(0.015625)"/>
      </defs>
      <use xlink:href="#DejaVuSans-78"/>
     </g>
    </g>
   </g>
   <g id="matplotlib.axis_2">
    <g id="ytick_1">
     <g id="line2d_4">
      <defs>
       <path id="m5d4eafd2d8" d="M 0 0 
L -3.5 0 
" style="stroke: #000000; stroke-width: 0.8"/>
      </defs>
      <g>
       <use xlink:href="#m5d4eafd2d8" x="59.24" y="174.04" style="stroke: #000000; stroke-width: 0.8"/>
      </g>
     </g>
     <g id="text_5">
      <!-- −150 -->
      <g transform="translate(24.772813 177.839219) scale(0.1 -0.1)">
       <defs>
        <path id="DejaVuSans-31" d="M 794 531 
L 1825 531 
L 1825 4091 
L 703 3866 
L 703 4441 
L 1819 4666 
L 2450 4666 
L 2450 531 
L 3481 531 
L 3481 0 
L 794 0 
L 794 531 
z
" transform="scale(0.015625)"/>
       </defs>
       <use xlink:href="#DejaVuSans-2212"/>
       <use xlink:href="#DejaVuSans-31" transform="translate(83.789062 0)"/>
       <use xlink:href="#DejaVuSans-35" transform="translate(147.412109 0)"/>
       <use xlink:href="#DejaVuSans-30" transform="translate(211.035156 0)"/>
      </g>
     </g>
    </g>
    <g id="ytick_2">
     <g id="line2d_5">
      <g>
       <use xlink:href="#m5d4eafd2d8" x="59.24" y="147.493333" style="stroke: #000000; stroke-width: 0.8"/>
      </g>
     </g>
     <g id="text_6">
      <!-- −100 -->
      <g transform="translate(24.772813 151.292552) scale(0.1 -0.1)">
       <use xlink:href="#DejaVuSans-2212"/>
       <use xlink:href="#DejaVuSans-31" transform="translate(83.789062 0)"/>
       <use xlink:href="#DejaVuSans-30" transform="translate(147.412109 0)"/>
       <use xlink:href="#DejaVuSans-30" transform="translate(211.035156 0)"/>
      </g>
     </g>
    </g>
    <g id="ytick_3">
     <g id="line2d_6">
      <g>
       <use xlink:href="#m5d4eafd2d8" x="59.24" y="120.946667" style="stroke: #000000; stroke-width: 0.8"/>
      </g>
     </g>
     <g id="text_7">
      <!-- −50 -->
      <g transform="translate(31.135313 124.745885) scale(0.1 -0.1)">
       <use xlink:href="#DejaVuSans-2212"/>
       <use xlink:href="#DejaVuSans-35" transform="translate(83.789062 0)"/>
       <use xlink:href="#DejaVuSans-30" transform="translate(147.412109 0)"/>
      </g>
     </g>
    </g>
    <g id="ytick_4">
     <g id="line2d_7">
      <g>
       <use xlink:href="#m5d4eafd2d8" x="59.24" y="94.4" style="stroke: #000000; stroke-width: 0.8"/>
      </g>
     </g>
     <g id="text_8">
      <!-- 0 -->
      <g transform="translate(45.8775 98.199219) scale(0.1 -0.1)">
       <use xlink:href="#DejaVuSans-30"/>
      </g>
     </g>
    </g>
    <g id="ytick_5">
     <g id="line2d_8">
      <g>
       <use xlink:href="#m5d4eafd2d8" x="59.24" y="67.853333" style="stroke: #000000; stroke-width: 0.8"/>
      </g>
     </g>
     <g id="text_9">
      <!-- 50 -->
      <g transform="translate(39.515 71.652552) scale(0.1 -0.1)">
       <use xlink:href="#DejaVuSans-35"/>
       <use xlink:href="#DejaVuSans-30" transform="translate(63.623047 0)"/>
      </g>
     </g>
    </g>
    <g id="ytick_6">
     <g id="line2d_9">
      <g>
       <use xlink:href="#m5d4eafd2d8" x="59.24" y="41.306667" style="stroke: #000000; stroke-width: 0.8"/>
      </g>
     </g>
     <g id="text_10">
      <!-- 100 -->
      <g transform="translate(33.1525 45.105885) scale(0.1 -0.1)">
       <use xlink:href="#DejaVuSans-31"/>
       <use xlink:href="#DejaVuSans-30" transform="translate(63.623047 0)"/>
       <use xlink:href="#DejaVuSans-30" transform="translate(127.246094 0)"/>
      </g>
     </g>
    </g>
    <g id="ytick_7">
     <g id="line2d_10">
      <g>
       <use xlink:href="#m5d4eafd2d8" x="59.24" y="14.76" style="stroke: #000000; stroke-width: 0.8"/>
      </g>
     </g>
     <g id="text_11">
      <!-- 150 -->
      <g transform="translate(33.1525 18.559219) scale(0.1 -0.1)">
       <use xlink:href="#DejaVuSans-31"/>
       <use xlink:href="#DejaVuSans-35" transform="translate(63.623047 0)"/>
       <use xlink:href="#DejaVuSans-30" transform="translate(127.246094 0)"/>
      </g>
     </g>
    </g>
    <g id="text_12">
     <!-- y -->
     <g transform="translate(18.693125 97.359375) rotate(-90) scale(0.1 -0.1)">
      <defs>
       <path id="DejaVuSans-79" d="M 2059 -325 
Q 1816 -950 1584 -1140 
Q 1353 -1331 966 -1331 
L 506 -1331 
L 506 -850 
L 844 -850 
Q 1081 -850 1212 -737 
Q 1344 -625 1503 -206 
L 1606 56 
L 191 3500 
L 800 3500 
L 1894 763 
L 2988 3500 
L 3597 3500 
L 2059 -325 
z
" transform="scale(0.015625)"/>
      </defs>
      <use xlink:href="#DejaVuSans-79"/>
     </g>
    </g>
   </g>
   <g id="line2d_11">
    <path d="M 68.257977 217 
L 70.928488 202.275676 
L 73.558398 188.976728 
L 76.188308 176.818317 
L 78.672112 166.336544 
L 81.155916 156.783419 
L 83.63972 148.115866 
L 85.977417 140.728557 
L 88.315115 134.051632 
L 90.652813 128.049177 
L 92.844404 123.002497 
L 95.035996 118.487459 
L 97.227588 114.474475 
L 99.419179 110.933952 
L 101.464665 108.029626 
L 103.51015 105.487032 
L 105.555636 103.282112 
L 107.601121 101.390808 
L 109.646607 99.789061 
L 111.692092 98.452813 
L 113.883684 97.28841 
L 116.075275 96.37158 
L 118.412973 95.63317 
L 120.896777 95.080194 
L 123.672793 94.692547 
L 126.887127 94.471057 
L 131.562523 94.400133 
L 138.42951 94.287825 
L 141.643844 94.007891 
L 144.41986 93.549279 
L 146.903664 92.916711 
L 149.241361 92.089503 
L 151.432953 91.077195 
L 153.478438 89.898921 
L 155.523924 88.470614 
L 157.569409 86.768216 
L 159.614895 84.767668 
L 161.66038 82.444912 
L 163.705866 79.77589 
L 165.751351 76.736543 
L 167.796837 73.302814 
L 169.842322 69.450644 
L 172.033914 64.831646 
L 174.225506 59.675086 
L 176.417097 53.951374 
L 178.754795 47.187614 
L 181.092492 39.708983 
L 183.43019 31.479567 
L 185.913994 21.873008 
L 188.397798 11.335268 
L 190.881602 -0.176728 
L 191.051274 -1 
L 191.051274 -1 
" clip-path="url(#p0dc2406ddb)" style="fill: none; stroke: #000000; stroke-linecap: square"/>
   </g>
   <g id="line2d_12">
    <path d="M 59.24 168.657446 
L 68.775075 156.689973 
L 73.175879 150.928258 
L 82.710955 138.192525 
L 85.644824 133.975933 
L 90.779095 126.273884 
L 95.179899 119.019024 
L 101.047638 109.265932 
L 103.24804 106.257335 
L 104.714975 104.736403 
L 109.115779 100.702231 
L 111.316181 99.278566 
L 113.516583 98.001303 
L 117.18392 96.298376 
L 119.384322 95.5085 
L 121.584724 94.869225 
L 123.785126 94.543858 
L 128.919397 94.317948 
L 139.921407 93.901252 
L 145.055678 93.099073 
L 147.25608 92.455559 
L 152.390352 90.659184 
L 154.590754 89.636765 
L 157.524623 87.807144 
L 158.25809 87.299462 
L 159.725025 85.568207 
L 161.925427 82.527711 
L 163.392362 80.244759 
L 167.059698 74.042701 
L 175.127839 60.255995 
L 184.662915 46.109152 
L 187.596784 42.360558 
L 195.664925 32.900188 
L 202.266131 25.417237 
L 205.2 22.212534 
L 205.2 22.212534 
" clip-path="url(#p0dc2406ddb)" style="fill: none; stroke: #ff8b50; stroke-width: 1.5; stroke-linecap: square"/>
   </g>
   <g id="patch_3">
    <path d="M 59.24 174.04 
L 59.24 14.76 
" style="fill: none; stroke: #000000; stroke-width: 0.8; stroke-linejoin: miter; stroke-linecap: square"/>
   </g>
   <g id="patch_4">
    <path d="M 205.2 174.04 
L 205.2 14.76 
" style="fill: none; stroke: #000000; stroke-width: 0.8; stroke-linejoin: miter; stroke-linecap: square"/>
   </g>
   <g id="patch_5">
    <path d="M 59.24 174.04 
L 205.2 174.04 
" style="fill: none; stroke: #000000; stroke-width: 0.8; stroke-linejoin: miter; stroke-linecap: square"/>
   </g>
   <g id="patch_6">
    <path d="M 59.24 14.76 
L 205.2 14.76 
" style="fill: none; stroke: #000000; stroke-width: 0.8; stroke-linejoin: miter; stroke-linecap: square"/>
   </g>
   <g id="legend_1">
    <g id="patch_7">
     <path d="M 65.071 70.331513 
L 146.089361 70.331513 
Q 147.755361 70.331513 147.755361 68.665513 
L 147.755361 20.591 
Q 147.755361 18.925 146.089361 18.925 
L 65.071 18.925 
Q 63.405 18.925 63.405 20.591 
L 63.405 68.665513 
Q 63.405 70.331513 65.071 70.331513 
z
" style="fill: #ffffff; opacity: 0.8; stroke: #cccccc; stroke-linejoin: miter"/>
    </g>
    <g id="line2d_13">
     <path d="M 66.737 25.670998 
L 75.067 25.670998 
L 83.397 25.670998 
" style="fill: none; stroke: #000000; stroke-linecap: square"/>
    </g>
    <g id="text_13">
     <!-- True function -->
     <g transform="translate(90.061 28.586498) scale(0.0833 -0.0833)">
      <defs>
       <path id="DejaVuSans-54" d="M -19 4666 
L 3928 4666 
L 3928 4134 
L 2272 4134 
L 2272 0 
L 1638 0 
L 1638 4134 
L -19 4134 
L -19 4666 
z
" transform="scale(0.015625)"/>
       <path id="DejaVuSans-72" d="M 2631 2963 
Q 2534 3019 2420 3045 
Q 2306 3072 2169 3072 
Q 1681 3072 1420 2755 
Q 1159 2438 1159 1844 
L 1159 0 
L 581 0 
L 581 3500 
L 1159 3500 
L 1159 2956 
Q 1341 3275 1631 3429 
Q 1922 3584 2338 3584 
Q 2397 3584 2469 3576 
Q 2541 3569 2628 3553 
L 2631 2963 
z
" transform="scale(0.015625)"/>
       <path id="DejaVuSans-75" d="M 544 1381 
L 544 3500 
L 1119 3500 
L 1119 1403 
Q 1119 906 1312 657 
Q 1506 409 1894 409 
Q 2359 409 2629 706 
Q 2900 1003 2900 1516 
L 2900 3500 
L 3475 3500 
L 3475 0 
L 2900 0 
L 2900 538 
Q 2691 219 2414 64 
Q 2138 -91 1772 -91 
Q 1169 -91 856 284 
Q 544 659 544 1381 
z
M 1991 3584 
L 1991 3584 
z
" transform="scale(0.015625)"/>
       <path id="DejaVuSans-65" d="M 3597 1894 
L 3597 1613 
L 953 1613 
Q 991 1019 1311 708 
Q 1631 397 2203 397 
Q 2534 397 2845 478 
Q 3156 559 3463 722 
L 3463 178 
Q 3153 47 2828 -22 
Q 2503 -91 2169 -91 
Q 1331 -91 842 396 
Q 353 884 353 1716 
Q 353 2575 817 3079 
Q 1281 3584 2069 3584 
Q 2775 3584 3186 3129 
Q 3597 2675 3597 1894 
z
M 3022 2063 
Q 3016 2534 2758 2815 
Q 2500 3097 2075 3097 
Q 1594 3097 1305 2825 
Q 1016 2553 972 2059 
L 3022 2063 
z
" transform="scale(0.015625)"/>
       <path id="DejaVuSans-20" transform="scale(0.015625)"/>
       <path id="DejaVuSans-66" d="M 2375 4863 
L 2375 4384 
L 1825 4384 
Q 1516 4384 1395 4259 
Q 1275 4134 1275 3809 
L 1275 3500 
L 2222 3500 
L 2222 3053 
L 1275 3053 
L 1275 0 
L 697 0 
L 697 3053 
L 147 3053 
L 147 3500 
L 697 3500 
L 697 3744 
Q 697 4328 969 4595 
Q 1241 4863 1831 4863 
L 2375 4863 
z
" transform="scale(0.015625)"/>
       <path id="DejaVuSans-6e" d="M 3513 2113 
L 3513 0 
L 2938 0 
L 2938 2094 
Q 2938 2591 2744 2837 
Q 2550 3084 2163 3084 
Q 1697 3084 1428 2787 
Q 1159 2491 1159 1978 
L 1159 0 
L 581 0 
L 581 3500 
L 1159 3500 
L 1159 2956 
Q 1366 3272 1645 3428 
Q 1925 3584 2291 3584 
Q 2894 3584 3203 3211 
Q 3513 2838 3513 2113 
z
" transform="scale(0.015625)"/>
       <path id="DejaVuSans-63" d="M 3122 3366 
L 3122 2828 
Q 2878 2963 2633 3030 
Q 2388 3097 2138 3097 
Q 1578 3097 1268 2742 
Q 959 2388 959 1747 
Q 959 1106 1268 751 
Q 1578 397 2138 397 
Q 2388 397 2633 464 
Q 2878 531 3122 666 
L 3122 134 
Q 2881 22 2623 -34 
Q 2366 -91 2075 -91 
Q 1284 -91 818 406 
Q 353 903 353 1747 
Q 353 2603 823 3093 
Q 1294 3584 2113 3584 
Q 2378 3584 2631 3529 
Q 2884 3475 3122 3366 
z
" transform="scale(0.015625)"/>
       <path id="DejaVuSans-74" d="M 1172 4494 
L 1172 3500 
L 2356 3500 
L 2356 3053 
L 1172 3053 
L 1172 1153 
Q 1172 725 1289 603 
Q 1406 481 1766 481 
L 2356 481 
L 2356 0 
L 1766 0 
Q 1100 0 847 248 
Q 594 497 594 1153 
L 594 3053 
L 172 3053 
L 172 3500 
L 594 3500 
L 594 4494 
L 1172 4494 
z
" transform="scale(0.015625)"/>
       <path id="DejaVuSans-69" d="M 603 3500 
L 1178 3500 
L 1178 0 
L 603 0 
L 603 3500 
z
M 603 4863 
L 1178 4863 
L 1178 4134 
L 603 4134 
L 603 4863 
z
" transform="scale(0.015625)"/>
       <path id="DejaVuSans-6f" d="M 1959 3097 
Q 1497 3097 1228 2736 
Q 959 2375 959 1747 
Q 959 1119 1226 758 
Q 1494 397 1959 397 
Q 2419 397 2687 759 
Q 2956 1122 2956 1747 
Q 2956 2369 2687 2733 
Q 2419 3097 1959 3097 
z
M 1959 3584 
Q 2709 3584 3137 3096 
Q 3566 2609 3566 1747 
Q 3566 888 3137 398 
Q 2709 -91 1959 -91 
Q 1206 -91 779 398 
Q 353 888 353 1747 
Q 353 2609 779 3096 
Q 1206 3584 1959 3584 
z
" transform="scale(0.015625)"/>
      </defs>
      <use xlink:href="#DejaVuSans-54"/>
      <use xlink:href="#DejaVuSans-72" transform="translate(46.333984 0)"/>
      <use xlink:href="#DejaVuSans-75" transform="translate(87.447266 0)"/>
      <use xlink:href="#DejaVuSans-65" transform="translate(150.826172 0)"/>
      <use xlink:href="#DejaVuSans-20" transform="translate(212.349609 0)"/>
      <use xlink:href="#DejaVuSans-66" transform="translate(244.136719 0)"/>
      <use xlink:href="#DejaVuSans-75" transform="translate(279.341797 0)"/>
      <use xlink:href="#DejaVuSans-6e" transform="translate(342.720703 0)"/>
      <use xlink:href="#DejaVuSans-63" transform="translate(406.099609 0)"/>
      <use xlink:href="#DejaVuSans-74" transform="translate(461.080078 0)"/>
      <use xlink:href="#DejaVuSans-69" transform="translate(500.289062 0)"/>
      <use xlink:href="#DejaVuSans-6f" transform="translate(528.072266 0)"/>
      <use xlink:href="#DejaVuSans-6e" transform="translate(589.253906 0)"/>
     </g>
    </g>
    <g id="PathCollection_2">
     <g>
      <use xlink:href="#m531d10237e" x="75.067" y="38.626752" style="fill-opacity: 0.8; stroke: #000000; stroke-opacity: 0.8"/>
     </g>
    </g>
    <g id="text_14">
     <!-- Training data -->
     <g transform="translate(90.061 40.813377) scale(0.0833 -0.0833)">
      <defs>
       <path id="DejaVuSans-61" d="M 2194 1759 
Q 1497 1759 1228 1600 
Q 959 1441 959 1056 
Q 959 750 1161 570 
Q 1363 391 1709 391 
Q 2188 391 2477 730 
Q 2766 1069 2766 1631 
L 2766 1759 
L 2194 1759 
z
M 3341 1997 
L 3341 0 
L 2766 0 
L 2766 531 
Q 2569 213 2275 61 
Q 1981 -91 1556 -91 
Q 1019 -91 701 211 
Q 384 513 384 1019 
Q 384 1609 779 1909 
Q 1175 2209 1959 2209 
L 2766 2209 
L 2766 2266 
Q 2766 2663 2505 2880 
Q 2244 3097 1772 3097 
Q 1472 3097 1187 3025 
Q 903 2953 641 2809 
L 641 3341 
Q 956 3463 1253 3523 
Q 1550 3584 1831 3584 
Q 2591 3584 2966 3190 
Q 3341 2797 3341 1997 
z
" transform="scale(0.015625)"/>
       <path id="DejaVuSans-67" d="M 2906 1791 
Q 2906 2416 2648 2759 
Q 2391 3103 1925 3103 
Q 1463 3103 1205 2759 
Q 947 2416 947 1791 
Q 947 1169 1205 825 
Q 1463 481 1925 481 
Q 2391 481 2648 825 
Q 2906 1169 2906 1791 
z
M 3481 434 
Q 3481 -459 3084 -895 
Q 2688 -1331 1869 -1331 
Q 1566 -1331 1297 -1286 
Q 1028 -1241 775 -1147 
L 775 -588 
Q 1028 -725 1275 -790 
Q 1522 -856 1778 -856 
Q 2344 -856 2625 -561 
Q 2906 -266 2906 331 
L 2906 616 
Q 2728 306 2450 153 
Q 2172 0 1784 0 
Q 1141 0 747 490 
Q 353 981 353 1791 
Q 353 2603 747 3093 
Q 1141 3584 1784 3584 
Q 2172 3584 2450 3431 
Q 2728 3278 2906 2969 
L 2906 3500 
L 3481 3500 
L 3481 434 
z
" transform="scale(0.015625)"/>
       <path id="DejaVuSans-64" d="M 2906 2969 
L 2906 4863 
L 3481 4863 
L 3481 0 
L 2906 0 
L 2906 525 
Q 2725 213 2448 61 
Q 2172 -91 1784 -91 
Q 1150 -91 751 415 
Q 353 922 353 1747 
Q 353 2572 751 3078 
Q 1150 3584 1784 3584 
Q 2172 3584 2448 3432 
Q 2725 3281 2906 2969 
z
M 947 1747 
Q 947 1113 1208 752 
Q 1469 391 1925 391 
Q 2381 391 2643 752 
Q 2906 1113 2906 1747 
Q 2906 2381 2643 2742 
Q 2381 3103 1925 3103 
Q 1469 3103 1208 2742 
Q 947 2381 947 1747 
z
" transform="scale(0.015625)"/>
      </defs>
      <use xlink:href="#DejaVuSans-54"/>
      <use xlink:href="#DejaVuSans-72" transform="translate(46.333984 0)"/>
      <use xlink:href="#DejaVuSans-61" transform="translate(87.447266 0)"/>
      <use xlink:href="#DejaVuSans-69" transform="translate(148.726562 0)"/>
      <use xlink:href="#DejaVuSans-6e" transform="translate(176.509766 0)"/>
      <use xlink:href="#DejaVuSans-69" transform="translate(239.888672 0)"/>
      <use xlink:href="#DejaVuSans-6e" transform="translate(267.671875 0)"/>
      <use xlink:href="#DejaVuSans-67" transform="translate(331.050781 0)"/>
      <use xlink:href="#DejaVuSans-20" transform="translate(394.527344 0)"/>
      <use xlink:href="#DejaVuSans-64" transform="translate(426.314453 0)"/>
      <use xlink:href="#DejaVuSans-61" transform="translate(489.791016 0)"/>
      <use xlink:href="#DejaVuSans-74" transform="translate(551.070312 0)"/>
      <use xlink:href="#DejaVuSans-61" transform="translate(590.279297 0)"/>
     </g>
    </g>
    <g id="line2d_14">
     <path d="M 66.737 50.124755 
L 75.067 50.124755 
L 83.397 50.124755 
" style="fill: none; stroke: #ff8b50; stroke-width: 1.5; stroke-linecap: square"/>
    </g>
    <g id="text_15">
     <!-- Prediction -->
     <g transform="translate(90.061 53.040255) scale(0.0833 -0.0833)">
      <defs>
       <path id="DejaVuSans-50" d="M 1259 4147 
L 1259 2394 
L 2053 2394 
Q 2494 2394 2734 2622 
Q 2975 2850 2975 3272 
Q 2975 3691 2734 3919 
Q 2494 4147 2053 4147 
L 1259 4147 
z
M 628 4666 
L 2053 4666 
Q 2838 4666 3239 4311 
Q 3641 3956 3641 3272 
Q 3641 2581 3239 2228 
Q 2838 1875 2053 1875 
L 1259 1875 
L 1259 0 
L 628 0 
L 628 4666 
z
" transform="scale(0.015625)"/>
      </defs>
      <use xlink:href="#DejaVuSans-50"/>
      <use xlink:href="#DejaVuSans-72" transform="translate(58.552734 0)"/>
      <use xlink:href="#DejaVuSans-65" transform="translate(97.416016 0)"/>
      <use xlink:href="#DejaVuSans-64" transform="translate(158.939453 0)"/>
      <use xlink:href="#DejaVuSans-69" transform="translate(222.416016 0)"/>
      <use xlink:href="#DejaVuSans-63" transform="translate(250.199219 0)"/>
      <use xlink:href="#DejaVuSans-74" transform="translate(305.179688 0)"/>
      <use xlink:href="#DejaVuSans-69" transform="translate(344.388672 0)"/>
      <use xlink:href="#DejaVuSans-6f" transform="translate(372.171875 0)"/>
      <use xlink:href="#DejaVuSans-6e" transform="translate(433.353516 0)"/>
     </g>
    </g>
    <g id="patch_8">
     <path d="M 66.737 65.267133 
L 83.397 65.267133 
L 83.397 59.436133 
L 66.737 59.436133 
z
" style="fill: #ac69da; fill-opacity: 0.3"/>
    </g>
    <g id="text_16">
     <!-- Unc. -->
     <g transform="translate(90.061 65.267133) scale(0.0833 -0.0833)">
      <defs>
       <path id="DejaVuSans-55" d="M 556 4666 
L 1191 4666 
L 1191 1831 
Q 1191 1081 1462 751 
Q 1734 422 2344 422 
Q 2950 422 3222 751 
Q 3494 1081 3494 1831 
L 3494 4666 
L 4128 4666 
L 4128 1753 
Q 4128 841 3676 375 
Q 3225 -91 2344 -91 
Q 1459 -91 1007 375 
Q 556 841 556 1753 
L 556 4666 
z
" transform="scale(0.015625)"/>
       <path id="DejaVuSans-2e" d="M 684 794 
L 1344 794 
L 1344 0 
L 684 0 
L 684 794 
z
" transform="scale(0.015625)"/>
      </defs>
      <use xlink:href="#DejaVuSans-55"/>
      <use xlink:href="#DejaVuSans-6e" transform="translate(73.193359 0)"/>
      <use xlink:href="#DejaVuSans-63" transform="translate(136.572266 0)"/>
      <use xlink:href="#DejaVuSans-2e" transform="translate(191.552734 0)"/>
     </g>
    </g>
   </g>
  </g>
 </g>
 <defs>
  <clipPath id="p0dc2406ddb">
   <rect x="59.24" y="14.76" width="145.96" height="159.28"/>
  </clipPath>
 </defs>
</svg>
