<?xml version="1.0" encoding="utf-8" standalone="no"?>
<!DOCTYPE svg PUBLIC "-//W3C//DTD SVG 1.1//EN"
  "http://www.w3.org/Graphics/SVG/1.1/DTD/svg11.dtd">
<svg xmlns:xlink="http://www.w3.org/1999/xlink" width="216pt" height="216pt" viewBox="0 0 216 216" xmlns="http://www.w3.org/2000/svg" version="1.1">
 <metadata>
  <rdf:RDF xmlns:dc="http://purl.org/dc/elements/1.1/" xmlns:cc="http://creativecommons.org/ns#" xmlns:rdf="http://www.w3.org/1999/02/22-rdf-syntax-ns#">
   <cc:Work>
    <dc:type rdf:resource="http://purl.org/dc/dcmitype/StillImage"/>
    <dc:date>2025-06-10T13:13:32.590062</dc:date>
    <dc:format>image/svg+xml</dc:format>
    <dc:creator>
     <cc:Agent>
      <dc:title>Matplotlib v3.10.0, https://matplotlib.org/</dc:title>
     </cc:Agent>
    </dc:creator>
   </cc:Work>
  </rdf:RDF>
 </metadata>
 <defs>
  <style type="text/css">*{stroke-linejoin: round; stroke-linecap: butt}</style>
 </defs>
 <g id="figure_1">
  <g id="patch_1">
   <path d="M 0 216 
L 216 216 
L 216 0 
L 0 0 
z
" style="fill: #ffffff"/>
  </g>
  <g id="axes_1">
   <g id="patch_2">
    <path d="M 59.24 174.04 
L 205.2 174.04 
L 205.2 14.76 
L 59.24 14.76 
z
" style="fill: #ffffff"/>
   </g>
   <g id="PathCollection_1">
    <defs>
     <path id="me1136961f8" d="M 0 1.224745 
C 0.324806 1.224745 0.636353 1.095698 0.866025 0.866025 
C 1.095698 0.636353 1.224745 0.324806 1.224745 0 
C 1.224745 -0.324806 1.095698 -0.636353 0.866025 -0.866025 
C 0.636353 -1.095698 0.324806 -1.224745 0 -1.224745 
C -0.324806 -1.224745 -0.636353 -1.095698 -0.866025 -0.866025 
C -1.095698 -0.636353 -1.224745 -0.324806 -1.224745 0 
C -1.224745 0.324806 -1.095698 0.636353 -0.866025 0.866025 
C -0.636353 1.095698 -0.324806 1.224745 0 1.224745 
z
" style="stroke: #000000; stroke-opacity: 0.8"/>
    </defs>
    <g clip-path="url(#p2a1f333a53)">
     <use xlink:href="#me1136961f8" x="93.988119" y="120.888194" style="fill-opacity: 0.8; stroke: #000000; stroke-opacity: 0.8"/>
     <use xlink:href="#me1136961f8" x="99.327699" y="110.592371" style="fill-opacity: 0.8; stroke: #000000; stroke-opacity: 0.8"/>
     <use xlink:href="#me1136961f8" x="97.300751" y="114.404108" style="fill-opacity: 0.8; stroke: #000000; stroke-opacity: 0.8"/>
     <use xlink:href="#me1136961f8" x="96.065092" y="118.403852" style="fill-opacity: 0.8; stroke: #000000; stroke-opacity: 0.8"/>
     <use xlink:href="#me1136961f8" x="91.963015" y="123.146252" style="fill-opacity: 0.8; stroke: #000000; stroke-opacity: 0.8"/>
     <use xlink:href="#me1136961f8" x="91.962791" y="123.76937" style="fill-opacity: 0.8; stroke: #000000; stroke-opacity: 0.8"/>
     <use xlink:href="#me1136961f8" x="91.055421" y="125.820911" style="fill-opacity: 0.8; stroke: #000000; stroke-opacity: 0.8"/>
     <use xlink:href="#me1136961f8" x="98.544258" y="113.741096" style="fill-opacity: 0.8; stroke: #000000; stroke-opacity: 0.8"/>
     <use xlink:href="#me1136961f8" x="96.087857" y="114.266211" style="fill-opacity: 0.8; stroke: #000000; stroke-opacity: 0.8"/>
     <use xlink:href="#me1136961f8" x="97.079065" y="116.964043" style="fill-opacity: 0.8; stroke: #000000; stroke-opacity: 0.8"/>
     <use xlink:href="#me1136961f8" x="90.707906" y="126.980813" style="fill-opacity: 0.8; stroke: #000000; stroke-opacity: 0.8"/>
     <use xlink:href="#me1136961f8" x="99.50559" y="107.314667" style="fill-opacity: 0.8; stroke: #000000; stroke-opacity: 0.8"/>
     <use xlink:href="#me1136961f8" x="98.23164" y="114.373293" style="fill-opacity: 0.8; stroke: #000000; stroke-opacity: 0.8"/>
     <use xlink:href="#me1136961f8" x="92.484953" y="124.694985" style="fill-opacity: 0.8; stroke: #000000; stroke-opacity: 0.8"/>
     <use xlink:href="#me1136961f8" x="92.20217" y="124.266285" style="fill-opacity: 0.8; stroke: #000000; stroke-opacity: 0.8"/>
     <use xlink:href="#me1136961f8" x="92.216808" y="125.194009" style="fill-opacity: 0.8; stroke: #000000; stroke-opacity: 0.8"/>
     <use xlink:href="#me1136961f8" x="102.603949" y="109.040272" style="fill-opacity: 0.8; stroke: #000000; stroke-opacity: 0.8"/>
     <use xlink:href="#me1136961f8" x="104.647521" y="104.111664" style="fill-opacity: 0.8; stroke: #000000; stroke-opacity: 0.8"/>
     <use xlink:href="#me1136961f8" x="103.787409" y="106.86095" style="fill-opacity: 0.8; stroke: #000000; stroke-opacity: 0.8"/>
     <use xlink:href="#me1136961f8" x="102.483353" y="105.965317" style="fill-opacity: 0.8; stroke: #000000; stroke-opacity: 0.8"/>
     <use xlink:href="#me1136961f8" x="105.45467" y="104.847851" style="fill-opacity: 0.8; stroke: #000000; stroke-opacity: 0.8"/>
     <use xlink:href="#me1136961f8" x="101.077176" y="106.08257" style="fill-opacity: 0.8; stroke: #000000; stroke-opacity: 0.8"/>
     <use xlink:href="#me1136961f8" x="102.491837" y="107.956679" style="fill-opacity: 0.8; stroke: #000000; stroke-opacity: 0.8"/>
     <use xlink:href="#me1136961f8" x="103.17963" y="106.387353" style="fill-opacity: 0.8; stroke: #000000; stroke-opacity: 0.8"/>
     <use xlink:href="#me1136961f8" x="104.010983" y="103.621098" style="fill-opacity: 0.8; stroke: #000000; stroke-opacity: 0.8"/>
     <use xlink:href="#me1136961f8" x="107.060907" y="103.8217" style="fill-opacity: 0.8; stroke: #000000; stroke-opacity: 0.8"/>
     <use xlink:href="#me1136961f8" x="101.634882" y="107.442276" style="fill-opacity: 0.8; stroke: #000000; stroke-opacity: 0.8"/>
     <use xlink:href="#me1136961f8" x="104.55001" y="102.243418" style="fill-opacity: 0.8; stroke: #000000; stroke-opacity: 0.8"/>
     <use xlink:href="#me1136961f8" x="105.274529" y="106.1264" style="fill-opacity: 0.8; stroke: #000000; stroke-opacity: 0.8"/>
     <use xlink:href="#me1136961f8" x="100.214914" y="109.465501" style="fill-opacity: 0.8; stroke: #000000; stroke-opacity: 0.8"/>
     <use xlink:href="#me1136961f8" x="105.414746" y="103.00971" style="fill-opacity: 0.8; stroke: #000000; stroke-opacity: 0.8"/>
     <use xlink:href="#me1136961f8" x="101.364743" y="106.917615" style="fill-opacity: 0.8; stroke: #000000; stroke-opacity: 0.8"/>
     <use xlink:href="#me1136961f8" x="109.654599" y="101.753554" style="fill-opacity: 0.8; stroke: #000000; stroke-opacity: 0.8"/>
     <use xlink:href="#me1136961f8" x="117.845354" y="97.894822" style="fill-opacity: 0.8; stroke: #000000; stroke-opacity: 0.8"/>
     <use xlink:href="#me1136961f8" x="118.000549" y="94.915662" style="fill-opacity: 0.8; stroke: #000000; stroke-opacity: 0.8"/>
     <use xlink:href="#me1136961f8" x="116.543408" y="95.731964" style="fill-opacity: 0.8; stroke: #000000; stroke-opacity: 0.8"/>
     <use xlink:href="#me1136961f8" x="111.874694" y="97.946635" style="fill-opacity: 0.8; stroke: #000000; stroke-opacity: 0.8"/>
     <use xlink:href="#me1136961f8" x="109.956903" y="99.018043" style="fill-opacity: 0.8; stroke: #000000; stroke-opacity: 0.8"/>
     <use xlink:href="#me1136961f8" x="115.39274" y="97.715496" style="fill-opacity: 0.8; stroke: #000000; stroke-opacity: 0.8"/>
     <use xlink:href="#me1136961f8" x="113.130772" y="97.289091" style="fill-opacity: 0.8; stroke: #000000; stroke-opacity: 0.8"/>
     <use xlink:href="#me1136961f8" x="110.182711" y="98.947341" style="fill-opacity: 0.8; stroke: #000000; stroke-opacity: 0.8"/>
     <use xlink:href="#me1136961f8" x="113.6407" y="98.542584" style="fill-opacity: 0.8; stroke: #000000; stroke-opacity: 0.8"/>
     <use xlink:href="#me1136961f8" x="109.370435" y="97.017481" style="fill-opacity: 0.8; stroke: #000000; stroke-opacity: 0.8"/>
     <use xlink:href="#me1136961f8" x="117.478692" y="95.146106" style="fill-opacity: 0.8; stroke: #000000; stroke-opacity: 0.8"/>
     <use xlink:href="#me1136961f8" x="111.449938" y="100.495445" style="fill-opacity: 0.8; stroke: #000000; stroke-opacity: 0.8"/>
     <use xlink:href="#me1136961f8" x="115.19154" y="95.66763" style="fill-opacity: 0.8; stroke: #000000; stroke-opacity: 0.8"/>
     <use xlink:href="#me1136961f8" x="111.940467" y="99.85995" style="fill-opacity: 0.8; stroke: #000000; stroke-opacity: 0.8"/>
     <use xlink:href="#me1136961f8" x="113.871373" y="96.040563" style="fill-opacity: 0.8; stroke: #000000; stroke-opacity: 0.8"/>
     <use xlink:href="#me1136961f8" x="123.385577" y="92.87763" style="fill-opacity: 0.8; stroke: #000000; stroke-opacity: 0.8"/>
     <use xlink:href="#me1136961f8" x="120.03215" y="96.555394" style="fill-opacity: 0.8; stroke: #000000; stroke-opacity: 0.8"/>
     <use xlink:href="#me1136961f8" x="127.304481" y="92.92118" style="fill-opacity: 0.8; stroke: #000000; stroke-opacity: 0.8"/>
     <use xlink:href="#me1136961f8" x="125.502437" y="93.884545" style="fill-opacity: 0.8; stroke: #000000; stroke-opacity: 0.8"/>
     <use xlink:href="#me1136961f8" x="127.025668" y="93.156284" style="fill-opacity: 0.8; stroke: #000000; stroke-opacity: 0.8"/>
     <use xlink:href="#me1136961f8" x="126.611683" y="91.461434" style="fill-opacity: 0.8; stroke: #000000; stroke-opacity: 0.8"/>
     <use xlink:href="#me1136961f8" x="123.859967" y="95.064599" style="fill-opacity: 0.8; stroke: #000000; stroke-opacity: 0.8"/>
     <use xlink:href="#me1136961f8" x="126.862334" y="95.672604" style="fill-opacity: 0.8; stroke: #000000; stroke-opacity: 0.8"/>
     <use xlink:href="#me1136961f8" x="119.139134" y="96.865472" style="fill-opacity: 0.8; stroke: #000000; stroke-opacity: 0.8"/>
     <use xlink:href="#me1136961f8" x="120.13528" y="96.526283" style="fill-opacity: 0.8; stroke: #000000; stroke-opacity: 0.8"/>
     <use xlink:href="#me1136961f8" x="118.738183" y="95.670876" style="fill-opacity: 0.8; stroke: #000000; stroke-opacity: 0.8"/>
     <use xlink:href="#me1136961f8" x="121.333982" y="94.46102" style="fill-opacity: 0.8; stroke: #000000; stroke-opacity: 0.8"/>
     <use xlink:href="#me1136961f8" x="121.921037" y="94.47109" style="fill-opacity: 0.8; stroke: #000000; stroke-opacity: 0.8"/>
     <use xlink:href="#me1136961f8" x="120.833721" y="93.774083" style="fill-opacity: 0.8; stroke: #000000; stroke-opacity: 0.8"/>
     <use xlink:href="#me1136961f8" x="125.999208" y="94.492078" style="fill-opacity: 0.8; stroke: #000000; stroke-opacity: 0.8"/>
     <use xlink:href="#me1136961f8" x="121.625188" y="92.642" style="fill-opacity: 0.8; stroke: #000000; stroke-opacity: 0.8"/>
     <use xlink:href="#me1136961f8" x="130.189854" y="94.825466" style="fill-opacity: 0.8; stroke: #000000; stroke-opacity: 0.8"/>
     <use xlink:href="#me1136961f8" x="132.615677" y="90.067286" style="fill-opacity: 0.8; stroke: #000000; stroke-opacity: 0.8"/>
     <use xlink:href="#me1136961f8" x="128.892337" y="93.420701" style="fill-opacity: 0.8; stroke: #000000; stroke-opacity: 0.8"/>
     <use xlink:href="#me1136961f8" x="135.020551" y="95.75499" style="fill-opacity: 0.8; stroke: #000000; stroke-opacity: 0.8"/>
     <use xlink:href="#me1136961f8" x="128.277233" y="96.134434" style="fill-opacity: 0.8; stroke: #000000; stroke-opacity: 0.8"/>
     <use xlink:href="#me1136961f8" x="136.732128" y="93.588478" style="fill-opacity: 0.8; stroke: #000000; stroke-opacity: 0.8"/>
     <use xlink:href="#me1136961f8" x="134.742974" y="94.748407" style="fill-opacity: 0.8; stroke: #000000; stroke-opacity: 0.8"/>
     <use xlink:href="#me1136961f8" x="129.427907" y="93.272938" style="fill-opacity: 0.8; stroke: #000000; stroke-opacity: 0.8"/>
     <use xlink:href="#me1136961f8" x="127.637524" y="93.691311" style="fill-opacity: 0.8; stroke: #000000; stroke-opacity: 0.8"/>
     <use xlink:href="#me1136961f8" x="135.143476" y="94.504296" style="fill-opacity: 0.8; stroke: #000000; stroke-opacity: 0.8"/>
     <use xlink:href="#me1136961f8" x="134.137009" y="95.745472" style="fill-opacity: 0.8; stroke: #000000; stroke-opacity: 0.8"/>
     <use xlink:href="#me1136961f8" x="134.342278" y="96.80837" style="fill-opacity: 0.8; stroke: #000000; stroke-opacity: 0.8"/>
     <use xlink:href="#me1136961f8" x="134.733944" y="95.103765" style="fill-opacity: 0.8; stroke: #000000; stroke-opacity: 0.8"/>
     <use xlink:href="#me1136961f8" x="128.272543" y="93.064747" style="fill-opacity: 0.8; stroke: #000000; stroke-opacity: 0.8"/>
     <use xlink:href="#me1136961f8" x="130.908359" y="94.060049" style="fill-opacity: 0.8; stroke: #000000; stroke-opacity: 0.8"/>
     <use xlink:href="#me1136961f8" x="128.660143" y="96.405349" style="fill-opacity: 0.8; stroke: #000000; stroke-opacity: 0.8"/>
     <use xlink:href="#me1136961f8" x="144.852291" y="93.179729" style="fill-opacity: 0.8; stroke: #000000; stroke-opacity: 0.8"/>
     <use xlink:href="#me1136961f8" x="142.629943" y="93.257739" style="fill-opacity: 0.8; stroke: #000000; stroke-opacity: 0.8"/>
     <use xlink:href="#me1136961f8" x="139.920183" y="95.593901" style="fill-opacity: 0.8; stroke: #000000; stroke-opacity: 0.8"/>
     <use xlink:href="#me1136961f8" x="137.442665" y="94.088405" style="fill-opacity: 0.8; stroke: #000000; stroke-opacity: 0.8"/>
     <use xlink:href="#me1136961f8" x="139.735618" y="94.108393" style="fill-opacity: 0.8; stroke: #000000; stroke-opacity: 0.8"/>
     <use xlink:href="#me1136961f8" x="139.867223" y="96.010999" style="fill-opacity: 0.8; stroke: #000000; stroke-opacity: 0.8"/>
     <use xlink:href="#me1136961f8" x="143.615131" y="93.136881" style="fill-opacity: 0.8; stroke: #000000; stroke-opacity: 0.8"/>
     <use xlink:href="#me1136961f8" x="142.762088" y="92.957871" style="fill-opacity: 0.8; stroke: #000000; stroke-opacity: 0.8"/>
     <use xlink:href="#me1136961f8" x="145.075719" y="91.679484" style="fill-opacity: 0.8; stroke: #000000; stroke-opacity: 0.8"/>
     <use xlink:href="#me1136961f8" x="141.229809" y="92.378839" style="fill-opacity: 0.8; stroke: #000000; stroke-opacity: 0.8"/>
     <use xlink:href="#me1136961f8" x="137.961967" y="96.505656" style="fill-opacity: 0.8; stroke: #000000; stroke-opacity: 0.8"/>
     <use xlink:href="#me1136961f8" x="143.463505" y="95.227839" style="fill-opacity: 0.8; stroke: #000000; stroke-opacity: 0.8"/>
     <use xlink:href="#me1136961f8" x="143.904075" y="92.832334" style="fill-opacity: 0.8; stroke: #000000; stroke-opacity: 0.8"/>
     <use xlink:href="#me1136961f8" x="142.055176" y="93.135915" style="fill-opacity: 0.8; stroke: #000000; stroke-opacity: 0.8"/>
     <use xlink:href="#me1136961f8" x="143.998436" y="92.814061" style="fill-opacity: 0.8; stroke: #000000; stroke-opacity: 0.8"/>
     <use xlink:href="#me1136961f8" x="141.429804" y="87.897376" style="fill-opacity: 0.8; stroke: #000000; stroke-opacity: 0.8"/>
     <use xlink:href="#me1136961f8" x="150.965275" y="90.404671" style="fill-opacity: 0.8; stroke: #000000; stroke-opacity: 0.8"/>
     <use xlink:href="#me1136961f8" x="150.083104" y="89.920767" style="fill-opacity: 0.8; stroke: #000000; stroke-opacity: 0.8"/>
     <use xlink:href="#me1136961f8" x="146.356519" y="91.556887" style="fill-opacity: 0.8; stroke: #000000; stroke-opacity: 0.8"/>
     <use xlink:href="#me1136961f8" x="147.120815" y="91.812389" style="fill-opacity: 0.8; stroke: #000000; stroke-opacity: 0.8"/>
     <use xlink:href="#me1136961f8" x="146.412216" y="93.562875" style="fill-opacity: 0.8; stroke: #000000; stroke-opacity: 0.8"/>
     <use xlink:href="#me1136961f8" x="152.01876" y="89.555008" style="fill-opacity: 0.8; stroke: #000000; stroke-opacity: 0.8"/>
     <use xlink:href="#me1136961f8" x="149.034184" y="93.403804" style="fill-opacity: 0.8; stroke: #000000; stroke-opacity: 0.8"/>
     <use xlink:href="#me1136961f8" x="150.83403" y="91.755557" style="fill-opacity: 0.8; stroke: #000000; stroke-opacity: 0.8"/>
     <use xlink:href="#me1136961f8" x="154.531645" y="89.969327" style="fill-opacity: 0.8; stroke: #000000; stroke-opacity: 0.8"/>
     <use xlink:href="#me1136961f8" x="148.431219" y="92.27355" style="fill-opacity: 0.8; stroke: #000000; stroke-opacity: 0.8"/>
     <use xlink:href="#me1136961f8" x="149.924095" y="88.113389" style="fill-opacity: 0.8; stroke: #000000; stroke-opacity: 0.8"/>
     <use xlink:href="#me1136961f8" x="153.122873" y="93.095198" style="fill-opacity: 0.8; stroke: #000000; stroke-opacity: 0.8"/>
     <use xlink:href="#me1136961f8" x="148.241294" y="91.380219" style="fill-opacity: 0.8; stroke: #000000; stroke-opacity: 0.8"/>
     <use xlink:href="#me1136961f8" x="146.834348" y="95.506352" style="fill-opacity: 0.8; stroke: #000000; stroke-opacity: 0.8"/>
     <use xlink:href="#me1136961f8" x="148.806166" y="93.013925" style="fill-opacity: 0.8; stroke: #000000; stroke-opacity: 0.8"/>
     <use xlink:href="#me1136961f8" x="147.615039" y="90.956036" style="fill-opacity: 0.8; stroke: #000000; stroke-opacity: 0.8"/>
     <use xlink:href="#me1136961f8" x="164.004042" y="79.254079" style="fill-opacity: 0.8; stroke: #000000; stroke-opacity: 0.8"/>
     <use xlink:href="#me1136961f8" x="162.877349" y="82.616863" style="fill-opacity: 0.8; stroke: #000000; stroke-opacity: 0.8"/>
     <use xlink:href="#me1136961f8" x="161.258198" y="84.067537" style="fill-opacity: 0.8; stroke: #000000; stroke-opacity: 0.8"/>
     <use xlink:href="#me1136961f8" x="163.464342" y="79.02739" style="fill-opacity: 0.8; stroke: #000000; stroke-opacity: 0.8"/>
     <use xlink:href="#me1136961f8" x="162.836125" y="82.117944" style="fill-opacity: 0.8; stroke: #000000; stroke-opacity: 0.8"/>
     <use xlink:href="#me1136961f8" x="157.117255" y="86.824581" style="fill-opacity: 0.8; stroke: #000000; stroke-opacity: 0.8"/>
     <use xlink:href="#me1136961f8" x="163.659867" y="79.767303" style="fill-opacity: 0.8; stroke: #000000; stroke-opacity: 0.8"/>
     <use xlink:href="#me1136961f8" x="160.386501" y="84.968482" style="fill-opacity: 0.8; stroke: #000000; stroke-opacity: 0.8"/>
     <use xlink:href="#me1136961f8" x="162.871045" y="77.493683" style="fill-opacity: 0.8; stroke: #000000; stroke-opacity: 0.8"/>
     <use xlink:href="#me1136961f8" x="163.692602" y="78.784657" style="fill-opacity: 0.8; stroke: #000000; stroke-opacity: 0.8"/>
     <use xlink:href="#me1136961f8" x="158.335288" y="89.281019" style="fill-opacity: 0.8; stroke: #000000; stroke-opacity: 0.8"/>
     <use xlink:href="#me1136961f8" x="156.408138" y="87.472766" style="fill-opacity: 0.8; stroke: #000000; stroke-opacity: 0.8"/>
     <use xlink:href="#me1136961f8" x="157.500598" y="87.884291" style="fill-opacity: 0.8; stroke: #000000; stroke-opacity: 0.8"/>
     <use xlink:href="#me1136961f8" x="159.346391" y="83.690372" style="fill-opacity: 0.8; stroke: #000000; stroke-opacity: 0.8"/>
     <use xlink:href="#me1136961f8" x="162.969044" y="82.041064" style="fill-opacity: 0.8; stroke: #000000; stroke-opacity: 0.8"/>
     <use xlink:href="#me1136961f8" x="163.364904" y="80.428611" style="fill-opacity: 0.8; stroke: #000000; stroke-opacity: 0.8"/>
     <use xlink:href="#me1136961f8" x="164.719983" y="77.512476" style="fill-opacity: 0.8; stroke: #000000; stroke-opacity: 0.8"/>
     <use xlink:href="#me1136961f8" x="169.388805" y="68.963091" style="fill-opacity: 0.8; stroke: #000000; stroke-opacity: 0.8"/>
     <use xlink:href="#me1136961f8" x="168.523829" y="73.894711" style="fill-opacity: 0.8; stroke: #000000; stroke-opacity: 0.8"/>
     <use xlink:href="#me1136961f8" x="166.713896" y="75.704123" style="fill-opacity: 0.8; stroke: #000000; stroke-opacity: 0.8"/>
     <use xlink:href="#me1136961f8" x="165.766384" y="77.469269" style="fill-opacity: 0.8; stroke: #000000; stroke-opacity: 0.8"/>
     <use xlink:href="#me1136961f8" x="167.784337" y="74.365666" style="fill-opacity: 0.8; stroke: #000000; stroke-opacity: 0.8"/>
     <use xlink:href="#me1136961f8" x="173.393784" y="58.885188" style="fill-opacity: 0.8; stroke: #000000; stroke-opacity: 0.8"/>
     <use xlink:href="#me1136961f8" x="167.650775" y="72.91654" style="fill-opacity: 0.8; stroke: #000000; stroke-opacity: 0.8"/>
     <use xlink:href="#me1136961f8" x="169.463345" y="72.205371" style="fill-opacity: 0.8; stroke: #000000; stroke-opacity: 0.8"/>
     <use xlink:href="#me1136961f8" x="171.170644" y="65.251631" style="fill-opacity: 0.8; stroke: #000000; stroke-opacity: 0.8"/>
     <use xlink:href="#me1136961f8" x="168.025421" y="69.513372" style="fill-opacity: 0.8; stroke: #000000; stroke-opacity: 0.8"/>
     <use xlink:href="#me1136961f8" x="173.661353" y="59.410981" style="fill-opacity: 0.8; stroke: #000000; stroke-opacity: 0.8"/>
     <use xlink:href="#me1136961f8" x="173.574845" y="63.683927" style="fill-opacity: 0.8; stroke: #000000; stroke-opacity: 0.8"/>
     <use xlink:href="#me1136961f8" x="166.988898" y="75.479039" style="fill-opacity: 0.8; stroke: #000000; stroke-opacity: 0.8"/>
     <use xlink:href="#me1136961f8" x="169.263707" y="68.566226" style="fill-opacity: 0.8; stroke: #000000; stroke-opacity: 0.8"/>
     <use xlink:href="#me1136961f8" x="167.443886" y="75.051685" style="fill-opacity: 0.8; stroke: #000000; stroke-opacity: 0.8"/>
     <use xlink:href="#me1136961f8" x="167.295258" y="73.475691" style="fill-opacity: 0.8; stroke: #000000; stroke-opacity: 0.8"/>
     <use xlink:href="#me1136961f8" x="164.997398" y="76.667606" style="fill-opacity: 0.8; stroke: #000000; stroke-opacity: 0.8"/>
     <use xlink:href="#me1136961f8" x="170.304572" y="69.996087" style="fill-opacity: 0.8; stroke: #000000; stroke-opacity: 0.8"/>
     <use xlink:href="#me1136961f8" x="169.314034" y="70.581776" style="fill-opacity: 0.8; stroke: #000000; stroke-opacity: 0.8"/>
     <use xlink:href="#me1136961f8" x="165.132625" y="82.85909" style="fill-opacity: 0.8; stroke: #000000; stroke-opacity: 0.8"/>
     <use xlink:href="#me1136961f8" x="167.237856" y="75.913348" style="fill-opacity: 0.8; stroke: #000000; stroke-opacity: 0.8"/>
    </g>
   </g>
   <g id="FillBetweenPolyCollection_1">
    <path d="M 59.24 151.509173 
L 59.24 151.509173 
L 59.973467 157.770842 
L 60.706935 153.505402 
L 61.440402 150.026981 
L 62.173869 148.149887 
L 62.907337 145.739072 
L 63.640804 146.601803 
L 64.374271 147.915072 
L 65.107739 143.040022 
L 65.841206 144.582618 
L 66.574673 146.59548 
L 67.308141 145.436437 
L 68.041608 146.982508 
L 68.775075 141.075595 
L 69.508543 142.089064 
L 70.24201 140.94801 
L 70.975477 139.273564 
L 71.708945 143.123783 
L 72.442412 136.868777 
L 73.175879 143.314688 
L 73.909347 140.291679 
L 74.642814 138.799936 
L 75.376281 136.118838 
L 76.109749 137.974918 
L 76.843216 135.28089 
L 77.576683 135.762616 
L 78.310151 135.754227 
L 79.043618 131.812061 
L 79.777085 133.314004 
L 80.510553 130.066765 
L 81.24402 130.195488 
L 81.977487 130.097611 
L 82.710955 128.667054 
L 83.444422 126.889663 
L 84.177889 123.927903 
L 84.911357 128.096543 
L 85.644824 122.507093 
L 86.378291 123.471039 
L 87.111759 124.280427 
L 87.845226 125.303535 
L 88.578693 120.62973 
L 89.312161 122.181826 
L 90.045628 120.885983 
L 90.779095 120.803807 
L 91.512563 121.022048 
L 92.24603 118.179075 
L 92.979497 119.285681 
L 93.712965 119.007125 
L 94.446432 115.236199 
L 95.179899 114.767324 
L 95.913367 115.401649 
L 96.646834 114.22949 
L 97.380302 113.339424 
L 98.113769 112.720623 
L 98.847236 110.604929 
L 99.580704 109.441051 
L 100.314171 110.243539 
L 101.047638 107.815302 
L 101.781106 106.763316 
L 102.514573 106.231162 
L 103.24804 105.3264 
L 103.981508 104.76074 
L 104.714975 104.405796 
L 105.448442 102.520597 
L 106.18191 103.124708 
L 106.915377 101.206743 
L 107.648844 100.964835 
L 108.382312 100.739121 
L 109.115779 99.514876 
L 109.849246 99.529277 
L 110.582714 98.582185 
L 111.316181 98.15265 
L 112.049648 97.563248 
L 112.783116 97.417761 
L 113.516583 96.519994 
L 114.25005 96.568383 
L 114.983518 96.581462 
L 115.716985 96.285846 
L 116.450452 95.188108 
L 117.18392 95.562422 
L 117.917387 95.065198 
L 118.650854 95.256847 
L 119.384322 95.082994 
L 120.117789 94.804777 
L 120.851256 94.919973 
L 121.584724 94.481053 
L 122.318191 94.434311 
L 123.051658 94.307745 
L 123.785126 94.505542 
L 124.518593 94.568746 
L 125.25206 94.542011 
L 125.985528 94.363768 
L 126.718995 94.546125 
L 127.452462 94.423616 
L 128.18593 94.513419 
L 128.919397 93.984558 
L 129.652864 94.062174 
L 130.386332 93.668907 
L 131.119799 94.274324 
L 131.853266 93.648389 
L 132.586734 94.140366 
L 133.320201 93.7588 
L 134.053668 94.182525 
L 134.787136 94.04702 
L 135.520603 93.426309 
L 136.25407 94.069821 
L 136.987538 93.722165 
L 137.721005 93.558314 
L 138.454472 93.558576 
L 139.18794 93.702974 
L 139.921407 93.401735 
L 140.654874 93.157999 
L 141.388342 93.284316 
L 142.121809 93.273848 
L 142.855276 92.698678 
L 143.588744 92.836641 
L 144.322211 92.81333 
L 145.055678 91.982586 
L 145.789146 92.598305 
L 146.522613 92.133115 
L 147.25608 91.451725 
L 147.989548 91.203661 
L 148.723015 90.976145 
L 149.456482 90.842125 
L 150.18995 90.44153 
L 150.923417 90.412719 
L 151.656884 89.860381 
L 152.390352 89.564041 
L 153.123819 88.909085 
L 153.857286 88.955429 
L 154.590754 87.851739 
L 155.324221 87.354163 
L 156.057688 86.58847 
L 156.791156 86.462194 
L 157.524623 84.989026 
L 158.25809 86.292435 
L 158.991558 83.798288 
L 159.725025 82.757923 
L 160.458492 82.628101 
L 161.19196 81.3757 
L 161.925427 81.911263 
L 162.658894 80.114373 
L 163.392362 81.157115 
L 164.125829 78.982427 
L 164.859296 77.774718 
L 165.592764 76.484581 
L 166.326231 75.114881 
L 167.059698 76.686974 
L 167.793166 75.189167 
L 168.526633 76.063488 
L 169.260101 76.373934 
L 169.993568 72.632716 
L 170.727035 72.31559 
L 171.460503 72.597065 
L 172.19397 69.425145 
L 172.927437 70.773323 
L 173.660905 67.928863 
L 174.394372 70.14032 
L 175.127839 69.261075 
L 175.861307 67.266628 
L 176.594774 67.347016 
L 177.328241 67.322426 
L 178.061709 65.147741 
L 178.795176 67.613743 
L 179.528643 63.288438 
L 180.262111 64.501752 
L 180.995578 63.429862 
L 181.729045 61.861228 
L 182.462513 59.877967 
L 183.19598 61.050454 
L 183.929447 61.533087 
L 184.662915 62.765158 
L 185.396382 60.438428 
L 186.129849 60.703919 
L 186.863317 59.392778 
L 187.596784 58.230718 
L 188.330251 55.702692 
L 189.063719 54.812555 
L 189.797186 57.759139 
L 190.530653 56.504131 
L 191.264121 54.044489 
L 191.997588 57.356649 
L 192.731055 49.32608 
L 193.464523 52.896513 
L 194.19799 49.836837 
L 194.931457 51.198156 
L 195.664925 48.775226 
L 196.398392 54.765538 
L 197.131859 52.677698 
L 197.865327 51.199537 
L 198.598794 47.623437 
L 199.332261 51.826063 
L 200.065729 44.601708 
L 200.799196 47.63004 
L 201.532663 42.798025 
L 202.266131 45.345397 
L 202.999598 46.64457 
L 203.733065 42.601064 
L 204.466533 42.469104 
L 205.2 42.052842 
L 205.2 42.052842 
L 205.2 42.052842 
L 204.466533 42.469104 
L 203.733065 42.601064 
L 202.999598 46.64457 
L 202.266131 45.345397 
L 201.532663 42.798025 
L 200.799196 47.63004 
L 200.065729 44.601708 
L 199.332261 51.826063 
L 198.598794 47.623437 
L 197.865327 51.199537 
L 197.131859 52.677698 
L 196.398392 54.765538 
L 195.664925 48.775226 
L 194.931457 51.198156 
L 194.19799 49.836837 
L 193.464523 52.896513 
L 192.731055 49.32608 
L 191.997588 57.356649 
L 191.264121 54.044489 
L 190.530653 56.504131 
L 189.797186 57.759139 
L 189.063719 54.812555 
L 188.330251 55.702692 
L 187.596784 58.230718 
L 186.863317 59.392778 
L 186.129849 60.703919 
L 185.396382 60.438428 
L 184.662915 62.765158 
L 183.929447 61.533087 
L 183.19598 61.050454 
L 182.462513 59.877967 
L 181.729045 61.861228 
L 180.995578 63.429862 
L 180.262111 64.501752 
L 179.528643 63.288438 
L 178.795176 67.613743 
L 178.061709 65.147741 
L 177.328241 67.322426 
L 176.594774 67.347016 
L 175.861307 67.266628 
L 175.127839 69.261075 
L 174.394372 70.14032 
L 173.660905 67.928863 
L 172.927437 70.773323 
L 172.19397 69.425145 
L 171.460503 72.597065 
L 170.727035 72.31559 
L 169.993568 72.632716 
L 169.260101 76.373934 
L 168.526633 76.063488 
L 167.793166 75.189167 
L 167.059698 76.686974 
L 166.326231 75.114881 
L 165.592764 76.484581 
L 164.859296 77.774718 
L 164.125829 78.982427 
L 163.392362 81.157115 
L 162.658894 80.114373 
L 161.925427 81.911263 
L 161.19196 81.3757 
L 160.458492 82.628101 
L 159.725025 82.757923 
L 158.991558 83.798288 
L 158.25809 86.292435 
L 157.524623 84.989026 
L 156.791156 86.462194 
L 156.057688 86.58847 
L 155.324221 87.354163 
L 154.590754 87.851739 
L 153.857286 88.955429 
L 153.123819 88.909085 
L 152.390352 89.564041 
L 151.656884 89.860381 
L 150.923417 90.412719 
L 150.18995 90.44153 
L 149.456482 90.842125 
L 148.723015 90.976145 
L 147.989548 91.203661 
L 147.25608 91.451725 
L 146.522613 92.133115 
L 145.789146 92.598305 
L 145.055678 91.982586 
L 144.322211 92.81333 
L 143.588744 92.836641 
L 142.855276 92.698678 
L 142.121809 93.273848 
L 141.388342 93.284316 
L 140.654874 93.157999 
L 139.921407 93.401735 
L 139.18794 93.702974 
L 138.454472 93.558576 
L 137.721005 93.558314 
L 136.987538 93.722165 
L 136.25407 94.069821 
L 135.520603 93.426309 
L 134.787136 94.04702 
L 134.053668 94.182525 
L 133.320201 93.7588 
L 132.586734 94.140366 
L 131.853266 93.648389 
L 131.119799 94.274324 
L 130.386332 93.668907 
L 129.652864 94.062174 
L 128.919397 93.984558 
L 128.18593 94.513419 
L 127.452462 94.423616 
L 126.718995 94.546125 
L 125.985528 94.363768 
L 125.25206 94.542011 
L 124.518593 94.568746 
L 123.785126 94.505542 
L 123.051658 94.307745 
L 122.318191 94.434311 
L 121.584724 94.481053 
L 120.851256 94.919973 
L 120.117789 94.804777 
L 119.384322 95.082994 
L 118.650854 95.256847 
L 117.917387 95.065198 
L 117.18392 95.562422 
L 116.450452 95.188108 
L 115.716985 96.285846 
L 114.983518 96.581462 
L 114.25005 96.568383 
L 113.516583 96.519994 
L 112.783116 97.417761 
L 112.049648 97.563248 
L 111.316181 98.15265 
L 110.582714 98.582185 
L 109.849246 99.529277 
L 109.115779 99.514876 
L 108.382312 100.739121 
L 107.648844 100.964835 
L 106.915377 101.206743 
L 106.18191 103.124708 
L 105.448442 102.520597 
L 104.714975 104.405796 
L 103.981508 104.76074 
L 103.24804 105.3264 
L 102.514573 106.231162 
L 101.781106 106.763316 
L 101.047638 107.815302 
L 100.314171 110.243539 
L 99.580704 109.441051 
L 98.847236 110.604929 
L 98.113769 112.720623 
L 97.380302 113.339424 
L 96.646834 114.22949 
L 95.913367 115.401649 
L 95.179899 114.767324 
L 94.446432 115.236199 
L 93.712965 119.007125 
L 92.979497 119.285681 
L 92.24603 118.179075 
L 91.512563 121.022048 
L 90.779095 120.803807 
L 90.045628 120.885983 
L 89.312161 122.181826 
L 88.578693 120.62973 
L 87.845226 125.303535 
L 87.111759 124.280427 
L 86.378291 123.471039 
L 85.644824 122.507093 
L 84.911357 128.096543 
L 84.177889 123.927903 
L 83.444422 126.889663 
L 82.710955 128.667054 
L 81.977487 130.097611 
L 81.24402 130.195488 
L 80.510553 130.066765 
L 79.777085 133.314004 
L 79.043618 131.812061 
L 78.310151 135.754227 
L 77.576683 135.762616 
L 76.843216 135.28089 
L 76.109749 137.974918 
L 75.376281 136.118838 
L 74.642814 138.799936 
L 73.909347 140.291679 
L 73.175879 143.314688 
L 72.442412 136.868777 
L 71.708945 143.123783 
L 70.975477 139.273564 
L 70.24201 140.94801 
L 69.508543 142.089064 
L 68.775075 141.075595 
L 68.041608 146.982508 
L 67.308141 145.436437 
L 66.574673 146.59548 
L 65.841206 144.582618 
L 65.107739 143.040022 
L 64.374271 147.915072 
L 63.640804 146.601803 
L 62.907337 145.739072 
L 62.173869 148.149887 
L 61.440402 150.026981 
L 60.706935 153.505402 
L 59.973467 157.770842 
L 59.24 151.509173 
z
" clip-path="url(#p2a1f333a53)" style="fill: #ac69da; fill-opacity: 0.3"/>
   </g>
   <g id="FillBetweenPolyCollection_2">
    <path d="M 59.24 137.974539 
L 59.24 165.043807 
L 59.973467 177.598877 
L 60.706935 170.185553 
L 61.440402 161.287228 
L 62.173869 166.592523 
L 62.907337 156.586965 
L 63.640804 157.893926 
L 64.374271 165.070297 
L 65.107739 155.397754 
L 65.841206 158.975306 
L 66.574673 161.088804 
L 67.308141 162.204203 
L 68.041608 162.006654 
L 68.775075 153.294805 
L 69.508543 158.890982 
L 70.24201 153.879733 
L 70.975477 150.248428 
L 71.708945 155.021486 
L 72.442412 150.136762 
L 73.175879 154.198859 
L 73.909347 153.713614 
L 74.642814 149.178232 
L 75.376281 147.527103 
L 76.109749 150.049515 
L 76.843216 143.828945 
L 77.576683 146.353819 
L 78.310151 147.763298 
L 79.043618 145.068639 
L 79.777085 142.181195 
L 80.510553 139.078939 
L 81.24402 140.482278 
L 81.977487 141.511811 
L 82.710955 135.013644 
L 83.444422 136.232248 
L 84.177889 133.785575 
L 84.911357 136.178671 
L 85.644824 130.421302 
L 86.378291 130.72581 
L 87.111759 134.120991 
L 87.845226 132.379267 
L 88.578693 128.429902 
L 89.312161 130.790955 
L 90.045628 130.227441 
L 90.779095 126.542153 
L 91.512563 128.643925 
L 92.24603 124.950088 
L 92.979497 128.506366 
L 93.712965 127.368446 
L 94.446432 121.181243 
L 95.179899 121.911443 
L 95.913367 120.779917 
L 96.646834 119.718391 
L 97.380302 120.370208 
L 98.113769 118.191126 
L 98.847236 114.694337 
L 99.580704 114.151577 
L 100.314171 113.447779 
L 101.047638 110.676075 
L 101.781106 110.911277 
L 102.514573 110.277077 
L 103.24804 108.625839 
L 103.981508 108.118633 
L 104.714975 107.573563 
L 105.448442 106.086098 
L 106.18191 107.100216 
L 106.915377 104.061919 
L 107.648844 104.200899 
L 108.382312 103.622155 
L 109.115779 101.118238 
L 109.849246 101.890994 
L 110.582714 100.03345 
L 111.316181 100.051751 
L 112.049648 99.526626 
L 112.783116 99.236232 
L 113.516583 97.916244 
L 114.25005 97.732889 
L 114.983518 98.825665 
L 115.716985 98.032374 
L 116.450452 96.713703 
L 117.18392 97.166041 
L 117.917387 96.526972 
L 118.650854 96.28295 
L 119.384322 96.493523 
L 120.117789 96.137811 
L 120.851256 96.339528 
L 121.584724 95.927103 
L 122.318191 95.85337 
L 123.051658 95.670602 
L 123.785126 95.836683 
L 124.518593 95.742804 
L 125.25206 95.784768 
L 125.985528 95.88805 
L 126.718995 95.776289 
L 127.452462 95.388745 
L 128.18593 95.654628 
L 128.919397 94.992238 
L 129.652864 95.151129 
L 130.386332 94.869411 
L 131.119799 95.244293 
L 131.853266 94.775267 
L 132.586734 95.372528 
L 133.320201 94.773765 
L 134.053668 95.663054 
L 134.787136 95.376719 
L 135.520603 94.688642 
L 136.25407 94.977167 
L 136.987538 94.998182 
L 137.721005 94.760134 
L 138.454472 94.630538 
L 139.18794 94.858575 
L 139.921407 94.441015 
L 140.654874 94.233066 
L 141.388342 94.905739 
L 142.121809 94.404429 
L 142.855276 94.106259 
L 143.588744 94.109569 
L 144.322211 94.614418 
L 145.055678 93.353222 
L 145.789146 94.267002 
L 146.522613 93.644783 
L 147.25608 93.833555 
L 147.989548 92.877378 
L 148.723015 92.727041 
L 149.456482 92.634539 
L 150.18995 92.672435 
L 150.923417 92.274776 
L 151.656884 91.813283 
L 152.390352 91.816211 
L 153.123819 91.261603 
L 153.857286 91.041692 
L 154.590754 91.074066 
L 155.324221 89.519809 
L 156.057688 89.926955 
L 156.791156 89.271159 
L 157.524623 88.849393 
L 158.25809 90.060961 
L 158.991558 86.764546 
L 159.725025 86.462158 
L 160.458492 86.513338 
L 161.19196 85.111989 
L 161.925427 86.18745 
L 162.658894 83.656744 
L 163.392362 86.433407 
L 164.125829 85.213302 
L 164.859296 83.568942 
L 165.592764 81.177679 
L 166.326231 80.025361 
L 167.059698 83.416891 
L 167.793166 81.125939 
L 168.526633 80.401905 
L 169.260101 80.706352 
L 169.993568 79.209864 
L 170.727035 79.742343 
L 171.460503 77.578556 
L 172.19397 77.185796 
L 172.927437 76.807722 
L 173.660905 75.022186 
L 174.394372 78.339218 
L 175.127839 75.184244 
L 175.861307 75.931604 
L 176.594774 76.661853 
L 177.328241 75.55945 
L 178.061709 73.75115 
L 178.795176 75.727384 
L 179.528643 69.753429 
L 180.262111 74.664532 
L 180.995578 71.916227 
L 181.729045 66.268991 
L 182.462513 69.102468 
L 183.19598 70.081173 
L 183.929447 73.227807 
L 184.662915 70.398079 
L 185.396382 70.189341 
L 186.129849 68.071176 
L 186.863317 69.377379 
L 187.596784 67.876397 
L 188.330251 66.244295 
L 189.063719 64.164567 
L 189.797186 66.573396 
L 190.530653 71.99927 
L 191.264121 65.544846 
L 191.997588 70.878701 
L 192.731055 62.099138 
L 193.464523 64.907224 
L 194.19799 64.439167 
L 194.931457 63.442175 
L 195.664925 63.862339 
L 196.398392 63.718448 
L 197.131859 65.613695 
L 197.865327 64.255544 
L 198.598794 61.81186 
L 199.332261 65.86315 
L 200.065729 60.184772 
L 200.799196 60.576497 
L 201.532663 54.791889 
L 202.266131 59.807173 
L 202.999598 60.345351 
L 203.733065 57.762267 
L 204.466533 55.763303 
L 205.2 55.376335 
L 205.2 28.729349 
L 205.2 28.729349 
L 204.466533 29.174905 
L 203.733065 27.43986 
L 202.999598 32.943788 
L 202.266131 30.88362 
L 201.532663 30.804161 
L 200.799196 34.683583 
L 200.065729 29.018645 
L 199.332261 37.788976 
L 198.598794 33.435015 
L 197.865327 38.14353 
L 197.131859 39.741701 
L 196.398392 45.812629 
L 195.664925 33.688113 
L 194.931457 38.954137 
L 194.19799 35.234507 
L 193.464523 40.885801 
L 192.731055 36.553022 
L 191.997588 43.834598 
L 191.264121 42.544132 
L 190.530653 41.008992 
L 189.797186 48.944882 
L 189.063719 45.460542 
L 188.330251 45.161089 
L 187.596784 48.585038 
L 186.863317 49.408178 
L 186.129849 53.336662 
L 185.396382 50.687515 
L 184.662915 55.132237 
L 183.929447 49.838368 
L 183.19598 52.019736 
L 182.462513 50.653466 
L 181.729045 57.453466 
L 180.995578 54.943497 
L 180.262111 54.338971 
L 179.528643 56.823446 
L 178.795176 59.500101 
L 178.061709 56.544332 
L 177.328241 59.085403 
L 176.594774 58.032179 
L 175.861307 58.601652 
L 175.127839 63.337906 
L 174.394372 61.941422 
L 173.660905 60.835539 
L 172.927437 64.738923 
L 172.19397 61.664493 
L 171.460503 67.615575 
L 170.727035 64.888838 
L 169.993568 66.055567 
L 169.260101 72.041515 
L 168.526633 71.725071 
L 167.793166 69.252395 
L 167.059698 69.957058 
L 166.326231 70.204401 
L 165.592764 71.791483 
L 164.859296 71.980493 
L 164.125829 72.751551 
L 163.392362 75.880823 
L 162.658894 76.572003 
L 161.925427 77.635076 
L 161.19196 77.63941 
L 160.458492 78.742864 
L 159.725025 79.053688 
L 158.991558 80.832029 
L 158.25809 82.523908 
L 157.524623 81.12866 
L 156.791156 83.65323 
L 156.057688 83.249985 
L 155.324221 85.188516 
L 154.590754 84.629412 
L 153.857286 86.869166 
L 153.123819 86.556567 
L 152.390352 87.31187 
L 151.656884 87.907479 
L 150.923417 88.550663 
L 150.18995 88.210626 
L 149.456482 89.04971 
L 148.723015 89.225249 
L 147.989548 89.529944 
L 147.25608 89.069894 
L 146.522613 90.621447 
L 145.789146 90.929607 
L 145.055678 90.61195 
L 144.322211 91.012241 
L 143.588744 91.563712 
L 142.855276 91.291097 
L 142.121809 92.143267 
L 141.388342 91.662893 
L 140.654874 92.082933 
L 139.921407 92.362455 
L 139.18794 92.547374 
L 138.454472 92.486613 
L 137.721005 92.356495 
L 136.987538 92.446148 
L 136.25407 93.162475 
L 135.520603 92.163977 
L 134.787136 92.717321 
L 134.053668 92.701996 
L 133.320201 92.743835 
L 132.586734 92.908204 
L 131.853266 92.521511 
L 131.119799 93.304355 
L 130.386332 92.468404 
L 129.652864 92.973219 
L 128.919397 92.976878 
L 128.18593 93.37221 
L 127.452462 93.458487 
L 126.718995 93.315961 
L 125.985528 92.839485 
L 125.25206 93.299254 
L 124.518593 93.394687 
L 123.785126 93.174401 
L 123.051658 92.944888 
L 122.318191 93.015253 
L 121.584724 93.035002 
L 120.851256 93.500418 
L 120.117789 93.471744 
L 119.384322 93.672465 
L 118.650854 94.230743 
L 117.917387 93.603425 
L 117.18392 93.958803 
L 116.450452 93.662514 
L 115.716985 94.539318 
L 114.983518 94.337259 
L 114.25005 95.403877 
L 113.516583 95.123744 
L 112.783116 95.599289 
L 112.049648 95.59987 
L 111.316181 96.253548 
L 110.582714 97.130921 
L 109.849246 97.167561 
L 109.115779 97.911515 
L 108.382312 97.856087 
L 107.648844 97.728771 
L 106.915377 98.351568 
L 106.18191 99.1492 
L 105.448442 98.955096 
L 104.714975 101.238029 
L 103.981508 101.402847 
L 103.24804 102.026962 
L 102.514573 102.185247 
L 101.781106 102.615356 
L 101.047638 104.95453 
L 100.314171 107.039299 
L 99.580704 104.730525 
L 98.847236 106.515521 
L 98.113769 107.25012 
L 97.380302 106.308639 
L 96.646834 108.74059 
L 95.913367 110.023382 
L 95.179899 107.623205 
L 94.446432 109.291154 
L 93.712965 110.645804 
L 92.979497 110.064997 
L 92.24603 111.408061 
L 91.512563 113.400171 
L 90.779095 115.06546 
L 90.045628 111.544525 
L 89.312161 113.572697 
L 88.578693 112.829558 
L 87.845226 118.227802 
L 87.111759 114.439863 
L 86.378291 116.216267 
L 85.644824 114.592885 
L 84.911357 120.014414 
L 84.177889 114.070231 
L 83.444422 117.547078 
L 82.710955 122.320463 
L 81.977487 118.683411 
L 81.24402 119.908698 
L 80.510553 121.054591 
L 79.777085 124.446813 
L 79.043618 118.555484 
L 78.310151 123.745156 
L 77.576683 125.171413 
L 76.843216 126.732836 
L 76.109749 125.90032 
L 75.376281 124.710574 
L 74.642814 128.42164 
L 73.909347 126.869745 
L 73.175879 132.430517 
L 72.442412 123.600792 
L 71.708945 131.22608 
L 70.975477 128.2987 
L 70.24201 128.016287 
L 69.508543 125.287146 
L 68.775075 128.856385 
L 68.041608 131.958362 
L 67.308141 128.66867 
L 66.574673 132.102155 
L 65.841206 130.189929 
L 65.107739 130.68229 
L 64.374271 130.759847 
L 63.640804 135.309679 
L 62.907337 134.89118 
L 62.173869 129.707251 
L 61.440402 138.766734 
L 60.706935 136.825252 
L 59.973467 137.942807 
L 59.24 137.974539 
z
" clip-path="url(#p2a1f333a53)" style="fill: #ac69da; fill-opacity: 0.3"/>
   </g>
   <g id="FillBetweenPolyCollection_3">
    <path d="M 59.24 124.439904 
L 59.24 178.578441 
L 59.973467 197.426911 
L 60.706935 186.865703 
L 61.440402 172.547475 
L 62.173869 185.035159 
L 62.907337 167.434857 
L 63.640804 169.18605 
L 64.374271 182.225523 
L 65.107739 167.755486 
L 65.841206 173.367995 
L 66.574673 175.582129 
L 67.308141 178.97197 
L 68.041608 177.0308 
L 68.775075 165.514015 
L 69.508543 175.6929 
L 70.24201 166.811456 
L 70.975477 161.223293 
L 71.708945 166.919189 
L 72.442412 163.404746 
L 73.175879 165.08303 
L 73.909347 167.135548 
L 74.642814 159.556528 
L 75.376281 158.935368 
L 76.109749 162.124112 
L 76.843216 152.377 
L 77.576683 156.945022 
L 78.310151 159.772369 
L 79.043618 158.325216 
L 79.777085 151.048387 
L 80.510553 148.091113 
L 81.24402 150.769068 
L 81.977487 152.926011 
L 82.710955 141.360234 
L 83.444422 145.574833 
L 84.177889 143.643246 
L 84.911357 144.2608 
L 85.644824 138.33551 
L 86.378291 137.980581 
L 87.111759 143.961555 
L 87.845226 139.455 
L 88.578693 136.230074 
L 89.312161 139.400084 
L 90.045628 139.5689 
L 90.779095 132.2805 
L 91.512563 136.265802 
L 92.24603 131.721101 
L 92.979497 137.72705 
L 93.712965 135.729767 
L 94.446432 127.126287 
L 95.179899 129.055563 
L 95.913367 126.158185 
L 96.646834 125.207291 
L 97.380302 127.400993 
L 98.113769 123.661628 
L 98.847236 118.783745 
L 99.580704 118.862102 
L 100.314171 116.652018 
L 101.047638 113.536848 
L 101.781106 115.059238 
L 102.514573 114.322991 
L 103.24804 111.925277 
L 103.981508 111.476526 
L 104.714975 110.741329 
L 105.448442 109.651599 
L 106.18191 111.075724 
L 106.915377 106.917094 
L 107.648844 107.436964 
L 108.382312 106.505189 
L 109.115779 102.721599 
L 109.849246 104.25271 
L 110.582714 101.484714 
L 111.316181 101.950852 
L 112.049648 101.490004 
L 112.783116 101.054704 
L 113.516583 99.312495 
L 114.25005 98.897396 
L 114.983518 101.069867 
L 115.716985 99.778901 
L 116.450452 98.239298 
L 117.18392 98.76966 
L 117.917387 97.988745 
L 118.650854 97.309053 
L 119.384322 97.904052 
L 120.117789 97.470844 
L 120.851256 97.759083 
L 121.584724 97.373153 
L 122.318191 97.272428 
L 123.051658 97.03346 
L 123.785126 97.167824 
L 124.518593 96.916863 
L 125.25206 97.027525 
L 125.985528 97.412332 
L 126.718995 97.006453 
L 127.452462 96.353873 
L 128.18593 96.795836 
L 128.919397 95.999918 
L 129.652864 96.240084 
L 130.386332 96.069914 
L 131.119799 96.214263 
L 131.853266 95.902145 
L 132.586734 96.604691 
L 133.320201 95.78873 
L 134.053668 97.143583 
L 134.787136 96.706417 
L 135.520603 95.950974 
L 136.25407 95.884513 
L 136.987538 96.274199 
L 137.721005 95.961953 
L 138.454472 95.7025 
L 139.18794 96.014175 
L 139.921407 95.480295 
L 140.654874 95.308133 
L 141.388342 96.527162 
L 142.121809 95.53501 
L 142.855276 95.51384 
L 143.588744 95.382498 
L 144.322211 96.415507 
L 145.055678 94.723859 
L 145.789146 95.935699 
L 146.522613 95.156451 
L 147.25608 96.215386 
L 147.989548 94.551095 
L 148.723015 94.477937 
L 149.456482 94.426954 
L 150.18995 94.90334 
L 150.923417 94.136832 
L 151.656884 93.766185 
L 152.390352 94.068381 
L 153.123819 93.61412 
L 153.857286 93.127955 
L 154.590754 94.296393 
L 155.324221 91.685455 
L 156.057688 93.265441 
L 156.791156 92.080124 
L 157.524623 92.70976 
L 158.25809 93.829487 
L 158.991558 89.730805 
L 159.725025 90.166393 
L 160.458492 90.398575 
L 161.19196 88.848279 
L 161.925427 90.463637 
L 162.658894 87.199115 
L 163.392362 91.709699 
L 164.125829 91.444178 
L 164.859296 89.363166 
L 165.592764 85.870777 
L 166.326231 84.935841 
L 167.059698 90.146807 
L 167.793166 87.062711 
L 168.526633 84.740322 
L 169.260101 85.038771 
L 169.993568 85.787013 
L 170.727035 87.169096 
L 171.460503 82.560047 
L 172.19397 84.946448 
L 172.927437 82.842122 
L 173.660905 82.11551 
L 174.394372 86.538116 
L 175.127839 81.107414 
L 175.861307 84.59658 
L 176.594774 85.976691 
L 177.328241 83.796473 
L 178.061709 82.354559 
L 178.795176 83.841026 
L 179.528643 76.218421 
L 180.262111 84.827313 
L 180.995578 80.402592 
L 181.729045 70.676754 
L 182.462513 78.326969 
L 183.19598 79.111892 
L 183.929447 84.922526 
L 184.662915 78.031 
L 185.396382 79.940253 
L 186.129849 75.438433 
L 186.863317 79.36198 
L 187.596784 77.522076 
L 188.330251 76.785899 
L 189.063719 73.516579 
L 189.797186 75.387653 
L 190.530653 87.49441 
L 191.264121 77.045204 
L 191.997588 84.400753 
L 192.731055 74.872197 
L 193.464523 76.917936 
L 194.19799 79.041497 
L 194.931457 75.686194 
L 195.664925 78.949452 
L 196.398392 72.671358 
L 197.131859 78.549692 
L 197.865327 77.311552 
L 198.598794 76.000283 
L 199.332261 79.900237 
L 200.065729 75.767835 
L 200.799196 73.522955 
L 201.532663 66.785753 
L 202.266131 74.268949 
L 202.999598 74.046133 
L 203.733065 72.92347 
L 204.466533 69.057503 
L 205.2 68.699828 
L 205.2 15.405856 
L 205.2 15.405856 
L 204.466533 15.880706 
L 203.733065 12.278657 
L 202.999598 19.243007 
L 202.266131 16.421844 
L 201.532663 18.810297 
L 200.799196 21.737125 
L 200.065729 13.435582 
L 199.332261 23.751889 
L 198.598794 19.246592 
L 197.865327 25.087523 
L 197.131859 26.805705 
L 196.398392 36.859719 
L 195.664925 18.601 
L 194.931457 26.710118 
L 194.19799 20.632177 
L 193.464523 28.87509 
L 192.731055 23.779964 
L 191.997588 30.312546 
L 191.264121 31.043775 
L 190.530653 25.513852 
L 189.797186 40.130625 
L 189.063719 36.10853 
L 188.330251 34.619485 
L 187.596784 38.939359 
L 186.863317 39.423577 
L 186.129849 45.969405 
L 185.396382 40.936603 
L 184.662915 47.499316 
L 183.929447 38.143648 
L 183.19598 42.989017 
L 182.462513 41.428965 
L 181.729045 53.045703 
L 180.995578 46.457132 
L 180.262111 44.176191 
L 179.528643 50.358454 
L 178.795176 51.386459 
L 178.061709 47.940923 
L 177.328241 50.848379 
L 176.594774 48.717341 
L 175.861307 49.936676 
L 175.127839 57.414737 
L 174.394372 53.742524 
L 173.660905 53.742215 
L 172.927437 58.704524 
L 172.19397 53.903841 
L 171.460503 62.634084 
L 170.727035 57.462085 
L 169.993568 59.478418 
L 169.260101 67.709097 
L 168.526633 67.386655 
L 167.793166 63.315623 
L 167.059698 63.227141 
L 166.326231 65.293921 
L 165.592764 67.098385 
L 164.859296 66.186269 
L 164.125829 66.520675 
L 163.392362 70.604531 
L 162.658894 73.029632 
L 161.925427 73.358889 
L 161.19196 73.903121 
L 160.458492 74.857628 
L 159.725025 75.349453 
L 158.991558 77.86577 
L 158.25809 78.755382 
L 157.524623 77.268293 
L 156.791156 80.844265 
L 156.057688 79.911499 
L 155.324221 83.02287 
L 154.590754 81.407085 
L 153.857286 84.782903 
L 153.123819 84.204049 
L 152.390352 85.0597 
L 151.656884 85.954577 
L 150.923417 86.688607 
L 150.18995 85.979721 
L 149.456482 87.257296 
L 148.723015 87.474353 
L 147.989548 87.856227 
L 147.25608 86.688064 
L 146.522613 89.109779 
L 145.789146 89.26091 
L 145.055678 89.241313 
L 144.322211 89.211153 
L 143.588744 90.290784 
L 142.855276 89.883516 
L 142.121809 91.012686 
L 141.388342 90.04147 
L 140.654874 91.007866 
L 139.921407 91.323176 
L 139.18794 91.391774 
L 138.454472 91.414651 
L 137.721005 91.154676 
L 136.987538 91.170131 
L 136.25407 92.255129 
L 135.520603 90.901645 
L 134.787136 91.387622 
L 134.053668 91.221467 
L 133.320201 91.72887 
L 132.586734 91.676041 
L 131.853266 91.394633 
L 131.119799 92.334385 
L 130.386332 91.2679 
L 129.652864 91.884264 
L 128.919397 91.969197 
L 128.18593 92.231001 
L 127.452462 92.493358 
L 126.718995 92.085796 
L 125.985528 91.315203 
L 125.25206 92.056496 
L 124.518593 92.220629 
L 123.785126 91.84326 
L 123.051658 91.58203 
L 122.318191 91.596195 
L 121.584724 91.588952 
L 120.851256 92.080863 
L 120.117789 92.13871 
L 119.384322 92.261936 
L 118.650854 93.20464 
L 117.917387 92.141652 
L 117.18392 92.355184 
L 116.450452 92.136919 
L 115.716985 92.79279 
L 114.983518 92.093057 
L 114.25005 94.239371 
L 113.516583 93.727494 
L 112.783116 93.780817 
L 112.049648 93.636492 
L 111.316181 94.354447 
L 110.582714 95.679657 
L 109.849246 94.805844 
L 109.115779 96.308154 
L 108.382312 94.973053 
L 107.648844 94.492706 
L 106.915377 95.496393 
L 106.18191 95.173693 
L 105.448442 95.389595 
L 104.714975 98.070262 
L 103.981508 98.044954 
L 103.24804 98.727524 
L 102.514573 98.139332 
L 101.781106 98.467395 
L 101.047638 102.093757 
L 100.314171 103.83506 
L 99.580704 100.019999 
L 98.847236 102.426113 
L 98.113769 101.779617 
L 97.380302 99.277855 
L 96.646834 103.251689 
L 95.913367 104.645114 
L 95.179899 100.479085 
L 94.446432 103.34611 
L 93.712965 102.284483 
L 92.979497 100.844312 
L 92.24603 104.637048 
L 91.512563 105.778294 
L 90.779095 109.327113 
L 90.045628 102.203067 
L 89.312161 104.963569 
L 88.578693 105.029386 
L 87.845226 111.152069 
L 87.111759 104.599299 
L 86.378291 108.961496 
L 85.644824 106.678677 
L 84.911357 111.932285 
L 84.177889 104.212559 
L 83.444422 108.204493 
L 82.710955 115.973873 
L 81.977487 107.269211 
L 81.24402 109.621908 
L 80.510553 112.042416 
L 79.777085 115.579622 
L 79.043618 105.298907 
L 78.310151 111.736085 
L 77.576683 114.58021 
L 76.843216 118.184781 
L 76.109749 113.825723 
L 75.376281 113.302309 
L 74.642814 118.043344 
L 73.909347 113.44781 
L 73.175879 121.546346 
L 72.442412 110.332807 
L 71.708945 119.328377 
L 70.975477 117.323835 
L 70.24201 115.084564 
L 69.508543 108.485228 
L 68.775075 116.637175 
L 68.041608 116.934216 
L 67.308141 111.900903 
L 66.574673 117.60883 
L 65.841206 115.797241 
L 65.107739 118.324559 
L 64.374271 113.604621 
L 63.640804 124.017556 
L 62.907337 124.043287 
L 62.173869 111.264615 
L 61.440402 127.506487 
L 60.706935 120.145102 
L 59.973467 118.114773 
L 59.24 124.439904 
z
" clip-path="url(#p2a1f333a53)" style="fill: #ac69da; fill-opacity: 0.3"/>
   </g>
   <g id="FillBetweenPolyCollection_4">
    <path d="M 59.24 110.90527 
L 59.24 192.113075 
L 59.973467 217.254946 
L 60.706935 203.545853 
L 61.440402 183.807722 
L 62.173869 203.477795 
L 62.907337 178.28275 
L 63.640804 180.478173 
L 64.374271 199.380748 
L 65.107739 180.113218 
L 65.841206 187.760684 
L 66.574673 190.075454 
L 67.308141 195.739736 
L 68.041608 192.054946 
L 68.775075 177.733225 
L 69.508543 192.494818 
L 70.24201 179.74318 
L 70.975477 172.198157 
L 71.708945 178.816892 
L 72.442412 176.672731 
L 73.175879 175.967201 
L 73.909347 180.557483 
L 74.642814 169.934824 
L 75.376281 170.343633 
L 76.109749 174.19871 
L 76.843216 160.925054 
L 77.576683 167.536225 
L 78.310151 171.78144 
L 79.043618 171.581793 
L 79.777085 159.915578 
L 80.510553 157.103287 
L 81.24402 161.055858 
L 81.977487 164.340211 
L 82.710955 147.706824 
L 83.444422 154.917418 
L 84.177889 153.500918 
L 84.911357 152.342929 
L 85.644824 146.249718 
L 86.378291 145.235353 
L 87.111759 153.802119 
L 87.845226 146.530733 
L 88.578693 144.030246 
L 89.312161 148.009213 
L 90.045628 148.910358 
L 90.779095 138.018846 
L 91.512563 143.887679 
L 92.24603 138.492114 
L 92.979497 146.947734 
L 93.712965 144.091088 
L 94.446432 133.071332 
L 95.179899 136.199682 
L 95.913367 131.536453 
L 96.646834 130.696192 
L 97.380302 134.431777 
L 98.113769 129.132131 
L 98.847236 122.873153 
L 99.580704 123.572628 
L 100.314171 119.856258 
L 101.047638 116.39762 
L 101.781106 119.207198 
L 102.514573 118.368906 
L 103.24804 115.224715 
L 103.981508 114.834419 
L 104.714975 113.909096 
L 105.448442 113.2171 
L 106.18191 115.051232 
L 106.915377 109.772269 
L 107.648844 110.673028 
L 108.382312 109.388223 
L 109.115779 104.32496 
L 109.849246 106.614427 
L 110.582714 102.935978 
L 111.316181 103.849954 
L 112.049648 103.453382 
L 112.783116 102.873176 
L 113.516583 100.708745 
L 114.25005 100.061902 
L 114.983518 103.31407 
L 115.716985 101.525429 
L 116.450452 99.764893 
L 117.18392 100.373279 
L 117.917387 99.450519 
L 118.650854 98.335156 
L 119.384322 99.314581 
L 120.117789 98.803878 
L 120.851256 99.178638 
L 121.584724 98.819204 
L 122.318191 98.691486 
L 123.051658 98.396317 
L 123.785126 98.498965 
L 124.518593 98.090922 
L 125.25206 98.270282 
L 125.985528 98.936614 
L 126.718995 98.236618 
L 127.452462 97.319002 
L 128.18593 97.937045 
L 128.919397 97.007598 
L 129.652864 97.32904 
L 130.386332 97.270417 
L 131.119799 97.184232 
L 131.853266 97.029023 
L 132.586734 97.836853 
L 133.320201 96.803695 
L 134.053668 98.624113 
L 134.787136 98.036116 
L 135.520603 97.213306 
L 136.25407 96.79186 
L 136.987538 97.550216 
L 137.721005 97.163772 
L 138.454472 96.774462 
L 139.18794 97.169776 
L 139.921407 96.519575 
L 140.654874 96.383199 
L 141.388342 98.148584 
L 142.121809 96.665591 
L 142.855276 96.921421 
L 143.588744 96.655426 
L 144.322211 98.216595 
L 145.055678 96.094495 
L 145.789146 97.604397 
L 146.522613 96.66812 
L 147.25608 98.597216 
L 147.989548 96.224812 
L 148.723015 96.228833 
L 149.456482 96.219368 
L 150.18995 97.134244 
L 150.923417 95.998888 
L 151.656884 95.719086 
L 152.390352 96.320551 
L 153.123819 95.966638 
L 153.857286 95.214218 
L 154.590754 97.51872 
L 155.324221 93.851101 
L 156.057688 96.603926 
L 156.791156 94.889088 
L 157.524623 96.570126 
L 158.25809 97.598013 
L 158.991558 92.697064 
L 159.725025 93.870628 
L 160.458492 94.283811 
L 161.19196 92.584568 
L 161.925427 94.739824 
L 162.658894 90.741486 
L 163.392362 96.985991 
L 164.125829 97.675054 
L 164.859296 95.15739 
L 165.592764 90.563875 
L 166.326231 89.846321 
L 167.059698 96.876724 
L 167.793166 92.999483 
L 168.526633 89.078739 
L 169.260101 89.371189 
L 169.993568 92.364162 
L 170.727035 94.595848 
L 171.460503 87.541537 
L 172.19397 92.7071 
L 172.927437 88.876522 
L 173.660905 89.208834 
L 174.394372 94.737015 
L 175.127839 87.030583 
L 175.861307 93.261556 
L 176.594774 95.291528 
L 177.328241 92.033497 
L 178.061709 90.957968 
L 178.795176 91.954668 
L 179.528643 82.683412 
L 180.262111 94.990094 
L 180.995578 88.888957 
L 181.729045 75.084516 
L 182.462513 87.551471 
L 183.19598 88.14261 
L 183.929447 96.617246 
L 184.662915 85.663921 
L 185.396382 89.691166 
L 186.129849 82.805691 
L 186.863317 89.346581 
L 187.596784 87.167755 
L 188.330251 87.327502 
L 189.063719 82.868592 
L 189.797186 84.20191 
L 190.530653 102.989549 
L 191.264121 88.545561 
L 191.997588 97.922805 
L 192.731055 87.645255 
L 193.464523 88.928647 
L 194.19799 93.643827 
L 194.931457 87.930212 
L 195.664925 94.036565 
L 196.398392 81.624267 
L 197.131859 91.485688 
L 197.865327 90.367559 
L 198.598794 90.188706 
L 199.332261 93.937324 
L 200.065729 91.350898 
L 200.799196 86.469412 
L 201.532663 78.779617 
L 202.266131 88.730726 
L 202.999598 87.746914 
L 203.733065 88.084674 
L 204.466533 82.351702 
L 205.2 82.023321 
L 205.2 2.082363 
L 205.2 2.082363 
L 204.466533 2.586506 
L 203.733065 -2.882546 
L 202.999598 5.542225 
L 202.266131 1.960068 
L 201.532663 6.816433 
L 200.799196 8.790668 
L 200.065729 -2.147482 
L 199.332261 9.714802 
L 198.598794 5.058169 
L 197.865327 12.031515 
L 197.131859 13.869708 
L 196.398392 27.906809 
L 195.664925 3.513887 
L 194.931457 14.466099 
L 194.19799 6.029847 
L 193.464523 16.864379 
L 192.731055 11.006905 
L 191.997588 16.790494 
L 191.264121 19.543418 
L 190.530653 10.018713 
L 189.797186 31.316368 
L 189.063719 26.756518 
L 188.330251 24.077882 
L 187.596784 29.29368 
L 186.863317 29.438976 
L 186.129849 38.602147 
L 185.396382 31.18569 
L 184.662915 39.866396 
L 183.929447 26.448928 
L 183.19598 33.958298 
L 182.462513 32.204464 
L 181.729045 48.63794 
L 180.995578 37.970766 
L 180.262111 34.01341 
L 179.528643 43.893463 
L 178.795176 43.272818 
L 178.061709 39.337514 
L 177.328241 42.611356 
L 176.594774 39.402504 
L 175.861307 41.2717 
L 175.127839 51.491567 
L 174.394372 45.543625 
L 173.660905 46.648892 
L 172.927437 52.670124 
L 172.19397 46.143189 
L 171.460503 57.652593 
L 170.727035 50.035332 
L 169.993568 52.901269 
L 169.260101 63.376678 
L 168.526633 63.048238 
L 167.793166 57.378851 
L 167.059698 56.497224 
L 166.326231 60.383441 
L 165.592764 62.405287 
L 164.859296 60.392045 
L 164.125829 60.289799 
L 163.392362 65.328239 
L 162.658894 69.487261 
L 161.925427 69.082702 
L 161.19196 70.166831 
L 160.458492 70.972391 
L 159.725025 71.645218 
L 158.991558 74.899511 
L 158.25809 74.986856 
L 157.524623 73.407926 
L 156.791156 78.035301 
L 156.057688 76.573014 
L 155.324221 80.857224 
L 154.590754 78.184758 
L 153.857286 82.69664 
L 153.123819 81.851532 
L 152.390352 82.80753 
L 151.656884 84.001675 
L 150.923417 84.826551 
L 150.18995 83.748816 
L 149.456482 85.464881 
L 148.723015 85.723457 
L 147.989548 86.18251 
L 147.25608 84.306233 
L 146.522613 87.59811 
L 145.789146 87.592213 
L 145.055678 87.870677 
L 144.322211 87.410064 
L 143.588744 89.017855 
L 142.855276 88.475935 
L 142.121809 89.882105 
L 141.388342 88.420048 
L 140.654874 89.932799 
L 139.921407 90.283896 
L 139.18794 90.236173 
L 138.454472 90.342689 
L 137.721005 89.952856 
L 136.987538 89.894114 
L 136.25407 91.347783 
L 135.520603 89.639313 
L 134.787136 90.057923 
L 134.053668 89.740938 
L 133.320201 90.713904 
L 132.586734 90.443879 
L 131.853266 90.267755 
L 131.119799 91.364416 
L 130.386332 90.067397 
L 129.652864 90.795308 
L 128.919397 90.961517 
L 128.18593 91.089792 
L 127.452462 91.528229 
L 126.718995 90.855632 
L 125.985528 89.790921 
L 125.25206 90.813739 
L 124.518593 91.04657 
L 123.785126 90.512119 
L 123.051658 90.219173 
L 122.318191 90.177137 
L 121.584724 90.142902 
L 120.851256 90.661307 
L 120.117789 90.805676 
L 119.384322 90.851407 
L 118.650854 92.178537 
L 117.917387 90.679878 
L 117.18392 90.751565 
L 116.450452 90.611324 
L 115.716985 91.046262 
L 114.983518 89.848854 
L 114.25005 93.074864 
L 113.516583 92.331243 
L 112.783116 91.962345 
L 112.049648 91.673114 
L 111.316181 92.455346 
L 110.582714 94.228392 
L 109.849246 92.444127 
L 109.115779 94.704792 
L 108.382312 92.090019 
L 107.648844 91.256642 
L 106.915377 92.641217 
L 106.18191 91.198185 
L 105.448442 91.824094 
L 104.714975 94.902496 
L 103.981508 94.687062 
L 103.24804 95.428086 
L 102.514573 94.093417 
L 101.781106 94.319434 
L 101.047638 99.232984 
L 100.314171 100.63082 
L 99.580704 95.309473 
L 98.847236 98.336705 
L 98.113769 96.309115 
L 97.380302 92.24707 
L 96.646834 97.762789 
L 95.913367 99.266846 
L 95.179899 93.334966 
L 94.446432 97.401065 
L 93.712965 93.923162 
L 92.979497 91.623628 
L 92.24603 97.866035 
L 91.512563 98.156418 
L 90.779095 103.588767 
L 90.045628 92.861608 
L 89.312161 96.35444 
L 88.578693 97.229214 
L 87.845226 104.076336 
L 87.111759 94.758735 
L 86.378291 101.706724 
L 85.644824 98.764469 
L 84.911357 103.850157 
L 84.177889 94.354887 
L 83.444422 98.861908 
L 82.710955 109.627283 
L 81.977487 95.855011 
L 81.24402 99.335118 
L 80.510553 103.030242 
L 79.777085 106.712431 
L 79.043618 92.04233 
L 78.310151 99.727014 
L 77.576683 103.989007 
L 76.843216 109.636726 
L 76.109749 101.751126 
L 75.376281 101.894044 
L 74.642814 107.665048 
L 73.909347 100.025876 
L 73.175879 110.662175 
L 72.442412 97.064823 
L 71.708945 107.430674 
L 70.975477 106.348971 
L 70.24201 102.15284 
L 69.508543 91.68331 
L 68.775075 104.417965 
L 68.041608 101.91007 
L 67.308141 95.133137 
L 66.574673 103.115505 
L 65.841206 101.404552 
L 65.107739 105.966827 
L 64.374271 96.449396 
L 63.640804 112.725432 
L 62.907337 113.195395 
L 62.173869 92.821979 
L 61.440402 116.24624 
L 60.706935 103.464951 
L 59.973467 98.286738 
L 59.24 110.90527 
z
" clip-path="url(#p2a1f333a53)" style="fill: #ac69da; fill-opacity: 0.3"/>
   </g>
   <g id="matplotlib.axis_1">
    <g id="xtick_1">
     <g id="line2d_1">
      <defs>
       <path id="mab1b4d8766" d="M 0 0 
L 0 3.5 
" style="stroke: #000000; stroke-width: 0.8"/>
      </defs>
      <g>
       <use xlink:href="#mab1b4d8766" x="80.091429" y="174.04" style="stroke: #000000; stroke-width: 0.8"/>
      </g>
     </g>
     <g id="text_1">
      <!-- −5 -->
      <g transform="translate(72.720335 188.638438) scale(0.1 -0.1)">
       <defs>
        <path id="DejaVuSans-2212" d="M 678 2272 
L 4684 2272 
L 4684 1741 
L 678 1741 
L 678 2272 
z
" transform="scale(0.015625)"/>
        <path id="DejaVuSans-35" d="M 691 4666 
L 3169 4666 
L 3169 4134 
L 1269 4134 
L 1269 2991 
Q 1406 3038 1543 3061 
Q 1681 3084 1819 3084 
Q 2600 3084 3056 2656 
Q 3513 2228 3513 1497 
Q 3513 744 3044 326 
Q 2575 -91 1722 -91 
Q 1428 -91 1123 -41 
Q 819 9 494 109 
L 494 744 
Q 775 591 1075 516 
Q 1375 441 1709 441 
Q 2250 441 2565 725 
Q 2881 1009 2881 1497 
Q 2881 1984 2565 2268 
Q 2250 2553 1709 2553 
Q 1456 2553 1204 2497 
Q 953 2441 691 2322 
L 691 4666 
z
" transform="scale(0.015625)"/>
       </defs>
       <use xlink:href="#DejaVuSans-2212"/>
       <use xlink:href="#DejaVuSans-35" transform="translate(83.789062 0)"/>
      </g>
     </g>
    </g>
    <g id="xtick_2">
     <g id="line2d_2">
      <g>
       <use xlink:href="#mab1b4d8766" x="132.22" y="174.04" style="stroke: #000000; stroke-width: 0.8"/>
      </g>
     </g>
     <g id="text_2">
      <!-- 0 -->
      <g transform="translate(129.03875 188.638438) scale(0.1 -0.1)">
       <defs>
        <path id="DejaVuSans-30" d="M 2034 4250 
Q 1547 4250 1301 3770 
Q 1056 3291 1056 2328 
Q 1056 1369 1301 889 
Q 1547 409 2034 409 
Q 2525 409 2770 889 
Q 3016 1369 3016 2328 
Q 3016 3291 2770 3770 
Q 2525 4250 2034 4250 
z
M 2034 4750 
Q 2819 4750 3233 4129 
Q 3647 3509 3647 2328 
Q 3647 1150 3233 529 
Q 2819 -91 2034 -91 
Q 1250 -91 836 529 
Q 422 1150 422 2328 
Q 422 3509 836 4129 
Q 1250 4750 2034 4750 
z
" transform="scale(0.015625)"/>
       </defs>
       <use xlink:href="#DejaVuSans-30"/>
      </g>
     </g>
    </g>
    <g id="xtick_3">
     <g id="line2d_3">
      <g>
       <use xlink:href="#mab1b4d8766" x="184.348571" y="174.04" style="stroke: #000000; stroke-width: 0.8"/>
      </g>
     </g>
     <g id="text_3">
      <!-- 5 -->
      <g transform="translate(181.167321 188.638438) scale(0.1 -0.1)">
       <use xlink:href="#DejaVuSans-35"/>
      </g>
     </g>
    </g>
    <g id="text_4">
     <!-- x -->
     <g transform="translate(129.260625 202.316563) scale(0.1 -0.1)">
      <defs>
       <path id="DejaVuSans-78" d="M 3513 3500 
L 2247 1797 
L 3578 0 
L 2900 0 
L 1881 1375 
L 863 0 
L 184 0 
L 1544 1831 
L 300 3500 
L 978 3500 
L 1906 2253 
L 2834 3500 
L 3513 3500 
z
" transform="scale(0.015625)"/>
      </defs>
      <use xlink:href="#DejaVuSans-78"/>
     </g>
    </g>
   </g>
   <g id="matplotlib.axis_2">
    <g id="ytick_1">
     <g id="line2d_4">
      <defs>
       <path id="m88449514ca" d="M 0 0 
L -3.5 0 
" style="stroke: #000000; stroke-width: 0.8"/>
      </defs>
      <g>
       <use xlink:href="#m88449514ca" x="59.24" y="174.04" style="stroke: #000000; stroke-width: 0.8"/>
      </g>
     </g>
     <g id="text_5">
      <!-- −150 -->
      <g transform="translate(24.772813 177.839219) scale(0.1 -0.1)">
       <defs>
        <path id="DejaVuSans-31" d="M 794 531 
L 1825 531 
L 1825 4091 
L 703 3866 
L 703 4441 
L 1819 4666 
L 2450 4666 
L 2450 531 
L 3481 531 
L 3481 0 
L 794 0 
L 794 531 
z
" transform="scale(0.015625)"/>
       </defs>
       <use xlink:href="#DejaVuSans-2212"/>
       <use xlink:href="#DejaVuSans-31" transform="translate(83.789062 0)"/>
       <use xlink:href="#DejaVuSans-35" transform="translate(147.412109 0)"/>
       <use xlink:href="#DejaVuSans-30" transform="translate(211.035156 0)"/>
      </g>
     </g>
    </g>
    <g id="ytick_2">
     <g id="line2d_5">
      <g>
       <use xlink:href="#m88449514ca" x="59.24" y="147.493333" style="stroke: #000000; stroke-width: 0.8"/>
      </g>
     </g>
     <g id="text_6">
      <!-- −100 -->
      <g transform="translate(24.772813 151.292552) scale(0.1 -0.1)">
       <use xlink:href="#DejaVuSans-2212"/>
       <use xlink:href="#DejaVuSans-31" transform="translate(83.789062 0)"/>
       <use xlink:href="#DejaVuSans-30" transform="translate(147.412109 0)"/>
       <use xlink:href="#DejaVuSans-30" transform="translate(211.035156 0)"/>
      </g>
     </g>
    </g>
    <g id="ytick_3">
     <g id="line2d_6">
      <g>
       <use xlink:href="#m88449514ca" x="59.24" y="120.946667" style="stroke: #000000; stroke-width: 0.8"/>
      </g>
     </g>
     <g id="text_7">
      <!-- −50 -->
      <g transform="translate(31.135313 124.745885) scale(0.1 -0.1)">
       <use xlink:href="#DejaVuSans-2212"/>
       <use xlink:href="#DejaVuSans-35" transform="translate(83.789062 0)"/>
       <use xlink:href="#DejaVuSans-30" transform="translate(147.412109 0)"/>
      </g>
     </g>
    </g>
    <g id="ytick_4">
     <g id="line2d_7">
      <g>
       <use xlink:href="#m88449514ca" x="59.24" y="94.4" style="stroke: #000000; stroke-width: 0.8"/>
      </g>
     </g>
     <g id="text_8">
      <!-- 0 -->
      <g transform="translate(45.8775 98.199219) scale(0.1 -0.1)">
       <use xlink:href="#DejaVuSans-30"/>
      </g>
     </g>
    </g>
    <g id="ytick_5">
     <g id="line2d_8">
      <g>
       <use xlink:href="#m88449514ca" x="59.24" y="67.853333" style="stroke: #000000; stroke-width: 0.8"/>
      </g>
     </g>
     <g id="text_9">
      <!-- 50 -->
      <g transform="translate(39.515 71.652552) scale(0.1 -0.1)">
       <use xlink:href="#DejaVuSans-35"/>
       <use xlink:href="#DejaVuSans-30" transform="translate(63.623047 0)"/>
      </g>
     </g>
    </g>
    <g id="ytick_6">
     <g id="line2d_9">
      <g>
       <use xlink:href="#m88449514ca" x="59.24" y="41.306667" style="stroke: #000000; stroke-width: 0.8"/>
      </g>
     </g>
     <g id="text_10">
      <!-- 100 -->
      <g transform="translate(33.1525 45.105885) scale(0.1 -0.1)">
       <use xlink:href="#DejaVuSans-31"/>
       <use xlink:href="#DejaVuSans-30" transform="translate(63.623047 0)"/>
       <use xlink:href="#DejaVuSans-30" transform="translate(127.246094 0)"/>
      </g>
     </g>
    </g>
    <g id="ytick_7">
     <g id="line2d_10">
      <g>
       <use xlink:href="#m88449514ca" x="59.24" y="14.76" style="stroke: #000000; stroke-width: 0.8"/>
      </g>
     </g>
     <g id="text_11">
      <!-- 150 -->
      <g transform="translate(33.1525 18.559219) scale(0.1 -0.1)">
       <use xlink:href="#DejaVuSans-31"/>
       <use xlink:href="#DejaVuSans-35" transform="translate(63.623047 0)"/>
       <use xlink:href="#DejaVuSans-30" transform="translate(127.246094 0)"/>
      </g>
     </g>
    </g>
    <g id="text_12">
     <!-- y -->
     <g transform="translate(18.693125 97.359375) rotate(-90) scale(0.1 -0.1)">
      <defs>
       <path id="DejaVuSans-79" d="M 2059 -325 
Q 1816 -950 1584 -1140 
Q 1353 -1331 966 -1331 
L 506 -1331 
L 506 -850 
L 844 -850 
Q 1081 -850 1212 -737 
Q 1344 -625 1503 -206 
L 1606 56 
L 191 3500 
L 800 3500 
L 1894 763 
L 2988 3500 
L 3597 3500 
L 2059 -325 
z
" transform="scale(0.015625)"/>
      </defs>
      <use xlink:href="#DejaVuSans-79"/>
     </g>
    </g>
   </g>
   <g id="line2d_11">
    <path d="M 68.257977 217 
L 70.928488 202.275676 
L 73.558398 188.976728 
L 76.188308 176.818317 
L 78.672112 166.336544 
L 81.155916 156.783419 
L 83.63972 148.115866 
L 85.977417 140.728557 
L 88.315115 134.051632 
L 90.652813 128.049177 
L 92.844404 123.002497 
L 95.035996 118.487459 
L 97.227588 114.474475 
L 99.419179 110.933952 
L 101.464665 108.029626 
L 103.51015 105.487032 
L 105.555636 103.282112 
L 107.601121 101.390808 
L 109.646607 99.789061 
L 111.692092 98.452813 
L 113.883684 97.28841 
L 116.075275 96.37158 
L 118.412973 95.63317 
L 120.896777 95.080194 
L 123.672793 94.692547 
L 126.887127 94.471057 
L 131.562523 94.400133 
L 138.42951 94.287825 
L 141.643844 94.007891 
L 144.41986 93.549279 
L 146.903664 92.916711 
L 149.241361 92.089503 
L 151.432953 91.077195 
L 153.478438 89.898921 
L 155.523924 88.470614 
L 157.569409 86.768216 
L 159.614895 84.767668 
L 161.66038 82.444912 
L 163.705866 79.77589 
L 165.751351 76.736543 
L 167.796837 73.302814 
L 169.842322 69.450644 
L 172.033914 64.831646 
L 174.225506 59.675086 
L 176.417097 53.951374 
L 178.754795 47.187614 
L 181.092492 39.708983 
L 183.43019 31.479567 
L 185.913994 21.873008 
L 188.397798 11.335268 
L 190.881602 -0.176728 
L 191.051274 -1 
L 191.051274 -1 
" clip-path="url(#p2a1f333a53)" style="fill: none; stroke: #000000; stroke-linecap: square"/>
   </g>
   <g id="line2d_12">
    <path d="M 59.24 151.509173 
L 59.973467 157.770842 
L 60.706935 153.505402 
L 61.440402 150.026981 
L 62.173869 148.149887 
L 62.907337 145.739072 
L 63.640804 146.601803 
L 64.374271 147.915072 
L 65.107739 143.040022 
L 65.841206 144.582618 
L 66.574673 146.59548 
L 67.308141 145.436437 
L 68.041608 146.982508 
L 68.775075 141.075595 
L 69.508543 142.089064 
L 70.24201 140.94801 
L 70.975477 139.273564 
L 71.708945 143.123783 
L 72.442412 136.868777 
L 73.175879 143.314688 
L 73.909347 140.291679 
L 74.642814 138.799936 
L 75.376281 136.118838 
L 76.109749 137.974918 
L 76.843216 135.28089 
L 77.576683 135.762616 
L 78.310151 135.754227 
L 79.043618 131.812061 
L 79.777085 133.314004 
L 80.510553 130.066765 
L 81.24402 130.195488 
L 81.977487 130.097611 
L 82.710955 128.667054 
L 83.444422 126.889663 
L 84.177889 123.927903 
L 84.911357 128.096543 
L 85.644824 122.507093 
L 87.845226 125.303535 
L 88.578693 120.62973 
L 89.312161 122.181826 
L 90.045628 120.885983 
L 90.779095 120.803807 
L 91.512563 121.022048 
L 92.24603 118.179075 
L 92.979497 119.285681 
L 93.712965 119.007125 
L 94.446432 115.236199 
L 95.179899 114.767324 
L 95.913367 115.401649 
L 96.646834 114.22949 
L 97.380302 113.339424 
L 98.113769 112.720623 
L 98.847236 110.604929 
L 99.580704 109.441051 
L 100.314171 110.243539 
L 101.047638 107.815302 
L 101.781106 106.763316 
L 102.514573 106.231162 
L 103.24804 105.3264 
L 103.981508 104.76074 
L 104.714975 104.405796 
L 105.448442 102.520597 
L 106.18191 103.124708 
L 106.915377 101.206743 
L 108.382312 100.739121 
L 109.115779 99.514876 
L 109.849246 99.529277 
L 110.582714 98.582185 
L 111.316181 98.15265 
L 112.049648 97.563248 
L 112.783116 97.417761 
L 113.516583 96.519994 
L 114.983518 96.581462 
L 115.716985 96.285846 
L 116.450452 95.188108 
L 117.18392 95.562422 
L 117.917387 95.065198 
L 118.650854 95.256847 
L 120.117789 94.804777 
L 120.851256 94.919973 
L 121.584724 94.481053 
L 123.051658 94.307745 
L 123.785126 94.505542 
L 125.25206 94.542011 
L 125.985528 94.363768 
L 126.718995 94.546125 
L 127.452462 94.423616 
L 128.18593 94.513419 
L 128.919397 93.984558 
L 129.652864 94.062174 
L 130.386332 93.668907 
L 131.119799 94.274324 
L 131.853266 93.648389 
L 132.586734 94.140366 
L 133.320201 93.7588 
L 134.053668 94.182525 
L 134.787136 94.04702 
L 135.520603 93.426309 
L 136.25407 94.069821 
L 136.987538 93.722165 
L 137.721005 93.558314 
L 138.454472 93.558576 
L 139.18794 93.702974 
L 140.654874 93.157999 
L 141.388342 93.284316 
L 142.121809 93.273848 
L 142.855276 92.698678 
L 143.588744 92.836641 
L 144.322211 92.81333 
L 145.055678 91.982586 
L 145.789146 92.598305 
L 146.522613 92.133115 
L 147.25608 91.451725 
L 148.723015 90.976145 
L 149.456482 90.842125 
L 150.18995 90.44153 
L 150.923417 90.412719 
L 151.656884 89.860381 
L 152.390352 89.564041 
L 153.123819 88.909085 
L 153.857286 88.955429 
L 154.590754 87.851739 
L 155.324221 87.354163 
L 156.057688 86.58847 
L 156.791156 86.462194 
L 157.524623 84.989026 
L 158.25809 86.292435 
L 158.991558 83.798288 
L 159.725025 82.757923 
L 160.458492 82.628101 
L 161.19196 81.3757 
L 161.925427 81.911263 
L 162.658894 80.114373 
L 163.392362 81.157115 
L 164.125829 78.982427 
L 165.592764 76.484581 
L 166.326231 75.114881 
L 167.059698 76.686974 
L 167.793166 75.189167 
L 168.526633 76.063488 
L 169.260101 76.373934 
L 169.993568 72.632716 
L 170.727035 72.31559 
L 171.460503 72.597065 
L 172.19397 69.425145 
L 172.927437 70.773323 
L 173.660905 67.928863 
L 174.394372 70.14032 
L 175.127839 69.261075 
L 175.861307 67.266628 
L 177.328241 67.322426 
L 178.061709 65.147741 
L 178.795176 67.613743 
L 179.528643 63.288438 
L 180.262111 64.501752 
L 180.995578 63.429862 
L 181.729045 61.861228 
L 182.462513 59.877967 
L 183.19598 61.050454 
L 183.929447 61.533087 
L 184.662915 62.765158 
L 185.396382 60.438428 
L 186.129849 60.703919 
L 187.596784 58.230718 
L 188.330251 55.702692 
L 189.063719 54.812555 
L 189.797186 57.759139 
L 190.530653 56.504131 
L 191.264121 54.044489 
L 191.997588 57.356649 
L 192.731055 49.32608 
L 193.464523 52.896513 
L 194.19799 49.836837 
L 194.931457 51.198156 
L 195.664925 48.775226 
L 196.398392 54.765538 
L 197.131859 52.677698 
L 197.865327 51.199537 
L 198.598794 47.623437 
L 199.332261 51.826063 
L 200.065729 44.601708 
L 200.799196 47.63004 
L 201.532663 42.798025 
L 202.266131 45.345397 
L 202.999598 46.64457 
L 203.733065 42.601064 
L 204.466533 42.469104 
L 205.2 42.052842 
L 205.2 42.052842 
" clip-path="url(#p2a1f333a53)" style="fill: none; stroke: #ff8b50; stroke-width: 1.5; stroke-linecap: square"/>
   </g>
   <g id="patch_3">
    <path d="M 59.24 174.04 
L 59.24 14.76 
" style="fill: none; stroke: #000000; stroke-width: 0.8; stroke-linejoin: miter; stroke-linecap: square"/>
   </g>
   <g id="patch_4">
    <path d="M 205.2 174.04 
L 205.2 14.76 
" style="fill: none; stroke: #000000; stroke-width: 0.8; stroke-linejoin: miter; stroke-linecap: square"/>
   </g>
   <g id="patch_5">
    <path d="M 59.24 174.04 
L 205.2 174.04 
" style="fill: none; stroke: #000000; stroke-width: 0.8; stroke-linejoin: miter; stroke-linecap: square"/>
   </g>
   <g id="patch_6">
    <path d="M 59.24 14.76 
L 205.2 14.76 
" style="fill: none; stroke: #000000; stroke-width: 0.8; stroke-linejoin: miter; stroke-linecap: square"/>
   </g>
   <g id="legend_1">
    <g id="patch_7">
     <path d="M 65.071 70.331513 
L 146.089361 70.331513 
Q 147.755361 70.331513 147.755361 68.665513 
L 147.755361 20.591 
Q 147.755361 18.925 146.089361 18.925 
L 65.071 18.925 
Q 63.405 18.925 63.405 20.591 
L 63.405 68.665513 
Q 63.405 70.331513 65.071 70.331513 
z
" style="fill: #ffffff; opacity: 0.8; stroke: #cccccc; stroke-linejoin: miter"/>
    </g>
    <g id="line2d_13">
     <path d="M 66.737 25.670998 
L 75.067 25.670998 
L 83.397 25.670998 
" style="fill: none; stroke: #000000; stroke-linecap: square"/>
    </g>
    <g id="text_13">
     <!-- True function -->
     <g transform="translate(90.061 28.586498) scale(0.0833 -0.0833)">
      <defs>
       <path id="DejaVuSans-54" d="M -19 4666 
L 3928 4666 
L 3928 4134 
L 2272 4134 
L 2272 0 
L 1638 0 
L 1638 4134 
L -19 4134 
L -19 4666 
z
" transform="scale(0.015625)"/>
       <path id="DejaVuSans-72" d="M 2631 2963 
Q 2534 3019 2420 3045 
Q 2306 3072 2169 3072 
Q 1681 3072 1420 2755 
Q 1159 2438 1159 1844 
L 1159 0 
L 581 0 
L 581 3500 
L 1159 3500 
L 1159 2956 
Q 1341 3275 1631 3429 
Q 1922 3584 2338 3584 
Q 2397 3584 2469 3576 
Q 2541 3569 2628 3553 
L 2631 2963 
z
" transform="scale(0.015625)"/>
       <path id="DejaVuSans-75" d="M 544 1381 
L 544 3500 
L 1119 3500 
L 1119 1403 
Q 1119 906 1312 657 
Q 1506 409 1894 409 
Q 2359 409 2629 706 
Q 2900 1003 2900 1516 
L 2900 3500 
L 3475 3500 
L 3475 0 
L 2900 0 
L 2900 538 
Q 2691 219 2414 64 
Q 2138 -91 1772 -91 
Q 1169 -91 856 284 
Q 544 659 544 1381 
z
M 1991 3584 
L 1991 3584 
z
" transform="scale(0.015625)"/>
       <path id="DejaVuSans-65" d="M 3597 1894 
L 3597 1613 
L 953 1613 
Q 991 1019 1311 708 
Q 1631 397 2203 397 
Q 2534 397 2845 478 
Q 3156 559 3463 722 
L 3463 178 
Q 3153 47 2828 -22 
Q 2503 -91 2169 -91 
Q 1331 -91 842 396 
Q 353 884 353 1716 
Q 353 2575 817 3079 
Q 1281 3584 2069 3584 
Q 2775 3584 3186 3129 
Q 3597 2675 3597 1894 
z
M 3022 2063 
Q 3016 2534 2758 2815 
Q 2500 3097 2075 3097 
Q 1594 3097 1305 2825 
Q 1016 2553 972 2059 
L 3022 2063 
z
" transform="scale(0.015625)"/>
       <path id="DejaVuSans-20" transform="scale(0.015625)"/>
       <path id="DejaVuSans-66" d="M 2375 4863 
L 2375 4384 
L 1825 4384 
Q 1516 4384 1395 4259 
Q 1275 4134 1275 3809 
L 1275 3500 
L 2222 3500 
L 2222 3053 
L 1275 3053 
L 1275 0 
L 697 0 
L 697 3053 
L 147 3053 
L 147 3500 
L 697 3500 
L 697 3744 
Q 697 4328 969 4595 
Q 1241 4863 1831 4863 
L 2375 4863 
z
" transform="scale(0.015625)"/>
       <path id="DejaVuSans-6e" d="M 3513 2113 
L 3513 0 
L 2938 0 
L 2938 2094 
Q 2938 2591 2744 2837 
Q 2550 3084 2163 3084 
Q 1697 3084 1428 2787 
Q 1159 2491 1159 1978 
L 1159 0 
L 581 0 
L 581 3500 
L 1159 3500 
L 1159 2956 
Q 1366 3272 1645 3428 
Q 1925 3584 2291 3584 
Q 2894 3584 3203 3211 
Q 3513 2838 3513 2113 
z
" transform="scale(0.015625)"/>
       <path id="DejaVuSans-63" d="M 3122 3366 
L 3122 2828 
Q 2878 2963 2633 3030 
Q 2388 3097 2138 3097 
Q 1578 3097 1268 2742 
Q 959 2388 959 1747 
Q 959 1106 1268 751 
Q 1578 397 2138 397 
Q 2388 397 2633 464 
Q 2878 531 3122 666 
L 3122 134 
Q 2881 22 2623 -34 
Q 2366 -91 2075 -91 
Q 1284 -91 818 406 
Q 353 903 353 1747 
Q 353 2603 823 3093 
Q 1294 3584 2113 3584 
Q 2378 3584 2631 3529 
Q 2884 3475 3122 3366 
z
" transform="scale(0.015625)"/>
       <path id="DejaVuSans-74" d="M 1172 4494 
L 1172 3500 
L 2356 3500 
L 2356 3053 
L 1172 3053 
L 1172 1153 
Q 1172 725 1289 603 
Q 1406 481 1766 481 
L 2356 481 
L 2356 0 
L 1766 0 
Q 1100 0 847 248 
Q 594 497 594 1153 
L 594 3053 
L 172 3053 
L 172 3500 
L 594 3500 
L 594 4494 
L 1172 4494 
z
" transform="scale(0.015625)"/>
       <path id="DejaVuSans-69" d="M 603 3500 
L 1178 3500 
L 1178 0 
L 603 0 
L 603 3500 
z
M 603 4863 
L 1178 4863 
L 1178 4134 
L 603 4134 
L 603 4863 
z
" transform="scale(0.015625)"/>
       <path id="DejaVuSans-6f" d="M 1959 3097 
Q 1497 3097 1228 2736 
Q 959 2375 959 1747 
Q 959 1119 1226 758 
Q 1494 397 1959 397 
Q 2419 397 2687 759 
Q 2956 1122 2956 1747 
Q 2956 2369 2687 2733 
Q 2419 3097 1959 3097 
z
M 1959 3584 
Q 2709 3584 3137 3096 
Q 3566 2609 3566 1747 
Q 3566 888 3137 398 
Q 2709 -91 1959 -91 
Q 1206 -91 779 398 
Q 353 888 353 1747 
Q 353 2609 779 3096 
Q 1206 3584 1959 3584 
z
" transform="scale(0.015625)"/>
      </defs>
      <use xlink:href="#DejaVuSans-54"/>
      <use xlink:href="#DejaVuSans-72" transform="translate(46.333984 0)"/>
      <use xlink:href="#DejaVuSans-75" transform="translate(87.447266 0)"/>
      <use xlink:href="#DejaVuSans-65" transform="translate(150.826172 0)"/>
      <use xlink:href="#DejaVuSans-20" transform="translate(212.349609 0)"/>
      <use xlink:href="#DejaVuSans-66" transform="translate(244.136719 0)"/>
      <use xlink:href="#DejaVuSans-75" transform="translate(279.341797 0)"/>
      <use xlink:href="#DejaVuSans-6e" transform="translate(342.720703 0)"/>
      <use xlink:href="#DejaVuSans-63" transform="translate(406.099609 0)"/>
      <use xlink:href="#DejaVuSans-74" transform="translate(461.080078 0)"/>
      <use xlink:href="#DejaVuSans-69" transform="translate(500.289062 0)"/>
      <use xlink:href="#DejaVuSans-6f" transform="translate(528.072266 0)"/>
      <use xlink:href="#DejaVuSans-6e" transform="translate(589.253906 0)"/>
     </g>
    </g>
    <g id="PathCollection_2">
     <g>
      <use xlink:href="#me1136961f8" x="75.067" y="38.626752" style="fill-opacity: 0.8; stroke: #000000; stroke-opacity: 0.8"/>
     </g>
    </g>
    <g id="text_14">
     <!-- Training data -->
     <g transform="translate(90.061 40.813377) scale(0.0833 -0.0833)">
      <defs>
       <path id="DejaVuSans-61" d="M 2194 1759 
Q 1497 1759 1228 1600 
Q 959 1441 959 1056 
Q 959 750 1161 570 
Q 1363 391 1709 391 
Q 2188 391 2477 730 
Q 2766 1069 2766 1631 
L 2766 1759 
L 2194 1759 
z
M 3341 1997 
L 3341 0 
L 2766 0 
L 2766 531 
Q 2569 213 2275 61 
Q 1981 -91 1556 -91 
Q 1019 -91 701 211 
Q 384 513 384 1019 
Q 384 1609 779 1909 
Q 1175 2209 1959 2209 
L 2766 2209 
L 2766 2266 
Q 2766 2663 2505 2880 
Q 2244 3097 1772 3097 
Q 1472 3097 1187 3025 
Q 903 2953 641 2809 
L 641 3341 
Q 956 3463 1253 3523 
Q 1550 3584 1831 3584 
Q 2591 3584 2966 3190 
Q 3341 2797 3341 1997 
z
" transform="scale(0.015625)"/>
       <path id="DejaVuSans-67" d="M 2906 1791 
Q 2906 2416 2648 2759 
Q 2391 3103 1925 3103 
Q 1463 3103 1205 2759 
Q 947 2416 947 1791 
Q 947 1169 1205 825 
Q 1463 481 1925 481 
Q 2391 481 2648 825 
Q 2906 1169 2906 1791 
z
M 3481 434 
Q 3481 -459 3084 -895 
Q 2688 -1331 1869 -1331 
Q 1566 -1331 1297 -1286 
Q 1028 -1241 775 -1147 
L 775 -588 
Q 1028 -725 1275 -790 
Q 1522 -856 1778 -856 
Q 2344 -856 2625 -561 
Q 2906 -266 2906 331 
L 2906 616 
Q 2728 306 2450 153 
Q 2172 0 1784 0 
Q 1141 0 747 490 
Q 353 981 353 1791 
Q 353 2603 747 3093 
Q 1141 3584 1784 3584 
Q 2172 3584 2450 3431 
Q 2728 3278 2906 2969 
L 2906 3500 
L 3481 3500 
L 3481 434 
z
" transform="scale(0.015625)"/>
       <path id="DejaVuSans-64" d="M 2906 2969 
L 2906 4863 
L 3481 4863 
L 3481 0 
L 2906 0 
L 2906 525 
Q 2725 213 2448 61 
Q 2172 -91 1784 -91 
Q 1150 -91 751 415 
Q 353 922 353 1747 
Q 353 2572 751 3078 
Q 1150 3584 1784 3584 
Q 2172 3584 2448 3432 
Q 2725 3281 2906 2969 
z
M 947 1747 
Q 947 1113 1208 752 
Q 1469 391 1925 391 
Q 2381 391 2643 752 
Q 2906 1113 2906 1747 
Q 2906 2381 2643 2742 
Q 2381 3103 1925 3103 
Q 1469 3103 1208 2742 
Q 947 2381 947 1747 
z
" transform="scale(0.015625)"/>
      </defs>
      <use xlink:href="#DejaVuSans-54"/>
      <use xlink:href="#DejaVuSans-72" transform="translate(46.333984 0)"/>
      <use xlink:href="#DejaVuSans-61" transform="translate(87.447266 0)"/>
      <use xlink:href="#DejaVuSans-69" transform="translate(148.726562 0)"/>
      <use xlink:href="#DejaVuSans-6e" transform="translate(176.509766 0)"/>
      <use xlink:href="#DejaVuSans-69" transform="translate(239.888672 0)"/>
      <use xlink:href="#DejaVuSans-6e" transform="translate(267.671875 0)"/>
      <use xlink:href="#DejaVuSans-67" transform="translate(331.050781 0)"/>
      <use xlink:href="#DejaVuSans-20" transform="translate(394.527344 0)"/>
      <use xlink:href="#DejaVuSans-64" transform="translate(426.314453 0)"/>
      <use xlink:href="#DejaVuSans-61" transform="translate(489.791016 0)"/>
      <use xlink:href="#DejaVuSans-74" transform="translate(551.070312 0)"/>
      <use xlink:href="#DejaVuSans-61" transform="translate(590.279297 0)"/>
     </g>
    </g>
    <g id="line2d_14">
     <path d="M 66.737 50.124755 
L 75.067 50.124755 
L 83.397 50.124755 
" style="fill: none; stroke: #ff8b50; stroke-width: 1.5; stroke-linecap: square"/>
    </g>
    <g id="text_15">
     <!-- Prediction -->
     <g transform="translate(90.061 53.040255) scale(0.0833 -0.0833)">
      <defs>
       <path id="DejaVuSans-50" d="M 1259 4147 
L 1259 2394 
L 2053 2394 
Q 2494 2394 2734 2622 
Q 2975 2850 2975 3272 
Q 2975 3691 2734 3919 
Q 2494 4147 2053 4147 
L 1259 4147 
z
M 628 4666 
L 2053 4666 
Q 2838 4666 3239 4311 
Q 3641 3956 3641 3272 
Q 3641 2581 3239 2228 
Q 2838 1875 2053 1875 
L 1259 1875 
L 1259 0 
L 628 0 
L 628 4666 
z
" transform="scale(0.015625)"/>
      </defs>
      <use xlink:href="#DejaVuSans-50"/>
      <use xlink:href="#DejaVuSans-72" transform="translate(58.552734 0)"/>
      <use xlink:href="#DejaVuSans-65" transform="translate(97.416016 0)"/>
      <use xlink:href="#DejaVuSans-64" transform="translate(158.939453 0)"/>
      <use xlink:href="#DejaVuSans-69" transform="translate(222.416016 0)"/>
      <use xlink:href="#DejaVuSans-63" transform="translate(250.199219 0)"/>
      <use xlink:href="#DejaVuSans-74" transform="translate(305.179688 0)"/>
      <use xlink:href="#DejaVuSans-69" transform="translate(344.388672 0)"/>
      <use xlink:href="#DejaVuSans-6f" transform="translate(372.171875 0)"/>
      <use xlink:href="#DejaVuSans-6e" transform="translate(433.353516 0)"/>
     </g>
    </g>
    <g id="patch_8">
     <path d="M 66.737 65.267133 
L 83.397 65.267133 
L 83.397 59.436133 
L 66.737 59.436133 
z
" style="fill: #ac69da; fill-opacity: 0.3"/>
    </g>
    <g id="text_16">
     <!-- Unc. -->
     <g transform="translate(90.061 65.267133) scale(0.0833 -0.0833)">
      <defs>
       <path id="DejaVuSans-55" d="M 556 4666 
L 1191 4666 
L 1191 1831 
Q 1191 1081 1462 751 
Q 1734 422 2344 422 
Q 2950 422 3222 751 
Q 3494 1081 3494 1831 
L 3494 4666 
L 4128 4666 
L 4128 1753 
Q 4128 841 3676 375 
Q 3225 -91 2344 -91 
Q 1459 -91 1007 375 
Q 556 841 556 1753 
L 556 4666 
z
" transform="scale(0.015625)"/>
       <path id="DejaVuSans-2e" d="M 684 794 
L 1344 794 
L 1344 0 
L 684 0 
L 684 794 
z
" transform="scale(0.015625)"/>
      </defs>
      <use xlink:href="#DejaVuSans-55"/>
      <use xlink:href="#DejaVuSans-6e" transform="translate(73.193359 0)"/>
      <use xlink:href="#DejaVuSans-63" transform="translate(136.572266 0)"/>
      <use xlink:href="#DejaVuSans-2e" transform="translate(191.552734 0)"/>
     </g>
    </g>
   </g>
  </g>
 </g>
 <defs>
  <clipPath id="p2a1f333a53">
   <rect x="59.24" y="14.76" width="145.96" height="159.28"/>
  </clipPath>
 </defs>
</svg>
