<?xml version="1.0" encoding="utf-8" standalone="no"?>
<!DOCTYPE svg PUBLIC "-//W3C//DTD SVG 1.1//EN"
  "http://www.w3.org/Graphics/SVG/1.1/DTD/svg11.dtd">
<svg xmlns:xlink="http://www.w3.org/1999/xlink" width="216pt" height="216pt" viewBox="0 0 216 216" xmlns="http://www.w3.org/2000/svg" version="1.1">
 <metadata>
  <rdf:RDF xmlns:dc="http://purl.org/dc/elements/1.1/" xmlns:cc="http://creativecommons.org/ns#" xmlns:rdf="http://www.w3.org/1999/02/22-rdf-syntax-ns#">
   <cc:Work>
    <dc:type rdf:resource="http://purl.org/dc/dcmitype/StillImage"/>
    <dc:date>2025-06-10T13:13:27.594194</dc:date>
    <dc:format>image/svg+xml</dc:format>
    <dc:creator>
     <cc:Agent>
      <dc:title>Matplotlib v3.10.0, https://matplotlib.org/</dc:title>
     </cc:Agent>
    </dc:creator>
   </cc:Work>
  </rdf:RDF>
 </metadata>
 <defs>
  <style type="text/css">*{stroke-linejoin: round; stroke-linecap: butt}</style>
 </defs>
 <g id="figure_1">
  <g id="patch_1">
   <path d="M 0 216 
L 216 216 
L 216 0 
L 0 0 
z
" style="fill: #ffffff"/>
  </g>
  <g id="axes_1">
   <g id="patch_2">
    <path d="M 59.24 174.04 
L 205.2 174.04 
L 205.2 14.76 
L 59.24 14.76 
z
" style="fill: #ffffff"/>
   </g>
   <g id="PathCollection_1">
    <defs>
     <path id="mf37615f474" d="M 0 1.224745 
C 0.324806 1.224745 0.636353 1.095698 0.866025 0.866025 
C 1.095698 0.636353 1.224745 0.324806 1.224745 0 
C 1.224745 -0.324806 1.095698 -0.636353 0.866025 -0.866025 
C 0.636353 -1.095698 0.324806 -1.224745 0 -1.224745 
C -0.324806 -1.224745 -0.636353 -1.095698 -0.866025 -0.866025 
C -1.095698 -0.636353 -1.224745 -0.324806 -1.224745 0 
C -1.224745 0.324806 -1.095698 0.636353 -0.866025 0.866025 
C -0.636353 1.095698 -0.324806 1.224745 0 1.224745 
z
" style="stroke: #000000; stroke-opacity: 0.8"/>
    </defs>
    <g clip-path="url(#p7559afd3b0)">
     <use xlink:href="#mf37615f474" x="93.988119" y="120.888194" style="fill-opacity: 0.8; stroke: #000000; stroke-opacity: 0.8"/>
     <use xlink:href="#mf37615f474" x="99.327699" y="110.592371" style="fill-opacity: 0.8; stroke: #000000; stroke-opacity: 0.8"/>
     <use xlink:href="#mf37615f474" x="97.300751" y="114.404108" style="fill-opacity: 0.8; stroke: #000000; stroke-opacity: 0.8"/>
     <use xlink:href="#mf37615f474" x="96.065092" y="118.403852" style="fill-opacity: 0.8; stroke: #000000; stroke-opacity: 0.8"/>
     <use xlink:href="#mf37615f474" x="91.963015" y="123.146252" style="fill-opacity: 0.8; stroke: #000000; stroke-opacity: 0.8"/>
     <use xlink:href="#mf37615f474" x="91.962791" y="123.76937" style="fill-opacity: 0.8; stroke: #000000; stroke-opacity: 0.8"/>
     <use xlink:href="#mf37615f474" x="91.055421" y="125.820911" style="fill-opacity: 0.8; stroke: #000000; stroke-opacity: 0.8"/>
     <use xlink:href="#mf37615f474" x="98.544258" y="113.741096" style="fill-opacity: 0.8; stroke: #000000; stroke-opacity: 0.8"/>
     <use xlink:href="#mf37615f474" x="96.087857" y="114.266211" style="fill-opacity: 0.8; stroke: #000000; stroke-opacity: 0.8"/>
     <use xlink:href="#mf37615f474" x="97.079065" y="116.964043" style="fill-opacity: 0.8; stroke: #000000; stroke-opacity: 0.8"/>
     <use xlink:href="#mf37615f474" x="90.707906" y="126.980813" style="fill-opacity: 0.8; stroke: #000000; stroke-opacity: 0.8"/>
     <use xlink:href="#mf37615f474" x="99.50559" y="107.314667" style="fill-opacity: 0.8; stroke: #000000; stroke-opacity: 0.8"/>
     <use xlink:href="#mf37615f474" x="98.23164" y="114.373293" style="fill-opacity: 0.8; stroke: #000000; stroke-opacity: 0.8"/>
     <use xlink:href="#mf37615f474" x="92.484953" y="124.694985" style="fill-opacity: 0.8; stroke: #000000; stroke-opacity: 0.8"/>
     <use xlink:href="#mf37615f474" x="92.20217" y="124.266285" style="fill-opacity: 0.8; stroke: #000000; stroke-opacity: 0.8"/>
     <use xlink:href="#mf37615f474" x="92.216808" y="125.194009" style="fill-opacity: 0.8; stroke: #000000; stroke-opacity: 0.8"/>
     <use xlink:href="#mf37615f474" x="102.603949" y="109.040272" style="fill-opacity: 0.8; stroke: #000000; stroke-opacity: 0.8"/>
     <use xlink:href="#mf37615f474" x="104.647521" y="104.111664" style="fill-opacity: 0.8; stroke: #000000; stroke-opacity: 0.8"/>
     <use xlink:href="#mf37615f474" x="103.787409" y="106.86095" style="fill-opacity: 0.8; stroke: #000000; stroke-opacity: 0.8"/>
     <use xlink:href="#mf37615f474" x="102.483353" y="105.965317" style="fill-opacity: 0.8; stroke: #000000; stroke-opacity: 0.8"/>
     <use xlink:href="#mf37615f474" x="105.45467" y="104.847851" style="fill-opacity: 0.8; stroke: #000000; stroke-opacity: 0.8"/>
     <use xlink:href="#mf37615f474" x="101.077176" y="106.08257" style="fill-opacity: 0.8; stroke: #000000; stroke-opacity: 0.8"/>
     <use xlink:href="#mf37615f474" x="102.491837" y="107.956679" style="fill-opacity: 0.8; stroke: #000000; stroke-opacity: 0.8"/>
     <use xlink:href="#mf37615f474" x="103.17963" y="106.387353" style="fill-opacity: 0.8; stroke: #000000; stroke-opacity: 0.8"/>
     <use xlink:href="#mf37615f474" x="104.010983" y="103.621098" style="fill-opacity: 0.8; stroke: #000000; stroke-opacity: 0.8"/>
     <use xlink:href="#mf37615f474" x="107.060907" y="103.8217" style="fill-opacity: 0.8; stroke: #000000; stroke-opacity: 0.8"/>
     <use xlink:href="#mf37615f474" x="101.634882" y="107.442276" style="fill-opacity: 0.8; stroke: #000000; stroke-opacity: 0.8"/>
     <use xlink:href="#mf37615f474" x="104.55001" y="102.243418" style="fill-opacity: 0.8; stroke: #000000; stroke-opacity: 0.8"/>
     <use xlink:href="#mf37615f474" x="105.274529" y="106.1264" style="fill-opacity: 0.8; stroke: #000000; stroke-opacity: 0.8"/>
     <use xlink:href="#mf37615f474" x="100.214914" y="109.465501" style="fill-opacity: 0.8; stroke: #000000; stroke-opacity: 0.8"/>
     <use xlink:href="#mf37615f474" x="105.414746" y="103.00971" style="fill-opacity: 0.8; stroke: #000000; stroke-opacity: 0.8"/>
     <use xlink:href="#mf37615f474" x="101.364743" y="106.917615" style="fill-opacity: 0.8; stroke: #000000; stroke-opacity: 0.8"/>
     <use xlink:href="#mf37615f474" x="109.654599" y="101.753554" style="fill-opacity: 0.8; stroke: #000000; stroke-opacity: 0.8"/>
     <use xlink:href="#mf37615f474" x="117.845354" y="97.894822" style="fill-opacity: 0.8; stroke: #000000; stroke-opacity: 0.8"/>
     <use xlink:href="#mf37615f474" x="118.000549" y="94.915662" style="fill-opacity: 0.8; stroke: #000000; stroke-opacity: 0.8"/>
     <use xlink:href="#mf37615f474" x="116.543408" y="95.731964" style="fill-opacity: 0.8; stroke: #000000; stroke-opacity: 0.8"/>
     <use xlink:href="#mf37615f474" x="111.874694" y="97.946635" style="fill-opacity: 0.8; stroke: #000000; stroke-opacity: 0.8"/>
     <use xlink:href="#mf37615f474" x="109.956903" y="99.018043" style="fill-opacity: 0.8; stroke: #000000; stroke-opacity: 0.8"/>
     <use xlink:href="#mf37615f474" x="115.39274" y="97.715496" style="fill-opacity: 0.8; stroke: #000000; stroke-opacity: 0.8"/>
     <use xlink:href="#mf37615f474" x="113.130772" y="97.289091" style="fill-opacity: 0.8; stroke: #000000; stroke-opacity: 0.8"/>
     <use xlink:href="#mf37615f474" x="110.182711" y="98.947341" style="fill-opacity: 0.8; stroke: #000000; stroke-opacity: 0.8"/>
     <use xlink:href="#mf37615f474" x="113.6407" y="98.542584" style="fill-opacity: 0.8; stroke: #000000; stroke-opacity: 0.8"/>
     <use xlink:href="#mf37615f474" x="109.370435" y="97.017481" style="fill-opacity: 0.8; stroke: #000000; stroke-opacity: 0.8"/>
     <use xlink:href="#mf37615f474" x="117.478692" y="95.146106" style="fill-opacity: 0.8; stroke: #000000; stroke-opacity: 0.8"/>
     <use xlink:href="#mf37615f474" x="111.449938" y="100.495445" style="fill-opacity: 0.8; stroke: #000000; stroke-opacity: 0.8"/>
     <use xlink:href="#mf37615f474" x="115.19154" y="95.66763" style="fill-opacity: 0.8; stroke: #000000; stroke-opacity: 0.8"/>
     <use xlink:href="#mf37615f474" x="111.940467" y="99.85995" style="fill-opacity: 0.8; stroke: #000000; stroke-opacity: 0.8"/>
     <use xlink:href="#mf37615f474" x="113.871373" y="96.040563" style="fill-opacity: 0.8; stroke: #000000; stroke-opacity: 0.8"/>
     <use xlink:href="#mf37615f474" x="123.385577" y="92.87763" style="fill-opacity: 0.8; stroke: #000000; stroke-opacity: 0.8"/>
     <use xlink:href="#mf37615f474" x="120.03215" y="96.555394" style="fill-opacity: 0.8; stroke: #000000; stroke-opacity: 0.8"/>
     <use xlink:href="#mf37615f474" x="127.304481" y="92.92118" style="fill-opacity: 0.8; stroke: #000000; stroke-opacity: 0.8"/>
     <use xlink:href="#mf37615f474" x="125.502437" y="93.884545" style="fill-opacity: 0.8; stroke: #000000; stroke-opacity: 0.8"/>
     <use xlink:href="#mf37615f474" x="127.025668" y="93.156284" style="fill-opacity: 0.8; stroke: #000000; stroke-opacity: 0.8"/>
     <use xlink:href="#mf37615f474" x="126.611683" y="91.461434" style="fill-opacity: 0.8; stroke: #000000; stroke-opacity: 0.8"/>
     <use xlink:href="#mf37615f474" x="123.859967" y="95.064599" style="fill-opacity: 0.8; stroke: #000000; stroke-opacity: 0.8"/>
     <use xlink:href="#mf37615f474" x="126.862334" y="95.672604" style="fill-opacity: 0.8; stroke: #000000; stroke-opacity: 0.8"/>
     <use xlink:href="#mf37615f474" x="119.139134" y="96.865472" style="fill-opacity: 0.8; stroke: #000000; stroke-opacity: 0.8"/>
     <use xlink:href="#mf37615f474" x="120.13528" y="96.526283" style="fill-opacity: 0.8; stroke: #000000; stroke-opacity: 0.8"/>
     <use xlink:href="#mf37615f474" x="118.738183" y="95.670876" style="fill-opacity: 0.8; stroke: #000000; stroke-opacity: 0.8"/>
     <use xlink:href="#mf37615f474" x="121.333982" y="94.46102" style="fill-opacity: 0.8; stroke: #000000; stroke-opacity: 0.8"/>
     <use xlink:href="#mf37615f474" x="121.921037" y="94.47109" style="fill-opacity: 0.8; stroke: #000000; stroke-opacity: 0.8"/>
     <use xlink:href="#mf37615f474" x="120.833721" y="93.774083" style="fill-opacity: 0.8; stroke: #000000; stroke-opacity: 0.8"/>
     <use xlink:href="#mf37615f474" x="125.999208" y="94.492078" style="fill-opacity: 0.8; stroke: #000000; stroke-opacity: 0.8"/>
     <use xlink:href="#mf37615f474" x="121.625188" y="92.642" style="fill-opacity: 0.8; stroke: #000000; stroke-opacity: 0.8"/>
     <use xlink:href="#mf37615f474" x="130.189854" y="94.825466" style="fill-opacity: 0.8; stroke: #000000; stroke-opacity: 0.8"/>
     <use xlink:href="#mf37615f474" x="132.615677" y="90.067286" style="fill-opacity: 0.8; stroke: #000000; stroke-opacity: 0.8"/>
     <use xlink:href="#mf37615f474" x="128.892337" y="93.420701" style="fill-opacity: 0.8; stroke: #000000; stroke-opacity: 0.8"/>
     <use xlink:href="#mf37615f474" x="135.020551" y="95.75499" style="fill-opacity: 0.8; stroke: #000000; stroke-opacity: 0.8"/>
     <use xlink:href="#mf37615f474" x="128.277233" y="96.134434" style="fill-opacity: 0.8; stroke: #000000; stroke-opacity: 0.8"/>
     <use xlink:href="#mf37615f474" x="136.732128" y="93.588478" style="fill-opacity: 0.8; stroke: #000000; stroke-opacity: 0.8"/>
     <use xlink:href="#mf37615f474" x="134.742974" y="94.748407" style="fill-opacity: 0.8; stroke: #000000; stroke-opacity: 0.8"/>
     <use xlink:href="#mf37615f474" x="129.427907" y="93.272938" style="fill-opacity: 0.8; stroke: #000000; stroke-opacity: 0.8"/>
     <use xlink:href="#mf37615f474" x="127.637524" y="93.691311" style="fill-opacity: 0.8; stroke: #000000; stroke-opacity: 0.8"/>
     <use xlink:href="#mf37615f474" x="135.143476" y="94.504296" style="fill-opacity: 0.8; stroke: #000000; stroke-opacity: 0.8"/>
     <use xlink:href="#mf37615f474" x="134.137009" y="95.745472" style="fill-opacity: 0.8; stroke: #000000; stroke-opacity: 0.8"/>
     <use xlink:href="#mf37615f474" x="134.342278" y="96.80837" style="fill-opacity: 0.8; stroke: #000000; stroke-opacity: 0.8"/>
     <use xlink:href="#mf37615f474" x="134.733944" y="95.103765" style="fill-opacity: 0.8; stroke: #000000; stroke-opacity: 0.8"/>
     <use xlink:href="#mf37615f474" x="128.272543" y="93.064747" style="fill-opacity: 0.8; stroke: #000000; stroke-opacity: 0.8"/>
     <use xlink:href="#mf37615f474" x="130.908359" y="94.060049" style="fill-opacity: 0.8; stroke: #000000; stroke-opacity: 0.8"/>
     <use xlink:href="#mf37615f474" x="128.660143" y="96.405349" style="fill-opacity: 0.8; stroke: #000000; stroke-opacity: 0.8"/>
     <use xlink:href="#mf37615f474" x="144.852291" y="93.179729" style="fill-opacity: 0.8; stroke: #000000; stroke-opacity: 0.8"/>
     <use xlink:href="#mf37615f474" x="142.629943" y="93.257739" style="fill-opacity: 0.8; stroke: #000000; stroke-opacity: 0.8"/>
     <use xlink:href="#mf37615f474" x="139.920183" y="95.593901" style="fill-opacity: 0.8; stroke: #000000; stroke-opacity: 0.8"/>
     <use xlink:href="#mf37615f474" x="137.442665" y="94.088405" style="fill-opacity: 0.8; stroke: #000000; stroke-opacity: 0.8"/>
     <use xlink:href="#mf37615f474" x="139.735618" y="94.108393" style="fill-opacity: 0.8; stroke: #000000; stroke-opacity: 0.8"/>
     <use xlink:href="#mf37615f474" x="139.867223" y="96.010999" style="fill-opacity: 0.8; stroke: #000000; stroke-opacity: 0.8"/>
     <use xlink:href="#mf37615f474" x="143.615131" y="93.136881" style="fill-opacity: 0.8; stroke: #000000; stroke-opacity: 0.8"/>
     <use xlink:href="#mf37615f474" x="142.762088" y="92.957871" style="fill-opacity: 0.8; stroke: #000000; stroke-opacity: 0.8"/>
     <use xlink:href="#mf37615f474" x="145.075719" y="91.679484" style="fill-opacity: 0.8; stroke: #000000; stroke-opacity: 0.8"/>
     <use xlink:href="#mf37615f474" x="141.229809" y="92.378839" style="fill-opacity: 0.8; stroke: #000000; stroke-opacity: 0.8"/>
     <use xlink:href="#mf37615f474" x="137.961967" y="96.505656" style="fill-opacity: 0.8; stroke: #000000; stroke-opacity: 0.8"/>
     <use xlink:href="#mf37615f474" x="143.463505" y="95.227839" style="fill-opacity: 0.8; stroke: #000000; stroke-opacity: 0.8"/>
     <use xlink:href="#mf37615f474" x="143.904075" y="92.832334" style="fill-opacity: 0.8; stroke: #000000; stroke-opacity: 0.8"/>
     <use xlink:href="#mf37615f474" x="142.055176" y="93.135915" style="fill-opacity: 0.8; stroke: #000000; stroke-opacity: 0.8"/>
     <use xlink:href="#mf37615f474" x="143.998436" y="92.814061" style="fill-opacity: 0.8; stroke: #000000; stroke-opacity: 0.8"/>
     <use xlink:href="#mf37615f474" x="141.429804" y="87.897376" style="fill-opacity: 0.8; stroke: #000000; stroke-opacity: 0.8"/>
     <use xlink:href="#mf37615f474" x="150.965275" y="90.404671" style="fill-opacity: 0.8; stroke: #000000; stroke-opacity: 0.8"/>
     <use xlink:href="#mf37615f474" x="150.083104" y="89.920767" style="fill-opacity: 0.8; stroke: #000000; stroke-opacity: 0.8"/>
     <use xlink:href="#mf37615f474" x="146.356519" y="91.556887" style="fill-opacity: 0.8; stroke: #000000; stroke-opacity: 0.8"/>
     <use xlink:href="#mf37615f474" x="147.120815" y="91.812389" style="fill-opacity: 0.8; stroke: #000000; stroke-opacity: 0.8"/>
     <use xlink:href="#mf37615f474" x="146.412216" y="93.562875" style="fill-opacity: 0.8; stroke: #000000; stroke-opacity: 0.8"/>
     <use xlink:href="#mf37615f474" x="152.01876" y="89.555008" style="fill-opacity: 0.8; stroke: #000000; stroke-opacity: 0.8"/>
     <use xlink:href="#mf37615f474" x="149.034184" y="93.403804" style="fill-opacity: 0.8; stroke: #000000; stroke-opacity: 0.8"/>
     <use xlink:href="#mf37615f474" x="150.83403" y="91.755557" style="fill-opacity: 0.8; stroke: #000000; stroke-opacity: 0.8"/>
     <use xlink:href="#mf37615f474" x="154.531645" y="89.969327" style="fill-opacity: 0.8; stroke: #000000; stroke-opacity: 0.8"/>
     <use xlink:href="#mf37615f474" x="148.431219" y="92.27355" style="fill-opacity: 0.8; stroke: #000000; stroke-opacity: 0.8"/>
     <use xlink:href="#mf37615f474" x="149.924095" y="88.113389" style="fill-opacity: 0.8; stroke: #000000; stroke-opacity: 0.8"/>
     <use xlink:href="#mf37615f474" x="153.122873" y="93.095198" style="fill-opacity: 0.8; stroke: #000000; stroke-opacity: 0.8"/>
     <use xlink:href="#mf37615f474" x="148.241294" y="91.380219" style="fill-opacity: 0.8; stroke: #000000; stroke-opacity: 0.8"/>
     <use xlink:href="#mf37615f474" x="146.834348" y="95.506352" style="fill-opacity: 0.8; stroke: #000000; stroke-opacity: 0.8"/>
     <use xlink:href="#mf37615f474" x="148.806166" y="93.013925" style="fill-opacity: 0.8; stroke: #000000; stroke-opacity: 0.8"/>
     <use xlink:href="#mf37615f474" x="147.615039" y="90.956036" style="fill-opacity: 0.8; stroke: #000000; stroke-opacity: 0.8"/>
     <use xlink:href="#mf37615f474" x="164.004042" y="79.254079" style="fill-opacity: 0.8; stroke: #000000; stroke-opacity: 0.8"/>
     <use xlink:href="#mf37615f474" x="162.877349" y="82.616863" style="fill-opacity: 0.8; stroke: #000000; stroke-opacity: 0.8"/>
     <use xlink:href="#mf37615f474" x="161.258198" y="84.067537" style="fill-opacity: 0.8; stroke: #000000; stroke-opacity: 0.8"/>
     <use xlink:href="#mf37615f474" x="163.464342" y="79.02739" style="fill-opacity: 0.8; stroke: #000000; stroke-opacity: 0.8"/>
     <use xlink:href="#mf37615f474" x="162.836125" y="82.117944" style="fill-opacity: 0.8; stroke: #000000; stroke-opacity: 0.8"/>
     <use xlink:href="#mf37615f474" x="157.117255" y="86.824581" style="fill-opacity: 0.8; stroke: #000000; stroke-opacity: 0.8"/>
     <use xlink:href="#mf37615f474" x="163.659867" y="79.767303" style="fill-opacity: 0.8; stroke: #000000; stroke-opacity: 0.8"/>
     <use xlink:href="#mf37615f474" x="160.386501" y="84.968482" style="fill-opacity: 0.8; stroke: #000000; stroke-opacity: 0.8"/>
     <use xlink:href="#mf37615f474" x="162.871045" y="77.493683" style="fill-opacity: 0.8; stroke: #000000; stroke-opacity: 0.8"/>
     <use xlink:href="#mf37615f474" x="163.692602" y="78.784657" style="fill-opacity: 0.8; stroke: #000000; stroke-opacity: 0.8"/>
     <use xlink:href="#mf37615f474" x="158.335288" y="89.281019" style="fill-opacity: 0.8; stroke: #000000; stroke-opacity: 0.8"/>
     <use xlink:href="#mf37615f474" x="156.408138" y="87.472766" style="fill-opacity: 0.8; stroke: #000000; stroke-opacity: 0.8"/>
     <use xlink:href="#mf37615f474" x="157.500598" y="87.884291" style="fill-opacity: 0.8; stroke: #000000; stroke-opacity: 0.8"/>
     <use xlink:href="#mf37615f474" x="159.346391" y="83.690372" style="fill-opacity: 0.8; stroke: #000000; stroke-opacity: 0.8"/>
     <use xlink:href="#mf37615f474" x="162.969044" y="82.041064" style="fill-opacity: 0.8; stroke: #000000; stroke-opacity: 0.8"/>
     <use xlink:href="#mf37615f474" x="163.364904" y="80.428611" style="fill-opacity: 0.8; stroke: #000000; stroke-opacity: 0.8"/>
     <use xlink:href="#mf37615f474" x="164.719983" y="77.512476" style="fill-opacity: 0.8; stroke: #000000; stroke-opacity: 0.8"/>
     <use xlink:href="#mf37615f474" x="169.388805" y="68.963091" style="fill-opacity: 0.8; stroke: #000000; stroke-opacity: 0.8"/>
     <use xlink:href="#mf37615f474" x="168.523829" y="73.894711" style="fill-opacity: 0.8; stroke: #000000; stroke-opacity: 0.8"/>
     <use xlink:href="#mf37615f474" x="166.713896" y="75.704123" style="fill-opacity: 0.8; stroke: #000000; stroke-opacity: 0.8"/>
     <use xlink:href="#mf37615f474" x="165.766384" y="77.469269" style="fill-opacity: 0.8; stroke: #000000; stroke-opacity: 0.8"/>
     <use xlink:href="#mf37615f474" x="167.784337" y="74.365666" style="fill-opacity: 0.8; stroke: #000000; stroke-opacity: 0.8"/>
     <use xlink:href="#mf37615f474" x="173.393784" y="58.885188" style="fill-opacity: 0.8; stroke: #000000; stroke-opacity: 0.8"/>
     <use xlink:href="#mf37615f474" x="167.650775" y="72.91654" style="fill-opacity: 0.8; stroke: #000000; stroke-opacity: 0.8"/>
     <use xlink:href="#mf37615f474" x="169.463345" y="72.205371" style="fill-opacity: 0.8; stroke: #000000; stroke-opacity: 0.8"/>
     <use xlink:href="#mf37615f474" x="171.170644" y="65.251631" style="fill-opacity: 0.8; stroke: #000000; stroke-opacity: 0.8"/>
     <use xlink:href="#mf37615f474" x="168.025421" y="69.513372" style="fill-opacity: 0.8; stroke: #000000; stroke-opacity: 0.8"/>
     <use xlink:href="#mf37615f474" x="173.661353" y="59.410981" style="fill-opacity: 0.8; stroke: #000000; stroke-opacity: 0.8"/>
     <use xlink:href="#mf37615f474" x="173.574845" y="63.683927" style="fill-opacity: 0.8; stroke: #000000; stroke-opacity: 0.8"/>
     <use xlink:href="#mf37615f474" x="166.988898" y="75.479039" style="fill-opacity: 0.8; stroke: #000000; stroke-opacity: 0.8"/>
     <use xlink:href="#mf37615f474" x="169.263707" y="68.566226" style="fill-opacity: 0.8; stroke: #000000; stroke-opacity: 0.8"/>
     <use xlink:href="#mf37615f474" x="167.443886" y="75.051685" style="fill-opacity: 0.8; stroke: #000000; stroke-opacity: 0.8"/>
     <use xlink:href="#mf37615f474" x="167.295258" y="73.475691" style="fill-opacity: 0.8; stroke: #000000; stroke-opacity: 0.8"/>
     <use xlink:href="#mf37615f474" x="164.997398" y="76.667606" style="fill-opacity: 0.8; stroke: #000000; stroke-opacity: 0.8"/>
     <use xlink:href="#mf37615f474" x="170.304572" y="69.996087" style="fill-opacity: 0.8; stroke: #000000; stroke-opacity: 0.8"/>
     <use xlink:href="#mf37615f474" x="169.314034" y="70.581776" style="fill-opacity: 0.8; stroke: #000000; stroke-opacity: 0.8"/>
     <use xlink:href="#mf37615f474" x="165.132625" y="82.85909" style="fill-opacity: 0.8; stroke: #000000; stroke-opacity: 0.8"/>
     <use xlink:href="#mf37615f474" x="167.237856" y="75.913348" style="fill-opacity: 0.8; stroke: #000000; stroke-opacity: 0.8"/>
    </g>
   </g>
   <g id="FillBetweenPolyCollection_1">
    <path d="M 59.24 162.999899 
L 59.24 162.999899 
L 59.973467 162.136184 
L 60.706935 161.272461 
L 61.440402 160.408459 
L 62.173869 159.543278 
L 62.907337 158.678093 
L 63.640804 157.812856 
L 64.374271 156.947679 
L 65.107739 156.082069 
L 65.841206 155.216138 
L 66.574673 154.350212 
L 67.308141 153.48442 
L 68.041608 152.618615 
L 68.775075 151.752652 
L 69.508543 150.886641 
L 70.24201 150.020634 
L 70.975477 149.154619 
L 71.708945 148.28853 
L 72.442412 147.422337 
L 73.175879 146.555815 
L 73.909347 145.68788 
L 74.642814 144.820252 
L 75.376281 143.951908 
L 76.109749 143.083502 
L 76.843216 142.214344 
L 77.576683 141.344679 
L 78.310151 140.474098 
L 79.043618 139.60142 
L 79.777085 138.727226 
L 80.510553 137.851299 
L 81.24402 136.974674 
L 81.977487 136.098443 
L 82.710955 135.218878 
L 83.444422 134.334064 
L 84.177889 133.445 
L 84.911357 132.546559 
L 85.644824 131.64002 
L 86.378291 130.727373 
L 87.111759 129.809651 
L 87.845226 128.882984 
L 88.578693 127.949596 
L 89.312161 127.007006 
L 90.045628 126.050933 
L 90.779095 125.065143 
L 91.512563 123.955982 
L 92.24603 122.805812 
L 92.979497 121.64605 
L 93.712965 120.475224 
L 94.446432 119.289538 
L 95.179899 118.097548 
L 95.913367 116.901287 
L 96.646834 115.704891 
L 97.380302 114.508345 
L 98.113769 113.3105 
L 98.847236 112.112734 
L 99.580704 110.914527 
L 100.314171 109.725315 
L 101.047638 108.576026 
L 101.781106 107.537319 
L 102.514573 106.590188 
L 103.24804 105.677406 
L 103.981508 104.811208 
L 104.714975 104.014311 
L 105.448442 103.252361 
L 106.18191 102.512133 
L 106.915377 101.80588 
L 107.648844 101.129621 
L 108.382312 100.510307 
L 109.115779 99.971763 
L 109.849246 99.467542 
L 110.582714 98.991892 
L 111.316181 98.547397 
L 112.049648 98.118054 
L 112.783116 97.722237 
L 113.516583 97.356433 
L 114.25005 97.02472 
L 114.983518 96.733273 
L 115.716985 96.457504 
L 116.450452 96.198456 
L 117.18392 95.956638 
L 117.917387 95.741471 
L 118.650854 95.5381 
L 119.384322 95.345276 
L 120.117789 95.16455 
L 120.851256 94.992841 
L 121.584724 94.839245 
L 122.318191 94.714944 
L 123.051658 94.60494 
L 123.785126 94.512099 
L 124.518593 94.42883 
L 125.25206 94.36254 
L 125.985528 94.31036 
L 126.718995 94.268984 
L 127.452462 94.234165 
L 128.18593 94.204651 
L 128.919397 94.177651 
L 129.652864 94.152821 
L 130.386332 94.132817 
L 131.119799 94.112088 
L 131.853266 94.09307 
L 132.586734 94.075362 
L 133.320201 94.057334 
L 134.053668 94.037486 
L 134.787136 94.013376 
L 135.520603 93.975052 
L 136.25407 93.929436 
L 136.987538 93.877684 
L 137.721005 93.823373 
L 138.454472 93.760533 
L 139.18794 93.688965 
L 139.921407 93.610454 
L 140.654874 93.528477 
L 141.388342 93.441449 
L 142.121809 93.348813 
L 142.855276 93.24585 
L 143.588744 93.129158 
L 144.322211 93.005366 
L 145.055678 92.874289 
L 145.789146 92.730583 
L 146.522613 92.577222 
L 147.25608 92.409053 
L 147.989548 92.220998 
L 148.723015 92.009611 
L 149.456482 91.77632 
L 150.18995 91.529208 
L 150.923417 91.271397 
L 151.656884 90.99818 
L 152.390352 90.718745 
L 153.123819 90.414345 
L 153.857286 90.077128 
L 154.590754 89.698283 
L 155.324221 89.275013 
L 156.057688 88.781392 
L 156.791156 88.256242 
L 157.524623 87.68855 
L 158.25809 87.06365 
L 158.991558 86.369776 
L 159.725025 85.568805 
L 160.458492 84.709505 
L 161.19196 83.749953 
L 161.925427 82.670016 
L 162.658894 81.549408 
L 163.392362 80.379757 
L 164.125829 79.179034 
L 164.859296 77.970101 
L 165.592764 76.744792 
L 166.326231 75.511556 
L 167.059698 74.278256 
L 167.793166 73.044178 
L 168.526633 71.809063 
L 169.260101 70.573749 
L 169.993568 69.340203 
L 170.727035 68.106972 
L 171.460503 66.877601 
L 172.19397 65.655804 
L 172.927437 64.458193 
L 173.660905 63.29377 
L 174.394372 62.248465 
L 175.127839 61.232693 
L 175.861307 60.235462 
L 176.594774 59.257797 
L 177.328241 58.29162 
L 178.061709 57.342043 
L 178.795176 56.396646 
L 179.528643 55.459281 
L 180.262111 54.527912 
L 180.995578 53.605049 
L 181.729045 52.687594 
L 182.462513 51.774911 
L 183.19598 50.864082 
L 183.929447 49.958192 
L 184.662915 49.053622 
L 185.396382 48.153808 
L 186.129849 47.259899 
L 186.863317 46.37197 
L 187.596784 45.484267 
L 188.330251 44.597937 
L 189.063719 43.714711 
L 189.797186 42.832314 
L 190.530653 41.951303 
L 191.264121 41.071143 
L 191.997588 40.192631 
L 192.731055 39.314383 
L 193.464523 38.436341 
L 194.19799 37.558534 
L 194.931457 36.68129 
L 195.664925 35.805221 
L 196.398392 34.929164 
L 197.131859 34.053163 
L 197.865327 33.177516 
L 198.598794 32.30224 
L 199.332261 31.427958 
L 200.065729 30.553675 
L 200.799196 29.679501 
L 201.532663 28.805514 
L 202.266131 27.931734 
L 202.999598 27.057953 
L 203.733065 26.184165 
L 204.466533 25.310339 
L 205.2 24.436482 
L 205.2 24.436482 
L 205.2 24.436482 
L 204.466533 25.310339 
L 203.733065 26.184165 
L 202.999598 27.057953 
L 202.266131 27.931734 
L 201.532663 28.805514 
L 200.799196 29.679501 
L 200.065729 30.553675 
L 199.332261 31.427958 
L 198.598794 32.30224 
L 197.865327 33.177516 
L 197.131859 34.053163 
L 196.398392 34.929164 
L 195.664925 35.805221 
L 194.931457 36.68129 
L 194.19799 37.558534 
L 193.464523 38.436341 
L 192.731055 39.314383 
L 191.997588 40.192631 
L 191.264121 41.071143 
L 190.530653 41.951303 
L 189.797186 42.832314 
L 189.063719 43.714711 
L 188.330251 44.597937 
L 187.596784 45.484267 
L 186.863317 46.37197 
L 186.129849 47.259899 
L 185.396382 48.153808 
L 184.662915 49.053622 
L 183.929447 49.958192 
L 183.19598 50.864082 
L 182.462513 51.774911 
L 181.729045 52.687594 
L 180.995578 53.605049 
L 180.262111 54.527912 
L 179.528643 55.459281 
L 178.795176 56.396646 
L 178.061709 57.342043 
L 177.328241 58.29162 
L 176.594774 59.257797 
L 175.861307 60.235462 
L 175.127839 61.232693 
L 174.394372 62.248465 
L 173.660905 63.29377 
L 172.927437 64.458193 
L 172.19397 65.655804 
L 171.460503 66.877601 
L 170.727035 68.106972 
L 169.993568 69.340203 
L 169.260101 70.573749 
L 168.526633 71.809063 
L 167.793166 73.044178 
L 167.059698 74.278256 
L 166.326231 75.511556 
L 165.592764 76.744792 
L 164.859296 77.970101 
L 164.125829 79.179034 
L 163.392362 80.379757 
L 162.658894 81.549408 
L 161.925427 82.670016 
L 161.19196 83.749953 
L 160.458492 84.709505 
L 159.725025 85.568805 
L 158.991558 86.369776 
L 158.25809 87.06365 
L 157.524623 87.68855 
L 156.791156 88.256242 
L 156.057688 88.781392 
L 155.324221 89.275013 
L 154.590754 89.698283 
L 153.857286 90.077128 
L 153.123819 90.414345 
L 152.390352 90.718745 
L 151.656884 90.99818 
L 150.923417 91.271397 
L 150.18995 91.529208 
L 149.456482 91.77632 
L 148.723015 92.009611 
L 147.989548 92.220998 
L 147.25608 92.409053 
L 146.522613 92.577222 
L 145.789146 92.730583 
L 145.055678 92.874289 
L 144.322211 93.005366 
L 143.588744 93.129158 
L 142.855276 93.24585 
L 142.121809 93.348813 
L 141.388342 93.441449 
L 140.654874 93.528477 
L 139.921407 93.610454 
L 139.18794 93.688965 
L 138.454472 93.760533 
L 137.721005 93.823373 
L 136.987538 93.877684 
L 136.25407 93.929436 
L 135.520603 93.975052 
L 134.787136 94.013376 
L 134.053668 94.037486 
L 133.320201 94.057334 
L 132.586734 94.075362 
L 131.853266 94.09307 
L 131.119799 94.112088 
L 130.386332 94.132817 
L 129.652864 94.152821 
L 128.919397 94.177651 
L 128.18593 94.204651 
L 127.452462 94.234165 
L 126.718995 94.268984 
L 125.985528 94.31036 
L 125.25206 94.36254 
L 124.518593 94.42883 
L 123.785126 94.512099 
L 123.051658 94.60494 
L 122.318191 94.714944 
L 121.584724 94.839245 
L 120.851256 94.992841 
L 120.117789 95.16455 
L 119.384322 95.345276 
L 118.650854 95.5381 
L 117.917387 95.741471 
L 117.18392 95.956638 
L 116.450452 96.198456 
L 115.716985 96.457504 
L 114.983518 96.733273 
L 114.25005 97.02472 
L 113.516583 97.356433 
L 112.783116 97.722237 
L 112.049648 98.118054 
L 111.316181 98.547397 
L 110.582714 98.991892 
L 109.849246 99.467542 
L 109.115779 99.971763 
L 108.382312 100.510307 
L 107.648844 101.129621 
L 106.915377 101.80588 
L 106.18191 102.512133 
L 105.448442 103.252361 
L 104.714975 104.014311 
L 103.981508 104.811208 
L 103.24804 105.677406 
L 102.514573 106.590188 
L 101.781106 107.537319 
L 101.047638 108.576026 
L 100.314171 109.725315 
L 99.580704 110.914527 
L 98.847236 112.112734 
L 98.113769 113.3105 
L 97.380302 114.508345 
L 96.646834 115.704891 
L 95.913367 116.901287 
L 95.179899 118.097548 
L 94.446432 119.289538 
L 93.712965 120.475224 
L 92.979497 121.64605 
L 92.24603 122.805812 
L 91.512563 123.955982 
L 90.779095 125.065143 
L 90.045628 126.050933 
L 89.312161 127.007006 
L 88.578693 127.949596 
L 87.845226 128.882984 
L 87.111759 129.809651 
L 86.378291 130.727373 
L 85.644824 131.64002 
L 84.911357 132.546559 
L 84.177889 133.445 
L 83.444422 134.334064 
L 82.710955 135.218878 
L 81.977487 136.098443 
L 81.24402 136.974674 
L 80.510553 137.851299 
L 79.777085 138.727226 
L 79.043618 139.60142 
L 78.310151 140.474098 
L 77.576683 141.344679 
L 76.843216 142.214344 
L 76.109749 143.083502 
L 75.376281 143.951908 
L 74.642814 144.820252 
L 73.909347 145.68788 
L 73.175879 146.555815 
L 72.442412 147.422337 
L 71.708945 148.28853 
L 70.975477 149.154619 
L 70.24201 150.020634 
L 69.508543 150.886641 
L 68.775075 151.752652 
L 68.041608 152.618615 
L 67.308141 153.48442 
L 66.574673 154.350212 
L 65.841206 155.216138 
L 65.107739 156.082069 
L 64.374271 156.947679 
L 63.640804 157.812856 
L 62.907337 158.678093 
L 62.173869 159.543278 
L 61.440402 160.408459 
L 60.706935 161.272461 
L 59.973467 162.136184 
L 59.24 162.999899 
z
" clip-path="url(#p7559afd3b0)" style="fill: #ac69da; fill-opacity: 0.3"/>
   </g>
   <g id="FillBetweenPolyCollection_2">
    <path d="M 59.24 157.346407 
L 59.24 168.65339 
L 59.973467 167.655707 
L 60.706935 166.658049 
L 61.440402 165.660559 
L 62.173869 164.664146 
L 62.907337 163.667803 
L 63.640804 162.671476 
L 64.374271 161.675422 
L 65.107739 160.678664 
L 65.841206 159.681376 
L 66.574673 158.684155 
L 67.308141 157.686944 
L 68.041608 156.689846 
L 68.775075 155.692818 
L 69.508543 154.695931 
L 70.24201 153.699215 
L 70.975477 152.702678 
L 71.708945 151.706286 
L 72.442412 150.710042 
L 73.175879 149.713052 
L 73.909347 148.711688 
L 74.642814 147.710156 
L 75.376281 146.70874 
L 76.109749 145.707732 
L 76.843216 144.706259 
L 77.576683 143.705197 
L 78.310151 142.704907 
L 79.043618 141.705215 
L 79.777085 140.70531 
L 80.510553 139.702354 
L 81.24402 138.699774 
L 81.977487 137.703269 
L 82.710955 136.70496 
L 83.444422 135.701251 
L 84.177889 134.694955 
L 84.911357 133.697318 
L 85.644824 132.701282 
L 86.378291 131.70771 
L 87.111759 130.721706 
L 87.845226 129.737953 
L 88.578693 128.764656 
L 89.312161 127.798481 
L 90.045628 126.838958 
L 90.779095 125.875302 
L 91.512563 124.783119 
L 92.24603 123.633722 
L 92.979497 122.472888 
L 93.712965 121.302764 
L 94.446432 120.121829 
L 95.179899 118.936458 
L 95.913367 117.743794 
L 96.646834 116.553305 
L 97.380302 115.365279 
L 98.113769 114.179304 
L 98.847236 112.996095 
L 99.580704 111.814174 
L 100.314171 110.643354 
L 101.047638 109.51051 
L 101.781106 108.474424 
L 102.514573 107.520005 
L 103.24804 106.583194 
L 103.981508 105.646713 
L 104.714975 104.780521 
L 105.448442 103.970257 
L 106.18191 103.198162 
L 106.915377 102.438546 
L 107.648844 101.721221 
L 108.382312 101.094691 
L 109.115779 100.539352 
L 109.849246 99.990579 
L 110.582714 99.476474 
L 111.316181 98.993733 
L 112.049648 98.552478 
L 112.783116 98.159017 
L 113.516583 97.821479 
L 114.25005 97.511665 
L 114.983518 97.233442 
L 115.716985 96.967943 
L 116.450452 96.704383 
L 117.18392 96.457815 
L 117.917387 96.257278 
L 118.650854 96.063638 
L 119.384322 95.870273 
L 120.117789 95.677733 
L 120.851256 95.490114 
L 121.584724 95.312625 
L 122.318191 95.183014 
L 123.051658 95.07384 
L 123.785126 94.977153 
L 124.518593 94.893512 
L 125.25206 94.821007 
L 125.985528 94.750918 
L 126.718995 94.683644 
L 127.452462 94.62059 
L 128.18593 94.560753 
L 128.919397 94.50359 
L 129.652864 94.455247 
L 130.386332 94.420985 
L 131.119799 94.388317 
L 131.853266 94.358683 
L 132.586734 94.330737 
L 133.320201 94.304931 
L 134.053668 94.278749 
L 134.787136 94.252197 
L 135.520603 94.20989 
L 136.25407 94.159295 
L 136.987538 94.10028 
L 137.721005 94.038583 
L 138.454472 93.982105 
L 139.18794 93.928683 
L 139.921407 93.866961 
L 140.654874 93.801624 
L 141.388342 93.725181 
L 142.121809 93.640413 
L 142.855276 93.550847 
L 143.588744 93.450447 
L 144.322211 93.331891 
L 145.055678 93.19823 
L 145.789146 93.050941 
L 146.522613 92.895722 
L 147.25608 92.723379 
L 147.989548 92.531193 
L 148.723015 92.326265 
L 149.456482 92.130074 
L 150.18995 91.926594 
L 150.923417 91.716628 
L 151.656884 91.484326 
L 152.390352 91.247479 
L 153.123819 90.973507 
L 153.857286 90.644565 
L 154.590754 90.258207 
L 155.324221 89.824295 
L 156.057688 89.302131 
L 156.791156 88.764937 
L 157.524623 88.198658 
L 158.25809 87.600566 
L 158.991558 86.915703 
L 159.725025 86.069486 
L 160.458492 85.183054 
L 161.19196 84.262663 
L 161.925427 83.212008 
L 162.658894 82.138786 
L 163.392362 80.987382 
L 164.125829 79.77405 
L 164.859296 78.545826 
L 165.592764 77.314771 
L 166.326231 76.072575 
L 167.059698 74.836091 
L 167.793166 73.604538 
L 168.526633 72.376563 
L 169.260101 71.151678 
L 169.993568 69.933619 
L 170.727035 68.720572 
L 171.460503 67.512244 
L 172.19397 66.306274 
L 172.927437 65.093488 
L 173.660905 63.897033 
L 174.394372 62.887425 
L 175.127839 61.916857 
L 175.861307 60.978003 
L 176.594774 60.063462 
L 177.328241 59.169428 
L 178.061709 58.298002 
L 178.795176 57.43573 
L 179.528643 56.585289 
L 180.262111 55.742177 
L 180.995578 54.908681 
L 181.729045 54.081127 
L 182.462513 53.255707 
L 183.19598 52.437129 
L 183.929447 51.625459 
L 184.662915 50.817084 
L 185.396382 50.016812 
L 186.129849 49.222629 
L 186.863317 48.434263 
L 187.596784 47.646314 
L 188.330251 46.85974 
L 189.063719 46.078971 
L 189.797186 45.300832 
L 190.530653 44.525228 
L 191.264121 43.750796 
L 191.997588 42.977345 
L 192.731055 42.204144 
L 193.464523 41.431364 
L 194.19799 40.659122 
L 194.931457 39.88785 
L 195.664925 39.115537 
L 196.398392 38.343296 
L 197.131859 37.571037 
L 197.865327 36.798297 
L 198.598794 36.025967 
L 199.332261 35.254615 
L 200.065729 34.483302 
L 200.799196 33.711867 
L 201.532663 32.940192 
L 202.266131 32.168485 
L 202.999598 31.396814 
L 203.733065 30.625166 
L 204.466533 29.853616 
L 205.2 29.082154 
L 205.2 19.79081 
L 205.2 19.79081 
L 204.466533 20.767062 
L 203.733065 21.743163 
L 202.999598 22.719092 
L 202.266131 23.694982 
L 201.532663 24.670836 
L 200.799196 25.647135 
L 200.065729 26.624047 
L 199.332261 27.6013 
L 198.598794 28.578514 
L 197.865327 29.556734 
L 197.131859 30.53529 
L 196.398392 31.515031 
L 195.664925 32.494904 
L 194.931457 33.474729 
L 194.19799 34.457946 
L 193.464523 35.441318 
L 192.731055 36.424622 
L 191.997588 37.407917 
L 191.264121 38.391489 
L 190.530653 39.377379 
L 189.797186 40.363796 
L 189.063719 41.35045 
L 188.330251 42.336135 
L 187.596784 43.32222 
L 186.863317 44.309676 
L 186.129849 45.29717 
L 185.396382 46.290803 
L 184.662915 47.29016 
L 183.929447 48.290925 
L 183.19598 49.291036 
L 182.462513 50.294114 
L 181.729045 51.294061 
L 180.995578 52.301417 
L 180.262111 53.313647 
L 179.528643 54.333273 
L 178.795176 55.357561 
L 178.061709 56.386083 
L 177.328241 57.413812 
L 176.594774 58.452131 
L 175.861307 59.49292 
L 175.127839 60.54853 
L 174.394372 61.609505 
L 173.660905 62.690508 
L 172.927437 63.822898 
L 172.19397 65.005334 
L 171.460503 66.242957 
L 170.727035 67.493372 
L 169.993568 68.746788 
L 169.260101 69.99582 
L 168.526633 71.241562 
L 167.793166 72.483817 
L 167.059698 73.72042 
L 166.326231 74.950538 
L 165.592764 76.174813 
L 164.859296 77.394376 
L 164.125829 78.584019 
L 163.392362 79.772132 
L 162.658894 80.96003 
L 161.925427 82.128024 
L 161.19196 83.237243 
L 160.458492 84.235955 
L 159.725025 85.068124 
L 158.991558 85.823848 
L 158.25809 86.526735 
L 157.524623 87.178442 
L 156.791156 87.747548 
L 156.057688 88.260653 
L 155.324221 88.725731 
L 154.590754 89.13836 
L 153.857286 89.509691 
L 153.123819 89.855184 
L 152.390352 90.190012 
L 151.656884 90.512035 
L 150.923417 90.826166 
L 150.18995 91.131822 
L 149.456482 91.422567 
L 148.723015 91.692956 
L 147.989548 91.910803 
L 147.25608 92.094728 
L 146.522613 92.258722 
L 145.789146 92.410225 
L 145.055678 92.550348 
L 144.322211 92.678841 
L 143.588744 92.807869 
L 142.855276 92.940852 
L 142.121809 93.057212 
L 141.388342 93.157716 
L 140.654874 93.25533 
L 139.921407 93.353947 
L 139.18794 93.449247 
L 138.454472 93.538961 
L 137.721005 93.608163 
L 136.987538 93.655088 
L 136.25407 93.699576 
L 135.520603 93.740215 
L 134.787136 93.774555 
L 134.053668 93.796223 
L 133.320201 93.809736 
L 132.586734 93.819986 
L 131.853266 93.827458 
L 131.119799 93.83586 
L 130.386332 93.84465 
L 129.652864 93.850395 
L 128.919397 93.851712 
L 128.18593 93.848549 
L 127.452462 93.84774 
L 126.718995 93.854323 
L 125.985528 93.869801 
L 125.25206 93.904073 
L 124.518593 93.964148 
L 123.785126 94.047045 
L 123.051658 94.13604 
L 122.318191 94.246874 
L 121.584724 94.365865 
L 120.851256 94.495568 
L 120.117789 94.651367 
L 119.384322 94.820279 
L 118.650854 95.012562 
L 117.917387 95.225663 
L 117.18392 95.45546 
L 116.450452 95.692529 
L 115.716985 95.947065 
L 114.983518 96.233104 
L 114.25005 96.537775 
L 113.516583 96.891388 
L 112.783116 97.285457 
L 112.049648 97.68363 
L 111.316181 98.101061 
L 110.582714 98.507311 
L 109.849246 98.944505 
L 109.115779 99.404174 
L 108.382312 99.925923 
L 107.648844 100.538021 
L 106.915377 101.173214 
L 106.18191 101.826104 
L 105.448442 102.534465 
L 104.714975 103.248101 
L 103.981508 103.975703 
L 103.24804 104.771618 
L 102.514573 105.660372 
L 101.781106 106.600213 
L 101.047638 107.641541 
L 100.314171 108.807275 
L 99.580704 110.014881 
L 98.847236 111.229374 
L 98.113769 112.441696 
L 97.380302 113.65141 
L 96.646834 114.856477 
L 95.913367 116.058781 
L 95.179899 117.258638 
L 94.446432 118.457246 
L 93.712965 119.647684 
L 92.979497 120.819212 
L 92.24603 121.977903 
L 91.512563 123.128846 
L 90.779095 124.254984 
L 90.045628 125.262909 
L 89.312161 126.21553 
L 88.578693 127.134536 
L 87.845226 128.028016 
L 87.111759 128.897595 
L 86.378291 129.747036 
L 85.644824 130.578758 
L 84.911357 131.395799 
L 84.177889 132.195044 
L 83.444422 132.966876 
L 82.710955 133.732796 
L 81.977487 134.493617 
L 81.24402 135.249575 
L 80.510553 136.000243 
L 79.777085 136.749142 
L 79.043618 137.497624 
L 78.310151 138.24329 
L 77.576683 138.984161 
L 76.843216 139.722429 
L 76.109749 140.459273 
L 75.376281 141.195075 
L 74.642814 141.930348 
L 73.909347 142.664072 
L 73.175879 143.398578 
L 72.442412 144.134631 
L 71.708945 144.870775 
L 70.975477 145.606559 
L 70.24201 146.342053 
L 69.508543 147.077351 
L 68.775075 147.812487 
L 68.041608 148.547384 
L 67.308141 149.281895 
L 66.574673 150.01627 
L 65.841206 150.7509 
L 65.107739 151.485473 
L 64.374271 152.219936 
L 63.640804 152.954236 
L 62.907337 153.688384 
L 62.173869 154.42241 
L 61.440402 155.15636 
L 60.706935 155.886874 
L 59.973467 156.616661 
L 59.24 157.346407 
z
" clip-path="url(#p7559afd3b0)" style="fill: #ac69da; fill-opacity: 0.3"/>
   </g>
   <g id="FillBetweenPolyCollection_3">
    <path d="M 59.24 151.692915 
L 59.24 174.306882 
L 59.973467 173.17523 
L 60.706935 172.043637 
L 61.440402 170.912658 
L 62.173869 169.785015 
L 62.907337 168.657513 
L 63.640804 167.530096 
L 64.374271 166.403164 
L 65.107739 165.27526 
L 65.841206 164.146614 
L 66.574673 163.018097 
L 67.308141 161.889469 
L 68.041608 160.761077 
L 68.775075 159.632983 
L 69.508543 158.505222 
L 70.24201 157.377796 
L 70.975477 156.250738 
L 71.708945 155.124041 
L 72.442412 153.997748 
L 73.175879 152.87029 
L 73.909347 151.735496 
L 74.642814 150.60006 
L 75.376281 149.465573 
L 76.109749 148.331962 
L 76.843216 147.198173 
L 77.576683 146.065715 
L 78.310151 144.935716 
L 79.043618 143.809011 
L 79.777085 142.683394 
L 80.510553 141.553409 
L 81.24402 140.424873 
L 81.977487 139.308096 
L 82.710955 138.191043 
L 83.444422 137.068438 
L 84.177889 135.944911 
L 84.911357 134.848078 
L 85.644824 133.762544 
L 86.378291 132.688047 
L 87.111759 131.633761 
L 87.845226 130.592921 
L 88.578693 129.579716 
L 89.312161 128.589957 
L 90.045628 127.626983 
L 90.779095 126.685461 
L 91.512563 125.610256 
L 92.24603 124.461632 
L 92.979497 123.299726 
L 93.712965 122.130304 
L 94.446432 120.95412 
L 95.179899 119.775369 
L 95.913367 118.586301 
L 96.646834 117.401719 
L 97.380302 116.222214 
L 98.113769 115.048109 
L 98.847236 113.879456 
L 99.580704 112.71382 
L 100.314171 111.561394 
L 101.047638 110.444994 
L 101.781106 109.41153 
L 102.514573 108.449822 
L 103.24804 107.488981 
L 103.981508 106.482218 
L 104.714975 105.54673 
L 105.448442 104.688154 
L 106.18191 103.884192 
L 106.915377 103.071212 
L 107.648844 102.312821 
L 108.382312 101.679074 
L 109.115779 101.106941 
L 109.849246 100.513616 
L 110.582714 99.961055 
L 111.316181 99.44007 
L 112.049648 98.986902 
L 112.783116 98.595798 
L 113.516583 98.286524 
L 114.25005 97.99861 
L 114.983518 97.73361 
L 115.716985 97.478382 
L 116.450452 97.21031 
L 117.18392 96.958992 
L 117.917387 96.773086 
L 118.650854 96.589176 
L 119.384322 96.39527 
L 120.117789 96.190916 
L 120.851256 95.987386 
L 121.584724 95.786004 
L 122.318191 95.651084 
L 123.051658 95.54274 
L 123.785126 95.442207 
L 124.518593 95.358194 
L 125.25206 95.279473 
L 125.985528 95.191477 
L 126.718995 95.098304 
L 127.452462 95.007015 
L 128.18593 94.916855 
L 128.919397 94.829529 
L 129.652864 94.757672 
L 130.386332 94.709152 
L 131.119799 94.664545 
L 131.853266 94.624296 
L 132.586734 94.586113 
L 133.320201 94.552529 
L 134.053668 94.520012 
L 134.787136 94.491017 
L 135.520603 94.444727 
L 136.25407 94.389154 
L 136.987538 94.322877 
L 137.721005 94.253792 
L 138.454472 94.203677 
L 139.18794 94.168401 
L 139.921407 94.123469 
L 140.654874 94.074771 
L 141.388342 94.008913 
L 142.121809 93.932013 
L 142.855276 93.855845 
L 143.588744 93.771736 
L 144.322211 93.658416 
L 145.055678 93.522171 
L 145.789146 93.3713 
L 146.522613 93.214221 
L 147.25608 93.037704 
L 147.989548 92.841388 
L 148.723015 92.642919 
L 149.456482 92.483827 
L 150.18995 92.323979 
L 150.923417 92.161859 
L 151.656884 91.970471 
L 152.390352 91.776212 
L 153.123819 91.532668 
L 153.857286 91.212001 
L 154.590754 90.81813 
L 155.324221 90.373576 
L 156.057688 89.82287 
L 156.791156 89.273631 
L 157.524623 88.708766 
L 158.25809 88.137481 
L 158.991558 87.461631 
L 159.725025 86.570167 
L 160.458492 85.656604 
L 161.19196 84.775373 
L 161.925427 83.754 
L 162.658894 82.728164 
L 163.392362 81.595007 
L 164.125829 80.369066 
L 164.859296 79.121552 
L 165.592764 77.884749 
L 166.326231 76.633593 
L 167.059698 75.393926 
L 167.793166 74.164899 
L 168.526633 72.944063 
L 169.260101 71.729606 
L 169.993568 70.527035 
L 170.727035 69.334172 
L 171.460503 68.146888 
L 172.19397 66.956744 
L 172.927437 65.728783 
L 173.660905 64.500295 
L 174.394372 63.526385 
L 175.127839 62.60102 
L 175.861307 61.720544 
L 176.594774 60.869128 
L 177.328241 60.047236 
L 178.061709 59.253962 
L 178.795176 58.474814 
L 179.528643 57.711297 
L 180.262111 56.956442 
L 180.995578 56.212313 
L 181.729045 55.47466 
L 182.462513 54.736504 
L 183.19598 54.010175 
L 183.929447 53.292727 
L 184.662915 52.580546 
L 185.396382 51.879817 
L 186.129849 51.185359 
L 186.863317 50.496557 
L 187.596784 49.80836 
L 188.330251 49.121542 
L 189.063719 48.443232 
L 189.797186 47.76935 
L 190.530653 47.099152 
L 191.264121 46.430449 
L 191.997588 45.762059 
L 192.731055 45.093905 
L 193.464523 44.426387 
L 194.19799 43.75971 
L 194.931457 43.094411 
L 195.664925 42.425853 
L 196.398392 41.757429 
L 197.131859 41.088911 
L 197.865327 40.419078 
L 198.598794 39.749693 
L 199.332261 39.081273 
L 200.065729 38.412929 
L 200.799196 37.744234 
L 201.532663 37.07487 
L 202.266131 36.405236 
L 202.999598 35.735675 
L 203.733065 35.066167 
L 204.466533 34.396893 
L 205.2 33.727826 
L 205.2 15.145138 
L 205.2 15.145138 
L 204.466533 16.223786 
L 203.733065 17.302162 
L 202.999598 18.380231 
L 202.266131 19.458231 
L 201.532663 20.536158 
L 200.799196 21.614769 
L 200.065729 22.69442 
L 199.332261 23.774642 
L 198.598794 24.854788 
L 197.865327 25.935953 
L 197.131859 27.017416 
L 196.398392 28.100898 
L 195.664925 29.184588 
L 194.931457 30.268169 
L 194.19799 31.357358 
L 193.464523 32.446295 
L 192.731055 33.53486 
L 191.997588 34.623203 
L 191.264121 35.711836 
L 190.530653 36.803454 
L 189.797186 37.895279 
L 189.063719 38.98619 
L 188.330251 40.074333 
L 187.596784 41.160173 
L 186.863317 42.247383 
L 186.129849 43.33444 
L 185.396382 44.427798 
L 184.662915 45.526699 
L 183.929447 46.623657 
L 183.19598 47.717989 
L 182.462513 48.813317 
L 181.729045 49.900528 
L 180.995578 50.997786 
L 180.262111 52.099382 
L 179.528643 53.207265 
L 178.795176 54.318477 
L 178.061709 55.430124 
L 177.328241 56.536003 
L 176.594774 57.646466 
L 175.861307 58.750379 
L 175.127839 59.864366 
L 174.394372 60.970545 
L 173.660905 62.087246 
L 172.927437 63.187602 
L 172.19397 64.354864 
L 171.460503 65.608313 
L 170.727035 66.879772 
L 169.993568 68.153372 
L 169.260101 69.417891 
L 168.526633 70.674062 
L 167.793166 71.923456 
L 167.059698 73.162585 
L 166.326231 74.389519 
L 165.592764 75.604834 
L 164.859296 76.818651 
L 164.125829 77.989003 
L 163.392362 79.164507 
L 162.658894 80.370652 
L 161.925427 81.586031 
L 161.19196 82.724532 
L 160.458492 83.762405 
L 159.725025 84.567443 
L 158.991558 85.27792 
L 158.25809 85.989819 
L 157.524623 86.668334 
L 156.791156 87.238853 
L 156.057688 87.739915 
L 155.324221 88.17645 
L 154.590754 88.578437 
L 153.857286 88.942255 
L 153.123819 89.296022 
L 152.390352 89.661279 
L 151.656884 90.02589 
L 150.923417 90.380934 
L 150.18995 90.734436 
L 149.456482 91.068814 
L 148.723015 91.376302 
L 147.989548 91.600607 
L 147.25608 91.780402 
L 146.522613 91.940223 
L 145.789146 92.089867 
L 145.055678 92.226407 
L 144.322211 92.352315 
L 143.588744 92.48658 
L 142.855276 92.635854 
L 142.121809 92.765612 
L 141.388342 92.873984 
L 140.654874 92.982184 
L 139.921407 93.097439 
L 139.18794 93.209529 
L 138.454472 93.317389 
L 137.721005 93.392954 
L 136.987538 93.432492 
L 136.25407 93.469717 
L 135.520603 93.505377 
L 134.787136 93.535734 
L 134.053668 93.554961 
L 133.320201 93.562138 
L 132.586734 93.564611 
L 131.853266 93.561845 
L 131.119799 93.559632 
L 130.386332 93.556482 
L 129.652864 93.54797 
L 128.919397 93.525772 
L 128.18593 93.492446 
L 127.452462 93.461315 
L 126.718995 93.439663 
L 125.985528 93.429243 
L 125.25206 93.445606 
L 124.518593 93.499466 
L 123.785126 93.581992 
L 123.051658 93.667141 
L 122.318191 93.778804 
L 121.584724 93.892486 
L 120.851256 93.998296 
L 120.117789 94.138184 
L 119.384322 94.295283 
L 118.650854 94.487024 
L 117.917387 94.709855 
L 117.18392 94.954283 
L 116.450452 95.186602 
L 115.716985 95.436626 
L 114.983518 95.732936 
L 114.25005 96.05083 
L 113.516583 96.426343 
L 112.783116 96.848677 
L 112.049648 97.249207 
L 111.316181 97.654724 
L 110.582714 98.022729 
L 109.849246 98.421468 
L 109.115779 98.836585 
L 108.382312 99.34154 
L 107.648844 99.946421 
L 106.915377 100.540548 
L 106.18191 101.140074 
L 105.448442 101.816568 
L 104.714975 102.481891 
L 103.981508 103.140198 
L 103.24804 103.86583 
L 102.514573 104.730555 
L 101.781106 105.663108 
L 101.047638 106.707057 
L 100.314171 107.889235 
L 99.580704 109.115234 
L 98.847236 110.346013 
L 98.113769 111.572891 
L 97.380302 112.794475 
L 96.646834 114.008063 
L 95.913367 115.216274 
L 95.179899 116.419728 
L 94.446432 117.624955 
L 93.712965 118.820143 
L 92.979497 119.992375 
L 92.24603 121.149993 
L 91.512563 122.301709 
L 90.779095 123.444824 
L 90.045628 124.474884 
L 89.312161 125.424055 
L 88.578693 126.319475 
L 87.845226 127.173048 
L 87.111759 127.98554 
L 86.378291 128.766699 
L 85.644824 129.517496 
L 84.911357 130.245039 
L 84.177889 130.945089 
L 83.444422 131.599689 
L 82.710955 132.246714 
L 81.977487 132.888791 
L 81.24402 133.524476 
L 80.510553 134.149188 
L 79.777085 134.771058 
L 79.043618 135.393828 
L 78.310151 136.012481 
L 77.576683 136.623643 
L 76.843216 137.230514 
L 76.109749 137.835043 
L 75.376281 138.438243 
L 74.642814 139.040444 
L 73.909347 139.640263 
L 73.175879 140.24134 
L 72.442412 140.846925 
L 71.708945 141.45302 
L 70.975477 142.058499 
L 70.24201 142.663471 
L 69.508543 143.26806 
L 68.775075 143.872322 
L 68.041608 144.476153 
L 67.308141 145.079371 
L 66.574673 145.682327 
L 65.841206 146.285662 
L 65.107739 146.888878 
L 64.374271 147.492194 
L 63.640804 148.095615 
L 62.907337 148.698674 
L 62.173869 149.301542 
L 61.440402 149.90426 
L 60.706935 150.501286 
L 59.973467 151.097138 
L 59.24 151.692915 
z
" clip-path="url(#p7559afd3b0)" style="fill: #ac69da; fill-opacity: 0.3"/>
   </g>
   <g id="FillBetweenPolyCollection_4">
    <path d="M 59.24 146.039424 
L 59.24 179.960373 
L 59.973467 178.694753 
L 60.706935 177.429225 
L 61.440402 176.164758 
L 62.173869 174.905883 
L 62.907337 173.647222 
L 63.640804 172.388717 
L 64.374271 171.130907 
L 65.107739 169.871855 
L 65.841206 168.611852 
L 66.574673 167.35204 
L 67.308141 166.091993 
L 68.041608 164.832308 
L 68.775075 163.573148 
L 69.508543 162.314512 
L 70.24201 161.056378 
L 70.975477 159.798798 
L 71.708945 158.541796 
L 72.442412 157.285454 
L 73.175879 156.027527 
L 73.909347 154.759304 
L 74.642814 153.489964 
L 75.376281 152.222405 
L 76.109749 150.956191 
L 76.843216 149.690088 
L 77.576683 148.426233 
L 78.310151 147.166524 
L 79.043618 145.912807 
L 79.777085 144.661478 
L 80.510553 143.404465 
L 81.24402 142.149972 
L 81.977487 140.912922 
L 82.710955 139.677125 
L 83.444422 138.435626 
L 84.177889 137.194867 
L 84.911357 135.998838 
L 85.644824 134.823806 
L 86.378291 133.668384 
L 87.111759 132.545817 
L 87.845226 131.447889 
L 88.578693 130.394776 
L 89.312161 129.381432 
L 90.045628 128.415008 
L 90.779095 127.495621 
L 91.512563 126.437392 
L 92.24603 125.289541 
L 92.979497 124.126564 
L 93.712965 122.957845 
L 94.446432 121.786412 
L 95.179899 120.614279 
L 95.913367 119.428807 
L 96.646834 118.250132 
L 97.380302 117.079148 
L 98.113769 115.916913 
L 98.847236 114.762817 
L 99.580704 113.613466 
L 100.314171 112.479434 
L 101.047638 111.379479 
L 101.781106 110.348635 
L 102.514573 109.379638 
L 103.24804 108.394769 
L 103.981508 107.317723 
L 104.714975 106.31294 
L 105.448442 105.40605 
L 106.18191 104.570221 
L 106.915377 103.703878 
L 107.648844 102.904421 
L 108.382312 102.263458 
L 109.115779 101.67453 
L 109.849246 101.036653 
L 110.582714 100.445636 
L 111.316181 99.886406 
L 112.049648 99.421325 
L 112.783116 99.032578 
L 113.516583 98.751569 
L 114.25005 98.485555 
L 114.983518 98.233779 
L 115.716985 97.988822 
L 116.450452 97.716237 
L 117.18392 97.460169 
L 117.917387 97.288894 
L 118.650854 97.114714 
L 119.384322 96.920266 
L 120.117789 96.704099 
L 120.851256 96.484659 
L 121.584724 96.259384 
L 122.318191 96.119153 
L 123.051658 96.011639 
L 123.785126 95.907261 
L 124.518593 95.822876 
L 125.25206 95.73794 
L 125.985528 95.632035 
L 126.718995 95.512965 
L 127.452462 95.39344 
L 128.18593 95.272957 
L 128.919397 95.155469 
L 129.652864 95.060098 
L 130.386332 94.99732 
L 131.119799 94.940773 
L 131.853266 94.889908 
L 132.586734 94.841488 
L 133.320201 94.800127 
L 134.053668 94.761275 
L 134.787136 94.729838 
L 135.520603 94.679565 
L 136.25407 94.619013 
L 136.987538 94.545473 
L 137.721005 94.469002 
L 138.454472 94.425249 
L 139.18794 94.408119 
L 139.921407 94.379976 
L 140.654874 94.347918 
L 141.388342 94.292646 
L 142.121809 94.223613 
L 142.855276 94.160843 
L 143.588744 94.093025 
L 144.322211 93.984942 
L 145.055678 93.846113 
L 145.789146 93.691658 
L 146.522613 93.532721 
L 147.25608 93.35203 
L 147.989548 93.151584 
L 148.723015 92.959574 
L 149.456482 92.83758 
L 150.18995 92.721365 
L 150.923417 92.607091 
L 151.656884 92.456617 
L 152.390352 92.304946 
L 153.123819 92.09183 
L 153.857286 91.779438 
L 154.590754 91.378053 
L 155.324221 90.922858 
L 156.057688 90.343608 
L 156.791156 89.782326 
L 157.524623 89.218874 
L 158.25809 88.674397 
L 158.991558 88.007559 
L 159.725025 87.070848 
L 160.458492 86.130154 
L 161.19196 85.288083 
L 161.925427 84.295992 
L 162.658894 83.317541 
L 163.392362 82.202632 
L 164.125829 80.964082 
L 164.859296 79.697277 
L 165.592764 78.454728 
L 166.326231 77.194612 
L 167.059698 75.951762 
L 167.793166 74.725259 
L 168.526633 73.511564 
L 169.260101 72.307535 
L 169.993568 71.120451 
L 170.727035 69.947772 
L 171.460503 68.781532 
L 172.19397 67.607215 
L 172.927437 66.364078 
L 173.660905 65.103558 
L 174.394372 64.165346 
L 175.127839 63.285184 
L 175.861307 62.463085 
L 176.594774 61.674793 
L 177.328241 60.925045 
L 178.061709 60.209921 
L 178.795176 59.513899 
L 179.528643 58.837305 
L 180.262111 58.170707 
L 180.995578 57.515945 
L 181.729045 56.868193 
L 182.462513 56.217301 
L 183.19598 55.583222 
L 183.929447 54.959994 
L 184.662915 54.344007 
L 185.396382 53.742822 
L 186.129849 53.148088 
L 186.863317 52.55885 
L 187.596784 51.970407 
L 188.330251 51.383344 
L 189.063719 50.807492 
L 189.797186 50.237867 
L 190.530653 49.673077 
L 191.264121 49.110103 
L 191.997588 48.546773 
L 192.731055 47.983666 
L 193.464523 47.421409 
L 194.19799 46.860297 
L 194.931457 46.300972 
L 195.664925 45.73617 
L 196.398392 45.171562 
L 197.131859 44.606785 
L 197.865327 44.03986 
L 198.598794 43.473419 
L 199.332261 42.907931 
L 200.065729 42.342557 
L 200.799196 41.7766 
L 201.532663 41.209548 
L 202.266131 40.641988 
L 202.999598 40.074536 
L 203.733065 39.507168 
L 204.466533 38.94017 
L 205.2 38.373498 
L 205.2 10.499466 
L 205.2 10.499466 
L 204.466533 11.680509 
L 203.733065 12.861161 
L 202.999598 14.04137 
L 202.266131 15.221479 
L 201.532663 16.40148 
L 200.799196 17.582403 
L 200.065729 18.764793 
L 199.332261 19.947984 
L 198.598794 21.131061 
L 197.865327 22.315171 
L 197.131859 23.499542 
L 196.398392 24.686766 
L 195.664925 25.874272 
L 194.931457 27.061608 
L 194.19799 28.25677 
L 193.464523 29.451272 
L 192.731055 30.645099 
L 191.997588 31.838489 
L 191.264121 33.032183 
L 190.530653 34.229529 
L 189.797186 35.426761 
L 189.063719 36.621929 
L 188.330251 37.81253 
L 187.596784 38.998127 
L 186.863317 40.185089 
L 186.129849 41.37171 
L 185.396382 42.564793 
L 184.662915 43.763237 
L 183.929447 44.95639 
L 183.19598 46.144943 
L 182.462513 47.33252 
L 181.729045 48.506995 
L 180.995578 49.694154 
L 180.262111 50.885117 
L 179.528643 52.081258 
L 178.795176 53.279393 
L 178.061709 54.474164 
L 177.328241 55.658195 
L 176.594774 56.8408 
L 175.861307 58.007838 
L 175.127839 59.180203 
L 174.394372 60.331584 
L 173.660905 61.483983 
L 172.927437 62.552307 
L 172.19397 63.704394 
L 171.460503 64.97367 
L 170.727035 66.266172 
L 169.993568 67.559956 
L 169.260101 68.839963 
L 168.526633 70.106561 
L 167.793166 71.363096 
L 167.059698 72.60475 
L 166.326231 73.828501 
L 165.592764 75.034855 
L 164.859296 76.242925 
L 164.125829 77.393987 
L 163.392362 78.556882 
L 162.658894 79.781274 
L 161.925427 81.044039 
L 161.19196 82.211822 
L 160.458492 83.288855 
L 159.725025 84.066761 
L 158.991558 84.731993 
L 158.25809 85.452904 
L 157.524623 86.158226 
L 156.791156 86.730158 
L 156.057688 87.219176 
L 155.324221 87.627168 
L 154.590754 88.018514 
L 153.857286 88.374818 
L 153.123819 88.736861 
L 152.390352 89.132545 
L 151.656884 89.539744 
L 150.923417 89.935703 
L 150.18995 90.33705 
L 149.456482 90.715061 
L 148.723015 91.059648 
L 147.989548 91.290412 
L 147.25608 91.466077 
L 146.522613 91.621723 
L 145.789146 91.769509 
L 145.055678 91.902466 
L 144.322211 92.02579 
L 143.588744 92.165291 
L 142.855276 92.330856 
L 142.121809 92.474012 
L 141.388342 92.590252 
L 140.654874 92.709037 
L 139.921407 92.840932 
L 139.18794 92.969811 
L 138.454472 93.095817 
L 137.721005 93.177744 
L 136.987538 93.209896 
L 136.25407 93.239858 
L 135.520603 93.27054 
L 134.787136 93.296914 
L 134.053668 93.313698 
L 133.320201 93.31454 
L 132.586734 93.309235 
L 131.853266 93.296232 
L 131.119799 93.283404 
L 130.386332 93.268315 
L 129.652864 93.245544 
L 128.919397 93.199833 
L 128.18593 93.136344 
L 127.452462 93.074891 
L 126.718995 93.025002 
L 125.985528 92.988684 
L 125.25206 92.98714 
L 124.518593 93.034784 
L 123.785126 93.116938 
L 123.051658 93.198241 
L 122.318191 93.310735 
L 121.584724 93.419106 
L 120.851256 93.501023 
L 120.117789 93.625001 
L 119.384322 93.770286 
L 118.650854 93.961486 
L 117.917387 94.194048 
L 117.18392 94.453106 
L 116.450452 94.680674 
L 115.716985 94.926187 
L 114.983518 95.232767 
L 114.25005 95.563884 
L 113.516583 95.961297 
L 112.783116 96.411897 
L 112.049648 96.814783 
L 111.316181 97.208388 
L 110.582714 97.538148 
L 109.849246 97.898431 
L 109.115779 98.268996 
L 108.382312 98.757156 
L 107.648844 99.354821 
L 106.915377 99.907882 
L 106.18191 100.454045 
L 105.448442 101.098672 
L 104.714975 101.715682 
L 103.981508 102.304693 
L 103.24804 102.960042 
L 102.514573 103.800738 
L 101.781106 104.726002 
L 101.047638 105.772573 
L 100.314171 106.971195 
L 99.580704 108.215588 
L 98.847236 109.462652 
L 98.113769 110.704087 
L 97.380302 111.937541 
L 96.646834 113.159649 
L 95.913367 114.373767 
L 95.179899 115.580817 
L 94.446432 116.792663 
L 93.712965 117.992603 
L 92.979497 119.165537 
L 92.24603 120.322083 
L 91.512563 121.474572 
L 90.779095 122.634665 
L 90.045628 123.686859 
L 89.312161 124.63258 
L 88.578693 125.504415 
L 87.845226 126.318079 
L 87.111759 127.073484 
L 86.378291 127.786362 
L 85.644824 128.456234 
L 84.911357 129.09428 
L 84.177889 129.695133 
L 83.444422 130.232502 
L 82.710955 130.760632 
L 81.977487 131.283964 
L 81.24402 131.799376 
L 80.510553 132.298132 
L 79.777085 132.792974 
L 79.043618 133.290032 
L 78.310151 133.781672 
L 77.576683 134.263125 
L 76.843216 134.7386 
L 76.109749 135.210814 
L 75.376281 135.68141 
L 74.642814 136.15054 
L 73.909347 136.616455 
L 73.175879 137.084103 
L 72.442412 137.55922 
L 71.708945 138.035264 
L 70.975477 138.510439 
L 70.24201 138.98489 
L 69.508543 139.45877 
L 68.775075 139.932157 
L 68.041608 140.404922 
L 67.308141 140.876846 
L 66.574673 141.348385 
L 65.841206 141.820424 
L 65.107739 142.292283 
L 64.374271 142.764451 
L 63.640804 143.236995 
L 62.907337 143.708965 
L 62.173869 144.180674 
L 61.440402 144.652161 
L 60.706935 145.115698 
L 59.973467 145.577615 
L 59.24 146.039424 
z
" clip-path="url(#p7559afd3b0)" style="fill: #ac69da; fill-opacity: 0.3"/>
   </g>
   <g id="matplotlib.axis_1">
    <g id="xtick_1">
     <g id="line2d_1">
      <defs>
       <path id="m06442fb60e" d="M 0 0 
L 0 3.5 
" style="stroke: #000000; stroke-width: 0.8"/>
      </defs>
      <g>
       <use xlink:href="#m06442fb60e" x="80.091429" y="174.04" style="stroke: #000000; stroke-width: 0.8"/>
      </g>
     </g>
     <g id="text_1">
      <!-- −5 -->
      <g transform="translate(72.720335 188.638438) scale(0.1 -0.1)">
       <defs>
        <path id="DejaVuSans-2212" d="M 678 2272 
L 4684 2272 
L 4684 1741 
L 678 1741 
L 678 2272 
z
" transform="scale(0.015625)"/>
        <path id="DejaVuSans-35" d="M 691 4666 
L 3169 4666 
L 3169 4134 
L 1269 4134 
L 1269 2991 
Q 1406 3038 1543 3061 
Q 1681 3084 1819 3084 
Q 2600 3084 3056 2656 
Q 3513 2228 3513 1497 
Q 3513 744 3044 326 
Q 2575 -91 1722 -91 
Q 1428 -91 1123 -41 
Q 819 9 494 109 
L 494 744 
Q 775 591 1075 516 
Q 1375 441 1709 441 
Q 2250 441 2565 725 
Q 2881 1009 2881 1497 
Q 2881 1984 2565 2268 
Q 2250 2553 1709 2553 
Q 1456 2553 1204 2497 
Q 953 2441 691 2322 
L 691 4666 
z
" transform="scale(0.015625)"/>
       </defs>
       <use xlink:href="#DejaVuSans-2212"/>
       <use xlink:href="#DejaVuSans-35" transform="translate(83.789062 0)"/>
      </g>
     </g>
    </g>
    <g id="xtick_2">
     <g id="line2d_2">
      <g>
       <use xlink:href="#m06442fb60e" x="132.22" y="174.04" style="stroke: #000000; stroke-width: 0.8"/>
      </g>
     </g>
     <g id="text_2">
      <!-- 0 -->
      <g transform="translate(129.03875 188.638438) scale(0.1 -0.1)">
       <defs>
        <path id="DejaVuSans-30" d="M 2034 4250 
Q 1547 4250 1301 3770 
Q 1056 3291 1056 2328 
Q 1056 1369 1301 889 
Q 1547 409 2034 409 
Q 2525 409 2770 889 
Q 3016 1369 3016 2328 
Q 3016 3291 2770 3770 
Q 2525 4250 2034 4250 
z
M 2034 4750 
Q 2819 4750 3233 4129 
Q 3647 3509 3647 2328 
Q 3647 1150 3233 529 
Q 2819 -91 2034 -91 
Q 1250 -91 836 529 
Q 422 1150 422 2328 
Q 422 3509 836 4129 
Q 1250 4750 2034 4750 
z
" transform="scale(0.015625)"/>
       </defs>
       <use xlink:href="#DejaVuSans-30"/>
      </g>
     </g>
    </g>
    <g id="xtick_3">
     <g id="line2d_3">
      <g>
       <use xlink:href="#m06442fb60e" x="184.348571" y="174.04" style="stroke: #000000; stroke-width: 0.8"/>
      </g>
     </g>
     <g id="text_3">
      <!-- 5 -->
      <g transform="translate(181.167321 188.638438) scale(0.1 -0.1)">
       <use xlink:href="#DejaVuSans-35"/>
      </g>
     </g>
    </g>
    <g id="text_4">
     <!-- x -->
     <g transform="translate(129.260625 202.316563) scale(0.1 -0.1)">
      <defs>
       <path id="DejaVuSans-78" d="M 3513 3500 
L 2247 1797 
L 3578 0 
L 2900 0 
L 1881 1375 
L 863 0 
L 184 0 
L 1544 1831 
L 300 3500 
L 978 3500 
L 1906 2253 
L 2834 3500 
L 3513 3500 
z
" transform="scale(0.015625)"/>
      </defs>
      <use xlink:href="#DejaVuSans-78"/>
     </g>
    </g>
   </g>
   <g id="matplotlib.axis_2">
    <g id="ytick_1">
     <g id="line2d_4">
      <defs>
       <path id="m3bf7d0bc95" d="M 0 0 
L -3.5 0 
" style="stroke: #000000; stroke-width: 0.8"/>
      </defs>
      <g>
       <use xlink:href="#m3bf7d0bc95" x="59.24" y="174.04" style="stroke: #000000; stroke-width: 0.8"/>
      </g>
     </g>
     <g id="text_5">
      <!-- −150 -->
      <g transform="translate(24.772813 177.839219) scale(0.1 -0.1)">
       <defs>
        <path id="DejaVuSans-31" d="M 794 531 
L 1825 531 
L 1825 4091 
L 703 3866 
L 703 4441 
L 1819 4666 
L 2450 4666 
L 2450 531 
L 3481 531 
L 3481 0 
L 794 0 
L 794 531 
z
" transform="scale(0.015625)"/>
       </defs>
       <use xlink:href="#DejaVuSans-2212"/>
       <use xlink:href="#DejaVuSans-31" transform="translate(83.789062 0)"/>
       <use xlink:href="#DejaVuSans-35" transform="translate(147.412109 0)"/>
       <use xlink:href="#DejaVuSans-30" transform="translate(211.035156 0)"/>
      </g>
     </g>
    </g>
    <g id="ytick_2">
     <g id="line2d_5">
      <g>
       <use xlink:href="#m3bf7d0bc95" x="59.24" y="147.493333" style="stroke: #000000; stroke-width: 0.8"/>
      </g>
     </g>
     <g id="text_6">
      <!-- −100 -->
      <g transform="translate(24.772813 151.292552) scale(0.1 -0.1)">
       <use xlink:href="#DejaVuSans-2212"/>
       <use xlink:href="#DejaVuSans-31" transform="translate(83.789062 0)"/>
       <use xlink:href="#DejaVuSans-30" transform="translate(147.412109 0)"/>
       <use xlink:href="#DejaVuSans-30" transform="translate(211.035156 0)"/>
      </g>
     </g>
    </g>
    <g id="ytick_3">
     <g id="line2d_6">
      <g>
       <use xlink:href="#m3bf7d0bc95" x="59.24" y="120.946667" style="stroke: #000000; stroke-width: 0.8"/>
      </g>
     </g>
     <g id="text_7">
      <!-- −50 -->
      <g transform="translate(31.135313 124.745885) scale(0.1 -0.1)">
       <use xlink:href="#DejaVuSans-2212"/>
       <use xlink:href="#DejaVuSans-35" transform="translate(83.789062 0)"/>
       <use xlink:href="#DejaVuSans-30" transform="translate(147.412109 0)"/>
      </g>
     </g>
    </g>
    <g id="ytick_4">
     <g id="line2d_7">
      <g>
       <use xlink:href="#m3bf7d0bc95" x="59.24" y="94.4" style="stroke: #000000; stroke-width: 0.8"/>
      </g>
     </g>
     <g id="text_8">
      <!-- 0 -->
      <g transform="translate(45.8775 98.199219) scale(0.1 -0.1)">
       <use xlink:href="#DejaVuSans-30"/>
      </g>
     </g>
    </g>
    <g id="ytick_5">
     <g id="line2d_8">
      <g>
       <use xlink:href="#m3bf7d0bc95" x="59.24" y="67.853333" style="stroke: #000000; stroke-width: 0.8"/>
      </g>
     </g>
     <g id="text_9">
      <!-- 50 -->
      <g transform="translate(39.515 71.652552) scale(0.1 -0.1)">
       <use xlink:href="#DejaVuSans-35"/>
       <use xlink:href="#DejaVuSans-30" transform="translate(63.623047 0)"/>
      </g>
     </g>
    </g>
    <g id="ytick_6">
     <g id="line2d_9">
      <g>
       <use xlink:href="#m3bf7d0bc95" x="59.24" y="41.306667" style="stroke: #000000; stroke-width: 0.8"/>
      </g>
     </g>
     <g id="text_10">
      <!-- 100 -->
      <g transform="translate(33.1525 45.105885) scale(0.1 -0.1)">
       <use xlink:href="#DejaVuSans-31"/>
       <use xlink:href="#DejaVuSans-30" transform="translate(63.623047 0)"/>
       <use xlink:href="#DejaVuSans-30" transform="translate(127.246094 0)"/>
      </g>
     </g>
    </g>
    <g id="ytick_7">
     <g id="line2d_10">
      <g>
       <use xlink:href="#m3bf7d0bc95" x="59.24" y="14.76" style="stroke: #000000; stroke-width: 0.8"/>
      </g>
     </g>
     <g id="text_11">
      <!-- 150 -->
      <g transform="translate(33.1525 18.559219) scale(0.1 -0.1)">
       <use xlink:href="#DejaVuSans-31"/>
       <use xlink:href="#DejaVuSans-35" transform="translate(63.623047 0)"/>
       <use xlink:href="#DejaVuSans-30" transform="translate(127.246094 0)"/>
      </g>
     </g>
    </g>
    <g id="text_12">
     <!-- y -->
     <g transform="translate(18.693125 97.359375) rotate(-90) scale(0.1 -0.1)">
      <defs>
       <path id="DejaVuSans-79" d="M 2059 -325 
Q 1816 -950 1584 -1140 
Q 1353 -1331 966 -1331 
L 506 -1331 
L 506 -850 
L 844 -850 
Q 1081 -850 1212 -737 
Q 1344 -625 1503 -206 
L 1606 56 
L 191 3500 
L 800 3500 
L 1894 763 
L 2988 3500 
L 3597 3500 
L 2059 -325 
z
" transform="scale(0.015625)"/>
      </defs>
      <use xlink:href="#DejaVuSans-79"/>
     </g>
    </g>
   </g>
   <g id="line2d_11">
    <path d="M 68.257977 217 
L 70.928488 202.275676 
L 73.558398 188.976728 
L 76.188308 176.818317 
L 78.672112 166.336544 
L 81.155916 156.783419 
L 83.63972 148.115866 
L 85.977417 140.728557 
L 88.315115 134.051632 
L 90.652813 128.049177 
L 92.844404 123.002497 
L 95.035996 118.487459 
L 97.227588 114.474475 
L 99.419179 110.933952 
L 101.464665 108.029626 
L 103.51015 105.487032 
L 105.555636 103.282112 
L 107.601121 101.390808 
L 109.646607 99.789061 
L 111.692092 98.452813 
L 113.883684 97.28841 
L 116.075275 96.37158 
L 118.412973 95.63317 
L 120.896777 95.080194 
L 123.672793 94.692547 
L 126.887127 94.471057 
L 131.562523 94.400133 
L 138.42951 94.287825 
L 141.643844 94.007891 
L 144.41986 93.549279 
L 146.903664 92.916711 
L 149.241361 92.089503 
L 151.432953 91.077195 
L 153.478438 89.898921 
L 155.523924 88.470614 
L 157.569409 86.768216 
L 159.614895 84.767668 
L 161.66038 82.444912 
L 163.705866 79.77589 
L 165.751351 76.736543 
L 167.796837 73.302814 
L 169.842322 69.450644 
L 172.033914 64.831646 
L 174.225506 59.675086 
L 176.417097 53.951374 
L 178.754795 47.187614 
L 181.092492 39.708983 
L 183.43019 31.479567 
L 185.913994 21.873008 
L 188.397798 11.335268 
L 190.881602 -0.176728 
L 191.051274 -1 
L 191.051274 -1 
" clip-path="url(#p7559afd3b0)" style="fill: none; stroke: #000000; stroke-linecap: square"/>
   </g>
   <g id="line2d_12">
    <path d="M 59.24 162.999899 
L 83.444422 134.334064 
L 88.578693 127.949596 
L 90.779095 125.065143 
L 93.712965 120.475224 
L 101.781106 107.537319 
L 103.981508 104.811208 
L 106.18191 102.512133 
L 108.382312 100.510307 
L 110.582714 98.991892 
L 112.783116 97.722237 
L 114.983518 96.733273 
L 117.917387 95.741471 
L 121.584724 94.839245 
L 124.518593 94.42883 
L 128.18593 94.204651 
L 139.18794 93.688965 
L 143.588744 93.129158 
L 147.25608 92.409053 
L 149.456482 91.77632 
L 152.390352 90.718745 
L 154.590754 89.698283 
L 156.057688 88.781392 
L 157.524623 87.68855 
L 158.991558 86.369776 
L 160.458492 84.709505 
L 161.925427 82.670016 
L 164.125829 79.179034 
L 171.460503 66.877601 
L 173.660905 63.29377 
L 176.594774 59.257797 
L 180.995578 53.605049 
L 188.330251 44.597937 
L 205.2 24.436482 
L 205.2 24.436482 
" clip-path="url(#p7559afd3b0)" style="fill: none; stroke: #ff8b50; stroke-width: 1.5; stroke-linecap: square"/>
   </g>
   <g id="patch_3">
    <path d="M 59.24 174.04 
L 59.24 14.76 
" style="fill: none; stroke: #000000; stroke-width: 0.8; stroke-linejoin: miter; stroke-linecap: square"/>
   </g>
   <g id="patch_4">
    <path d="M 205.2 174.04 
L 205.2 14.76 
" style="fill: none; stroke: #000000; stroke-width: 0.8; stroke-linejoin: miter; stroke-linecap: square"/>
   </g>
   <g id="patch_5">
    <path d="M 59.24 174.04 
L 205.2 174.04 
" style="fill: none; stroke: #000000; stroke-width: 0.8; stroke-linejoin: miter; stroke-linecap: square"/>
   </g>
   <g id="patch_6">
    <path d="M 59.24 14.76 
L 205.2 14.76 
" style="fill: none; stroke: #000000; stroke-width: 0.8; stroke-linejoin: miter; stroke-linecap: square"/>
   </g>
   <g id="legend_1">
    <g id="patch_7">
     <path d="M 65.071 70.331513 
L 146.089361 70.331513 
Q 147.755361 70.331513 147.755361 68.665513 
L 147.755361 20.591 
Q 147.755361 18.925 146.089361 18.925 
L 65.071 18.925 
Q 63.405 18.925 63.405 20.591 
L 63.405 68.665513 
Q 63.405 70.331513 65.071 70.331513 
z
" style="fill: #ffffff; opacity: 0.8; stroke: #cccccc; stroke-linejoin: miter"/>
    </g>
    <g id="line2d_13">
     <path d="M 66.737 25.670998 
L 75.067 25.670998 
L 83.397 25.670998 
" style="fill: none; stroke: #000000; stroke-linecap: square"/>
    </g>
    <g id="text_13">
     <!-- True function -->
     <g transform="translate(90.061 28.586498) scale(0.0833 -0.0833)">
      <defs>
       <path id="DejaVuSans-54" d="M -19 4666 
L 3928 4666 
L 3928 4134 
L 2272 4134 
L 2272 0 
L 1638 0 
L 1638 4134 
L -19 4134 
L -19 4666 
z
" transform="scale(0.015625)"/>
       <path id="DejaVuSans-72" d="M 2631 2963 
Q 2534 3019 2420 3045 
Q 2306 3072 2169 3072 
Q 1681 3072 1420 2755 
Q 1159 2438 1159 1844 
L 1159 0 
L 581 0 
L 581 3500 
L 1159 3500 
L 1159 2956 
Q 1341 3275 1631 3429 
Q 1922 3584 2338 3584 
Q 2397 3584 2469 3576 
Q 2541 3569 2628 3553 
L 2631 2963 
z
" transform="scale(0.015625)"/>
       <path id="DejaVuSans-75" d="M 544 1381 
L 544 3500 
L 1119 3500 
L 1119 1403 
Q 1119 906 1312 657 
Q 1506 409 1894 409 
Q 2359 409 2629 706 
Q 2900 1003 2900 1516 
L 2900 3500 
L 3475 3500 
L 3475 0 
L 2900 0 
L 2900 538 
Q 2691 219 2414 64 
Q 2138 -91 1772 -91 
Q 1169 -91 856 284 
Q 544 659 544 1381 
z
M 1991 3584 
L 1991 3584 
z
" transform="scale(0.015625)"/>
       <path id="DejaVuSans-65" d="M 3597 1894 
L 3597 1613 
L 953 1613 
Q 991 1019 1311 708 
Q 1631 397 2203 397 
Q 2534 397 2845 478 
Q 3156 559 3463 722 
L 3463 178 
Q 3153 47 2828 -22 
Q 2503 -91 2169 -91 
Q 1331 -91 842 396 
Q 353 884 353 1716 
Q 353 2575 817 3079 
Q 1281 3584 2069 3584 
Q 2775 3584 3186 3129 
Q 3597 2675 3597 1894 
z
M 3022 2063 
Q 3016 2534 2758 2815 
Q 2500 3097 2075 3097 
Q 1594 3097 1305 2825 
Q 1016 2553 972 2059 
L 3022 2063 
z
" transform="scale(0.015625)"/>
       <path id="DejaVuSans-20" transform="scale(0.015625)"/>
       <path id="DejaVuSans-66" d="M 2375 4863 
L 2375 4384 
L 1825 4384 
Q 1516 4384 1395 4259 
Q 1275 4134 1275 3809 
L 1275 3500 
L 2222 3500 
L 2222 3053 
L 1275 3053 
L 1275 0 
L 697 0 
L 697 3053 
L 147 3053 
L 147 3500 
L 697 3500 
L 697 3744 
Q 697 4328 969 4595 
Q 1241 4863 1831 4863 
L 2375 4863 
z
" transform="scale(0.015625)"/>
       <path id="DejaVuSans-6e" d="M 3513 2113 
L 3513 0 
L 2938 0 
L 2938 2094 
Q 2938 2591 2744 2837 
Q 2550 3084 2163 3084 
Q 1697 3084 1428 2787 
Q 1159 2491 1159 1978 
L 1159 0 
L 581 0 
L 581 3500 
L 1159 3500 
L 1159 2956 
Q 1366 3272 1645 3428 
Q 1925 3584 2291 3584 
Q 2894 3584 3203 3211 
Q 3513 2838 3513 2113 
z
" transform="scale(0.015625)"/>
       <path id="DejaVuSans-63" d="M 3122 3366 
L 3122 2828 
Q 2878 2963 2633 3030 
Q 2388 3097 2138 3097 
Q 1578 3097 1268 2742 
Q 959 2388 959 1747 
Q 959 1106 1268 751 
Q 1578 397 2138 397 
Q 2388 397 2633 464 
Q 2878 531 3122 666 
L 3122 134 
Q 2881 22 2623 -34 
Q 2366 -91 2075 -91 
Q 1284 -91 818 406 
Q 353 903 353 1747 
Q 353 2603 823 3093 
Q 1294 3584 2113 3584 
Q 2378 3584 2631 3529 
Q 2884 3475 3122 3366 
z
" transform="scale(0.015625)"/>
       <path id="DejaVuSans-74" d="M 1172 4494 
L 1172 3500 
L 2356 3500 
L 2356 3053 
L 1172 3053 
L 1172 1153 
Q 1172 725 1289 603 
Q 1406 481 1766 481 
L 2356 481 
L 2356 0 
L 1766 0 
Q 1100 0 847 248 
Q 594 497 594 1153 
L 594 3053 
L 172 3053 
L 172 3500 
L 594 3500 
L 594 4494 
L 1172 4494 
z
" transform="scale(0.015625)"/>
       <path id="DejaVuSans-69" d="M 603 3500 
L 1178 3500 
L 1178 0 
L 603 0 
L 603 3500 
z
M 603 4863 
L 1178 4863 
L 1178 4134 
L 603 4134 
L 603 4863 
z
" transform="scale(0.015625)"/>
       <path id="DejaVuSans-6f" d="M 1959 3097 
Q 1497 3097 1228 2736 
Q 959 2375 959 1747 
Q 959 1119 1226 758 
Q 1494 397 1959 397 
Q 2419 397 2687 759 
Q 2956 1122 2956 1747 
Q 2956 2369 2687 2733 
Q 2419 3097 1959 3097 
z
M 1959 3584 
Q 2709 3584 3137 3096 
Q 3566 2609 3566 1747 
Q 3566 888 3137 398 
Q 2709 -91 1959 -91 
Q 1206 -91 779 398 
Q 353 888 353 1747 
Q 353 2609 779 3096 
Q 1206 3584 1959 3584 
z
" transform="scale(0.015625)"/>
      </defs>
      <use xlink:href="#DejaVuSans-54"/>
      <use xlink:href="#DejaVuSans-72" transform="translate(46.333984 0)"/>
      <use xlink:href="#DejaVuSans-75" transform="translate(87.447266 0)"/>
      <use xlink:href="#DejaVuSans-65" transform="translate(150.826172 0)"/>
      <use xlink:href="#DejaVuSans-20" transform="translate(212.349609 0)"/>
      <use xlink:href="#DejaVuSans-66" transform="translate(244.136719 0)"/>
      <use xlink:href="#DejaVuSans-75" transform="translate(279.341797 0)"/>
      <use xlink:href="#DejaVuSans-6e" transform="translate(342.720703 0)"/>
      <use xlink:href="#DejaVuSans-63" transform="translate(406.099609 0)"/>
      <use xlink:href="#DejaVuSans-74" transform="translate(461.080078 0)"/>
      <use xlink:href="#DejaVuSans-69" transform="translate(500.289062 0)"/>
      <use xlink:href="#DejaVuSans-6f" transform="translate(528.072266 0)"/>
      <use xlink:href="#DejaVuSans-6e" transform="translate(589.253906 0)"/>
     </g>
    </g>
    <g id="PathCollection_2">
     <g>
      <use xlink:href="#mf37615f474" x="75.067" y="38.626752" style="fill-opacity: 0.8; stroke: #000000; stroke-opacity: 0.8"/>
     </g>
    </g>
    <g id="text_14">
     <!-- Training data -->
     <g transform="translate(90.061 40.813377) scale(0.0833 -0.0833)">
      <defs>
       <path id="DejaVuSans-61" d="M 2194 1759 
Q 1497 1759 1228 1600 
Q 959 1441 959 1056 
Q 959 750 1161 570 
Q 1363 391 1709 391 
Q 2188 391 2477 730 
Q 2766 1069 2766 1631 
L 2766 1759 
L 2194 1759 
z
M 3341 1997 
L 3341 0 
L 2766 0 
L 2766 531 
Q 2569 213 2275 61 
Q 1981 -91 1556 -91 
Q 1019 -91 701 211 
Q 384 513 384 1019 
Q 384 1609 779 1909 
Q 1175 2209 1959 2209 
L 2766 2209 
L 2766 2266 
Q 2766 2663 2505 2880 
Q 2244 3097 1772 3097 
Q 1472 3097 1187 3025 
Q 903 2953 641 2809 
L 641 3341 
Q 956 3463 1253 3523 
Q 1550 3584 1831 3584 
Q 2591 3584 2966 3190 
Q 3341 2797 3341 1997 
z
" transform="scale(0.015625)"/>
       <path id="DejaVuSans-67" d="M 2906 1791 
Q 2906 2416 2648 2759 
Q 2391 3103 1925 3103 
Q 1463 3103 1205 2759 
Q 947 2416 947 1791 
Q 947 1169 1205 825 
Q 1463 481 1925 481 
Q 2391 481 2648 825 
Q 2906 1169 2906 1791 
z
M 3481 434 
Q 3481 -459 3084 -895 
Q 2688 -1331 1869 -1331 
Q 1566 -1331 1297 -1286 
Q 1028 -1241 775 -1147 
L 775 -588 
Q 1028 -725 1275 -790 
Q 1522 -856 1778 -856 
Q 2344 -856 2625 -561 
Q 2906 -266 2906 331 
L 2906 616 
Q 2728 306 2450 153 
Q 2172 0 1784 0 
Q 1141 0 747 490 
Q 353 981 353 1791 
Q 353 2603 747 3093 
Q 1141 3584 1784 3584 
Q 2172 3584 2450 3431 
Q 2728 3278 2906 2969 
L 2906 3500 
L 3481 3500 
L 3481 434 
z
" transform="scale(0.015625)"/>
       <path id="DejaVuSans-64" d="M 2906 2969 
L 2906 4863 
L 3481 4863 
L 3481 0 
L 2906 0 
L 2906 525 
Q 2725 213 2448 61 
Q 2172 -91 1784 -91 
Q 1150 -91 751 415 
Q 353 922 353 1747 
Q 353 2572 751 3078 
Q 1150 3584 1784 3584 
Q 2172 3584 2448 3432 
Q 2725 3281 2906 2969 
z
M 947 1747 
Q 947 1113 1208 752 
Q 1469 391 1925 391 
Q 2381 391 2643 752 
Q 2906 1113 2906 1747 
Q 2906 2381 2643 2742 
Q 2381 3103 1925 3103 
Q 1469 3103 1208 2742 
Q 947 2381 947 1747 
z
" transform="scale(0.015625)"/>
      </defs>
      <use xlink:href="#DejaVuSans-54"/>
      <use xlink:href="#DejaVuSans-72" transform="translate(46.333984 0)"/>
      <use xlink:href="#DejaVuSans-61" transform="translate(87.447266 0)"/>
      <use xlink:href="#DejaVuSans-69" transform="translate(148.726562 0)"/>
      <use xlink:href="#DejaVuSans-6e" transform="translate(176.509766 0)"/>
      <use xlink:href="#DejaVuSans-69" transform="translate(239.888672 0)"/>
      <use xlink:href="#DejaVuSans-6e" transform="translate(267.671875 0)"/>
      <use xlink:href="#DejaVuSans-67" transform="translate(331.050781 0)"/>
      <use xlink:href="#DejaVuSans-20" transform="translate(394.527344 0)"/>
      <use xlink:href="#DejaVuSans-64" transform="translate(426.314453 0)"/>
      <use xlink:href="#DejaVuSans-61" transform="translate(489.791016 0)"/>
      <use xlink:href="#DejaVuSans-74" transform="translate(551.070312 0)"/>
      <use xlink:href="#DejaVuSans-61" transform="translate(590.279297 0)"/>
     </g>
    </g>
    <g id="line2d_14">
     <path d="M 66.737 50.124755 
L 75.067 50.124755 
L 83.397 50.124755 
" style="fill: none; stroke: #ff8b50; stroke-width: 1.5; stroke-linecap: square"/>
    </g>
    <g id="text_15">
     <!-- Prediction -->
     <g transform="translate(90.061 53.040255) scale(0.0833 -0.0833)">
      <defs>
       <path id="DejaVuSans-50" d="M 1259 4147 
L 1259 2394 
L 2053 2394 
Q 2494 2394 2734 2622 
Q 2975 2850 2975 3272 
Q 2975 3691 2734 3919 
Q 2494 4147 2053 4147 
L 1259 4147 
z
M 628 4666 
L 2053 4666 
Q 2838 4666 3239 4311 
Q 3641 3956 3641 3272 
Q 3641 2581 3239 2228 
Q 2838 1875 2053 1875 
L 1259 1875 
L 1259 0 
L 628 0 
L 628 4666 
z
" transform="scale(0.015625)"/>
      </defs>
      <use xlink:href="#DejaVuSans-50"/>
      <use xlink:href="#DejaVuSans-72" transform="translate(58.552734 0)"/>
      <use xlink:href="#DejaVuSans-65" transform="translate(97.416016 0)"/>
      <use xlink:href="#DejaVuSans-64" transform="translate(158.939453 0)"/>
      <use xlink:href="#DejaVuSans-69" transform="translate(222.416016 0)"/>
      <use xlink:href="#DejaVuSans-63" transform="translate(250.199219 0)"/>
      <use xlink:href="#DejaVuSans-74" transform="translate(305.179688 0)"/>
      <use xlink:href="#DejaVuSans-69" transform="translate(344.388672 0)"/>
      <use xlink:href="#DejaVuSans-6f" transform="translate(372.171875 0)"/>
      <use xlink:href="#DejaVuSans-6e" transform="translate(433.353516 0)"/>
     </g>
    </g>
    <g id="patch_8">
     <path d="M 66.737 65.267133 
L 83.397 65.267133 
L 83.397 59.436133 
L 66.737 59.436133 
z
" style="fill: #ac69da; fill-opacity: 0.3"/>
    </g>
    <g id="text_16">
     <!-- Unc. -->
     <g transform="translate(90.061 65.267133) scale(0.0833 -0.0833)">
      <defs>
       <path id="DejaVuSans-55" d="M 556 4666 
L 1191 4666 
L 1191 1831 
Q 1191 1081 1462 751 
Q 1734 422 2344 422 
Q 2950 422 3222 751 
Q 3494 1081 3494 1831 
L 3494 4666 
L 4128 4666 
L 4128 1753 
Q 4128 841 3676 375 
Q 3225 -91 2344 -91 
Q 1459 -91 1007 375 
Q 556 841 556 1753 
L 556 4666 
z
" transform="scale(0.015625)"/>
       <path id="DejaVuSans-2e" d="M 684 794 
L 1344 794 
L 1344 0 
L 684 0 
L 684 794 
z
" transform="scale(0.015625)"/>
      </defs>
      <use xlink:href="#DejaVuSans-55"/>
      <use xlink:href="#DejaVuSans-6e" transform="translate(73.193359 0)"/>
      <use xlink:href="#DejaVuSans-63" transform="translate(136.572266 0)"/>
      <use xlink:href="#DejaVuSans-2e" transform="translate(191.552734 0)"/>
     </g>
    </g>
   </g>
  </g>
 </g>
 <defs>
  <clipPath id="p7559afd3b0">
   <rect x="59.24" y="14.76" width="145.96" height="159.28"/>
  </clipPath>
 </defs>
</svg>
